<?xml version="1.0" standalone="no"?>
<!DOCTYPE svg PUBLIC "-//W3C//DTD SVG 1.1//EN" "http://www.w3.org/Graphics/SVG/1.1/DTD/svg11.dtd" >
<svg>
<metadata>
Created by FontForge 20090914 at Mon Mar  7 11:56:51 2016
 By www-data
Converted by ALLTYPE
</metadata>
<defs>
<font id="Century-Schoolbook-Normal" horiz-adv-x="278" >
  <font-face 
    font-family="Century-Schoolbook-Normal"
    font-weight="5"
    font-stretch="normal"
    units-per-em="1000"
    panose-1="0 0 0 0 0 0 0 0 0 0"
    ascent="800"
    descent="-200"
    x-height="459.999"
    cap-height="721.998"
    bbox="-152 -229.998 1000 956.999"
    underline-thickness="50"
    underline-position="-55"
    unicode-range="U+0020-U+F002"
  />
<missing-glyph 
 />
    <glyph glyph-name=".notdef" 
 />
    <glyph glyph-name="space" unicode=" " 
 />
    <glyph glyph-name="space" unicode="&#xa0;" 
 />
    <glyph glyph-name="exclam" unicode="!" horiz-adv-x="296" 
d="M148 117c18 -0.666992 33.5 -7.5 46.5 -20.5s19.5 -28.5 19.5 -46.5s-6.5 -33.333 -19.5 -46s-28.5 -19 -46.5 -19s-33.5 6.33301 -46.5 19s-19.5 28 -19.5 46s6.5 33.5 19.5 46.5s28.5 19.5 46.5 19.5v1zM166 203l-37.0029 0.00195312
c0 7.33301 -0.166992 15.166 -0.5 23.499s-0.833008 16.5 -1.5 24.5c0 12 -0.166992 24.167 -0.5 36.5s-0.833008 24.833 -1.5 37.5l-4 60.5c-1.33301 20.333 -3.66602 40.833 -6.99902 61.5c-1.33301 13.333 -3.33301 26.666 -6 39.999l-8 40l-2 11.5l-2 11.5
c-3.33301 17.333 -6.16602 34.5 -8.49902 51.5s-3.5 34.167 -3.5 51.5c0 25.333 5.66699 45.166 17 59.499s27 21.5 47 21.5c19.333 0 34.833 -7.16699 46.5 -21.5s17.5 -33.5 17.5 -57.5c0 -10.667 -0.833008 -23.667 -2.5 -39s-5.16699 -40.666 -10.5 -75.999l-13.5 -92.5
c-3.66699 -26.333 -6.5 -51.833 -8.5 -76.5c-2.66699 -22 -4.66699 -44.5 -6 -67.5s-2.66602 -49.167 -3.99902 -78.5c0 -4 -0.166992 -7.83301 -0.5 -11.5s-0.5 -7.5 -0.5 -11.5v1z" />
    <glyph glyph-name="quotedbl" unicode="&#x22;" horiz-adv-x="389" 
d="M87 431l-16.998 218.999c-0.666992 5.33301 -1.16699 10.833 -1.5 16.5s-0.5 10.834 -0.5 15.501c0 19.333 3.5 33.666 10.5 42.999s17.167 14 30.5 14c11.333 0 20.5 -3.66699 27.5 -11s10.5 -17.666 10.5 -30.999c0 -4 -0.166992 -9 -0.5 -15s-0.833008 -13 -1.5 -21
l-21 -230c-0.666992 -7.33301 -2.66699 -13 -6 -17s-7.33301 -6 -12 -6s-8.83398 2 -12.501 6s-5.83398 9.33301 -6.50098 16v1zM262.002 430.999l-17.998 219c-0.666992 5.33301 -1 10.833 -1 16.5v15.5c0 19.333 3.33301 33.666 10 42.999s16.667 14 30 14
c12 0 21.5 -3.66699 28.5 -11s10.5 -17.666 10.5 -30.999c0 -4 -0.166992 -9 -0.5 -15s-0.833008 -13 -1.5 -21l-22 -230c-0.666992 -7.33301 -2.5 -13 -5.5 -17s-6.83301 -6 -11.5 -6s-8.83398 2 -12.501 6s-5.83398 9.33301 -6.50098 16v1z" />
    <glyph glyph-name="numbersign" unicode="#" horiz-adv-x="556" 
d="M399 234l-32 -234h-65l34 234h-144l-33 -234h-65l36 234h-116v62h125l20 143h-115v62h126l33 221h61l-32 -221h143l34 221h61l-32 -221h104v-62h-111l-22 -143h106v-62h-116v0zM367 439h-145l-21 -143h144l22 143v0z" />
    <glyph glyph-name="dollar" unicode="$" horiz-adv-x="556" 
d="M295 693v-252.999c1.33301 -1.33301 2.66602 -2.16602 3.99902 -2.49902s3 -0.833008 5 -1.5c56 -17.333 107.667 -41.166 155 -71.499s71 -80.5 71 -150.5c0 -66 -20 -118.5 -60 -157.5s-97 -61.833 -171 -68.5l-4 -1v-67h-35v67l-4 1
c-69.333 4.66699 -125.333 21.5 -168 50.5s-64 64.833 -64 107.5c0 21.333 7.33301 39.666 22 54.999s32.334 23 53.001 23c18 0 33 -5.33301 45 -16s18 -24.334 18 -41.001c0 -8.66699 -2 -16.5 -6 -23.5s-8.33301 -13.167 -13 -18.5c-2 -2.66699 -4 -5.16699 -6 -7.5
s-4 -4.5 -6 -6.5c-2 -2.66699 -3.66699 -5.5 -5 -8.5s-2 -6.16699 -2 -9.5c0 -13.333 7.5 -24 22.5 -32s31.5 -14.333 49.5 -19c12.667 -2.66699 25 -4.66699 37 -6s21 -2 27 -2v288l-13 5c-2 0 -4.16699 0.333008 -6.5 1s-4.83301 1.33398 -7.5 2.00098
c-47.333 14.667 -91 37.334 -131 68.001s-60 74 -60 130c0 53.333 21.5 100.5 64.5 141.5s94.167 62.833 153.5 65.5v69h35v-68c61.333 -1.33301 113.666 -16 156.999 -44s65 -61.667 65 -101c0 -20.667 -6.33301 -37.834 -19 -51.501s-29 -20.5 -49 -20.5
c-18.667 0 -34.834 5.66699 -48.501 17s-20.5 25.333 -20.5 42c0 5.33301 1 10.5 3 15.5s5.33301 9.83301 10 14.5c1.33301 2 2.83301 3.83301 4.5 5.5s3.5 3.16699 5.5 4.5c4 3.33301 7.33301 6.33301 10 9s4.33398 5 5.00098 7c0 1.33301 0.166992 2.5 0.5 3.5
s0.5 1.83301 0.5 2.5c0 11.333 -7 20.666 -21 27.999s-29.333 12.666 -46 15.999c-11.333 2.66699 -22.166 4.66699 -32.499 6s-18.5 2 -24.5 2v1zM295 310.001l-0.00195312 -272.999c47.333 4.66699 83.833 18.5 109.5 41.5s38.5 52.833 38.5 89.5
c0 37.333 -13.333 66.666 -40 87.999s-56 37 -88 47c-3.33301 1.33301 -6.66602 2.5 -9.99902 3.5s-6.66602 1.83301 -9.99902 2.5v1zM259.998 452.002l-0.00292969 239.001c-39.333 -2.66699 -71.333 -14.834 -96 -36.501s-37 -48.5 -37 -80.5
c0 -30 8.33301 -53.5 25 -70.5s47.334 -32.833 92.001 -47.5c2.66699 -0.666992 5.33398 -1.5 8.00098 -2.5s5.33398 -1.83301 8.00098 -2.5v1z" />
    <glyph glyph-name="percent" unicode="%" horiz-adv-x="833" 
d="M670 420c44.667 -0.666992 81.667 -20.999 111 -60.999s44 -90.667 44 -152s-15.333 -112.5 -46 -153.5s-68.667 -61.5 -114 -61.5c-44 0 -81 20.167 -111 60.5s-45 90.166 -45 149.499c0 60.667 15.667 112 47 154s69.333 63 114 63v1zM670 390.001
c-29.333 -0.666992 -51.834 -17.668 -67.501 -51.001s-23.5 -81.666 -23.5 -144.999c0 -60.667 6.83301 -104.667 20.5 -132s35.834 -41 66.501 -41c30 0 52.333 16.5 67 49.5s22 83.5 22 151.5c0 57.333 -6.83301 99.5 -20.5 126.5s-35.167 40.5 -64.5 40.5v1zM180.999 0
l421 681h53l-421 -681h-53v0zM169.999 695c44.667 -0.666992 81.666 -21.002 110.999 -61.002s44 -90.333 44 -151c0 -61.333 -15.333 -112.666 -46 -153.999s-68.667 -62 -114 -62c-43.333 0 -80.166 20.333 -110.499 61s-45.5 90.334 -45.5 149.001
c0 61.333 15.667 112.833 47 154.5s69.333 62.5 114 62.5v1zM169.998 664.998c-29.333 -0.666992 -51.834 -17.667 -67.501 -51s-23.5 -81.333 -23.5 -144c0 -60.667 6.83301 -104.667 20.5 -132s35.834 -41 66.501 -41c30 0 52.333 16.5 67 49.5s22 83.167 22 150.5
c0 57.333 -6.83301 99.5 -20.5 126.5s-35.167 40.5 -64.5 40.5v1z" />
    <glyph glyph-name="ampersand" unicode="&#x26;" horiz-adv-x="815" 
d="M780 408l0.00195312 -40.999c-28 -3.33301 -49.667 -7.66602 -65 -12.999s-29 -15.333 -41 -30c-5.33301 -6 -10.333 -12.667 -15 -20l-16 -26l-5.5 -9.5l-5.5 -9.5l-40 -65c-13.333 -21.333 -28 -42 -44 -62c20.667 -22.667 40.667 -39.667 60 -51s38.333 -17 57 -17
c23.333 0 41.666 6.33301 54.999 19s25.333 36 36 70c0.666992 2 1.5 4.33301 2.5 7s1.83301 5.33398 2.5 8.00098l40 1c-10 -48.667 -27.833 -91.167 -53.5 -127.5s-66.834 -54.5 -123.501 -54.5c-16.667 0 -32.167 1.66699 -46.5 5s-28.5 8 -42.5 14
c-11.333 6 -22.666 13.167 -33.999 21.5s-23.333 18.166 -36 29.499c-13.333 -9.33301 -26.5 -17.833 -39.5 -25.5s-25.833 -14.167 -38.5 -19.5c-20.667 -8.66699 -41.667 -15 -63 -19s-44.666 -6 -69.999 -6c-62.667 0 -115.834 19.167 -159.501 57.5
s-65.5 85.5 -65.5 141.5s18.667 100.667 56 134s78.333 61 123 83l4 2l4 2c-14.667 32.667 -25.334 58.5 -32.001 77.5s-11 36.833 -13 53.5c0 4 -0.166992 8 -0.5 12s-0.5 8 -0.5 12c0 49.333 18 90.333 54 123s81.333 49 136 49c49.333 0 89 -12.333 119 -37
s45 -56.667 45 -96c0 -40 -13.667 -72.5 -41 -97.5s-57.333 -45.833 -90 -62.5c-8.66699 -4.66699 -17 -8.83398 -25 -12.501l-24 -11.5c25.333 -44.667 51.666 -87.834 78.999 -129.501s58.333 -81.5 93 -119.5l12.5 18l13.5 19c10.667 15.333 20.667 31.5 30 48.5
s14 34.833 14 53.5c0 19.333 -7.16699 33 -21.5 41s-42.166 14 -83.499 18v42h299v0zM432.002 93.001c-37.333 42 -72.165 85.832 -104.498 131.499s-62.5 92.834 -90.5 141.501c-30.667 -14.667 -53.5 -32 -68.5 -52s-22.5 -43.667 -22.5 -71
c0 -50.667 17.5 -95.334 52.5 -134.001s75.5 -58 121.5 -58c5.33301 0 10.666 0.333008 15.999 1s10.333 1.33398 15 2.00098c13.333 2.66699 26.666 7.16699 39.999 13.5s27 14.5 41 24.5v1zM323.003 456c42.667 18 72.666 37.5 89.999 58.5s26 47.833 26 80.5
c0 30 -7.66699 54 -23 72s-36 27 -62 27c-25.333 0 -45.666 -7.5 -60.999 -22.5s-23 -34.833 -23 -59.5c0 -21.333 4.16699 -44.5 12.5 -69.5s21.833 -54.167 40.5 -87.5v1z" />
    <glyph glyph-name="quotesingle" unicode="'" horiz-adv-x="204" 
d="M82 431l-17.998 219.001c-0.666992 5.33301 -1 10.833 -1 16.5v15.5c0 19.333 3.5 33.666 10.5 42.999s17.167 14 30.5 14c12 0 21.333 -3.83301 28 -11.5s10 -18.167 10 -31.5c0 -4 -0.166992 -9 -0.5 -15s-0.833008 -12.667 -1.5 -20l-21 -230
c-0.666992 -7.33301 -2.66699 -13 -6 -17s-7.33301 -6 -12 -6s-8.83398 2 -12.501 6s-5.83398 9.33301 -6.50098 16v1z" />
    <glyph glyph-name="parenleft" unicode="(" horiz-adv-x="333" 
d="M317 750l16.001 -17c-68 -40 -116.5 -94.167 -145.5 -162.5s-46.167 -139.833 -51.5 -214.5c-0.666992 -10 -1.16699 -19.833 -1.5 -29.5s-0.5 -19.5 -0.5 -29.5c0 -89.333 13.833 -173.833 41.5 -253.5s80.167 -145.834 157.5 -198.501l-16 -17
c-10 5.33301 -21.333 12.333 -34 21s-25.334 18 -38.001 28c-10 8 -19.667 16.167 -29 24.5s-18.333 16.833 -27 25.5c-52.667 49.333 -91.667 104.333 -117 165s-38 127.334 -38 200.001c0 101.333 25.5 190.833 76.5 268.5s119.833 140.5 206.5 188.5v1z" />
    <glyph glyph-name="parenright" unicode=")" horiz-adv-x="333" 
d="M16 750c87.333 -48.667 156.336 -111.83 207.003 -189.497s76 -167.167 76 -268.5c0 -63.333 -8.5 -120 -25.5 -170s-44.167 -97.333 -81.5 -142c-2.66699 -3.33301 -5.33398 -6.5 -8.00098 -9.5s-5.33398 -6.16699 -8.00098 -9.5
c-12.667 -14.667 -26.334 -28.834 -41.001 -42.501l-44 -39.5l-39 -28.5c-12.667 -9 -24.667 -16.5 -36 -22.5l-16 17c78.667 54 131.5 120.167 158.5 198.5s40.5 162.833 40.5 253.5c0 9.33301 -0.166992 18.666 -0.5 27.999s-0.833008 18.666 -1.5 27.999
c-4.66699 74.667 -21.5 146.5 -50.5 215.5s-77.833 123.5 -146.5 163.5l16 18v0z" />
    <glyph glyph-name="asterisk" unicode="*" horiz-adv-x="500" 
d="M273 572c6.66699 -2 15.168 -3.83008 25.501 -5.49707s20.833 -3.83398 31.5 -6.50098c18 -4 34.333 -9.66699 49 -17s22 -17.666 22 -30.999c0 -10.667 -3.33301 -20.167 -10 -28.5s-14.667 -12.5 -24 -12.5c-6 0 -13.833 3.16699 -23.5 9.5s-19.5 13.833 -29.5 22.5
c-2 2 -4 3.83301 -6 5.5s-4 3.5 -6 5.5c-9.33301 8 -17.833 15.667 -25.5 23s-13.834 12.666 -18.501 15.999c1.33301 -6 3.16602 -12.333 5.49902 -19s4.5 -13.667 6.5 -21c1.33301 -2.66699 2.33301 -5.5 3 -8.5s1.33398 -5.83301 2.00098 -8.5
c3.33301 -10.667 6.16602 -21.167 8.49902 -31.5s3.5 -19.5 3.5 -27.5c0 -8.66699 -3.33301 -16 -10 -22s-15.334 -9 -26.001 -9c-11.333 0 -20.5 2.83301 -27.5 8.5s-10.5 12.834 -10.5 21.501s1 17.667 3 27s4.33301 19 7 29l4 12c1.33301 4 2.33301 8.33301 3 13
c2.66699 6 5 12.167 7 18.5s3.66699 12.166 5 17.499c-3.33301 -2.66699 -9.16602 -7.83398 -17.499 -15.501l-27.5 -24.5c-2 -1.33301 -3.83301 -2.66602 -5.5 -3.99902s-3.16699 -2.66602 -4.5 -3.99902c-10.667 -9.33301 -21 -17.333 -31 -24s-17.333 -10 -22 -10
c-8.66699 0 -16.667 4.16699 -24 12.5s-11 17.833 -11 28.5c0 13.333 7.33301 23.666 22 30.999s31 13 49 17c10 2.66699 19.833 4.66699 29.5 6s17.834 2.66602 24.501 3.99902c0.666992 0.666992 1.16699 1 1.5 1h1.5h-1.5c-0.333008 0 -0.833008 0.333008 -1.5 1
c-6.66699 0.666992 -14.834 1.83398 -24.501 3.50098l-30.5 5.5c-17.333 4 -33.333 9.5 -48 16.5s-22 17.5 -22 31.5c0 11.333 3.66699 21.166 11 29.499s15.333 12.5 24 12.5c6 0 14.167 -3.66699 24.5 -11s21.166 -16 32.499 -26c2 -2 4 -3.83301 6 -5.5
s4 -3.16699 6 -4.5l21 -20.5l18 -16.5c-1.33301 6 -3.16602 12.333 -5.49902 19s-4.5 13.667 -6.5 21c-1.33301 3.33301 -2.5 6.5 -3.5 9.5s-1.83301 6.16699 -2.5 9.5c-2.66699 10 -5.16699 20.167 -7.5 30.5s-3.5 19.5 -3.5 27.5c0 9.33301 3.33301 16.666 10 21.999
s15.334 8 26.001 8c11.333 0 20.5 -2.66699 27.5 -8s10.5 -12.333 10.5 -21s-1 -17.834 -3 -27.501s-4.33301 -19.5 -7 -29.5l-4 -12c-1.33301 -4 -2.33301 -8 -3 -12c-2.66699 -6.66699 -5 -13.167 -7 -19.5s-3.66699 -12.166 -5 -17.499l70 61
c1.33301 0.666992 2.83301 1.66699 4.5 3s3.5 3 5.5 5c4 3.33301 8.33301 6.66602 13 9.99902s9.66699 5 15 5c9.33301 0 17.5 -4.16699 24.5 -12.5s10.5 -18.166 10.5 -29.499c0 -14 -7.5 -24.667 -22.5 -32s-31.5 -13 -49.5 -17c-10 -2 -19.667 -3.66699 -29 -5
s-17.333 -2.33301 -24 -3c-0.666992 -0.666992 -1.16699 -1 -1.5 -1h-1.5v1z" />
    <glyph glyph-name="plus" unicode="+" horiz-adv-x="606" 
d="M262 404v228h82v-228h207v-81h-207v-233h-82v233h-208v81h208v0z" />
    <glyph glyph-name="comma" unicode="," 
d="M54 -167l-16.001 31c18 10 34 20.167 48 30.5s25.667 20.833 35 31.5c10 10.667 17.5 21.167 22.5 31.5s7.5 20.5 7.5 30.5c0 4.66699 -2.16699 7.66699 -6.5 9s-9.5 2.33301 -15.5 3c-2.66699 0 -5.16699 0.166992 -7.5 0.5s-5.16602 0.833008 -8.49902 1.5
c-9.33301 2 -17.833 6.33301 -25.5 13s-11.5 19.334 -11.5 38.001c0 17.333 6.16699 32.166 18.5 44.499s27.5 18.5 45.5 18.5c20.667 0 37.667 -8.16699 51 -24.5s20 -36.833 20 -61.5c0 -42 -14 -78 -42 -108s-59 -55.333 -93 -76c-4 -2 -7.83301 -4.16699 -11.5 -6.5
l-10.5 -6.5v0z" />
    <glyph glyph-name="hyphen" unicode="-" horiz-adv-x="333" 
d="M274 282v-73h-216v73h216v0z" />
    <glyph glyph-name="period" unicode="." 
d="M139 115c18 -0.666992 33.333 -7.33301 46 -20s19 -28 19 -46s-6.33301 -33.167 -19 -45.5s-28 -18.5 -46 -18.5s-33.333 6.16699 -46 18.5s-19 27.5 -19 45.5s6.33301 33.333 19 46s28 19 46 19v1z" />
    <glyph glyph-name="slash" unicode="/" 
d="M345 722l-399 -866h-79l399 866h79v0z" />
    <glyph glyph-name="zero" unicode="0" horiz-adv-x="556" 
d="M283 735c71.333 -0.666992 130.5 -36 177.5 -106s70.5 -158.333 70.5 -265c0 -107.333 -24.333 -197 -73 -269s-109.667 -108 -183 -108c-70 0 -129.167 35.5 -177.5 106.5s-72.5 158.167 -72.5 261.5c0 106 25 195.667 75 269s111 110 183 110v1zM284 690
c-50 -0.666992 -88.166 -30.834 -114.499 -90.501s-39.5 -146.167 -39.5 -259.5c0 -17.333 0.166992 -37 0.5 -59s2.16602 -44.667 5.49902 -68c5.33301 -45.333 17.833 -87 37.5 -125s53.834 -57 102.501 -57c51.333 0 89.166 29.333 113.499 88s36.5 148.334 36.5 269.001
c0 102.667 -11.5 178.5 -34.5 227.5s-58.833 73.5 -107.5 73.5v1z" />
    <glyph glyph-name="one" unicode="1" horiz-adv-x="556" 
d="M332 711c1.33301 -8.66699 2.33398 -15.833 3.00098 -21.5s1 -10.167 1 -13.5c0 -17.333 -0.166992 -34.5 -0.5 -51.5s-0.833008 -34.167 -1.5 -51.5s-1.16699 -34.5 -1.5 -51.5s-0.5 -34.167 -0.5 -51.5v-319v-46c0 -30.667 3.83301 -49 11.5 -55s29.834 -9 66.501 -9
l60 1v-42h-361v42h58c38.667 -0.666992 61.667 2 69 8s11 24 11 54v47v397c0 24 -2.83301 38.167 -8.5 42.5s-20.167 6.5 -43.5 6.5l-98 1v38c39.333 2.66699 77.166 9.66699 113.499 21s70.166 29 101.499 53l20 1v0z" />
    <glyph glyph-name="two" unicode="2" horiz-adv-x="556" 
d="M520 222c-2.66699 -37.333 -4.50195 -74.4932 -5.50195 -111.493s-1.83301 -73.833 -2.5 -110.5h-483v25l91 109c30.667 36 62.667 71.333 96 106l28.5 29.5l29.5 31.5c34 35.333 64.833 74 92.5 116s41.5 87 41.5 135c0 41.333 -13 74.5 -39 99.5
s-60.667 37.5 -104 37.5c-41.333 0 -78.666 -10.5 -111.999 -31.5s-50 -45.167 -50 -72.5c0 -10.667 3.5 -17.834 10.5 -21.501s14.833 -6.83398 23.5 -9.50098c2 -0.666992 3.83301 -1.16699 5.5 -1.5s3.5 -0.833008 5.5 -1.5c10.667 -2.66699 20.667 -7.83398 30 -15.501
s14 -21.834 14 -42.501c0 -18.667 -6.16699 -34.667 -18.5 -48s-27.833 -20 -46.5 -20c-24.667 0 -44.834 10.667 -60.501 32s-23.5 48.333 -23.5 81c0 56.667 22.333 103.5 67 140.5s101 55.5 169 55.5c68.667 0 124.834 -18.333 168.501 -55s65.5 -83.667 65.5 -141
c0 -54 -16.5 -100.333 -49.5 -139s-69.167 -74 -108.5 -106l-20.5 -16l-20.5 -16c-33.333 -26.667 -66.166 -54.667 -98.499 -84l-95.5 -88l248 1c43.333 -0.666992 70.833 5.66602 82.5 18.999s20.167 37.666 25.5 72.999c1.33301 6 2.33301 12.167 3 18.5
s1.66699 13.166 3 20.499l38 1v0z" />
    <glyph glyph-name="three" unicode="3" horiz-adv-x="556" 
d="M340 385c26.667 -4 47.833 -8.33496 63.5 -13.002s30.167 -11.667 43.5 -21c2 -2 4.16699 -3.83301 6.5 -5.5s4.5 -3.5 6.5 -5.5c20.667 -17.333 36.5 -38.166 47.5 -62.499s16.5 -50.833 16.5 -79.5c0 -63.333 -23.833 -114.333 -71.5 -153s-110.167 -58 -187.5 -58
c-64.667 0 -117.167 16 -157.5 48s-60.5 74 -60.5 126c0 27.333 6.5 49.333 19.5 66s29.833 25 50.5 25c17.333 0 32.166 -6.16699 44.499 -18.5s18.5 -27.166 18.5 -44.499c0 -14 -3.33301 -24.667 -10 -32s-13.667 -13.666 -21 -18.999c-2 -1.33301 -4 -2.5 -6 -3.5
s-4 -2.16699 -6 -3.5c-5.33301 -3.33301 -10 -7 -14 -11s-6 -9 -6 -15c0 -20 14.167 -37.333 42.5 -52s61.833 -22 100.5 -22c53.333 0 93.833 13.167 121.5 39.5s41.5 65.166 41.5 116.499c0 55.333 -12.667 97.833 -38 127.5s-61 44.5 -107 44.5
c-6.66699 0 -13.167 -0.5 -19.5 -1.5s-12.833 -1.83301 -19.5 -2.5c-6.66699 -1.33301 -13.167 -2.5 -19.5 -3.5s-12.833 -1.5 -19.5 -1.5c-8.66699 0 -15.667 2.66699 -21 8s-8 12.333 -8 21c0 9.33301 2.83301 16.166 8.5 20.499s14.167 6.5 25.5 6.5
c6 0 12 -0.333008 18 -1l18 -2c6 -1.33301 12 -2.33301 18 -3s12 -1 18 -1c40 0 71 13.333 93 40s33 64.334 33 113.001c0 43.333 -11.667 77 -35 101s-56 36 -98 36c-6 0 -14.333 -0.833008 -25 -2.5s-22 -4.16699 -34 -7.5c-16.667 -4.66699 -32 -11.5 -46 -20.5
s-21 -20.167 -21 -33.5c0 -4 1 -7.5 3 -10.5s4.66699 -6.16699 8 -9.5c2 -1.33301 3.83301 -2.83301 5.5 -4.5s3.83398 -3.5 6.50098 -5.5c5.33301 -5.33301 10.333 -11.333 15 -18s7 -15.334 7 -26.001c0 -16 -5.83301 -29.833 -17.5 -41.5s-25.167 -17.5 -40.5 -17.5
c-17.333 0 -32 7.33301 -44 22s-18 32.667 -18 54c0 47.333 21.5 86.833 64.5 118.5s95.833 47.5 158.5 47.5c60.667 0 110 -16.333 148 -49s57 -74.667 57 -126c0 -50.667 -14.667 -89.667 -44 -117s-67 -46.666 -113 -57.999v1z" />
    <glyph glyph-name="four" unicode="4" horiz-adv-x="556" 
d="M393 237l132.003 -0.000976562v-50h-132v-81c0 -30 4.66699 -48.167 14 -54.5s34.666 -9.5 75.999 -9.5l10 1v-43h-300v43h25c43.333 -0.666992 69.166 1.83301 77.499 7.5s12.5 23.834 12.5 54.501v82h-294v50l347 474h40c-2.66699 -28 -4.33398 -55.833 -5.00098 -83.5
l-2 -82.5v-14v-14v-11.5v-11.5c-0.666992 -4 -1 -7.83301 -1 -11.5v-11.5v-234v0zM308.003 236.999v326l-239 -326h239v0z" />
    <glyph glyph-name="five" unicode="5" horiz-adv-x="556" 
d="M144 615l-14.9971 -199.999c6.66699 4.66699 13.167 9 19.5 13s12.833 7.66699 19.5 11c16 8.66699 32.333 14.834 49 18.501s35.667 5.5 57 5.5c69.333 0 126.333 -21 171 -63s67 -96 67 -162c0 -72.667 -25.333 -132.667 -76 -180s-114.667 -71 -192 -71
c-56.667 0 -104.334 16.167 -143.001 48.5s-58 72.5 -58 120.5c0 25.333 6.5 46.666 19.5 63.999s29.167 26 48.5 26c17.333 0 31.833 -6 43.5 -18s17.5 -27 17.5 -45c0 -14.667 -3 -25.834 -9 -33.501s-12.667 -13.834 -20 -18.501l-7 -3.5
c-2 -1 -3.66699 -2.16699 -5 -3.5c-5.33301 -2.66699 -9.66602 -5.66699 -12.999 -9s-5 -7.66602 -5 -12.999c0 -18.667 13.667 -36 41 -52s57.666 -24 90.999 -24c53.333 0 94.5 17.667 123.5 53s43.5 84.333 43.5 147c0 61.333 -13.333 108.666 -40 141.999
s-64 50 -112 50c-7.33301 0 -14.5 -0.333008 -21.5 -1s-14.167 -1.66699 -21.5 -3c-13.333 -3.33301 -26.833 -8 -40.5 -14s-29.5 -14.333 -47.5 -25c-2.66699 -23.333 -7 -39.5 -13 -48.5s-14.667 -13.5 -26 -13.5c-7.33301 0 -13.166 2.16699 -17.499 6.5
s-6.5 9.83301 -6.5 16.5c0 6 1.33301 12 4 18l8 18c2 3.33301 3.83301 6.83301 5.5 10.5s3.16699 7.16699 4.5 10.5l24 329c36 -8 65.5 -13.833 88.5 -17.5s44.5 -6.16699 64.5 -7.5c13.333 -1.33301 26.833 -2.16602 40.5 -2.49902s28.834 -0.5 45.501 -0.5h11
c3.33301 0 6.66602 0.333008 9.99902 1c14 0.666992 28.667 3 44 7s36.333 10.333 63 19c-10.667 -40 -31.167 -70.333 -61.5 -91s-69.833 -31 -118.5 -31h-20c-6.66699 0 -13.334 0.333008 -20.001 1c-20.667 0.666992 -40.834 2.16699 -60.501 4.5
s-37.834 5.5 -54.501 9.5v1z" />
    <glyph glyph-name="six" unicode="6" horiz-adv-x="556" 
d="M122 318c20.667 40 45.832 71.8369 75.499 95.5039s68.5 35.5 116.5 35.5c61.333 0 112.166 -20.333 152.499 -61s60.5 -91.667 60.5 -153c0 -70 -23.333 -128.833 -70 -176.5s-104.334 -71.5 -173.001 -71.5c-78.667 0 -141.667 32.167 -189 96.5
s-71 150.166 -71 257.499c0 114.667 28.333 208.834 85 282.501s129.334 110.5 218.001 110.5c51.333 0 92.666 -11.167 123.999 -33.5s47 -51.833 47 -88.5c0 -22.667 -6.16699 -41.167 -18.5 -55.5s-28.166 -21.5 -47.499 -21.5c-17.333 0 -32.166 6.16699 -44.499 18.5
s-18.5 27.166 -18.5 44.499v4.5c0 1.66699 0.333008 3.5 1 5.5c0.666992 4 1.5 8 2.5 12s2.5 7.33301 4.5 10c0.666992 1.33301 1.5 2.66602 2.5 3.99902s2.16699 2.66602 3.5 3.99902c1.33301 2.66699 2.83301 5.33398 4.5 8.00098s2.83398 5.33398 3.50098 8.00098
c0.666992 1.33301 1.16699 2.66602 1.5 3.99902s0.5 2.66602 0.5 3.99902c0 9.33301 -6.66699 17 -20 23s-29.666 9 -48.999 9c-62.667 0 -107.5 -23.833 -134.5 -71.5s-44.833 -99.834 -53.5 -156.501c-4.66699 -27.333 -7.83398 -53.833 -9.50098 -79.5l-4.5 -69.5v1z
M285.998 390.004c-44.667 -0.666992 -80.334 -16.332 -107.001 -46.999s-40 -71.334 -40 -122.001c0 -58 13.667 -105 41 -141s63 -54 107 -54c42.667 0 75.834 16.667 99.501 50s35.5 79.333 35.5 138c0 56 -11.833 99.167 -35.5 129.5s-57.167 45.5 -100.5 45.5v1z" />
    <glyph glyph-name="seven" unicode="7" horiz-adv-x="556" 
d="M509 713l-0.00195312 -38l-20 -43.5l-20 -42.5c-33.333 -69.333 -63.666 -140 -90.999 -212s-41 -146.333 -41 -223v-53c0 -40 -4.83301 -69 -14.5 -87s-25.167 -27 -46.5 -27c-16 0 -29.333 6.33301 -40 19s-16 28.334 -16 47.001c0 36 8.33301 78.667 25 128
s36.334 99.666 59.001 150.999l20.5 45l21.5 44l54.5 110.5c17.667 35 32.5 65.5 44.5 91.5l-237 1c-42.667 -0.666992 -70.5 -8 -83.5 -22s-22.833 -36 -29.5 -66l-6.5 -28.5l-7.5 -33.5l-34 1l34 247c6 -1.33301 12 -2.5 18 -3.5s12 -1.83301 18 -2.5
c23.333 -3.33301 47.833 -5.5 73.5 -6.5s56.167 -1.5 91.5 -1.5c19.333 0 38.333 0.166992 57 0.5s37.667 0.833008 57 1.5c18.667 0.666992 37.5 1.16699 56.5 1.5s37.833 0.5 56.5 0.5v1z" />
    <glyph glyph-name="eight" unicode="8" horiz-adv-x="556" 
d="M368 412c51.333 -17.333 89.3311 -42.332 113.998 -74.999s37 -74 37 -124c0 -68.667 -22.667 -123.5 -68 -164.5s-105.666 -61.5 -180.999 -61.5s-135.333 16.833 -180 50.5s-67 79.5 -67 137.5c0 45.333 13.167 83.166 39.5 113.499s66.5 53.5 120.5 69.5
c-39.333 18 -70.5 41.5 -93.5 70.5s-34.5 65.833 -34.5 110.5c0 59.333 20.333 106.666 61 141.999s94.334 53 161.001 53c64 0 115 -14.5 153 -43.5s57 -68.167 57 -117.5c0 -38 -11.167 -71.167 -33.5 -99.5s-50.833 -49.166 -85.5 -62.499v1zM220.998 343.001
c-40.667 -18 -70.5 -39.999 -89.5 -65.999s-28.5 -58.333 -28.5 -97c0 -48.667 15 -86.5 45 -113.5s72.333 -40.5 127 -40.5c51.333 0 93.166 13.167 125.499 39.5s48.5 60.166 48.5 101.499c0 44 -15.667 77 -47 99s-65.666 39.333 -102.999 52l-37.5 11.5l-34.5 10.5
c-1.33301 0.666992 -2.5 1.16699 -3.5 1.5s-1.83301 0.5 -2.5 0.5v1zM329.998 426.002c30 14 52.833 32.168 68.5 54.501s23.5 48.166 23.5 77.499c0 43.333 -13 76.833 -39 100.5s-62.667 35.5 -110 35.5c-44 0 -80.5 -11.167 -109.5 -33.5s-43.5 -50.166 -43.5 -83.499
c0 -35.333 13.667 -62.833 41 -82.5s57.333 -34.834 90 -45.501c14 -5.33301 27.833 -9.83301 41.5 -13.5s26.167 -7.16699 37.5 -10.5v1z" />
    <glyph glyph-name="nine" unicode="9" horiz-adv-x="556" 
d="M426 393c-20.667 -38 -45.8291 -67.501 -75.4961 -88.501s-66.834 -31.5 -111.501 -31.5c-62 0 -113.167 20.167 -153.5 60.5s-60.5 91.833 -60.5 154.5c0 69.333 23.5 127.666 70.5 174.999s104.833 71 173.5 71c79.333 0 142.166 -31 188.499 -93
s69.5 -145.667 69.5 -251c0 -118.667 -28.5 -215.5 -85.5 -290.5s-130.833 -112.5 -221.5 -112.5c-50.667 0 -92 11.333 -124 34s-48 52.334 -48 89.001c0 22.667 6 41 18 55s27.667 21 47 21c18 0 33.167 -5.83301 45.5 -17.5s18.5 -26.167 18.5 -43.5
c0 -8 -1.5 -15 -4.5 -21s-6.16699 -11.667 -9.5 -17c-2 -2 -3.83301 -4.16699 -5.5 -6.5l-4.5 -6.5c-1.33301 -2.66699 -2.5 -5.16699 -3.5 -7.5s-1.5 -4.83301 -1.5 -7.5c0 -9.33301 7.16699 -17.166 21.5 -23.499s32.166 -9.5 53.499 -9.5
c61.333 0 106.166 23.333 134.499 70s47.5 98.334 57.5 155.001c4 25.333 6.83301 50.166 8.5 74.499s2.5 46.5 2.5 66.5v1zM265.005 694.999c-42.667 -0.666992 -76.667 -18.833 -102 -54.5s-38 -83.5 -38 -143.5c0 -52.667 12.667 -94 38 -124s60.333 -45 105 -45
c43.333 0 78.666 15.833 105.999 47.5s41 72.5 41 122.5c0 58.667 -13.667 106 -41 142s-63.666 54 -108.999 54v1z" />
    <glyph glyph-name="colon" unicode=":" 
d="M139 115c18 -0.666992 33.333 -7.33301 46 -20s19 -28 19 -46s-6.33301 -33.167 -19 -45.5s-28 -18.5 -46 -18.5s-33.333 6.16699 -46 18.5s-19 27.5 -19 45.5s6.33301 33.333 19 46s28 19 46 19v1zM139 471.001c18 -0.666992 33.333 -7.33301 46 -20s19 -28 19 -46
c0 -17.333 -6.33301 -32.5 -19 -45.5s-28 -19.5 -46 -19.5s-33.333 6.5 -46 19.5s-19 28.167 -19 45.5c0 18 6.33301 33.333 19 46s28 19 46 19v1z" />
    <glyph glyph-name="semicolon" unicode=";" 
d="M54 -167l-16.001 31c18 10 34 20.167 48 30.5s25.667 20.833 35 31.5c10 10.667 17.5 21.167 22.5 31.5s7.5 20.5 7.5 30.5c0 4.66699 -2.16699 7.66699 -6.5 9s-9.5 2.33301 -15.5 3c-2.66699 0 -5.16699 0.166992 -7.5 0.5s-5.16602 0.833008 -8.49902 1.5
c-9.33301 2 -17.833 6.33301 -25.5 13s-11.5 19.334 -11.5 38.001c0 17.333 6.16699 32.166 18.5 44.499s27.5 18.5 45.5 18.5c20.667 0 37.667 -8.16699 51 -24.5s20 -36.833 20 -61.5c0 -42 -14 -78 -42 -108s-59 -55.333 -93 -76c-4 -2 -7.83301 -4.16699 -11.5 -6.5
l-10.5 -6.5v0zM139.999 482c18 -0.666992 33.333 -7.33301 46 -20s19 -28 19 -46s-6.33301 -33.333 -19 -46s-28 -19 -46 -19s-33.333 6.33301 -46 19s-19 28 -19 46s6.33301 33.333 19 46s28 19 46 19v1z" />
    <glyph glyph-name="less" unicode="&#x3c;" horiz-adv-x="606" 
d="M555 154v-77l-503 248v69l503 249v-78l-408 -206l408 -205v0z" />
    <glyph glyph-name="equal" unicode="=" horiz-adv-x="606" 
d="M551 293v-80h-497v80h497v0zM551 502v-80h-497v80h497v0z" />
    <glyph glyph-name="greater" unicode="&#x3e;" horiz-adv-x="606" 
d="M53 154l405 205l-405 206v78l499 -249v-69l-499 -248v77v0z" />
    <glyph glyph-name="question" unicode="?" horiz-adv-x="444" 
d="M199 116c18 -0.666992 33.332 -7.33203 45.999 -19.999s19 -28.334 19 -47.001c0 -18 -6.33301 -33.167 -19 -45.5s-28 -18.5 -46 -18.5s-33.5 6.16699 -46.5 18.5s-19.5 27.833 -19.5 46.5c0 18 6.33301 33.333 19 46s28.334 19 47.001 19v1zM217.999 203.002
l-37.999 0.000976562c0 45.333 6.66699 83.333 20 114s28.333 58.334 45 83.001c4 6.66699 8 13 12 19s8 12.333 12 19c11.333 17.333 20.833 35.166 28.5 53.499s11.5 39.166 11.5 62.499c0 41.333 -10.333 74.166 -31 98.499s-48.667 36.5 -84 36.5
c-4.66699 0 -10 -0.5 -16 -1.5s-12.333 -2.5 -19 -4.5c-13.333 -4 -25.833 -10.5 -37.5 -19.5s-17.5 -20.5 -17.5 -34.5c0 -5.33301 1.66699 -9.83301 5 -13.5s7 -7.16699 11 -10.5c2 -1.33301 3.83301 -2.66602 5.5 -3.99902s3.16699 -2.66602 4.5 -3.99902
c6.66699 -4.66699 12.667 -10.334 18 -17.001s8 -15.667 8 -27c0 -14.667 -5.83301 -27.5 -17.5 -38.5s-25.5 -16.5 -41.5 -16.5c-20 0 -36.333 7.83301 -49 23.5s-19 35.834 -19 60.501c0 43.333 17.833 79.5 53.5 108.5s80.167 43.5 133.5 43.5
c57.333 0 103.833 -16.833 139.5 -50.5s53.5 -77.167 53.5 -130.5c0 -24 -4.33301 -46.167 -13 -66.5s-22.334 -40.166 -41.001 -59.499c-15.333 -16.667 -29.5 -30.834 -42.5 -42.501s-24.5 -22.834 -34.5 -33.501c-16.667 -17.333 -30.167 -36.5 -40.5 -57.5
s-16.833 -51.5 -19.5 -91.5v1z" />
    <glyph glyph-name="at" unicode="@" horiz-adv-x="737" 
d="M665 188l52.002 0.00683594c-6 -12 -11.833 -22.5 -17.5 -31.5s-11.167 -17.167 -16.5 -24.5c-6 -8.66699 -12.167 -16.667 -18.5 -24s-13.166 -14.333 -20.499 -21l-15 -13c-5.33301 -4.66699 -11.333 -9.33398 -18 -14.001c-33.333 -24.667 -67.833 -43 -103.5 -55
s-73.167 -18 -112.5 -18c-109.333 0 -200.5 35 -273.5 105s-109.5 158 -109.5 264s36.167 195.5 108.5 268.5s161.166 109.5 266.499 109.5c85.333 0 163 -26.833 233 -80.5s105 -126.167 105 -217.5c0 -46.667 -8 -88.5 -24 -125.5s-40.667 -69.5 -74 -97.5
c-8 -7.33301 -16.5 -14 -25.5 -20s-17.833 -11.333 -26.5 -16c-16 -9.33301 -31.5 -16.5 -46.5 -21.5s-28.833 -7.5 -41.5 -7.5c-23.333 0 -41.166 7 -53.499 21s-20.5 36.333 -24.5 67c-2 -2 -3.83301 -4 -5.5 -6s-3.16699 -4 -4.5 -6c-15.333 -18.667 -31.5 -35 -48.5 -49
s-38.5 -21 -64.5 -21c-38 0 -70.167 14.333 -96.5 43s-39.5 63.667 -39.5 105c0 61.333 22.5 116 67.5 164s95.833 72 152.5 72c24.667 0 44.167 -6.66699 58.5 -20s24.833 -34.333 31.5 -63l21 75h76l-76 -284c-0.666992 -2.66699 -1.16699 -4.83398 -1.5 -6.50098
s-0.833008 -3.5 -1.5 -5.5l-2 -10.5c-0.666992 -3.66699 -1 -7.5 -1 -11.5c0 -10.667 3.16699 -19.834 9.5 -27.501s14.166 -11.5 23.499 -11.5c8.66699 0 18 2.16699 28 6.5s20 10.166 30 17.499c13.333 9.33301 26.5 21.333 39.5 36s24.5 30.667 34.5 48
c7.33301 13.333 13.666 27.166 18.999 41.499s9.66602 29.166 12.999 44.499c2.66699 10.667 4.66699 21.334 6 32.001s2 21 2 31c0 70 -28.333 129.833 -85 179.5s-125 74.5 -205 74.5c-96 0 -175.5 -30.833 -238.5 -92.5s-94.5 -139.834 -94.5 -234.501
c0 -92.667 32.5 -169.334 97.5 -230.001s146.833 -91 245.5 -91c57.333 0 108 13.833 152 41.5s81.667 64.167 113 109.5v1zM381.002 514.007c-30.667 -0.666992 -57.3311 -15.4971 -79.998 -44.4971s-40 -61.167 -52 -96.5c-6 -17.333 -10.667 -34.5 -14 -51.5
s-5 -32.167 -5 -45.5c0 -28 6.66699 -51.167 20 -69.5s30 -27.5 50 -27.5c29.333 0 54.166 14.667 74.499 44s36.166 61.666 47.499 96.999c6.66699 21.333 11.667 42.166 15 62.499s5 37.166 5 50.499c0 25.333 -5.33301 45 -16 59s-25.667 21 -45 21v1z" />
    <glyph glyph-name="A" unicode="A" horiz-adv-x="722" 
d="M459 231l-254.002 -0.000976562l-6 -15.5l-6 -14.5c-4.66699 -11.333 -9 -22.833 -13 -34.5s-7.33301 -23.5 -10 -35.5c-0.666992 -4 -1.16699 -8.16699 -1.5 -12.5s-0.5 -8.5 -0.5 -12.5c0 -20.667 7 -36 21 -46s38.667 -16.667 74 -20v-40h-257v41
c19.333 1.33301 34.166 4.33301 44.499 9s19.5 12 27.5 22l1.5 1.5c0.333008 0.333008 0.5 0.833008 0.5 1.5c3.33301 4 6.33301 8 9 12s5.33398 8.33301 8.00098 13c5.33301 9.33301 11 20.833 17 34.5s13.333 32.167 22 55.5l205 545h44l232 -628l8.5 -23.5
c2.33301 -6.33301 4.83301 -11.5 7.5 -15.5c5.33301 -10 11.333 -16.5 18 -19.5s17.667 -5.16699 33 -6.5h0.5h1.5c2.66699 0 5.33398 -0.166992 8.00098 -0.5s5.33398 -0.5 8.00098 -0.5c2 -0.666992 4.33301 -1 7 -1h8v-40h-294v41c36 0 60.833 1.83301 74.5 5.5
s20.5 9.83398 20.5 18.501c0 4.66699 -0.666992 9.16699 -2 13.5s-3 8.5 -5 12.5c0 0.666992 -0.166992 1.5 -0.5 2.5s-0.833008 1.83301 -1.5 2.5l-50 135v0zM442.998 275.999l-110 304l-111 -304h221v0z" />
    <glyph glyph-name="B" unicode="B" horiz-adv-x="722" 
d="M476 376c0.666992 -0.666992 1.33008 -1.00195 1.99707 -1.00195s1.33398 -0.333008 2.00098 -1c38.667 -5.33301 73.834 -13.5 105.501 -24.5s58.5 -34.167 80.5 -69.5c8.66699 -13.333 15.167 -27.666 19.5 -42.999s6.5 -31 6.5 -47
c0 -60.667 -21.667 -104.667 -65 -132s-91 -44.666 -143 -51.999c-16 -2.66699 -31.833 -4.33398 -47.5 -5.00098s-30.834 -1 -45.501 -1h-367v41h25c38 -0.666992 60.833 2 68.5 8s11.5 23.333 11.5 52v46v428v45c0 18.667 -0.166992 30.834 -0.5 36.501
s-1.83301 9.83398 -4.5 12.501l-0.5 0.5l-0.5 0.5c-0.666992 0.666992 -1.33398 1.16699 -2.00098 1.5l-3 1.5c-4 2 -11 3.66699 -21 5s-26 2 -48 2l-25 1v41h312c54.667 -0.666992 97.334 -3 128.001 -7s58.667 -11.333 84 -22c32.667 -14 58.834 -34.333 78.501 -61
s29.5 -55.667 29.5 -87c0 -45.333 -16.667 -83.833 -50 -115.5s-76.666 -49.834 -129.999 -54.501v1zM231.996 348.998l-0.00195312 -203l-1 -36l1 -34c0 -13.333 2.33301 -22.333 7 -27s13.667 -7.33398 27 -8.00098h45c12.667 -0.666992 25.334 -1 38.001 -1
s25.334 0.333008 38.001 1c12 0.666992 24.333 1.5 37 2.5s25.334 2.5 38.001 4.5c37.333 6 65.5 21.167 84.5 45.5s28.5 56.833 28.5 97.5v6.5v7.5c-2 24 -8.33301 46.833 -19 68.5s-27.334 37.834 -50.001 48.501c-2 1.33301 -4.16699 2.5 -6.5 3.5
s-4.83301 2.16699 -7.5 3.5c-18 8 -38.833 13.167 -62.5 15.5s-60.5 3.5 -110.5 3.5l-87 1v0zM231.994 393.998l99.001 0.00292969c55.333 -0.666992 104.666 6.16602 147.999 20.499s65 55.5 65 123.5c0 51.333 -13.833 88 -41.5 110s-74.167 33 -139.5 33l-67 1
c-30 -0.666992 -48.167 -2.83398 -54.5 -6.50098s-9.5 -14.834 -9.5 -33.501v-27v-221v0z" />
    <glyph glyph-name="C" unicode="C" horiz-adv-x="722" 
d="M647 722l12.002 -280.999h-42c-0.666992 1.33301 -1.33398 3.16602 -2.00098 5.49902s-1.33398 4.83301 -2.00098 7.5c-17.333 58.667 -43.5 112.5 -78.5 161.5s-87.833 73.5 -158.5 73.5c-68.667 0 -121.334 -29.333 -158.001 -88s-55 -144 -55 -256
c0 -102 19.333 -179 58 -231s96 -78 172 -78c71.333 0 125.333 21.333 162 64s63.667 95 81 157l39 -8c-2.66699 -12.667 -5.16699 -23.667 -7.5 -33l-6.5 -25c-2 -6.66699 -4.16699 -13 -6.5 -19s-4.83301 -12 -7.5 -18l-6.5 -14.5
c-2.33301 -5 -5.16602 -10.5 -8.49902 -16.5c-24.667 -45.333 -59.667 -79.333 -105 -102s-93.333 -34 -144 -34c-98.667 0 -181.167 34.333 -247.5 103s-99.5 155 -99.5 259s33.667 194.167 101 270.5s147.333 114.5 240 114.5c39.333 0 75.833 -6 109.5 -18
s64.5 -31.333 92.5 -58l38 64h30v0z" />
    <glyph glyph-name="D" unicode="D" horiz-adv-x="778" 
d="M23 0l-0.000976562 41.001h25c38 -0.666992 60.833 2 68.5 8s11.5 23.333 11.5 52v46v428v45c0 18.667 -0.166992 30.667 -0.5 36s-1.83301 9.33301 -4.5 12l-0.5 0.5l-0.5 0.5c-4.66699 5.33301 -15.334 8.5 -32.001 9.5s-39 1.5 -67 1.5v42h290
c64 -0.666992 113.5 -3.66699 148.5 -9s67.167 -15 96.5 -29c4 -2 8 -4.16699 12 -6.5s8 -4.5 12 -6.5c51.333 -30.667 90.833 -72.834 118.5 -126.501s41.5 -115.5 41.5 -185.5c0 -55.333 -9.16699 -105.833 -27.5 -151.5s-45.166 -84.5 -80.499 -116.5l-1.5 -1.5
l-0.5 -0.5c-38.667 -34 -80.667 -57.333 -126 -70s-109.666 -19 -192.999 -19h-290v0zM290.999 41.001l57.001 -0.000976562c113.333 -0.666992 187 29.833 221 91.5s51 142.834 51 243.501c0 110.667 -21.333 189 -64 235s-115.334 69 -218.001 69l-55 1
c-24.667 -0.666992 -39.5 -3.16699 -44.5 -7.5s-7.5 -16.833 -7.5 -37.5v-545c0 -20 2.33301 -33.5 7 -40.5s13.667 -10.5 27 -10.5l26 1v0z" />
    <glyph glyph-name="E" unicode="E" horiz-adv-x="722" 
d="M637 722l12.001 -254.993h-33c-14 71.333 -35.167 124.833 -63.5 160.5s-81.833 53.5 -160.5 53.5l-95 1c-31.333 -0.666992 -50.166 -3.33398 -56.499 -8.00098s-9.5 -18.334 -9.5 -41.001v-238c61.333 -0.666992 110.666 5.33301 147.999 18s61.666 53 72.999 121l38 1
v-331h-38c-4.66699 71.333 -27 113.833 -67 127.5s-91.333 20.834 -154 21.501v-266c0 -22.667 3 -36.334 9 -41.001s23 -7 51 -7l120 1c39.333 -0.666992 68.833 1.5 88.5 6.5s37.167 14.833 52.5 29.5c23.333 22.667 40.5 48.667 51.5 78s20.167 59.666 27.5 90.999
c0.666992 3.33301 1.5 6.66602 2.5 9.99902s1.83301 7 2.5 11c0 0.666992 0.166992 1.5 0.5 2.5s0.5 1.83301 0.5 2.5l33 1l-8 -272h-639v41h25c21.333 -0.666992 38.333 0 51 2s20.334 4.66699 23.001 8c1.33301 1.33301 2.5 3.66602 3.5 6.99902s1.83301 7 2.5 11v78v428
v77c-0.666992 3.33301 -1.5 6.66602 -2.5 9.99902s-2.16699 5.66602 -3.5 6.99902c-2.66699 3.33301 -8.33398 6 -17.001 8s-27.667 3 -57 3l-25 1v41h614v0z" />
    <glyph glyph-name="F" unicode="F" horiz-adv-x="667" 
d="M634 722l9.99512 -256.001h-33c-15.333 81.333 -37.666 137.5 -66.999 168.5s-75 46.5 -137 46.5l-106 1c-32.667 -0.666992 -52.334 -3.66699 -59.001 -9s-10 -21.333 -10 -48v-231c4 -0.666992 7.83301 -1 11.5 -1h9.5c3.33301 -0.666992 6.16602 -1 8.49902 -1h6.5
c60.667 0 103.834 10.333 129.501 31s41.834 57.334 48.501 110.001l37 1v-331h-37c-4.66699 70 -26.167 112 -64.5 126s-88.166 21.333 -149.499 22v-204v-45c0 -19.333 0.166992 -31.833 0.5 -37.5s1.83301 -9.83398 4.5 -12.501l0.5 -0.5l0.5 -0.5
c1.33301 -1.33301 3.5 -2.66602 6.5 -3.99902s6.16699 -2.33301 9.5 -3c4 -0.666992 8.83301 -1.16699 14.5 -1.5s11.5 -0.833008 17.5 -1.5c4.66699 0 9.16699 -0.166992 13.5 -0.5s8.5 -0.5 12.5 -0.5l40 1v-41h-328v41h25c19.333 -0.666992 35.833 0 49.5 2
s21.834 4.66699 24.501 8c1.33301 2 2.5 4.5 3.5 7.5s1.83301 6.5 2.5 10.5v78v428v77c-0.666992 6.66699 -2.66699 12.167 -6 16.5s-8.66602 6.83301 -15.999 7.5c-6.66699 1.33301 -15.167 2.33301 -25.5 3s-21.166 1 -32.499 1l-25 1v41h610v0z" />
    <glyph glyph-name="G" unicode="G" horiz-adv-x="778" 
d="M655 722l12.002 -268.998h-34c-24 78 -57.167 136.833 -99.5 176.5s-93.5 59.5 -153.5 59.5c-72 0 -127.167 -31.333 -165.5 -94s-57.5 -152.667 -57.5 -270c0 -75.333 15.333 -144 46 -206s90.667 -93 180 -93c57.333 0 103.666 16 138.999 48s53 73.667 53 125l-1 45
c0 19.333 -4.16699 31.833 -12.5 37.5s-27.833 8.5 -58.5 8.5l-50 1v40h310v-40h-31c-25.333 -0.666992 -42.333 -3 -51 -7s-13 -12 -13 -24c0 -4 -0.166992 -8 -0.5 -12s-0.5 -7.66699 -0.5 -11c-0.666992 -4 -1.16699 -8 -1.5 -12s-0.5 -8 -0.5 -12v-2
c1.33301 -15.333 2.16602 -30.5 2.49902 -45.5s0.5 -29.833 0.5 -44.5c0.666992 -2.66699 1 -5.33398 1 -8.00098v-8l2 -53.5c0.666992 -17.667 2 -34.834 4 -51.501h-42l-33 103c-20 -39.333 -48.333 -68.5 -85 -87.5s-82 -28.5 -136 -28.5
c-101.333 0 -184 32.833 -248 98.5s-96 150.834 -96 255.501c0 107.333 34.667 199.666 104 276.999s152.333 116 249 116c38 0 73 -5.5 105 -16.5s61.333 -30.167 88 -57.5l38 62h36v0z" />
    <glyph glyph-name="H" unicode="H" horiz-adv-x="833" 
d="M606 350l-379.001 -0.00292969v-203v-77c1.33301 -7.33301 3.5 -13.166 6.5 -17.499s8.16699 -7.16602 15.5 -8.49902l21 -2c6.66699 -0.666992 13.667 -1 21 -1c6.66699 -0.666992 13.5 -1 20.5 -1h20.5v-40h-313v41h25c38.667 -0.666992 61.667 1.83301 69 7.5
s11 23.167 11 52.5v46v428v77c-0.666992 6.66699 -2.66699 12.167 -6 16.5s-8.66602 6.83301 -15.999 7.5l-20.5 2c-7 0.666992 -13.833 1 -20.5 1c-7.33301 0.666992 -14.333 1 -21 1h-21v42h313v-41h-26c-18 -0.666992 -34 -2 -48 -4s-22.333 -4.66699 -25 -8
c-1.33301 -2 -2.5 -4.5 -3.5 -7.5s-1.83301 -6.5 -2.5 -10.5v-76v-175h379v175v45c0 28.667 -3.66699 45.834 -11 51.501s-30.333 8.5 -69 8.5l-25 1v41h313v-41h-26c-18 -0.666992 -34 -2 -48 -4s-22.333 -4.66699 -25 -8c-1.33301 -2 -2.5 -4.5 -3.5 -7.5
s-1.83301 -6.5 -2.5 -10.5v-76v-428v-45c0 -30 3.66699 -47.833 11 -53.5s30 -8.5 68 -8.5l26 1v-41h-313v41h25c38 -0.666992 60.833 1.83301 68.5 7.5s11.5 23.167 11.5 52.5v46v203v0z" />
    <glyph glyph-name="I" unicode="I" horiz-adv-x="407" 
d="M47 681v40.998h313v-41h-26c-37.333 -0.666992 -59.833 -3.66699 -67.5 -9s-11.5 -21.666 -11.5 -48.999v-48v-428v-49c0 -27.333 3.83301 -43.833 11.5 -49.5s30.167 -8.5 67.5 -8.5l26 1v-41h-313v41h25c38 -0.666992 60.833 1.83301 68.5 7.5s11.5 23.167 11.5 52.5
v46v428v45c0 24.667 -1 39.834 -3 45.501s-8.33301 9.16699 -19 10.5l-20.5 2c-7 0.666992 -13.833 1 -20.5 1c-7.33301 0.666992 -14.333 1 -21 1h-21v1z" />
    <glyph glyph-name="J" unicode="J" horiz-adv-x="556" 
d="M219 681l-0.00390625 40.9961h328v-41h-25c-19.333 -0.666992 -35.666 -2 -48.999 -4s-21.666 -4.66699 -24.999 -8c-1.33301 -2 -2.5 -4.5 -3.5 -7.5s-1.83301 -6.5 -2.5 -10.5v-76v-314c0 -61.333 -4.16699 -106.333 -12.5 -135s-24.166 -53.667 -47.499 -75
s-51.333 -37.333 -84 -48s-68.667 -16 -108 -16c-63.333 0 -114.333 15.333 -153 46s-58 71.334 -58 122.001c0 35.333 10.167 65.166 30.5 89.499s45.166 36.5 74.499 36.5c22.667 0 41.334 -6.66699 56.001 -20s22 -30.333 22 -51c0 -19.333 -6.33301 -35.666 -19 -48.999
s-28.667 -20 -48 -20c-4 0 -7.66699 0.333008 -11 1s-6.66602 1.66699 -9.99902 3c-4 0.666992 -7.66699 1.33398 -11 2.00098s-7 1 -11 1c-6 0 -10.667 -2.16699 -14 -6.5s-5 -10.166 -5 -17.499c0 -26 13.833 -48 41.5 -66s61.5 -27 101.5 -27
c73.333 0 118.833 23.5 136.5 70.5s26.5 99.833 26.5 158.5v315v77c-0.666992 8 -3.66699 13.833 -9 17.5s-12 5.83398 -20 6.50098l-22.5 2c-7.66699 0.666992 -15.167 1 -22.5 1c-8 0.666992 -15.833 1 -23.5 1h-22.5v1z" />
    <glyph glyph-name="K" unicode="K" horiz-adv-x="778" 
d="M411 445l229.999 -332.003c8.66699 -14 16.334 -25.5 23.001 -34.5s13 -16.167 19 -21.5c10 -8.66699 21 -13.667 33 -15s28.667 -2 50 -2v-40h-326v41c6 -0.666992 12 -1 18 -1s12 0.333008 18 1c5.33301 0 11 0.166992 17 0.5s12 0.5 18 0.5
c9.33301 0.666992 15.833 2.33398 19.5 5.00098s5.5 6.66699 5.5 12c0 4 -1.16699 8.66699 -3.5 14s-5.83301 11.333 -10.5 18l-189 274l-105 -112v-106v-45c0 -30 3.83301 -47.833 11.5 -53.5s30.5 -8.5 68.5 -8.5l25 1v-41h-313v41h25
c38 -0.666992 60.833 1.83301 68.5 7.5s11.5 23.167 11.5 52.5v46v428v77c-0.666992 6.66699 -2.66699 12.167 -6 16.5s-8.66602 6.83301 -15.999 7.5l-20.5 2c-7 0.666992 -13.833 1 -20.5 1c-7.33301 0.666992 -14.333 1 -21 1h-21v42h313v-41h-25
c-18.667 -0.666992 -34.834 -2 -48.501 -4s-22.167 -4.66699 -25.5 -8c-1.33301 -2 -2.5 -4.5 -3.5 -7.5s-1.83301 -6.5 -2.5 -10.5v-76v-257l266 283c1.33301 0.666992 2.5 1.5 3.5 2.5s1.83301 2.16699 2.5 3.5c6 6.66699 10.667 13.334 14 20.001s5 12.334 5 17.001
c0 12.667 -5 21.167 -15 25.5s-31.333 7.83301 -64 10.5v42h286v-41c-36.667 -3.33301 -67 -11.5 -91 -24.5s-46.667 -29.5 -68 -49.5l-27 -28l-30 -31l-99 -103v0z" />
    <glyph glyph-name="L" unicode="L" horiz-adv-x="667" 
d="M659 270l-8.99902 -270.002h-628v41h25c22 -0.666992 39.167 0 51.5 2s19.833 4.66699 22.5 8l0.5 0.5l0.5 0.5c2.66699 2.66699 4.16699 6.83398 4.5 12.501s0.5 17.834 0.5 36.501v46v428v45c0 24.667 -1 39.834 -3 45.501s-8.33301 9.16699 -19 10.5l-20.5 2
c-7 0.666992 -13.833 1 -20.5 1c-7.33301 0.666992 -14.333 1 -21 1h-21v42h323v-41h-35c-18.667 -0.666992 -34.834 -2 -48.501 -4s-22.167 -4.66699 -25.5 -8c0 -0.666992 -0.166992 -1 -0.5 -1s-0.833008 -0.333008 -1.5 -1c-2 -2.66699 -3.16699 -6.83398 -3.5 -12.501
s-0.5 -17.5 -0.5 -35.5v-44v-475c0 -16.667 0.666992 -28.5 2 -35.5s3.66602 -12.167 6.99902 -15.5l1.5 -1.5l0.5 -0.5c4 -3.33301 9.66699 -5.5 17 -6.5s23 -1.5 47 -1.5l97 1c36 -0.666992 63 1.16602 81 5.49902s34 12.166 48 23.499c23.333 18 41 40.167 53 66.5
s21.667 53.5 29 81.5c2.66699 8.66699 4.83398 17.334 6.50098 26.001s3.5 17.334 5.5 26.001l34 1v0z" />
    <glyph glyph-name="M" unicode="M" horiz-adv-x="944" 
d="M180 681l0.00292969 -492c0 -44.667 4.66699 -80.667 14 -108s39.666 -41 90.999 -41v-40h-271v41c55.333 -0.666992 88.666 11 99.999 35s17 61.333 17 112v387v77c0 6.66699 -1.83301 12.167 -5.5 16.5s-9.16699 6.83301 -16.5 7.5
c-10 1.33301 -20.167 2.33301 -30.5 3s-20.833 1 -31.5 1h-15.5h-15.5v42h261l209 -559l199 559h243v-41h-25c-18.667 -0.666992 -34.834 -2 -48.501 -4s-22.167 -4.66699 -25.5 -8c-1.33301 -2 -2.5 -4.5 -3.5 -7.5s-1.5 -6.5 -1.5 -10.5
c-0.666992 -2.66699 -1 -6.66699 -1 -12v-20v-44v-428v-45c0 -29.333 3.83301 -47 11.5 -53s30.5 -9 68.5 -9l25 1v-41h-313v41h26c18 -0.666992 34 0.166016 48 2.49902s22.333 4.83301 25 7.5c0 0.666992 0.166992 1 0.5 1s0.833008 0.333008 1.5 1
c2 2.66699 3.16699 6.83398 3.5 12.501s0.5 17.5 0.5 35.5v46v534l-244 -681h-42l-254 681v0z" />
    <glyph glyph-name="N" unicode="N" horiz-adv-x="815" 
d="M698 -9h-39l-478 603v-405c0 -45.333 7.33301 -81.5 22 -108.5s46.667 -40.5 96 -40.5v-40h-284v41c54.667 -0.666992 87.834 11.333 99.501 36s17.5 61.667 17.5 111v438c0 17.333 -7 29.833 -21 37.5s-29.667 12.5 -47 14.5c-8.66699 0.666992 -17 1.16699 -25 1.5
s-15.333 0.5 -22 0.5v42h208l424 -533v344c0 46.667 -4.33301 82.834 -13 108.501s-39.334 38.5 -92.001 38.5v42h259v-41h-19c-34 -0.666992 -56.833 -10.834 -68.5 -30.501s-17.5 -59.167 -17.5 -118.5v-541v0z" />
    <glyph glyph-name="O" unicode="O" horiz-adv-x="778" 
d="M391 735c97.333 -0.666992 180.167 -37.5 248.5 -110.5s102.5 -161.167 102.5 -264.5c0 -104.667 -34.167 -193 -102.5 -265s-151.5 -108 -249.5 -108s-181.5 36.167 -250.5 108.5s-103.5 159.833 -103.5 262.5c0 105.333 34.333 194.333 103 267s152.667 109 252 109v1z
M388.001 690c-76.667 -0.666992 -134.167 -27.832 -172.5 -81.499s-57.5 -134.167 -57.5 -241.5c0 -113.333 19.5 -198.5 58.5 -255.5s97.167 -85.5 174.5 -85.5c74.667 0 131.5 27.667 170.5 83s58.5 135.666 58.5 240.999c0 114 -19.167 199 -57.5 255s-96.5 84 -174.5 84
v1z" />
    <glyph glyph-name="P" unicode="P" horiz-adv-x="667" 
d="M230 322l-0.000976562 -175.999v-60c0.666992 -21.333 5 -34.333 13 -39s30.333 -7 67 -7l40 1v-41h-328v41h25c21.333 -0.666992 38.333 0 51 2s20.334 4.66699 23.001 8c1.33301 1.33301 2.5 3.66602 3.5 6.99902s1.83301 7 2.5 11v78v428v76
c-0.666992 4 -1.5 7.5 -2.5 10.5s-2.16699 5.5 -3.5 7.5c-5.33301 5.33301 -17 8.5 -35 9.5s-39.333 1.5 -64 1.5v42h313c19.333 -0.666992 40 -1.5 62 -2.5s44.667 -3.16699 68 -6.5c55.333 -8 106.333 -25.667 153 -53s70 -72.666 70 -135.999
c0 -32.667 -9 -63.334 -27 -92.001s-42.667 -51 -74 -67l-8 -4l-8 -4c-30 -14 -62 -23.5 -96 -28.5s-79.333 -7.5 -136 -7.5l-109 1v0zM229.999 367.001h90c98.667 -0.666992 165.167 10.166 199.5 32.499s51.5 64.833 51.5 127.5c0 55.333 -15.667 94.833 -47 118.5
s-83.333 35.5 -156 35.5l-86 1c-22.667 -0.666992 -37 -4.16699 -43 -10.5s-9 -21.166 -9 -44.499v-260v0z" />
    <glyph glyph-name="Q" unicode="Q" horiz-adv-x="778" 
d="M756 -28c0 -3.33301 -0.333008 -6.83594 -1 -10.5029s-1 -7.5 -1 -11.5c-4.66699 -34 -16 -65.333 -34 -94s-47.667 -43 -89 -43c-38.667 0 -66.167 13.833 -82.5 41.5s-26.5 58.167 -30.5 91.5c-1.33301 10.667 -2.33301 21 -3 31s-1 19.333 -1 28l-50 -13
c-10.667 -2.66699 -20 -4.33398 -28 -5.00098h-4.5h-5.5c-46 0 -90.667 6.83301 -134 20.5s-82.666 35.167 -117.999 64.5c-44 36.667 -78 79.834 -102 129.501s-36 101.834 -36 156.501c0 103.333 34.833 191.833 104.5 265.5s153.5 110.5 251.5 110.5
c95.333 0 178.166 -36.833 248.499 -110.5s105.5 -161.167 105.5 -262.5c0 -59.333 -12.833 -116.666 -38.5 -171.999s-60.834 -102.666 -105.501 -141.999l22 -59l22 -58c5.33301 -13.333 10.833 -23.166 16.5 -29.499s11.834 -9.5 18.501 -9.5c10 0 17.5 4.66699 22.5 14
s8.5 19.666 10.5 30.999c1.33301 4.66699 2.33301 9.33398 3 14.001s1 9 1 13c0.666992 2 1.16699 3.66699 1.5 5s0.5 2.66602 0.5 3.99902h36v0zM514 50.9971l-0.000976562 11.9971c0 4.66699 -0.333008 9 -1 13c-2.66699 36.667 -12.5 70.334 -29.5 101.001
s-47.167 46 -90.5 46c-33.333 0 -60.666 -9.16699 -81.999 -27.5s-32 -42.166 -32 -71.499c0 -31.333 10.167 -54.666 30.5 -69.999s51.5 -23 93.5 -23c11.333 0 21.5 0.333008 30.5 1s17.833 1.66699 26.5 3c8 1.33301 16.333 3.33301 25 6l29 9v1zM575.999 91.9941
l17.001 57c5.33301 18.667 10 37 14 55c5.33301 22.667 9.5 46 12.5 70s4.5 49.667 4.5 77c0 111.333 -19.5 195.5 -58.5 252.5s-97.167 85.5 -174.5 85.5c-73.333 0 -129.666 -26.5 -168.999 -79.5s-59 -129.167 -59 -228.5c0 -46.667 2.5 -89.167 7.5 -127.5
s16.5 -75.833 34.5 -112.5c5.33301 -12 11.666 -24 18.999 -36s15.666 -24 24.999 -36c-4.66699 10.667 -8.16699 19.5 -10.5 26.5s-3.83301 13.833 -4.5 20.5c-0.666992 2.66699 -1 5.33398 -1 8.00098v8c0 39.333 14.333 71.166 43 95.499s66 36.5 112 36.5
c50 0 90.833 -14.5 122.5 -43.5s53.5 -72.167 65.5 -129.5v1z" />
    <glyph glyph-name="R" unicode="R" horiz-adv-x="722" 
d="M418 364c38 -7.33301 66.168 -15.835 84.501 -25.502s33.833 -24.167 46.5 -43.5c8 -12.667 15.5 -28.667 22.5 -48s13.833 -39.333 20.5 -60c1.33301 -5.33301 2.83301 -10.5 4.5 -15.5s3.16699 -9.83301 4.5 -14.5c9.33301 -27.333 18.5 -51 27.5 -71
s18.833 -30 29.5 -30c11.333 0 20.166 7 26.499 21s11.833 40.333 16.5 79l35 1c0 -2.66699 -0.166992 -4.83398 -0.5 -6.50098s-0.5 -3.5 -0.5 -5.5c-3.33301 -40 -12.333 -76.333 -27 -109s-47.667 -49 -99 -49c-21.333 0 -40.833 4 -58.5 12s-31.5 19.333 -41.5 34
c-11.333 16 -19.5 33 -24.5 51s-8.5 36 -10.5 54c-1.33301 7.33301 -2.33301 14.333 -3 21s-1 13.334 -1 20.001c-4 46 -15 86.167 -33 120.5s-70.667 51.5 -158 51.5l-47 1v-205v-77c1.33301 -7.33301 3.5 -13.166 6.5 -17.499s8.16699 -7.16602 15.5 -8.49902
c15.333 -2 30.666 -3.16699 45.999 -3.5s30.666 -0.5 45.999 -0.5v-40h-322v41h25c38.667 -0.666992 61.667 1.83301 69 7.5s11 23.167 11 52.5v46v428v76c-0.666992 6.66699 -2.66699 12.334 -6 17.001s-8.66602 7.33398 -15.999 8.00098l-20.5 2
c-7 0.666992 -13.833 1 -20.5 1c-7.33301 0.666992 -14.333 1 -21 1h-21v42h322c16.667 -0.666992 34.5 -1.5 53.5 -2.5s38.167 -2.83301 57.5 -5.5c51.333 -6.66699 98.333 -22.334 141 -47.001s64 -66.667 64 -126c0 -32.667 -9.16699 -62.167 -27.5 -88.5
s-44.166 -47.166 -77.499 -62.499l-18.5 -7.5c-5.66699 -2.33301 -11.5 -4.5 -17.5 -6.5c-13.333 -4.66699 -27.833 -7.83398 -43.5 -9.50098s-35.5 -2.83398 -59.5 -3.50098v1zM232.001 396.998l94.001 -0.00195312c64 -0.666992 117.333 5.83301 160 19.5
s64 58.834 64 135.501c0 58 -19 94 -57 108s-80.667 21 -128 21l-75 1c-16 -0.666992 -26.667 -1.16699 -32 -1.5s-9.66602 -1.5 -12.999 -3.5c-0.666992 -0.666992 -1.33398 -1.16699 -2.00098 -1.5s-1.33398 -0.833008 -2.00098 -1.5
c-4 -2.66699 -6.5 -6.16699 -7.5 -10.5s-1.5 -14.166 -1.5 -29.499v-237v0z" />
    <glyph glyph-name="S" unicode="S" horiz-adv-x="630" 
d="M536 722l-0.00195312 -257.997h-31c-1.33301 3.33301 -2.66602 7.16602 -3.99902 11.499l-4 12.5c-16.667 50.667 -41.334 96.834 -74.001 138.501s-79 62.5 -139 62.5c-40.667 0 -74 -11.333 -100 -34s-39 -51.667 -39 -87c0 -42.667 17.5 -72.5 52.5 -89.5
s75.5 -31.5 121.5 -43.5c6.66699 -1.33301 13.334 -2.83301 20.001 -4.5s13.334 -3.5 20.001 -5.5c53.333 -14.667 102.333 -35.834 147 -63.501s67 -77.5 67 -149.5c0 -66.667 -22 -120.834 -66 -162.501s-101 -62.5 -171 -62.5c-36.667 0 -69.5 5.16699 -98.5 15.5
s-57.167 27.166 -84.5 50.499c-2.66699 2.66699 -5.16699 5 -7.5 7s-4.83301 4.33301 -7.5 7l-46 -67h-34v277h34c0 -1.33301 0.166992 -2.5 0.5 -3.5s0.833008 -2.16699 1.5 -3.5c17.333 -60.667 45 -116.5 83 -167.5s93 -76.5 165 -76.5c46 0 83.5 12.333 112.5 37
s43.5 56.334 43.5 95.001c0 47.333 -18.833 80.5 -56.5 99.5s-80.5 35.167 -128.5 48.5l-14.5 4l-14.5 4c-53.333 15.333 -102.333 36.166 -147 62.499s-67 73.5 -67 141.5c0 60.667 20 111.834 60 153.501s89 62.5 147 62.5c22 0 42.167 -1.83301 60.5 -5.5
s36.166 -9.83398 53.499 -18.501c11.333 -5.33301 22.833 -12 34.5 -20s23.834 -17 36.501 -27l43 59h31v0z" />
    <glyph glyph-name="T" unicode="T" horiz-adv-x="667" 
d="M49 449l-40.999 -0.000976562l13 273h627l12 -273h-40c-0.666992 2 -1.16699 4.33301 -1.5 7s-0.833008 5.33398 -1.5 8.00098c-10 54.667 -27.333 104.667 -52 150s-70.334 68 -137.001 68c-16 0 -27 -2.16699 -33 -6.5s-9 -12.166 -9 -23.499v-17v-488v-45
c0 -19.333 0.166992 -31.833 0.5 -37.5s1.83301 -9.83398 4.5 -12.501l0.5 -0.5l0.5 -0.5c2.66699 -2.66699 7 -4.66699 13 -6s15.667 -2.33301 29 -3c12 -0.666992 24 -1.16699 36 -1.5s24 -0.5 36 -0.5v-40h-343v41h31c42.667 -0.666992 68.167 1.83301 76.5 7.5
s12.5 23.167 12.5 52.5v46v488c0 17.333 -1.83301 29.5 -5.5 36.5s-15.5 10.5 -35.5 10.5c-68 0 -114.5 -23.167 -139.5 -69.5s-42.167 -97.5 -51.5 -153.5c-0.666992 -2 -1.16699 -3.83301 -1.5 -5.5s-0.5 -3.5 -0.5 -5.5v1z" />
    <glyph glyph-name="U" unicode="U" horiz-adv-x="815" 
d="M527 681l0.00195312 41h271v-41c-46.667 -4 -75.834 -14.167 -87.501 -30.5s-17.5 -55.833 -17.5 -118.5v-214c0 -57.333 -2 -100.333 -6 -129s-11.667 -54.334 -23 -77.001c-0.666992 -1.33301 -1.33398 -2.5 -2.00098 -3.5s-1.33398 -2.16699 -2.00098 -3.5
c-25.333 -45.333 -60.5 -76.166 -105.5 -92.499s-92.167 -24.833 -141.5 -25.5h-2.5h-3.5c-68 0 -125 11.833 -171 35.5s-77.333 56.834 -94 99.501c-6.66699 19.333 -11.5 40.833 -14.5 64.5s-4.5 55.834 -4.5 96.501v292v45c0 18.667 -0.166992 30.667 -0.5 36
s-1.83301 9.33301 -4.5 12l-0.5 0.5l-0.5 0.5c-1.33301 1.33301 -3.5 2.66602 -6.5 3.99902s-6.16699 2.33301 -9.5 3c-6.66699 1.33301 -13.5 2.16602 -20.5 2.49902s-13.833 0.833008 -20.5 1.5h-21h-21v42h313v-41h-25c-20 -0.666992 -36.5 -2 -49.5 -4
s-21.167 -4.66699 -24.5 -8c-1.33301 -2 -2.5 -4.5 -3.5 -7.5s-1.83301 -6.5 -2.5 -10.5v-76v-293c0 -51.333 3 -89.333 9 -114s17.333 -46.667 34 -66c18.667 -20 41.167 -35.167 67.5 -45.5s56.833 -15.5 91.5 -15.5c42.667 0 79.667 7.33301 111 22s55 35.667 71 63
l5.5 9.5c1.66699 3 3.16699 6.16699 4.5 9.5c10 19.333 16.5 41.166 19.5 65.499s4.5 59.5 4.5 105.5v217c0 60.667 -6.66699 99.334 -20 116.001s-45.666 27 -96.999 31v1z" />
    <glyph glyph-name="V" unicode="V" horiz-adv-x="722" 
d="M388 -13l-43.998 0.000976562l-231 608c-0.666992 1.33301 -1.33398 2.83301 -2.00098 4.5s-1.33398 3.5 -2.00098 5.5c0 0.666992 -0.166992 1.16699 -0.5 1.5s-0.5 0.833008 -0.5 1.5c-6.66699 18 -14.667 34.5 -24 49.5s-25.333 22.5 -48 22.5l-28 1v41h294v-41h-36
c-22.667 -0.666992 -38.167 -2.5 -46.5 -5.5s-12.5 -9.16699 -12.5 -18.5c0 -4 0.833008 -9 2.5 -15s4.16699 -13.667 7.5 -23l179 -467l147 409c6 16 10.333 28.667 13 38s4 17.333 4 24c0 19.333 -7.66699 33.5 -23 42.5s-41 13.833 -77 14.5v42h254v-41
c-22 -3.33301 -39.5 -8.83301 -52.5 -16.5s-25.167 -21.834 -36.5 -42.501c-4.66699 -8.66699 -9.5 -19 -14.5 -31s-10.5 -26 -16.5 -42l-206 -562v0z" />
    <glyph glyph-name="W" unicode="W" horiz-adv-x="981" 
d="M493 515l-151.002 -527.999h-45l-197 625c-0.666992 2.66699 -1.5 5.5 -2.5 8.5s-2.16699 5.83301 -3.5 8.5c-7.33301 21.333 -16.5 35.166 -27.5 41.499s-29.833 9.5 -56.5 9.5v42h276v-41h-28c-22.667 -0.666992 -38.667 -3 -48 -7s-14 -11 -14 -21v-1.5v-1.5
c0 -4 0.666992 -8.5 2 -13.5l7 -25.5l137 -443l126 416l-7.5 24l-6.5 20c-5.33301 17.333 -12.333 29.833 -21 37.5s-26 12.167 -52 13.5h-4.5c-1.66699 0 -3.5 0.333008 -5.5 1h-6.5h-7.5v42h282v-41c-36.667 -1.33301 -60 -3.5 -70 -6.5s-15 -10.167 -15 -21.5
c0 -5.33301 0.5 -10.5 1.5 -15.5s2.16699 -9.83301 3.5 -14.5c0.666992 -2.66699 1.5 -5.16699 2.5 -7.5s1.83301 -4.83301 2.5 -7.5l135 -440l111 383c5.33301 16 8.83301 28 10.5 36s2.83398 15.333 3.50098 22v3.5v3.5c0 22.667 -6.83301 38.5 -20.5 47.5
s-38.5 14.5 -74.5 16.5v42h242v-41c-23.333 -4 -41.166 -10 -53.499 -18s-23.5 -23.667 -33.5 -47c-4 -10 -8.33301 -22 -13 -36s-9.66699 -30.333 -15 -49l-157 -544h-42l-164 528v0z" />
    <glyph glyph-name="X" unicode="X" horiz-adv-x="704" 
d="M391 397l193.998 -302.999c3.33301 -6 6.5 -11.167 9.5 -15.5s6.16699 -8.16602 9.5 -11.499c9.33301 -10.667 20 -17.5 32 -20.5s31.667 -5.16699 59 -6.5v-40h-304v41c8.66699 0 17.167 0.166992 25.5 0.5s16.833 0.5 25.5 0.5
c11.333 0.666992 19.666 2.66699 24.999 6s8 8.33301 8 15c0 5.33301 -1.33301 10.666 -4 15.999s-5.66699 10.666 -9 15.999c-1.33301 1.33301 -2.5 2.83301 -3.5 4.5s-2.16699 3.16699 -3.5 4.5l-132 202l-97 -145c-10.667 -16.667 -18.334 -30.5 -23.001 -41.5
s-7 -21.167 -7 -30.5c0 -16.667 6 -28.667 18 -36s32.667 -11.666 62 -12.999v-40h-272v41c44.667 2.66699 80.334 18.667 107.001 48s51.334 61.333 74.001 96c0.666992 0.666992 1.33398 1.5 2.00098 2.5s1.33398 2.16699 2.00098 3.5l104 163l-171 261l-19 27
c-5.33301 7.33301 -10.333 13 -15 17c-6.66699 6 -13.667 10.167 -21 12.5s-17 4.16602 -29 5.49902c-3.33301 0.666992 -7.16602 1.16699 -11.499 1.5s-9.16602 0.833008 -14.499 1.5v42h296v-41h-39c-16.667 -0.666992 -28.5 -2.5 -35.5 -5.5s-10.5 -7.83301 -10.5 -14.5
c0 -4 1.16699 -8.66699 3.5 -14s6.16602 -12.333 11.499 -21l122 -186l93 147c8 11.333 13.5 20.5 16.5 27.5s4.83301 13.5 5.5 19.5v1.5v1.5c0 13.333 -5.66699 23 -17 29s-33.666 10.667 -66.999 14v42h264v-41c-23.333 -3.33301 -42.333 -7.33301 -57 -12
s-28.334 -13 -41.001 -25c-8 -8 -16.333 -17.833 -25 -29.5s-18.334 -26.167 -29.001 -43.5l-112 -174v0z" />
    <glyph glyph-name="Y" unicode="Y" horiz-adv-x="704" 
d="M420 302l0.00195312 -155v-20.5c0 -6.33301 0.333008 -12.5 1 -18.5v-19.5v-19.5c0 -7.33301 1.83301 -13 5.5 -17s9.16699 -6.66699 16.5 -8c15.333 -2 30.666 -3.16699 45.999 -3.5s30.666 -0.5 45.999 -0.5v-40h-333v41c5.33301 -0.666992 12.666 -1 21.999 -1
s19 0.333008 29 1c12.667 0.666992 24.667 1.83398 36 3.50098s18.333 3.83398 21 6.50098c1.33301 2 2.5 4.5 3.5 7.5s1.83301 6.5 2.5 10.5v78v140l-203 337c-5.33301 8 -10.333 15 -15 21s-9 11 -13 15c-7.33301 6.66699 -15.333 11.167 -24 13.5
s-19.667 3.83301 -33 4.5c-3.33301 0.666992 -6.66602 1.16699 -9.99902 1.5s-6.66602 0.5 -9.99902 0.5v42h308v-41h-43c-19.333 -0.666992 -33 -2.5 -41 -5.5s-12 -8.16699 -12 -15.5c0 -2.66699 0.833008 -6.33398 2.5 -11.001s3.83398 -9.33398 6.50098 -14.001l2 -4
l2 -4l162 -268l115 221c5.33301 10.667 9.5 20.167 12.5 28.5s4.5 15.833 4.5 22.5c0 16.667 -7 28.5 -21 35.5s-38.667 11.5 -74 13.5v42h264v-41c-20.667 -2 -38 -5.83301 -52 -11.5s-27.333 -16.167 -40 -31.5c-6.66699 -8.66699 -13.834 -19 -21.501 -31
s-15.834 -26.333 -24.501 -43l-138 -262v0z" />
    <glyph glyph-name="Z" unicode="Z" horiz-adv-x="611" 
d="M559 275l-8.99805 -274.999h-509v39l386 643h-98c-77.333 -0.666992 -130.333 -16.167 -159 -46.5s-50.334 -85.166 -65.001 -164.499l-36 1l12 250h469v-42l-384 -640h95c60 -0.666992 103.833 3.16602 131.5 11.499s49.834 24.166 66.501 47.499
c15.333 21.333 28.166 45.833 38.499 73.5s19.166 61.5 26.499 101.5l35 1v0z" />
    <glyph glyph-name="bracketleft" unicode="[" horiz-adv-x="333" 
d="M309 722v-45h-130v-776h130v-45h-215v866h215v0z" />
    <glyph glyph-name="backslash" unicode="\" horiz-adv-x="606" 
d="M91 722h79l399 -866h-79l-399 866v0z" />
    <glyph glyph-name="bracketright" unicode="]" horiz-adv-x="333" 
d="M24 -144v45h130v776h-130v45h215v-866h-215v0z" />
    <glyph glyph-name="asciicircum" unicode="^" horiz-adv-x="606" 
d="M335 722l194 -362h-78l-148 284l-148 -284h-78l193 362h65v0z" />
    <glyph glyph-name="underscore" unicode="_" horiz-adv-x="500" 
d="M500 -147h-500v60h500v-60v0z" />
    <glyph glyph-name="grave" unicode="`" horiz-adv-x="333" 
d="M187 605l-16.998 -22.001l-106 55c-14.667 6.66699 -26.334 12.834 -35.001 18.501s-15 11.167 -19 16.5c-3.33301 4 -5.5 7.83301 -6.5 11.5s-1.5 7.5 -1.5 11.5c0 10.667 3.66699 19.667 11 27s15.666 11 24.999 11h1.5h0.5c8 -0.666992 16.5 -4.16699 25.5 -10.5
s21.5 -17.5 37.5 -33.5l84 -85v0z" />
    <glyph glyph-name="a" unicode="a" horiz-adv-x="556" 
d="M374 85c-18.667 -36 -41.3311 -61.334 -67.998 -76.001s-62.667 -22 -108 -22c-46.667 0 -82.834 9.66699 -108.501 29s-38.5 47.333 -38.5 84c0 44.667 19.5 80.5 58.5 107.5s81.833 46.833 128.5 59.5c23.333 6.66699 46.333 11.5 69 14.5s42.667 4.83301 60 5.5
c-0.666992 58 -7.5 96.667 -20.5 116s-38.833 29 -77.5 29c-32 0 -57.333 -3.33301 -76 -10s-28 -16 -28 -28c0 -4 0.833008 -7.5 2.5 -10.5l5.5 -9.5c0.666992 -0.666992 1.33398 -1.5 2.00098 -2.5s1.33398 -1.83301 2.00098 -2.5c2.66699 -4 5.16699 -8.16699 7.5 -12.5
s3.5 -9.5 3.5 -15.5c0 -16.667 -5.16699 -30.167 -15.5 -40.5s-23.5 -15.5 -39.5 -15.5c-16.667 0 -30.334 5.83301 -41.001 17.5s-16 26.5 -16 44.5c0 37.333 19 67.5 57 90.5s87.333 34.5 148 34.5c33.333 0 61.5 -3.16699 84.5 -9.5s41.167 -16.166 54.5 -29.499
l4.5 -4.5c1.66699 -1.66699 3.16699 -3.5 4.5 -5.5c9.33301 -11.333 15.5 -24.5 18.5 -39.5s4.5 -39.5 4.5 -73.5v-171c0 -42 1.83301 -69 5.5 -81s12.5 -18 26.5 -18c1.33301 0 2.83301 0.166992 4.5 0.5s3.16699 0.5 4.5 0.5c4 1.33301 7.83301 3.33301 11.5 6
s8.16699 6.66699 13.5 12l26 -25c-10.667 -17.333 -22.334 -29.5 -35.001 -36.5s-28.334 -10.5 -47.001 -10.5c-26.667 0 -47 7.66699 -61 23s-23 40 -27 74v1zM367.003 247.999c-10.667 -0.666992 -21.832 -1.50098 -33.499 -2.50098s-23.5 -2.83301 -35.5 -5.5
c-36.667 -6 -70.334 -18.667 -101.001 -38s-46 -49.666 -46 -90.999c0 -26 6.5 -44.833 19.5 -56.5s34.167 -17.5 63.5 -17.5c56 0 91.833 18.5 107.5 55.5s24.167 78.5 25.5 124.5v31v0z" />
    <glyph glyph-name="b" unicode="b" horiz-adv-x="556" 
d="M164 735l0.000976562 -348.001c16 28.667 36.167 50 60.5 64s53.166 21 86.499 21c60.667 0 109.834 -21.667 147.501 -65s56.5 -99.666 56.5 -168.999c0 -74.667 -20 -135.167 -60 -181.5s-92.333 -69.5 -157 -69.5c-37.333 0 -68.333 6.83301 -93 20.5
s-47 36.5 -67 68.5l-39 -76h-28l2 38l2 39l2 38.5l2 38.5v70v351v42c0 28.667 -3.83301 46.834 -11.5 54.501s-27.167 11.5 -58.5 11.5l-20 1v38c29.333 -0.666992 58.666 0.166016 87.999 2.49902s58.333 5.5 87 9.5v1zM295.001 422.999
c-48.667 -0.666992 -82.501 -17.834 -101.501 -51.501s-29.5 -70.5 -31.5 -110.5c-0.666992 -4.66699 -1 -9 -1 -13v-12c0 -67.333 11.5 -118.333 34.5 -153s56.833 -52 101.5 -52c40.667 0 71.334 16.333 92.001 49s31 81.334 31 146.001
c0 63.333 -10.667 111.833 -32 145.5s-52.333 50.5 -93 50.5v1z" />
    <glyph glyph-name="c" unicode="c" horiz-adv-x="444" 
d="M396 146l34 -14.002c-14.667 -45.333 -36 -80.833 -64 -106.5s-67.333 -38.5 -118 -38.5c-62.667 0 -114.5 22 -155.5 66s-61.5 100 -61.5 168c0 72.667 21.5 132.667 64.5 180s97.5 71 163.5 71c44 0 80.667 -11.333 110 -34s44 -50.667 44 -84
c0 -18.667 -5.5 -34.5 -16.5 -47.5s-25.167 -19.5 -42.5 -19.5c-14.667 0 -27.334 5.33301 -38.001 16s-16 23.334 -16 38.001v2.5v2.5c0.666992 4 1.66699 8 3 12s3 7.33301 5 10c0.666992 1.33301 1.5 2.5 2.5 3.5l2.5 2.5c2.66699 3.33301 5 6.83301 7 10.5s3 7.5 3 11.5
c0 10 -6.5 18.5 -19.5 25.5s-28.5 10.5 -46.5 10.5c-39.333 0 -70.166 -17 -92.499 -51s-33.5 -81.333 -33.5 -142c0 -64 12.167 -113.833 36.5 -149.5s57.833 -53.5 100.5 -53.5c27.333 0 50 6.33301 68 19s34.667 35.334 50 68.001c2 3.33301 3.83301 6.83301 5.5 10.5
s3.16699 7.5 4.5 11.5v1z" />
    <glyph glyph-name="d" unicode="d" horiz-adv-x="574" 
d="M392 387l0.00195312 188v42c0 28.667 -4.33301 46.834 -13 54.501s-30 11.5 -64 11.5l-23 1v38c15.333 -0.666992 30.666 -0.666992 45.999 0s31 1.66699 47 3c11.333 1.33301 22.666 2.5 33.999 3.5s23 2.16699 35 3.5c4 0 7.83301 0.166992 11.5 0.5
s7.5 0.833008 11.5 1.5v-587v-41c0 -30.667 4.5 -49.834 13.5 -57.501s30.167 -11.5 63.5 -11.5l13 1v-38c-14 0 -27.833 -0.333008 -41.5 -1s-27.5 -1.66699 -41.5 -3l-41.5 -4c-13.667 -1.33301 -27.5 -3 -41.5 -5c-2.66699 16 -4.83398 32.5 -6.50098 49.5
s-2.5 33.833 -2.5 50.5c-14.667 -33.333 -35 -58.333 -61 -75s-56.667 -25 -92 -25c-56.667 0 -103.834 21.5 -141.501 64.5s-56.5 96.833 -56.5 161.5c0 72 20.833 133.167 62.5 183.5s91.834 75.5 150.501 75.5c30.667 0 56.834 -6.83301 78.501 -20.5
s41.5 -35.5 59.5 -65.5v1zM269.002 423c-39.333 -0.666992 -70.5 -19 -93.5 -55s-34.5 -84.667 -34.5 -146c0 -60.667 10 -106.834 30 -138.501s49.333 -47.5 88 -47.5c42 0 74.5 17.167 97.5 51.5s34.5 82.833 34.5 145.5c0 58.667 -10.833 104.834 -32.5 138.501
s-51.5 50.5 -89.5 50.5v1z" />
    <glyph glyph-name="e" unicode="e" horiz-adv-x="500" 
d="M130 225c1.33301 -62 14.166 -108.998 38.499 -140.998s59.833 -48 106.5 -48c34 0 63.167 8.66699 87.5 26s47.5 45.666 69.5 84.999l34 -17c-20.667 -44 -47 -78.833 -79 -104.5s-73.667 -38.5 -125 -38.5c-68 0 -123.5 21.667 -166.5 65s-64.5 99.333 -64.5 168
c0 69.333 22.333 128.666 67 177.999s98.334 74 161.001 74c61.333 0 110.333 -22 147 -66s56.667 -104.667 60 -182l-336 1v0zM130 265.002l168.999 0.00292969c30 -0.666992 48.667 1.16602 56 5.49902s11 15.166 11 32.499c0 39.333 -9.66699 70.666 -29 93.999
s-45.333 35 -78 35c-37.333 0 -67.166 -14.5 -89.499 -43.5s-35.5 -70.5 -39.5 -124.5v1z" />
    <glyph glyph-name="f" unicode="f" horiz-adv-x="333" 
d="M192 422v-275.001v-52c0.666992 -24 2 -38.833 4 -44.5s8 -9.16699 18 -10.5c3.33301 -0.666992 7.33301 -1.16699 12 -1.5s9.33398 -0.5 14.001 -0.5c4.66699 -0.666992 8.83398 -1 12.501 -1h10.5l24 1v-38h-265v38h14
c17.333 -0.666992 31.666 -0.333984 42.999 0.999023s18.333 3.33301 21 6c3.33301 3.33301 5.33301 8 6 14s1 17.667 1 35v53v275h-95v38h95c0 12 0.333008 25 1 39s2 28 4 42c6 48 21 92.167 45 132.5s64.333 60.5 121 60.5c30.667 0 56.167 -9 76.5 -27
s30.5 -40.667 30.5 -68c0 -19.333 -5.16699 -35.166 -15.5 -47.499s-23.166 -18.5 -38.499 -18.5c-13.333 0 -24.833 5 -34.5 15s-14.5 22 -14.5 36c0 6 1 11.833 3 17.5s4.66699 10.5 8 14.5l3 3c1.33301 1.33301 2.66602 2.33301 3.99902 3c2.66699 2.66699 5 5.5 7 8.5
s3 6.16699 3 9.5c0 5.33301 -3 9.83301 -9 13.5s-13.667 5.5 -23 5.5c-10.667 0 -21 -2.83301 -31 -8.5s-18.667 -14.167 -26 -25.5c0 -0.666992 -0.166992 -1.16699 -0.5 -1.5l-1.5 -1.5c-10.667 -18 -17.834 -38.667 -21.501 -62s-5.5 -60.666 -5.5 -111.999v-28h112v-38
h-112v0z" />
    <glyph glyph-name="g" unicode="g" horiz-adv-x="537" 
d="M400 403c6 -8 11 -15.1768 15 -21.5098s7.33301 -12.833 10 -19.5c3.33301 -7.33301 5.83301 -15.166 7.5 -23.499s2.5 -17.166 2.5 -26.499c0 -46.667 -17.167 -84.5 -51.5 -113.5s-79.166 -43.5 -134.499 -43.5c-6 0 -11.833 0.166992 -17.5 0.5s-11.167 0.5 -16.5 0.5
s-10.833 0.166992 -16.5 0.5s-11.5 0.5 -17.5 0.5c-20 0 -35.5 -3.5 -46.5 -10.5s-16.5 -16.833 -16.5 -29.5c0 -14.667 6.16699 -24.334 18.5 -29.001s39.5 -7 81.5 -7h22c11.333 0 26.333 0.333008 45 1h12h12c39.333 -1.33301 75.166 -9.33301 107.499 -24
s48.5 -46 48.5 -94c0 -50.667 -20.667 -90 -62 -118s-99.333 -42 -174 -42c-62 0 -110.833 9.16699 -146.5 27.5s-53.5 43.5 -53.5 75.5c0 24.667 10 45.334 30 62.001s47.333 27.334 82 32.001c-29.333 6 -51.333 16 -66 30s-22 31.667 -22 53c0 28 8.83301 50.667 26.5 68
s43.167 28.666 76.5 33.999c-30.667 12.667 -52.834 28.834 -66.501 48.501s-20.5 44.834 -20.5 75.501c0 44.667 17.167 82.834 51.5 114.501s75.5 47.5 123.5 47.5c20.667 0 39.5 -2.16699 56.5 -6.5s33.833 -11.166 50.5 -20.499l12.5 -8.5l13.5 -9.5
c20.667 16 38.834 27.5 54.501 34.5s30.5 10.5 44.5 10.5c16 0 29.333 -5.33301 40 -16s16 -24 16 -40c0 -13.333 -4.83301 -25 -14.5 -35s-21.167 -15 -34.5 -15c-8.66699 0 -16.5 2.66699 -23.5 8s-11.5 11.333 -13.5 18c0 0.666992 -0.166992 1.33398 -0.5 2.00098
s-0.5 1.33398 -0.5 2.00098s-0.166992 1.33398 -0.5 2.00098s-0.5 1.33398 -0.5 2.00098c-1.33301 4 -3 7.83301 -5 11.5s-5.66699 5.5 -11 5.5s-10 -1.33301 -14 -4s-7.66699 -5.66699 -11 -9c-0.666992 0 -1.16699 -0.166992 -1.5 -0.5l-1.5 -1.5v1zM234 -12.0098
c-42.667 0 -73.333 -5.83301 -92 -17.5s-28 -30.167 -28 -55.5c0 -23.333 10.833 -41 32.5 -53s53.5 -18 95.5 -18c47.333 0 84.5 7 111.5 21s40.5 33.667 40.5 59s-10.833 42.333 -32.5 51s-64.167 13 -127.5 13v0zM254.001 437.99c-28 -0.666992 -50 -11.999 -66 -33.999
s-24 -52.667 -24 -92c0 -36.667 8.16699 -66.167 24.5 -88.5s37.833 -33.5 64.5 -33.5c27.333 0 49 11.667 65 35s24 54.666 24 93.999c0 37.333 -7.66699 66.333 -23 87s-37 31 -65 31v1z" />
    <glyph glyph-name="h" unicode="h" horiz-adv-x="611" 
d="M183 736l-0.00292969 -371.003c18.667 32.667 41 58.667 67 78s58.667 29 98 29c27.333 0 51.833 -5.5 73.5 -16.5s38.834 -26.5 51.501 -46.5c2.66699 -4 5.16699 -8 7.5 -12l6.5 -11c6.66699 -14 10.834 -30.167 12.501 -48.5s2.5 -47.166 2.5 -86.499v-104v-52
c0.666992 -24 2.33398 -38.833 5.00098 -44.5s9.33398 -9.16699 20.001 -10.5c5.33301 -0.666992 10.666 -1.16699 15.999 -1.5s11 -0.833008 17 -1.5h16h16v-37h-265v38h10c19.333 -0.666992 35.5 -0.166992 48.5 1.5s20.833 3.83398 23.5 6.50098
c3.33301 3.33301 5.5 7.66602 6.5 12.999s1.5 17 1.5 35v134c0 52 -2.66699 88.5 -8 109.5s-16.666 37.833 -33.999 50.5c-8.66699 6 -18.5 10.667 -29.5 14s-22.167 5 -33.5 5c-44.667 0 -76 -15.167 -94 -45.5s-29 -63.833 -33 -100.5
c-0.666992 -8.66699 -1.16699 -17 -1.5 -25s-0.5 -16 -0.5 -24v-117c0.666992 -24 2.33398 -38.833 5.00098 -44.5s9.33398 -9.16699 20.001 -10.5s21.5 -2.16602 32.5 -2.49902s21.833 -0.5 32.5 -0.5v-37h-254v38h8c17.333 -0.666992 31.666 -0.166992 42.999 1.5
s18.333 3.83398 21 6.50098c3.33301 2.66699 5.33301 6.83398 6 12.501s1 17.5 1 35.5v53v428v41c0 29.333 -3.83301 47.833 -11.5 55.5s-26.834 11.5 -57.501 11.5l-21 1v38c29.333 -0.666992 58.666 -0.333984 87.999 0.999023s58.333 5.33301 87 12v1z" />
    <glyph glyph-name="i" unicode="i" horiz-adv-x="315" 
d="M205 473l-0.00292969 -326.004v-52c0 -24 1.16699 -38.833 3.5 -44.5s8.5 -9.16699 18.5 -10.5c10.667 -1.33301 21.167 -2.16602 31.5 -2.49902s20.833 -0.5 31.5 -0.5v-37h-260v38h19c17.333 -0.666992 31.666 -0.166992 42.999 1.5s18.333 3.83398 21 6.50098
c3.33301 2.66699 5.33301 6.83398 6 12.501s1 17.5 1 35.5v53v166v40c-0.666992 30.667 -4.66699 49.667 -12 57s-26.666 11 -57.999 11l-20 1v38c14.667 -0.666992 29.334 -0.666992 44.001 0s29.334 1.66699 44.001 3c14 0.666992 28.333 1.83398 43 3.50098
s29.334 3.5 44.001 5.5v1zM154.997 721.996c17.333 -0.666992 31.833 -7 43.5 -19s17.5 -26.667 17.5 -44c0 -16.667 -5.83301 -31 -17.5 -43s-26.167 -18 -43.5 -18c-16.667 0 -31.167 6 -43.5 18s-18.5 26.333 -18.5 43c0 17.333 6.16699 32 18.5 44s26.833 18 43.5 18v1z
" />
    <glyph glyph-name="j" unicode="j" horiz-adv-x="296" 
d="M192 473l-0.000976562 -355.001c0 -48 -0.666992 -83.5 -2 -106.5s-4.66602 -43.833 -9.99902 -62.5c-1.33301 -5.33301 -2.83301 -10.666 -4.5 -15.999s-3.5 -10.666 -5.5 -15.999c-10.667 -31.333 -27.167 -57.833 -49.5 -79.5s-51.5 -32.5 -87.5 -32.5
c-19.333 0 -35.166 5.83301 -47.499 17.5s-18.5 26.5 -18.5 44.5c0 14.667 4.66699 27 14 37s20.333 15 33 15c12 0 21 -3 27 -9s10.667 -13 14 -21c0.666992 -2 1.5 -4.33301 2.5 -7s1.83301 -5 2.5 -7c2 -4.66699 3.83301 -8.33398 5.5 -11.001s4.16699 -4 7.5 -4
c13.333 0 22.333 14.833 27 44.5s7 88.167 7 175.5v233v41c0 29.333 -3.83301 47.833 -11.5 55.5s-27.167 11.5 -58.5 11.5l-20 1v38c11.333 -0.666992 23 -0.833984 35 -0.500977s23.667 0.833008 35 1.5c18 1.33301 35.667 2.83301 53 4.5s34.666 3.83398 51.999 6.50098
v1zM144.999 721.999c16.667 -0.666992 31 -7 43 -19s18 -26.667 18 -44c0 -16.667 -6 -31 -18 -43s-26.333 -18 -43 -18s-31.167 6 -43.5 18s-18.5 26.333 -18.5 43c0 17.333 6.16699 32 18.5 44s26.833 18 43.5 18v1z" />
    <glyph glyph-name="k" unicode="k" horiz-adv-x="593" 
d="M321 294l157.994 -202c6 -8 11.333 -14.833 16 -20.5s9 -10.5 13 -14.5c9.33301 -7.33301 19.333 -12.166 30 -14.499s26 -4.16602 46 -5.49902v-37h-274v38h33c16 -0.666992 27 0 33 2s9 6 9 12c0 4 -1.16699 7.83301 -3.5 11.5s-5.16602 7.16699 -8.49902 10.5
c-1.33301 2 -2.83301 3.83301 -4.5 5.5s-3.16699 3.5 -4.5 5.5l-114 151l-69 -58v-83c0.666992 -24 2.33398 -38.833 5.00098 -44.5s9.33398 -9.16699 20.001 -10.5h2h1c6.66699 -0.666992 14 -1.16699 22 -1.5l35 -1.5v-37h-255v38h14
c16.667 -0.666992 30.834 -0.166992 42.501 1.5s18.834 3.83398 21.501 6.50098c3.33301 2.66699 5.33301 6.83398 6 12.501s1 17.5 1 35.5v53v428v42c0 29.333 -3.83301 47.666 -11.5 54.999s-27.167 11 -58.5 11l-15 1v38h25h2c8 -0.666992 16 -0.833984 24 -0.500977
s16 0.5 24 0.5c14.667 0.666992 29.667 2 45 4s32 4.66699 50 8v-498l148 124c7.33301 6 13 11 17 15s6.33301 8 7 12c0.666992 1.33301 1 2.5 1 3.5v2.5c0 8.66699 -4.5 15 -13.5 19s-18.833 6.66699 -29.5 8c-6 0.666992 -11.833 1 -17.5 1h-14.5v39h269v-38
c-18 -2 -34.167 -4.83301 -48.5 -8.5s-28.5 -9.16699 -42.5 -16.5c-9.33301 -4.66699 -18.666 -10.334 -27.999 -17.001s-19.333 -14.334 -30 -23.001l-78 -63v0z" />
    <glyph glyph-name="l" unicode="l" horiz-adv-x="315" 
d="M197 735l0.000976562 -588.003v-52c0.666992 -24 2 -38.833 4 -44.5s8 -9.16699 18 -10.5c10.667 -1.33301 21.167 -2.16602 31.5 -2.49902s20.833 -0.5 31.5 -0.5v-37h-260v38h19c17.333 -0.666992 31.666 -0.166992 42.999 1.5s18.333 3.83398 21 6.50098
c3.33301 2.66699 5.33301 6.83398 6 12.501s1 17.5 1 35.5v53v428v40c-0.666992 30 -4.66699 48.833 -12 56.5s-26.666 11.5 -57.999 11.5l-20 1v38c29.333 -0.666992 58.666 0 87.999 2s58.333 5.33301 87 10v1z" />
    <glyph glyph-name="m" unicode="m" horiz-adv-x="889" 
d="M873 0l-254.995 -0.0107422v38h8c34 -0.666992 54.333 1.83301 61 7.5s10.334 21.834 11.001 48.501v53v103c0 58.667 -6.66699 99.5 -20 122.5s-37.333 34.5 -72 34.5c-37.333 0 -67.333 -13.167 -90 -39.5s-34 -61.5 -34 -105.5v-167
c0.666992 -24 2.16699 -38.833 4.5 -44.5s8.83301 -9.16699 19.5 -10.5c5.33301 -0.666992 10.5 -1.16699 15.5 -1.5s10.167 -0.833008 15.5 -1.5h15h15v-37h-255v38h8c18.667 -0.666992 34.167 -0.166992 46.5 1.5s19.833 3.83398 22.5 6.50098
c3.33301 2.66699 5.5 6.83398 6.5 12.501s1.5 17.5 1.5 35.5v138c0 38 -0.833008 65.167 -2.5 81.5s-5.5 30.833 -11.5 43.5c-0.666992 1.33301 -1.5 2.83301 -2.5 4.5s-1.83301 3.5 -2.5 5.5c-7.33301 13.333 -17.333 23.333 -30 30s-27.334 10 -44.001 10
c-38.667 0 -68.834 -16 -90.501 -48s-32.5 -77 -32.5 -135v-129c0 -24 1.33301 -38.833 4 -44.5s9.33398 -9.16699 20.001 -10.5c11.333 -1.33301 22.5 -2.16602 33.5 -2.49902s21.833 -0.5 32.5 -0.5v-37h-260v38h14c17.333 -0.666992 31.666 -0.166992 42.999 1.5
s18.333 3.83398 21 6.50098c3.33301 2.66699 5.33301 7 6 13s1 17.667 1 35v53v166v42c0 28.667 -3.83301 46.834 -11.5 54.501s-27.167 11.5 -58.5 11.5l-20 1v38c19.333 -0.666992 38.166 -0.5 56.499 0.5s36.833 2.5 55.5 4.5c9.33301 0.666992 18.666 1.66699 27.999 3
l28 4l-1 -28c0 -7.33301 0.166992 -14.666 0.5 -21.999s0.5 -14.333 0.5 -21v-21.5v-21.5c16 34.667 36.833 62.334 62.5 83.001s58.5 31 98.5 31c38.667 0 69.667 -9.66699 93 -29s37.666 -47.666 42.999 -84.999c15.333 34.667 37.166 62.334 65.499 83.001
s61.833 31 100.5 31c59.333 0 98 -19.5 116 -58.5s27.667 -82.167 29 -129.5c0.666992 -6 1 -11.833 1 -17.5v-17.5v-102v-52c0.666992 -24 2.16699 -38.833 4.5 -44.5s8.83301 -9.16699 19.5 -10.5c11.333 -1.33301 22.5 -2.16602 33.5 -2.49902s21.833 -0.5 32.5 -0.5v-37
v0z" />
    <glyph glyph-name="n" unicode="n" horiz-adv-x="611" 
d="M279 0l-260.001 -0.000976562v38h9c17.333 -0.666992 31.666 -0.166992 42.999 1.5s18.333 3.83398 21 6.50098c3.33301 2.66699 5.33301 6.83398 6 12.501s1 17.5 1 35.5v53v166v40c-0.666992 30 -4.66699 48.833 -12 56.5s-26.666 11.5 -57.999 11.5l-20 1v38
c28 -0.666992 55.833 -0.166992 83.5 1.5s55.167 4.5 82.5 8.5v-11v-10c-0.666992 -2.66699 -1 -5.33398 -1 -8.00098v-7v-18.5c0 -6.33301 0.333008 -12.5 1 -18.5v-19.5v-18.5c17.333 37.333 40.5 65.5 69.5 84.5s62.167 28.5 99.5 28.5c70 0 115.167 -21.333 135.5 -64
s30.5 -94 30.5 -154v-107v-52c0.666992 -24 2.33398 -38.833 5.00098 -44.5s9.33398 -9.16699 20.001 -10.5c6 -0.666992 11.833 -1.16699 17.5 -1.5s11.5 -0.833008 17.5 -1.5h17.5h17.5v-37h-270v38h7c20 -0.666992 36.667 -0.166992 50 1.5
s21.666 3.83398 24.999 6.50098s5.33301 6.66699 6 12s1.33398 17.333 2.00098 36v136c0 32 -0.833008 57.167 -2.5 75.5s-5.16699 33.833 -10.5 46.5c-6.66699 17.333 -17.667 30.833 -33 40.5s-34.333 14.5 -57 14.5c-54.667 0 -91.334 -18.833 -110.001 -56.5
s-28 -79.834 -28 -126.501v-129c0 -23.333 1.5 -38 4.5 -44s9.83301 -9.66699 20.5 -11c6 -0.666992 11.833 -1.16699 17.5 -1.5s11.5 -0.833008 17.5 -1.5h17.5h17.5v-37v0z" />
    <glyph glyph-name="o" unicode="o" horiz-adv-x="500" 
d="M253 473c58.667 -0.666992 109.333 -25 152 -73s64 -104.667 64 -170c0 -66 -21.667 -123 -65 -171s-94.333 -72 -153 -72s-110 24 -154 72s-66 104.333 -66 169c0 66 22 123.167 66 171.5s96 72.5 156 72.5v1zM248.999 433
c-36 -0.666992 -64.6689 -19.334 -86.002 -56.001s-32 -86.667 -32 -150c0 -62 10.833 -111 32.5 -147s50.834 -54 87.501 -54s65.5 18.333 86.5 55s31.5 86.667 31.5 150c0 62.667 -10.667 111.834 -32 147.501s-50.666 53.5 -87.999 53.5v1z" />
    <glyph glyph-name="p" unicode="p" horiz-adv-x="574" 
d="M173 474c0 -6.66699 0.166992 -12.998 0.5 -18.998s0.5 -12 0.5 -18s0.166992 -12 0.5 -18s0.5 -12 0.5 -18v-1.5v-0.5c0 -3.33301 -0.166992 -6.83301 -0.5 -10.5s-0.833008 -8.5 -1.5 -14.5c15.333 31.333 36.666 55.5 63.999 72.5s58.666 25.5 93.999 25.5
c56 0 103.667 -21.5 143 -64.5s59 -95.5 59 -157.5c0 -44.667 -4.5 -82 -13.5 -112s-24.167 -57 -45.5 -81c-20 -22.667 -43 -40 -69 -52s-53.333 -18 -82 -18c-30.667 0 -58.334 7 -83.001 21s-44 34 -58 60v-109v-52c0 -23.333 1.16699 -37.833 3.5 -43.5
s8.16602 -9.16699 17.499 -10.5c3.33301 -0.666992 7.33301 -1.16699 12 -1.5s9.66699 -0.5 15 -0.5c4 -0.666992 8 -1 12 -1h11h14v-38h-255v38h13c17.333 0 31.833 0.666992 43.5 2s18.834 3.33301 21.501 6s4.33398 7 5.00098 13s1.33398 18 2.00098 36v52v355v41
c-0.666992 29.333 -4.66699 47.666 -12 54.999s-26.666 11 -57.999 11l-15 1v38c11.333 -0.666992 22.833 -0.833984 34.5 -0.500977s23.167 0.833008 34.5 1.5c16 1.33301 31.667 2.83301 47 4.5s30.333 4.16699 45 7.5v1zM316 423.002
c-44 -0.666992 -78.0039 -17.665 -102.004 -50.998s-36 -80.333 -36 -141s11.833 -108.334 35.5 -143.001s56.834 -52 99.501 -52c40.667 0 69.834 14.5 87.501 43.5s28.834 60.5 33.501 94.5c1.33301 11.333 2.33301 22.166 3 32.499s1 20.5 1 30.5
c0 8 -0.166992 16 -0.5 24s-1.16602 16 -2.49902 24c-4 34 -14.5 65.333 -31.5 94s-46.167 43 -87.5 43v1z" />
    <glyph glyph-name="q" unicode="q" horiz-adv-x="556" 
d="M487 460c-2 -14.667 -3.49902 -27.835 -4.49902 -39.502s-1.83301 -23.167 -2.5 -34.5c-1.33301 -14.667 -2.16602 -30 -2.49902 -46s-0.5 -34 -0.5 -54v-327v-54c0.666992 -26.667 4.33398 -42.5 11.001 -47.5s27 -7.5 61 -7.5h8v-38h-250v38h14
c17.333 0 31.666 0.666992 42.999 2s18.333 3.33301 21 6c3.33301 2.66699 5.33301 6.83398 6 12.501s1 17.167 1 34.5v54v109c-16.667 -29.333 -36.834 -50.166 -60.501 -62.499s-53.834 -18.5 -90.501 -18.5c-74.667 0 -126.667 23.333 -156 70s-44 103.334 -44 170.001
c0 73.333 20.167 132.666 60.5 177.999s93.166 68 158.499 68c37.333 0 69.333 -7 96 -21s48.334 -34.667 65.001 -62l35 70h31v0zM266.001 432.999c-44 -0.666992 -76.666 -17.998 -97.999 -51.998s-32 -86 -32 -156c0 -64.667 10.333 -112.334 31 -143.001s53 -46 97 -46
c54 0 89.167 17.667 105.5 53s25.166 74.333 26.499 117v11.5v11.5v18.5c0 6.33301 -0.333008 12.833 -1 19.5c-2 41.333 -11 79.166 -27 113.499s-50 51.5 -102 51.5v1z" />
    <glyph glyph-name="r" unicode="r" horiz-adv-x="444" 
d="M169 473c-0.666992 -8 -1.16699 -14.3379 -1.5 -19.0049s-0.5 -9 -0.5 -13v-1.5v-1.5c0 -12 0.166992 -24.167 0.5 -36.5s0.5 -24.5 0.5 -36.5c0 -12.667 0.166992 -25.167 0.5 -37.5s0.5 -24.5 0.5 -36.5c16.667 59.333 39.834 104.333 69.501 135s64.167 46 103.5 46
c30 0 54.333 -7.83301 73 -23.5s28 -36.167 28 -61.5c0 -21.333 -6.33301 -38.666 -19 -51.999s-29.334 -20 -50.001 -20c-18 0 -33.333 5.33301 -46 16s-19 23.334 -19 38.001c0 5.33301 1 10.833 3 16.5s5.33301 10.834 10 15.501l7 8.5c1.33301 1.66699 2 3.16699 2 4.5
v0.5v0.5c0 2.66699 -0.666992 4.5 -2 5.5s-3.33301 1.5 -6 1.5c-3.33301 0 -7.66602 -1 -12.999 -3s-10.333 -4.33301 -15 -7c-5.33301 -3.33301 -10.333 -6.83301 -15 -10.5s-8.66699 -7.5 -12 -11.5c-32 -36 -53.5 -76 -64.5 -120s-17.167 -89 -18.5 -135
c-0.666992 -6.66699 -1 -13.5 -1 -20.5v-20.5c0.666992 -23.333 2.33398 -37.833 5.00098 -43.5s9.66699 -9.16699 21 -10.5c6 -0.666992 12.167 -1.16699 18.5 -1.5s12.5 -0.833008 18.5 -1.5h18.5h18.5v-37h-275v38h19c17.333 -0.666992 31.666 -0.166992 42.999 1.5
s18.333 3.83398 21 6.50098c3.33301 2.66699 5.33301 6.83398 6 12.501s1 17.5 1 35.5v53v166v41c0 29.333 -3.83301 47.833 -11.5 55.5s-27.167 11.5 -58.5 11.5l-20 1v38c27.333 -0.666992 54.166 0 80.499 2s52.833 5.33301 79.5 10v1z" />
    <glyph glyph-name="s" unicode="s" horiz-adv-x="463" 
d="M391 460l-0.000976562 -165.004h-33c-20 46.667 -42.833 81.167 -68.5 103.5s-55.167 33.5 -88.5 33.5c-24.667 0 -45.167 -6.16699 -61.5 -18.5s-24.5 -27.833 -24.5 -46.5c0 -27.333 12 -46.166 36 -56.499s52.333 -18.833 85 -25.5
c4.66699 -1.33301 9.66699 -2.66602 15 -3.99902s11 -2.33301 17 -3c38 -9.33301 72.833 -23.166 104.5 -41.499s47.5 -52.166 47.5 -101.499c0 -42.667 -16 -78 -48 -106s-71.667 -42 -119 -42c-9.33301 0 -18.333 0.5 -27 1.5s-17.334 2.83301 -26.001 5.5
c-14 3.33301 -28.5 8.83301 -43.5 16.5s-32.167 18.167 -51.5 31.5l-30 -42h-32v190h32c16.667 -52 40.334 -91.5 71.001 -118.5s67.334 -40.5 110.001 -40.5c28.667 0 52.334 7.16699 71.001 21.5s28 32.5 28 54.5c0 25.333 -11.833 43 -35.5 53s-51.167 18.333 -82.5 25
l-17.5 4l-16.5 4c-38.667 8.66699 -73.834 22.167 -105.501 40.5s-47.5 51.5 -47.5 99.5c0 39.333 14.333 72.333 43 99s64 40 106 40c12.667 0 25 -0.833008 37 -2.5s23.667 -4.5 35 -8.5c10 -3.33301 20.333 -7.83301 31 -13.5s21.667 -12.167 33 -19.5l23 32h33v0z" />
    <glyph glyph-name="t" unicode="t" horiz-adv-x="389" 
d="M187 664l0.00292969 -204h151v-38h-151v-245c0 -51.333 4.33301 -86 13 -104s25.334 -27 50.001 -27c26 0 46.5 12.167 61.5 36.5s23.833 59.166 26.5 104.499l39 1c-0.666992 -37.333 -3.33398 -66 -8.00098 -86s-13 -38.333 -25 -55
c-0.666992 -1.33301 -1.33398 -2.33301 -2.00098 -3l-2 -2c-14.667 -18.667 -31.834 -32.5 -51.501 -41.5s-42.167 -13.5 -67.5 -13.5c-40.667 0 -70.834 10.333 -90.501 31s-29.5 52.667 -29.5 96l1 61v247h-100v38c63.333 -0.666992 102.5 20.333 117.5 63
s24.5 89.334 28.5 140.001l39 1v0z" />
    <glyph glyph-name="u" unicode="u" horiz-adv-x="611" 
d="M509 473l-0.00195312 -325.998v-41c0 -30.667 4 -49.834 12 -57.501s27.333 -11.5 58 -11.5l15 1v-38c-28.667 0 -57.167 -1.33301 -85.5 -4s-56.5 -5.66699 -84.5 -9v38.5c0 13 -0.333008 25.833 -1 38.5l1 23c-8.66699 -12.667 -17 -23.834 -25 -33.501
s-16 -18.167 -24 -25.5c-16.667 -15.333 -34 -26 -52 -32s-39 -9 -63 -9c-74.667 0 -120 24.167 -136 72.5s-24 101.833 -24 160.5v134c0 30 -4.66699 48.667 -14 56s-32 11 -68 11l-13 1v38c20.667 -0.666992 40.834 -0.5 60.501 0.5s39.5 2.5 59.5 4.5
c10 1.33301 20 2.5 30 3.5s20 2.16699 30 3.5v-253v-19v-18c1.33301 -32.667 8 -62.667 20 -90s39.333 -41 82 -41c44.667 0 78.667 16.5 102 49.5s35 81.167 35 144.5v109c-0.666992 30 -5.5 48.667 -14.5 56s-31.5 11 -67.5 11l-18 1v38c31.333 -0.666992 62.333 0 93 2
s61.334 5.33301 92.001 10v1z" />
    <glyph glyph-name="v" unicode="v" horiz-adv-x="537" 
d="M300 -13l-34.998 -0.000976562l-168 367c-4.66699 8 -8.5 15.167 -11.5 21.5s-6.16699 11.833 -9.5 16.5c-6.66699 10.667 -14.5 18 -23.5 22s-24.167 6.33301 -45.5 7v39h243v-38l-29 -1c-1.33301 -0.666992 -2.83301 -1 -4.5 -1h-5.5h-4h-4
c-7.33301 -0.666992 -13.833 -2 -19.5 -4s-8.5 -6.33301 -8.5 -13c0 -1.33301 0.166992 -3 0.5 -5s0.5 -4 0.5 -6c0.666992 -2.66699 1.5 -5.33398 2.5 -8.00098s2.16699 -4.66699 3.5 -6l6 -12l112 -252l89 215c0.666992 1.33301 1.66699 3.16602 3 5.49902
s2.33301 4.5 3 6.5l6 13.5c2 4.33301 3.33301 8.5 4 12.5c0.666992 2.66699 1.16699 5.16699 1.5 7.5s0.5 4.5 0.5 6.5c0 12.667 -5.83301 22.334 -17.5 29.001s-29.834 10.334 -54.501 11.001v39h194v-38c-16.667 -2.66699 -30.334 -7.66699 -41.001 -15
s-20.667 -19.666 -30 -36.999c-3.33301 -6 -6.5 -12.333 -9.5 -19l-9.5 -22l-139 -342v0z" />
    <glyph glyph-name="w" unicode="w" horiz-adv-x="778" 
d="M391 305l-119.003 -317.999h-33l-147 376c-2 4.66699 -4.16699 9.16699 -6.5 13.5l-6.5 12.5c-6.66699 11.333 -14 18.666 -22 21.999s-19.333 6 -34 8c-2.66699 0.666992 -5.33398 1 -8.00098 1s-5.33398 0.333008 -8.00098 1v39h232v-38l-14 -1
c-1.33301 -0.666992 -2.83301 -1 -4.5 -1h-5.5h-6h-6c-7.33301 -0.666992 -14 -2.16699 -20 -4.5s-9 -6.83301 -9 -13.5c0 -2.66699 0.333008 -5.33398 1 -8.00098l2 -8c0.666992 -2.66699 1.5 -5 2.5 -7s1.83301 -4.33301 2.5 -7c1.33301 -1.33301 2.33301 -3 3 -5
s1.33398 -3.66699 2.00098 -5l91 -228l85 229c-2.66699 4.66699 -5 9.33398 -7 14.001s-4.33301 9 -7 13c-7.33301 12 -15.666 19.833 -24.999 23.5s-24.666 6.16699 -45.999 7.5v39h235v-38l-24 -1c-15.333 -0.666992 -26 -2.5 -32 -5.5s-9 -8.16699 -9 -15.5
c0 -2.66699 0.333008 -5.33398 1 -8.00098s1.33398 -5.66699 2.00098 -9c0.666992 -2 1.5 -4.16699 2.5 -6.5s1.83301 -4.5 2.5 -6.5l2 -4l2 -4l90 -236l79 209c4.66699 11.333 7.83398 19.833 9.50098 25.5s2.5 10.834 2.5 15.501v1.5v0.5
c0 13.333 -4.83301 23.166 -14.5 29.499s-26.5 10.833 -50.5 13.5v39h195v-38c-18 -3.33301 -32.667 -8.83301 -44 -16.5s-22 -20.5 -32 -38.5c-4 -7.33301 -7.83301 -15.666 -11.5 -24.999l-12.5 -31l-121 -324h-37l-122 318v0z" />
    <glyph glyph-name="x" unicode="x" horiz-adv-x="537" 
d="M308 252l131 -165.002c6.66699 -8.66699 12.5 -15.667 17.5 -21s9.83301 -10 14.5 -14c7.33301 -5.33301 15.333 -9 24 -11s20 -3.33301 34 -4v-37h-247v38c2 -0.666992 4.16699 -1 6.5 -1h5.5c23.333 1.33301 38 2.83301 44 4.5s9 5.5 9 11.5v2v2
c-0.666992 2.66699 -2.16699 5.5 -4.5 8.5l-11.5 15.5l-81 103l-70 -79c-5.33301 -6.66699 -9.33301 -12.667 -12 -18s-4 -10.666 -4 -15.999c0 -12 4.5 -20.333 13.5 -25s26.167 -7.66699 51.5 -9v-37h-222v38c14.667 1.33301 27.5 4 38.5 8s21.833 10 32.5 18
c8 5.33301 16.167 12.333 24.5 21s17.5 19 27.5 31l89 106l-113 141c-6 6.66699 -11.167 13 -15.5 19s-8.83301 11 -13.5 15c-8 8 -17 13.667 -27 17s-24.333 5.66602 -43 6.99902v39h243v-38c-5.33301 -1.33301 -10 -2 -14 -2h-10c-14 -0.666992 -23.5 -2 -28.5 -4
s-7.5 -5.66699 -7.5 -11c0 -4 1 -7.66699 3 -11s4.33301 -6.66602 7 -9.99902l4 -4c1.33301 -1.33301 2.33301 -2.66602 3 -3.99902l75 -91l60 76c1.33301 0.666992 2.5 1.66699 3.5 3s2.16699 2.66602 3.5 3.99902c3.33301 3.33301 6.16602 7 8.49902 11
s3.5 8.33301 3.5 13c0 9.33301 -3.83301 15.833 -11.5 19.5s-16.167 6.16699 -25.5 7.5c-3.33301 0 -6.83301 0.166992 -10.5 0.5s-6.83398 0.5 -9.50098 0.5c-1.33301 0.666992 -2.66602 1 -3.99902 1h-4v39h209v-38c-15.333 -2.66699 -28.666 -6 -39.999 -10
s-22.333 -10.333 -33 -19c-4.66699 -4 -9.66699 -8.66699 -15 -14s-11 -11.666 -17 -18.999l-92 -108v0z" />
    <glyph glyph-name="y" unicode="y" horiz-adv-x="537" 
d="M261 2l-173.993 364l-9 16.5l-7 13.5c-6.66699 9.33301 -14.167 15.5 -22.5 18.5s-22.166 5.16699 -41.499 6.5v39h241v-38c-6.66699 -1.33301 -12.834 -2.16602 -18.501 -2.49902s-10.167 -0.5 -13.5 -0.5c-18.667 -0.666992 -30.5 -2 -35.5 -4s-7.5 -6.33301 -7.5 -13
c0 -1.33301 0.166992 -2.83301 0.5 -4.5s0.5 -3.5 0.5 -5.5c1.33301 -2.66699 2.66602 -5.5 3.99902 -8.5s2.66602 -5.83301 3.99902 -8.5c0.666992 -2 1.5 -3.83301 2.5 -5.5s1.83301 -3.5 2.5 -5.5l120 -252l80 214c6 14.667 10 25.834 12 33.501s3 14.167 3 19.5
c0 13.333 -5.33301 23.166 -16 29.499s-29 10.5 -55 12.5v39h200v-38c-18.667 -4 -33.167 -8.83301 -43.5 -14.5s-19.833 -15.834 -28.5 -30.501c-4 -8 -8.33301 -17.167 -13 -27.5s-9.66699 -22.5 -15 -36.5l-92 -240c-4.66699 -14 -9.83398 -28.333 -15.501 -43
s-11.834 -29 -18.501 -43c-20 -44 -45.833 -84.5 -77.5 -121.5s-72.834 -55.5 -123.501 -55.5c-26.667 0 -48.667 7.16699 -66 21.5s-26 32.166 -26 53.499c0 16 5.5 29.5 16.5 40.5s24.5 16.5 40.5 16.5c18 0 30 -4 36 -12s10 -17 12 -27c0 -1.33301 0.166992 -3 0.5 -5
s0.5 -4 0.5 -6c1.33301 -7.33301 3 -13.666 5 -18.999s6.66699 -8 14 -8c10.667 0 21.667 3.66699 33 11s22.666 18 33.999 32c10 11.333 19.667 24.833 29 40.5s18.666 33.167 27.999 52.5v1z" />
    <glyph glyph-name="z" unicode="z" horiz-adv-x="481" 
d="M435 460l-0.00195312 -39.9961l-282 -380h101c52.667 -0.666992 88.667 9.66602 108 30.999s34 56.666 44 105.999l29 1v-178h-392v40l286 380h-98c-39.333 -0.666992 -67.166 -5.83398 -83.499 -15.501s-30.166 -32.834 -41.499 -69.501c-2 -6 -4 -12.333 -6 -19
s-4 -14 -6 -22l-32 1l8 165h365v0z" />
    <glyph glyph-name="braceleft" unicode="{" horiz-adv-x="333" 
d="M114 287c34.667 -10 58.333 -23.999 71 -41.999s19 -46 19 -84v-195c0 -33.333 7.66699 -59.333 23 -78s39.333 -31.667 72 -39c-54 0.666992 -96.667 8.33398 -128 23.001s-47 54 -47 118v190c0 31.333 -6.16699 54.833 -18.5 70.5s-34.5 27.5 -66.5 35.5
c32 9.33301 54.167 21.833 66.5 37.5s18.5 38.834 18.5 69.501v206c0 59.333 17.5 95.166 52.5 107.499s75.833 19.5 122.5 21.5l-8 -2c-2.66699 -0.666992 -4.66699 -1.33398 -6 -2.00098c-26.667 -6.66699 -46.834 -19.5 -60.501 -38.5s-20.5 -44.167 -20.5 -75.5v-204
c0 -36 -6.16699 -62.333 -18.5 -79s-36.166 -30.334 -71.499 -41.001v1z" />
    <glyph glyph-name="bar" unicode="|" horiz-adv-x="606" 
d="M262 -144v866h82v-866h-82v0z" />
    <glyph glyph-name="braceright" unicode="}" horiz-adv-x="333" 
d="M229 287c-34.667 10 -58.333 23.334 -71 40.001s-19 42.667 -19 78v206c0 36.667 -8 62.667 -24 78s-39.667 28.333 -71 39c46 -1.33301 86.667 -7.83301 122 -19.5s53 -48.5 53 -110.5v-204c0 -31.333 6.16699 -54.833 18.5 -70.5s34.5 -28.167 66.5 -37.5
c-32 -8 -54.167 -19.833 -66.5 -35.5s-18.5 -39.5 -18.5 -71.5v-189c0 -63.333 -15.5 -102.5 -46.5 -117.5s-73.833 -22.833 -128.5 -23.5c33.333 7.33301 57.5 20.333 72.5 39s22.5 44.667 22.5 78v196c0 36.667 6.5 64.167 19.5 82.5s36.5 32.166 70.5 41.499v1z" />
    <glyph glyph-name="asciitilde" unicode="~" horiz-adv-x="541" 
d="M451 402l32.9961 -37.001c-12.667 -32.667 -29 -57 -49 -73s-43.333 -24 -70 -24c-17.333 0 -33.666 3.66699 -48.999 11s-30.333 15.333 -45 24c-15.333 8.66699 -30.666 16.667 -45.999 24s-31.666 11 -48.999 11c-7.33301 0 -13.833 -0.833008 -19.5 -2.5
s-11.167 -4.5 -16.5 -8.5c-6.66699 -5.33301 -13.5 -13.5 -20.5 -24.5s-15.833 -26.167 -26.5 -45.5l-36 38c16 30.667 33.833 53.834 53.5 69.501s41.167 23.5 64.5 23.5c8 0 16 -1 24 -3s15.667 -4.33301 23 -7c8.66699 -3.33301 17.334 -7.16602 26.001 -11.499l26 -13.5
c16 -8.66699 31.667 -16.667 47 -24s29.333 -11 42 -11c7.33301 0 13.833 0.833008 19.5 2.5s11.167 4.5 16.5 8.5c7.33301 6 15 14.667 23 26s17.667 26.666 29 45.999v1z" />
    <glyph glyph-name="endash" unicode="&#xa1;" horiz-adv-x="296" 
d="M132 519l37.001 -0.00390625c0 -41.333 0.833008 -82.5 2.5 -123.5s5.5 -81.833 11.5 -122.5c1.33301 -10 3 -20 5 -30l6 -30l4 -21.5l4 -21.5c3.33301 -17.333 6 -34.666 8 -51.999s3 -34.333 3 -51c0 -24.667 -5.66699 -44.167 -17 -58.5s-27 -21.5 -47 -21.5
c-19.333 0 -34.833 7 -46.5 21s-17.5 33.333 -17.5 58v1.5v0.5c0 10.667 0.833008 23.334 2.5 38.001s5.5 39.334 11.5 74.001l13.5 93.5c3.66699 25.667 6.5 50.5 8.5 74.5c2.66699 21.333 4.66699 43.333 6 66s2.66602 49.334 3.99902 80.001c0 4 0.166992 8 0.5 12
s0.5 8 0.5 12v1zM153.001 732.996c17.333 -0.666992 32.333 -7.5 45 -20.5s19 -28.5 19 -46.5s-6.5 -33.5 -19.5 -46.5s-28.5 -19.5 -46.5 -19.5s-33.5 6.33301 -46.5 19s-19.5 28 -19.5 46c0 17.333 7 32.833 21 46.5s29.667 20.5 47 20.5v1z" />
    <glyph glyph-name="cent" unicode="&#xa2;" horiz-adv-x="556" 
d="M189 142c-34.667 20 -61.166 47.6621 -79.499 82.9951s-27.5 75.333 -27.5 120c0 72.667 21.5 132.667 64.5 180s97.5 71 163.5 71c17.333 0 33.833 -2 49.5 -6s30.5 -9.66699 44.5 -17l37 75l31 -15l-40 -81c10.667 -11.333 18.667 -23.166 24 -35.499
s8 -25.166 8 -38.499c0 -18.667 -5.66699 -34.5 -17 -47.5s-25.333 -19.5 -42 -19.5c-4 0 -8 0.5 -12 1.5s-8 2.5 -12 4.5c-2 0.666992 -4 1.83398 -6 3.50098s-4 3.16699 -6 4.5l-121 -242c11.333 -8 23 -13.833 35 -17.5s24.333 -5.5 37 -5.5
c27.333 0 49.666 6.33301 66.999 19s34 35.334 50 68.001c1.33301 3.33301 2.83301 6.83301 4.5 10.5s3.5 7.5 5.5 11.5l34 -13c-14.667 -44.667 -36 -80.167 -64 -106.5s-67 -39.5 -117 -39.5c-14 0 -27.5 1.33301 -40.5 4s-26.167 6.33398 -39.5 11.001l-34 -66l-31 16
l34 67v0zM222.001 208.995l128.999 258.998c0.666992 4.66699 1.16699 8.5 1.5 11.5s1.5 5.83301 3.5 8.5c0.666992 0.666992 1.16699 1.33398 1.5 2.00098s0.833008 1.33398 1.5 2.00098c0.666992 1.33301 1.5 2.5 2.5 3.5l2.5 2.5c2.66699 3.33301 5 6.83301 7 10.5
s3 7.5 3 11.5c0 10 -6.5 18.5 -19.5 25.5s-28.5 10.5 -46.5 10.5c-39.333 0 -70.166 -17 -92.499 -51s-33.5 -81.333 -33.5 -142c0 -32.667 3.5 -62.167 10.5 -88.5s16.833 -48.5 29.5 -66.5v1z" />
    <glyph glyph-name="sterling" unicode="&#xa3;" horiz-adv-x="556" 
d="M471 385l-0.000976562 -44.002h-192c6.66699 -24 11.167 -42.5 13.5 -55.5s3.83301 -25.167 4.5 -36.5v-3.5v-3.5c0 -8 -0.166992 -15.5 -0.5 -22.5s-1.16602 -13.833 -2.49902 -20.5c-1.33301 -9.33301 -3.16602 -18.666 -5.49902 -27.999s-5.5 -20 -9.5 -32
c42 -16 78.333 -28.333 109 -37s53.334 -13 68.001 -13c14 0 26.667 5.16699 38 15.5s22.333 27.166 33 50.499c2.66699 5.33301 5.16699 11 7.5 17l7.5 19l35 -11c-16.667 -66.667 -37.334 -115.5 -62.001 -146.5s-54.334 -46.5 -89.001 -46.5c-24.667 0 -52 6.5 -82 19.5
s-66.333 34.833 -109 65.5c-5.33301 -6.66699 -10.833 -13 -16.5 -19s-11.5 -11.333 -17.5 -16c-19.333 -17.333 -39 -30 -59 -38s-42 -12 -66 -12c-31.333 0 -57.166 9.16699 -77.499 27.5s-30.5 41.5 -30.5 69.5c0 31.333 9.16699 55.833 27.5 73.5s44.5 26.5 78.5 26.5
c20.667 0 39.5 -1 56.5 -3s33.5 -5.33301 49.5 -10c6.66699 -2 13.334 -4.33301 20.001 -7l21 -8c1.33301 5.33301 2 9.83301 2 13.5v9.5c0 20 -4 39.5 -12 58.5s-16.667 37.5 -26 55.5l-12 24c-4 8 -7.66699 15.667 -11 23l-131 1v44h121
c-4 9.33301 -7.33301 18.333 -10 27s-5 17.334 -7 26.001c-2 10.667 -3.5 21.834 -4.5 33.501s-1.5 24.834 -1.5 39.501c0 62.667 22 115.5 66 158.5s97.667 64.5 161 64.5c48.667 0 88.667 -13.833 120 -41.5s47 -63.167 47 -106.5c0 -27.333 -7.5 -50.5 -22.5 -69.5
s-33.5 -28.5 -55.5 -28.5c-15.333 0 -28.333 5.66699 -39 17s-16 25.333 -16 42c0 12 3.16699 22.333 9.5 31s15.833 16 28.5 22c2.66699 1.33301 5.16699 2.66602 7.5 3.99902s4.16602 2.66602 5.49902 3.99902c2 2 3.5 3.83301 4.5 5.5s1.5 3.83398 1.5 6.50098
c0 12 -8.66699 22.333 -26 31s-38.333 13 -63 13c-39.333 0 -72.333 -12.167 -99 -36.5s-40 -54.833 -40 -91.5c0 -14 1.5 -29.167 4.5 -45.5s7.5 -32.833 13.5 -49.5c3.33301 -10 7.16602 -19.667 11.499 -29l13.5 -28l209 1v0zM192.999 97.998
c-21.333 16.667 -41.833 29.334 -61.5 38.001s-38.5 13 -56.5 13c-18.667 0 -34.667 -6 -48 -18s-20 -27 -20 -45s6.5 -32.5 19.5 -43.5s29.833 -16.5 50.5 -16.5c20 0 38 4 54 12s31.667 21 47 39c2 3.33301 4.33301 6.66602 7 9.99902l8 10v1z" />
    <glyph glyph-name="Idieresis" unicode="&#xa4;" horiz-adv-x="606" 
d="M32 164l55.0029 56c-8 11.333 -14.833 22.166 -20.5 32.499s-10.5 20.833 -14.5 31.5c-5.33301 14 -9.16602 28.333 -11.499 43s-3.5 30.667 -3.5 48c0 23.333 2 44.333 6 63s10.333 36.667 19 54c3.33301 6.66699 7.16602 13.334 11.499 20.001l13.5 21l-55 57l55 57
l57 -57c2 0.666992 4.16699 1.83398 6.5 3.50098s4.83301 3.16699 7.5 4.5c23.333 15.333 46.833 26.5 70.5 33.5s49.167 10.5 76.5 10.5c18.667 0 36.167 -1.66699 52.5 -5s32.5 -8.33301 48.5 -15c9.33301 -4 18.666 -8.83301 27.999 -14.5s18.666 -11.834 27.999 -18.501
l57 58l54 -57l-54 -56c6 -8.66699 11.333 -16.834 16 -24.501s8.66699 -15.5 12 -23.5c8 -16.667 13.833 -33.834 17.5 -51.501s5.5 -37.5 5.5 -59.5s-1.83301 -41.833 -5.5 -59.5s-9.83398 -35.167 -18.501 -52.5c-3.33301 -7.33301 -7.33301 -14.666 -12 -21.999
s-9.66699 -14.666 -15 -21.999l54 -55l-54 -56l-57 56c-7.33301 -6 -14.666 -11.333 -21.999 -16s-14.666 -9 -21.999 -13c-18 -9.33301 -36.167 -16 -54.5 -20s-38.5 -6 -60.5 -6c-20 0 -38.833 1.83301 -56.5 5.5s-34.834 9.5 -51.501 17.5c-8 4 -16.333 8.5 -25 13.5
s-17.334 10.833 -26.001 17.5l-57 -55l-55 56v0zM304.003 556c-50.667 -0.666992 -93.667 -18.667 -129 -54s-53 -77.666 -53 -126.999c0 -50 17.667 -92.5 53 -127.5s78.333 -52.5 129 -52.5c50 0 92.667 17.5 128 52.5s53 77.5 53 127.5
c0 49.333 -17.667 91.666 -53 126.999s-78 53 -128 53v1z" />
    <glyph glyph-name="ae" unicode="&#xa5;" horiz-adv-x="704" 
d="M456 363l-35 -60.9971v-9h182v-66h-182v-125c0 -30 4 -47.833 12 -53.5s33 -8.5 75 -8.5l33 1v-41h-347v41h34c41.333 -0.666992 66 1.83301 74 7.5s12 23.167 12 52.5v126h-182v66h182l-46 70h-160v67h120l-131 194c-6 8 -11.5 14.833 -16.5 20.5
s-9.83301 10.5 -14.5 14.5c-8.66699 7.33301 -18 12.166 -28 14.499s-22.333 4.16602 -37 5.49902c-2.66699 0 -5.5 0.166992 -8.5 0.5s-6.16699 0.5 -9.5 0.5l-1 42h332v-41h-46c-20 -0.666992 -34.167 -2.5 -42.5 -5.5s-12.5 -8.16699 -12.5 -15.5v-2v-2
c0.666992 -3.33301 2 -6.83301 4 -10.5s5.66699 -9.83398 11 -18.501l165 -264l123 217c6.66699 10 11.5 19.333 14.5 28s4.5 16.334 4.5 23.001c0 16.667 -7.33301 28.5 -22 35.5s-40.667 11.5 -78 13.5v42h284v-41c-23.333 -2 -42.666 -6 -57.999 -12s-30 -17 -44 -33
c-8 -8.66699 -15.833 -18.834 -23.5 -30.501s-15.834 -25.5 -24.501 -41.5l-76 -134h126v-67h-163v0z" />
    <glyph glyph-name="brokenbar" unicode="&#xa6;" 
 />
    <glyph glyph-name="section" unicode="&#xa7;" horiz-adv-x="500" 
d="M361 216c25.333 -21.333 44.168 -43.168 56.501 -65.501s18.5 -45.166 18.5 -68.499c0 -43.333 -18.667 -80 -56 -110s-82.666 -45 -135.999 -45c-49.333 0 -92.333 14 -129 42s-55 61 -55 99c0 16 4.83301 29 14.5 39s22.167 15 37.5 15c14.667 0 26.667 -4 36 -12
s14 -18.667 14 -32c0 -4 -0.666992 -7.66699 -2 -11s-2.66602 -6.33301 -3.99902 -9l-4 -10c-1.33301 -3.33301 -2 -7 -2 -11c0 -18.667 9.83301 -35 29.5 -49s42.167 -21 67.5 -21c28 0 51.667 8.83301 71 26.5s29 39.5 29 65.5c0 23.333 -7.33301 42.666 -22 57.999
s-31 29.333 -49 42c-2.66699 2 -5.5 4 -8.5 6s-5.83301 4 -8.5 6l-109 77c-4.66699 2.66699 -9.33398 5.5 -14.001 8.5s-9 6.16699 -13 9.5c-20 14 -36.5 29.167 -49.5 45.5s-19.5 39.166 -19.5 68.499c0 12.667 1.5 24.5 4.5 35.5s8.16699 22.167 15.5 33.5
s17.166 23 29.499 35s27.833 25 46.5 39c-18.667 12.667 -33.167 28.834 -43.5 48.501s-15.5 40.834 -15.5 63.501c0 45.333 16.667 83 50 113s75 45 125 45c42.667 0 78.667 -12 108 -36s44 -53.333 44 -88c0 -13.333 -4.33301 -24.333 -13 -33s-19.667 -13 -33 -13
c-14.667 0 -26.667 4.66699 -36 14s-14 21.333 -14 36c0 3.33301 0.333008 6.5 1 9.5s1.33398 5.83301 2.00098 8.5c0.666992 1.33301 1.16699 2.5 1.5 3.5s0.833008 2.16699 1.5 3.5s1.16699 2.5 1.5 3.5s0.833008 2.16699 1.5 3.5c0 1.33301 0.166992 2.5 0.5 3.5
s0.5 2.16699 0.5 3.5c0 12.667 -7.33301 23.5 -22 32.5s-32 13.5 -52 13.5c-24.667 0 -46.334 -7.66699 -65.001 -23s-28 -33.333 -28 -54c0 -27.333 11.167 -50.666 33.5 -69.999s48.833 -38 79.5 -56l17 -10.5l18 -10.5c36.667 -22 70.334 -46.333 101.001 -73
s46 -61 46 -103c0 -10.667 -1 -20.5 -3 -29.5s-5.66699 -18.167 -11 -27.5c-6.66699 -12.667 -16.834 -25.834 -30.501 -39.501s-31.834 -29.167 -54.501 -46.5v1zM182.002 506.998c-15.333 -16 -26.832 -28.8262 -34.499 -38.4932s-12.834 -18.834 -15.501 -27.501
c-1.33301 -3.33301 -2.16602 -7 -2.49902 -11s-0.5 -8 -0.5 -12s0.5 -8.33301 1.5 -13s2.16699 -9.33398 3.5 -14.001c4 -11.333 10.167 -22.333 18.5 -33s17.5 -19.334 27.5 -26.001l28 -18l28 -18c1.33301 -0.666992 2.33301 -1.33398 3 -2.00098
s1.66699 -1.33398 3 -2.00098l46 -29.5c15.333 -9.66699 31 -18.834 47 -27.501c15.333 11.333 27.5 24.666 36.5 39.999s14.5 31 16.5 47v4.5v4.5c0 8 -2.16699 16.167 -6.5 24.5s-10.166 16.5 -17.499 24.5c-10.667 12.667 -23.834 25 -39.501 37
s-31.834 23.333 -48.501 34l-53 31.5l-41 23.5v1z" />
    <glyph glyph-name="dieresis" unicode="&#xa8;" horiz-adv-x="333" 
d="M66 708c16 -0.666992 29.667 -6.66699 41 -18s17 -25 17 -41s-5.66699 -29.667 -17 -41s-25 -17 -41 -17s-29.667 5.66699 -41 17s-17 25 -17 41s5.66699 29.667 17 41s25 17 41 17v1zM268 708c16 -0.666992 29.667 -6.66699 41 -18s17 -25 17 -41
s-5.66699 -29.667 -17 -41s-25 -17 -41 -17s-29.667 5.66699 -41 17s-17 25 -17 41s5.66699 29.667 17 41s25 17 41 17v1z" />
    <glyph glyph-name="copyright" unicode="&#xa9;" horiz-adv-x="737" 
d="M371 735c101.333 -0.666992 188.333 -37.5 261 -110.5s109 -161.167 109 -264.5s-36.333 -191.333 -109 -264s-160.667 -109 -264 -109c-102.667 0 -190.167 36.333 -262.5 109s-108.5 160.334 -108.5 263.001c0 103.333 36.667 191.666 110 264.999s161.333 110 264 110
v1zM369 690c-90.667 -0.666992 -168 -33 -232 -97s-96 -141.667 -96 -233c0 -90.667 32 -168.167 96 -232.5s141.333 -96.5 232 -96.5c90 0 167 32.167 231 96.5s96 141.833 96 232.5c0 91.333 -32 169 -96 233s-141 96 -231 96v1zM528 543v-108.999h-27
c-2 36.667 -12.167 64.334 -30.5 83.001s-45.166 28 -80.499 28c-44.667 0 -81 -16.333 -109 -49s-42 -75.667 -42 -129c0 -54.667 14.5 -100.167 43.5 -136.5s65.5 -54.5 109.5 -54.5c28 0 50.167 5.33301 66.5 16s31.5 25.667 45.5 45l6.5 9
c2.33301 3.33301 4.5 6.66602 6.5 9.99902l21 -7c-10.667 -30.667 -32 -55.5 -64 -74.5s-67.333 -28.5 -106 -28.5c-58 0 -105.667 19.833 -143 59.5s-56 90.5 -56 152.5c0 63.333 19.833 114.5 59.5 153.5s91.167 58.5 154.5 58.5c9.33301 0 19.5 -0.5 30.5 -1.5
s21.833 -2.16699 32.5 -3.5c14.667 -2.66699 29.167 -5.83398 43.5 -9.50098s27.166 -8.16699 38.499 -13.5v1z" />
    <glyph glyph-name="ellipsis" unicode="&#xaa;" horiz-adv-x="334" 
d="M317 362v-55h-314v55h314v0zM216 472c-6.66699 -20 -20.333 -36.168 -41 -48.501s-44.334 -18.5 -71.001 -18.5c-29.333 0 -53 7 -71 21s-27 32.667 -27 56c0 32.667 17.167 59.5 51.5 80.5s87.166 36.833 158.499 47.5c0 38.667 -4.66699 64.834 -14 78.501
s-27.333 20.5 -54 20.5c-16 0 -30.167 -2.5 -42.5 -7.5s-18.5 -11.167 -18.5 -18.5c0 -3.33301 0.833008 -6.33301 2.5 -9s3.5 -5.33398 5.5 -8.00098h0.5c0.333008 0 0.5 -0.333008 0.5 -1l6 -8c2 -2.66699 3 -6 3 -10c0 -10.667 -3.83301 -19.667 -11.5 -27
s-17.167 -11 -28.5 -11s-20.833 4 -28.5 12s-11.5 18 -11.5 30c0 23.333 13 43 39 59s58.333 24 97 24c42.667 0 72.167 -7.83301 88.5 -23.5s24.5 -43.834 24.5 -84.501v-117c0 -25.333 1.66699 -42.166 5 -50.499s9.33301 -12.5 18 -12.5c1.33301 0 2.5 0.166992 3.5 0.5
s2.16699 0.5 3.5 0.5c2.66699 0.666992 5.33398 2.16699 8.00098 4.5s6 5.5 10 9.5l18 -17c-8 -12 -16.667 -20.5 -26 -25.5s-21 -7.5 -35 -7.5c-17.333 0 -31.666 5.33301 -42.999 16s-18 25.334 -20 44.001v1zM216.001 583.999
c-48 -7.33301 -82.668 -18.165 -104.001 -32.498s-32 -34.833 -32 -61.5c0 -16 4.33301 -28.333 13 -37s20.334 -13 35.001 -13c21.333 0 40 7.66699 56 23s24.667 33.666 26 54.999c0 5.33301 0.333008 10.666 1 15.999s1 11 1 17l2 16l2 16v1z" />
    <glyph glyph-name="ydieresis" unicode="&#xab;" horiz-adv-x="426" 
d="M113 236l16.502 -21.999l16.5 -21c25.333 -34 47.166 -65.667 65.499 -95s27.5 -48 27.5 -56c0 -4.66699 -1.16699 -8.33398 -3.5 -11.001s-5.16602 -4 -8.49902 -4c-4.66699 0 -10.834 3.66699 -18.501 11s-18.5 19.333 -32.5 36l-1.5 1.5l-1.5 1.5
c-1.33301 2 -2.83301 3.83301 -4.5 5.5s-3.16699 3.5 -4.5 5.5l-31 34l-45 46c-2 2 -6.5 6.16699 -13.5 12.5l-22.5 19.5l-24.5 23.5c-7.66699 7 -11.5 10.833 -11.5 11.5c0 1.33301 0.833008 2.83301 2.5 4.5l6.5 6.5c26 19.333 51 41 75 65s46.333 48.667 67 74
c1.33301 2 2.83301 3.83301 4.5 5.5s3.16699 3.5 4.5 5.5c14.667 17.333 25.667 29.5 33 36.5s13.333 10.5 18 10.5c3.33301 0 6.16602 -1.5 8.49902 -4.5s3.5 -6.5 3.5 -10.5c0 -8 -9.33301 -26.833 -28 -56.5s-40.667 -61.5 -66 -95.5l-16 -21l-16 -20v1zM280.002 236.001
l16.502 -21.999l16.5 -21c25.333 -34 47.166 -65.667 65.499 -95s27.5 -48 27.5 -56c0 -4.66699 -1.16699 -8.33398 -3.5 -11.001s-5.16602 -4 -8.49902 -4c-4.66699 0 -10.834 3.66699 -18.501 11s-18.5 19.333 -32.5 36c-14 17.333 -28.667 33.833 -44 49.5l-47 47.5
c-0.666992 0.666992 -1.33398 1.16699 -2.00098 1.5s-1.33398 0.833008 -2.00098 1.5l-14 14l-14 14c-1.33301 1.33301 -3.66602 3.16602 -6.99902 5.49902l-11 7.5c-1.33301 0.666992 -2.5 1.5 -3.5 2.5s-2.16699 1.83301 -3.5 2.5
c-3.33301 2.66699 -6.16602 5.33398 -8.49902 8.00098s-3.5 5 -3.5 7c0 1.33301 0.833008 2.83301 2.5 4.5l6.5 6.5c26 19.333 51 41 75 65s46.333 48.667 67 74c1.33301 2 2.83301 3.83301 4.5 5.5s3.16699 3.5 4.5 5.5c14.667 17.333 25.667 29.5 33 36.5
s13.333 10.5 18 10.5c3.33301 0 6.16602 -1.5 8.49902 -4.5s3.5 -6.5 3.5 -10.5c0 -8 -9.33301 -26.833 -28 -56.5s-40.667 -61.5 -66 -95.5l-16 -21l-16 -20v1z" />
    <glyph glyph-name="emdash" unicode="&#xac;" 
 />
    <glyph glyph-name="uni00AD" unicode="&#xad;" horiz-adv-x="500" 
 />
    <glyph glyph-name="registered" unicode="&#xae;" horiz-adv-x="737" 
d="M371 735c102 -0.666992 189.168 -37.502 261.501 -110.502s108.5 -161.167 108.5 -264.5s-36.333 -191.333 -109 -264s-160.334 -109 -263.001 -109s-190.167 36.333 -262.5 109s-108.5 160.334 -108.5 263.001s36.5 190.834 109.5 264.501s160.833 110.5 263.5 110.5v1z
M369.001 689.998c-90.667 -0.666992 -167.834 -33 -231.501 -97s-95.5 -141.667 -95.5 -233c0 -90.667 31.833 -168.167 95.5 -232.5s140.834 -96.5 231.501 -96.5s167.834 32.167 231.501 96.5s95.5 141.833 95.5 232.5c0 91.333 -31.833 169 -95.5 233
s-140.834 96 -231.501 96v1zM196.001 559.998l-0.00292969 17h174c48 -0.666992 84.167 -9.66699 108.5 -27s36.5 -42.666 36.5 -75.999c0 -28.667 -9.16699 -51.667 -27.5 -69s-47.166 -29.666 -86.499 -36.999c20.667 -5.33301 36.834 -16.833 48.501 -34.5
s21.834 -36.5 30.501 -56.5c1.33301 -2 2.5 -4.33301 3.5 -7s2.16699 -5 3.5 -7c8.66699 -20.667 18.5 -39 29.5 -55s26.5 -24 46.5 -24v-15h-55c-9.33301 -0.666992 -17.5 0.5 -24.5 3.5s-13.5 8.83301 -19.5 17.5c-5.33301 6.66699 -10.666 15.667 -15.999 27
s-11.333 25.333 -18 42l-14 34.5c-4 9.66699 -7.66699 17.834 -11 24.501c-8.66699 17.333 -19.334 28.166 -32.001 32.499s-36 6.5 -70 6.5v-128c0 -18.667 1.66699 -30.334 5 -35.001s11.333 -7.33398 24 -8.00098c3.33301 0 6.83301 -0.166992 10.5 -0.5
s7.16699 -0.833008 10.5 -1.5v-15h-157v16c1.33301 -0.666992 2.5 -1 3.5 -1s2.16699 0.333008 3.5 1h5h4c8.66699 0.666992 16.5 2.66699 23.5 6s10.5 10.333 10.5 21v12v297c0 17.333 -1.66699 27.5 -5 30.5s-10 4.83301 -20 5.5c-3.33301 0 -7 0.166992 -11 0.5
s-8.66699 0.833008 -14 1.5v1zM302.998 377.998c6 -1.33301 11.167 -2 15.5 -2h10.5c44.667 0 77.667 7.66699 99 23s32 38.333 32 69c0 28.667 -8.66699 50.667 -26 66s-42 23 -74 23h-7.5h-6.5c-2.66699 -0.666992 -5.16699 -1 -7.5 -1h-7.5
c-10 0 -17.167 -2.33301 -21.5 -7s-6.5 -12.667 -6.5 -24v-147v0z" />
    <glyph glyph-name="glyph263" unicode="&#xaf;" 
 />
    <glyph glyph-name="glyph264" unicode="&#xb0;" 
 />
    <glyph glyph-name="mu" unicode="&#xb1;" horiz-adv-x="606" 
d="M551 80v-80h-497v80h497v0zM262 404v228h82v-228h207v-81h-207v-204h-82v204h-208v81h208v0z" />
    <glyph glyph-name="uni00B2" unicode="&#xb2;" 
 />
    <glyph glyph-name="uni00B3" unicode="&#xb3;" 
 />
    <glyph glyph-name="acute" unicode="&#xb4;" horiz-adv-x="333" 
d="M146 605l84.999 85.999c16.667 16.667 29.5 28 38.5 34s17.167 9 24.5 9c10 0 18.667 -3.66699 26 -11s11 -16 11 -26c0 -4.66699 -0.833008 -9.16699 -2.5 -13.5s-4.16699 -8.5 -7.5 -12.5c-4.66699 -5.33301 -11.167 -10.666 -19.5 -15.999
s-19.166 -11.333 -32.499 -18l-106 -54l-17 22v0z" />
    <glyph glyph-name="oslash" unicode="&#xb5;" horiz-adv-x="589" 
d="M390 81c-25.333 -34 -51.501 -58.8389 -78.501 -74.5059s-55.833 -23.5 -86.5 -23.5c-8 0 -15.667 1 -23 3s-14.333 5.33301 -21 10c-9.33301 4.66699 -19 12.334 -29 23.001s-20.667 24 -32 40c0.666992 -20 2.66699 -39 6 -57l10 -52
c4.66699 -16.667 8.66699 -32.167 12 -46.5s5 -27.166 5 -38.499c0 -17.333 -4.66699 -31 -14 -41s-21.666 -15 -36.999 -15s-27.833 5.66699 -37.5 17s-14.5 26 -14.5 44c0 5.33301 0.333008 11.5 1 18.5s1.66699 14.5 3 22.5l11.5 76.5
c3.66699 25 7.16699 50.167 10.5 75.5c5.33301 42.667 9.5 85.334 12.5 128.001s4.5 85.667 4.5 129v162h98v-300c0 -45.333 6 -76.5 18 -93.5s33.333 -25.5 64 -25.5c14 0 26.333 1.33301 37 4s21 7.33398 31 14.001c8 4.66699 15.833 10.834 23.5 18.501
s16.167 17.167 25.5 28.5v354h98v-348c0 -29.333 2.16699 -48.333 6.5 -57s13.833 -13 28.5 -13h7c2 0 4.33301 0.333008 7 1c3.33301 0.666992 7 1.5 11 2.5s8.33301 2.16699 13 3.5v-28l-111 -51c-0.666992 0 -1.5 -0.166992 -2.5 -0.5s-1.83301 -0.5 -2.5 -0.5
c-0.666992 -0.666992 -1.5 -1 -2.5 -1h-2.5c-14.667 0 -26.5 8.33301 -35.5 25s-13.833 38.334 -14.5 65.001v1z" />
    <glyph glyph-name="paragraph" unicode="&#xb6;" horiz-adv-x="606" 
d="M477 692l-0.00195312 -763.004h66v-30h-339v30h75v415c-6 -1.33301 -10.833 -2.16602 -14.5 -2.49902s-7.16699 -0.5 -10.5 -0.5h-3h-3c-58 0 -103.333 16.833 -136 50.5s-49 80.834 -49 141.501c0 43.333 8.5 80.333 25.5 111s39.833 51.334 68.5 62.001
c4.66699 2 9.16699 3.66699 13.5 5l12.5 4c10.667 2.66699 23.334 4.33398 38.001 5.00098s37.334 1 68.001 1l254 1v-30h-66v0zM427.998 691.996h-96v-763h96v763v0zM278.998 691.996c-38.667 -1.33301 -65.501 -10.333 -80.501 -27s-22.5 -46.667 -22.5 -90v-90
c0 -36.667 7.83301 -65.5 23.5 -86.5s36.834 -31.5 63.501 -31.5h6.5c3 0 6.16699 0.333008 9.5 1v324v0z" />
    <glyph glyph-name="glyph265" unicode="&#xb7;" 
 />
    <glyph glyph-name="bullet" unicode="&#xb8;" horiz-adv-x="333" 
d="M189 15l-22 -77.001c25.333 -1.33301 44.5 -7 57.5 -17s19.5 -24.333 19.5 -43c0 -20.667 -8.83301 -37.5 -26.5 -50.5s-40.5 -19.5 -68.5 -19.5c-7.33301 0 -14.166 0.333008 -20.499 1s-12.5 1.66699 -18.5 3c-8.66699 2.66699 -17.334 5.83398 -26.001 9.50098
s-18 8.5 -28 14.5l16 28c8 -4 15.333 -7.16699 22 -9.5s13.334 -3.83301 20.001 -4.5c4 -0.666992 7.66699 -1.16699 11 -1.5s6.66602 -0.5 9.99902 -0.5c14.667 0 26.5 3 35.5 9s13.5 13.667 13.5 23c0 8.66699 -4 15.667 -12 21s-19.667 8 -35 8
c-3.33301 0 -6.83301 -0.166992 -10.5 -0.5s-7.16699 -0.833008 -10.5 -1.5l39 108h34v0z" />
    <glyph glyph-name="uni00B9" unicode="&#xb9;" 
 />
    <glyph glyph-name="Agrave" unicode="&#xba;" horiz-adv-x="300" 
d="M290 362v-55h-280v55h280v0zM152 735c40.667 -0.666992 75.5 -17.165 104.5 -49.498s43.5 -70.833 43.5 -115.5s-14.667 -83.334 -44 -116.001s-64.666 -49 -105.999 -49c-40.667 0 -75.834 16.333 -105.501 49s-44.5 71 -44.5 115c0 45.333 15 84.166 45 116.499
s65.667 48.5 107 48.5v1zM149 710.002c-26.667 -2.66699 -47.168 -15.833 -61.501 -39.5s-21.5 -57.167 -21.5 -100.5c0 -42 7.5 -75 22.5 -99s35.5 -36 61.5 -36c26.667 0 47.334 12.333 62.001 37s22 58.667 22 102c0 42 -7.5 75 -22.5 99s-35.5 36 -61.5 36l-1 1v0z" />
    <glyph glyph-name="Ydieresis" unicode="&#xbb;" horiz-adv-x="426" 
d="M146 236c-6 6.66699 -11.832 13.667 -17.499 21l-17.5 22c-24.667 33.333 -46 64.5 -64 93.5s-27 47.5 -27 55.5c0 4.66699 1.16699 8.33398 3.5 11.001s5.16602 4 8.49902 4c4.66699 0 10.667 -3.5 18 -10.5s18.333 -19.167 33 -36.5c22 -26.667 45.667 -53 71 -79
s52 -49.667 80 -71c3.33301 -2.66699 5.66602 -4.83398 6.99902 -6.50098s2 -3.16699 2 -4.5s-0.666992 -2.83301 -2 -4.5s-3.66602 -3.83398 -6.99902 -6.50098c-28 -22 -54.5 -45.667 -79.5 -71s-48.833 -51.666 -71.5 -78.999c-14.667 -17.333 -25.667 -29.5 -33 -36.5
s-13.333 -10.5 -18 -10.5c-3.33301 0 -6.16602 1.33301 -8.49902 4s-3.5 6 -3.5 10c0 8 9.16699 26.833 27.5 56.5s40.166 61.167 65.499 94.5l16.5 22l16.5 21v1zM313.001 236c-6 6.66699 -11.832 13.667 -17.499 21l-17.5 22c-24.667 33.333 -46 64.5 -64 93.5
s-27 47.5 -27 55.5c0 4.66699 1.16699 8.33398 3.5 11.001s5.16602 4 8.49902 4c4.66699 0 10.667 -3.5 18 -10.5s18.333 -19.167 33 -36.5c22 -26.667 45.667 -53 71 -79s52 -49.667 80 -71c3.33301 -2.66699 5.66602 -4.83398 6.99902 -6.50098s2 -3.16699 2 -4.5
s-0.666992 -2.83301 -2 -4.5s-3.66602 -3.83398 -6.99902 -6.50098c-28 -22 -54.5 -45.667 -79.5 -71s-48.833 -51.666 -71.5 -78.999c-14.667 -17.333 -25.667 -29.5 -33 -36.5s-13.333 -10.5 -18 -10.5c-3.33301 0 -6.16602 1.33301 -8.49902 4s-3.5 6 -3.5 10
c0 8 9.16699 26.833 27.5 56.5s40.166 61.167 65.499 94.5l16.5 22l16.5 21v1z" />
    <glyph glyph-name="onequarter" unicode="&#xbc;" 
 />
    <glyph glyph-name="glyph243" unicode="&#xbd;" horiz-adv-x="833" 
d="M181 0l420 690h53l-421 -690h-52v0zM815 130c0.666992 -8 1.16504 -14.501 1.49805 -19.501s0.5 -9.16699 0.5 -12.5v-1c0 -7.33301 -0.166992 -14.166 -0.5 -20.499s-0.5 -12.5 -0.5 -18.5c0 -6.66699 -0.166992 -13.167 -0.5 -19.5s-0.5 -12.833 -0.5 -19.5v-19h-304
v18c17.333 21.333 35.666 42 54.999 62s39.333 39.667 60 59l18.5 17l19.5 18c19.333 19.333 37.333 40.5 54 63.5s25 47.833 25 74.5c0 22 -7.66699 39.667 -23 53s-35.666 20 -60.999 20c-24 0 -45.833 -5.66699 -65.5 -17s-29.5 -24 -29.5 -38c0 -3.33301 1.5 -6 4.5 -8
s6.83301 -4 11.5 -6c1.33301 0 3 -0.333008 5 -1l6 -2c6 -2.66699 11.833 -6.5 17.5 -11.5s8.5 -13.167 8.5 -24.5s-4.16699 -21 -12.5 -29s-18.5 -12 -30.5 -12c-16 0 -29.167 6.33301 -39.5 19s-15.5 28.334 -15.5 47.001c0 32.667 14 59.667 42 81s63.333 32 106 32
s77.667 -10.5 105 -31.5s41 -48.167 41 -81.5c0 -30 -9.5 -55.667 -28.5 -77s-39.833 -40.333 -62.5 -57l-16 -11.5l-16 -11.5l-31.5 -24.5l-30.5 -24.5c0 -0.666992 -0.166992 -1 -0.5 -1s-0.833008 -0.333008 -1.5 -1l-23 -19c-8 -6.66699 -16 -13 -24 -19l142 1
c22.667 -0.666992 37.5 1.16602 44.5 5.49902s12.5 15.833 16.5 34.5c0 2 0.166992 3.83301 0.5 5.5s0.833008 3.5 1.5 5.5c0.666992 2.66699 1.33398 5.66699 2.00098 9s1.33398 7.33301 2.00098 12l27 1v0zM202.998 689.999c0.666992 -6 1.16895 -10.332 1.50195 -12.999
s0.5 -5 0.5 -7v-2.5v-2.5c0 -7.33301 -0.166992 -14.666 -0.5 -21.999s-0.5 -14.666 -0.5 -21.999s-0.166992 -14.666 -0.5 -21.999s-0.5 -14.666 -0.5 -21.999v-28v-185v-26c0 -12 0.166992 -19.333 0.5 -22s1.16602 -4.66699 2.49902 -6
c0.666992 -0.666992 1.66699 -1.33398 3 -2.00098s3 -1 5 -1c2 -0.666992 4.33301 -1.16699 7 -1.5s5.66699 -0.5 9 -0.5c3.33301 -0.666992 6.5 -1 9.5 -1h7.5l40 1v-30h-228v30h38c0.666992 -0.666992 1.16699 -1 1.5 -1h1.5c9.33301 0 18.166 0.666992 26.499 2
s12.833 2.66602 13.5 3.99902c1.33301 1.33301 2.16602 3.33301 2.49902 6s0.5 9.66699 0.5 21v27v229c0 6.66699 -0.166992 11.667 -0.5 15s-1.16602 5.33301 -2.49902 6c-0.666992 1.33301 -3 2.16602 -7 2.49902s-10 0.5 -18 0.5l-62 1v29
c23.333 1.33301 42.833 3.66602 58.5 6.99902s30.167 8.66602 43.5 15.999c5.33301 2.66699 10.5 5.5 15.5 8.5s10.167 6.5 15.5 10.5l17 1v0z" />
    <glyph glyph-name="threequarters" unicode="&#xbe;" 
 />
    <glyph glyph-name="oe" unicode="&#xbf;" horiz-adv-x="444" 
d="M219 519l37.998 0.00292969c0 -46.667 -6.66699 -85.5 -20 -116.5s-28 -58.833 -44 -83.5l-13.5 -20l-12.5 -19c-11.333 -17.333 -20.666 -35 -27.999 -53s-11 -38.333 -11 -61c0 -40.667 10.5 -73.334 31.5 -98.001s48.833 -37 83.5 -37c4.66699 0 10.167 0.5 16.5 1.5
s12.833 2.83301 19.5 5.5c13.333 4.66699 25.666 11.5 36.999 20.5s17 19.833 17 32.5c0 6.66699 -1.83301 11.834 -5.5 15.501s-7.83398 6.83398 -12.501 9.50098l-4 2l-4 2c-6.66699 4 -12.667 9.33301 -18 16s-8 17 -8 31c0 15.333 5.83301 28.333 17.5 39
s25.834 16 42.501 16c19.333 0 35.333 -7.83301 48 -23.5s19 -35.834 19 -60.501c0 -43.333 -17.833 -79.333 -53.5 -108s-80.167 -43 -133.5 -43c-56.667 0 -103 16.667 -139 50s-54 76.666 -54 129.999c0 24 4.33301 46.333 13 67s22.334 40.334 41.001 59.001
c16 17.333 30.833 32.166 44.5 44.499s25.834 23.833 36.501 34.5c16 17.333 28.667 36.166 38 56.499s15.333 50.166 18 89.499v1zM242.998 733.003c17.333 -0.666992 32.168 -7.66602 44.501 -20.999s18.5 -28.666 18.5 -45.999c0 -18 -6.33301 -33.333 -19 -46
s-28.334 -19 -47.001 -19c-18 0 -33.333 6.16699 -46 18.5s-19 27.166 -19 44.499c0 15.333 6 29.666 18 42.999s25.333 21.333 40 24c2 0 3.83301 0.166992 5.5 0.5s3.16699 0.5 4.5 0.5v1z" />
    <glyph glyph-name="currency" unicode="&#xc0;" horiz-adv-x="722" 
d="M459 231l-254.002 -0.000976562l-6 -15.5l-6 -14.5c-4.66699 -11.333 -9 -22.833 -13 -34.5s-7.33301 -23.5 -10 -35.5c-0.666992 -4 -1.16699 -8.16699 -1.5 -12.5s-0.5 -8.5 -0.5 -12.5c0 -20.667 7 -36 21 -46s38.667 -16.667 74 -20v-40h-257v41
c19.333 1.33301 34.166 4.33301 44.499 9s19.5 12 27.5 22l1.5 1.5c0.333008 0.333008 0.5 0.833008 0.5 1.5c3.33301 4 6.33301 8 9 12s5.33398 8.33301 8.00098 13c5.33301 9.33301 11 20.833 17 34.5s13.333 32.167 22 55.5l205 545h44l232 -628l8.5 -23.5
c2.33301 -6.33301 4.83301 -11.5 7.5 -15.5c5.33301 -10 11.333 -16.5 18 -19.5s17.667 -5.16699 33 -6.5h0.5h1.5c2.66699 0 5.33398 -0.166992 8.00098 -0.5s5.33398 -0.5 8.00098 -0.5c2 -0.666992 4.33301 -1 7 -1h8v-40h-294v41c36 0 60.833 1.83301 74.5 5.5
s20.5 9.83398 20.5 18.501c0 4.66699 -0.666992 9.16699 -2 13.5s-3 8.5 -5 12.5c0 0.666992 -0.166992 1.5 -0.5 2.5s-0.833008 1.83301 -1.5 2.5l-50 135v0zM442.998 275.999l-110 304l-111 -304h221v0zM381.998 800.999l-16.998 -22.001l-106 55
c-14.667 6.66699 -26.334 12.834 -35.001 18.501s-15 11.167 -19 16.5c-3.33301 4 -5.5 7.83301 -6.5 11.5s-1.5 7.5 -1.5 11.5c0 10.667 3.66699 19.667 11 27s15.666 11 24.999 11h1.5h0.5c8 -0.666992 16.5 -4.16699 25.5 -10.5s21.5 -17.5 37.5 -33.5l84 -85v0z" />
    <glyph glyph-name="breve" unicode="&#xc1;" horiz-adv-x="722" 
d="M459 231l-254.002 -0.000976562l-6 -15.5l-6 -14.5c-4.66699 -11.333 -9 -22.833 -13 -34.5s-7.33301 -23.5 -10 -35.5c-0.666992 -4 -1.16699 -8.16699 -1.5 -12.5s-0.5 -8.5 -0.5 -12.5c0 -20.667 7 -36 21 -46s38.667 -16.667 74 -20v-40h-257v41
c19.333 1.33301 34.166 4.33301 44.499 9s19.5 12 27.5 22l1.5 1.5c0.333008 0.333008 0.5 0.833008 0.5 1.5c3.33301 4 6.33301 8 9 12s5.33398 8.33301 8.00098 13c5.33301 9.33301 11 20.833 17 34.5s13.333 32.167 22 55.5l205 545h44l232 -628l8.5 -23.5
c2.33301 -6.33301 4.83301 -11.5 7.5 -15.5c5.33301 -10 11.333 -16.5 18 -19.5s17.667 -5.16699 33 -6.5h0.5h1.5c2.66699 0 5.33398 -0.166992 8.00098 -0.5s5.33398 -0.5 8.00098 -0.5c2 -0.666992 4.33301 -1 7 -1h8v-40h-294v41c36 0 60.833 1.83301 74.5 5.5
s20.5 9.83398 20.5 18.501c0 4.66699 -0.666992 9.16699 -2 13.5s-3 8.5 -5 12.5c0 0.666992 -0.166992 1.5 -0.5 2.5s-0.833008 1.83301 -1.5 2.5l-50 135v0zM442.998 275.999l-110 304l-111 -304h221v0zM340.998 800.999l84.999 85.999c16.667 16.667 29.5 28 38.5 34
s17.167 9 24.5 9c10 0 18.667 -3.66699 26 -11s11 -16 11 -26c0 -4.66699 -0.833008 -9.16699 -2.5 -13.5s-4.16699 -8.5 -7.5 -12.5c-4.66699 -5.33301 -11.167 -10.666 -19.5 -15.999s-19.166 -11.333 -32.499 -18l-106 -54l-17 22v0z" />
    <glyph glyph-name="tilde" unicode="&#xc2;" horiz-adv-x="722" 
d="M459 231l-254.002 -0.000976562l-6 -15.5l-6 -14.5c-4.66699 -11.333 -9 -22.833 -13 -34.5s-7.33301 -23.5 -10 -35.5c-0.666992 -4 -1.16699 -8.16699 -1.5 -12.5s-0.5 -8.5 -0.5 -12.5c0 -20.667 7 -36 21 -46s38.667 -16.667 74 -20v-40h-257v41
c19.333 1.33301 34.166 4.33301 44.499 9s19.5 12 27.5 22l1.5 1.5c0.333008 0.333008 0.5 0.833008 0.5 1.5c3.33301 4 6.33301 8 9 12s5.33398 8.33301 8.00098 13c5.33301 9.33301 11 20.833 17 34.5s13.333 32.167 22 55.5l205 545h44l232 -628l8.5 -23.5
c2.33301 -6.33301 4.83301 -11.5 7.5 -15.5c5.33301 -10 11.333 -16.5 18 -19.5s17.667 -5.16699 33 -6.5h0.5h1.5c2.66699 0 5.33398 -0.166992 8.00098 -0.5s5.33398 -0.5 8.00098 -0.5c2 -0.666992 4.33301 -1 7 -1h8v-40h-294v41c36 0 60.833 1.83301 74.5 5.5
s20.5 9.83398 20.5 18.501c0 4.66699 -0.666992 9.16699 -2 13.5s-3 8.5 -5 12.5c0 0.666992 -0.166992 1.5 -0.5 2.5s-0.833008 1.83301 -1.5 2.5l-50 135v0zM442.998 275.999l-110 304l-111 -304h221v0zM391.998 935.999l125 -147h-41l-114 90l-117 -90h-40l130 147h57v0z
" />
    <glyph glyph-name="guilsinglleft" unicode="&#xc3;" horiz-adv-x="722" 
d="M459 231l-254.002 -0.000976562l-6 -15.5l-6 -14.5c-4.66699 -11.333 -9 -22.833 -13 -34.5s-7.33301 -23.5 -10 -35.5c-0.666992 -4 -1.16699 -8.16699 -1.5 -12.5s-0.5 -8.5 -0.5 -12.5c0 -20.667 7 -36 21 -46s38.667 -16.667 74 -20v-40h-257v41
c19.333 1.33301 34.166 4.33301 44.499 9s19.5 12 27.5 22l1.5 1.5c0.333008 0.333008 0.5 0.833008 0.5 1.5c3.33301 4 6.33301 8 9 12s5.33398 8.33301 8.00098 13c5.33301 9.33301 11 20.833 17 34.5s13.333 32.167 22 55.5l205 545h44l232 -628l8.5 -23.5
c2.33301 -6.33301 4.83301 -11.5 7.5 -15.5c5.33301 -10 11.333 -16.5 18 -19.5s17.667 -5.16699 33 -6.5h0.5h1.5c2.66699 0 5.33398 -0.166992 8.00098 -0.5s5.33398 -0.5 8.00098 -0.5c2 -0.666992 4.33301 -1 7 -1h8v-40h-294v41c36 0 60.833 1.83301 74.5 5.5
s20.5 9.83398 20.5 18.501c0 4.66699 -0.666992 9.16699 -2 13.5s-3 8.5 -5 12.5c0 0.666992 -0.166992 1.5 -0.5 2.5s-0.833008 1.83301 -1.5 2.5l-50 135v0zM442.998 275.999l-110 304l-111 -304h221v0zM529.998 915.999c-5.33301 -34.667 -16.667 -62.166 -34 -82.499
s-38.333 -30.5 -63 -30.5c-14.667 0 -29.167 3.16699 -43.5 9.5s-28.5 13.166 -42.5 20.499l-40.5 20.5c-13 6.33301 -26.167 9.5 -39.5 9.5c-10.667 0 -19.5 -3.33301 -26.5 -10s-12.5 -17.667 -16.5 -33l-31 1c7.33301 34.667 19.5 61.167 36.5 79.5s37.5 27.5 61.5 27.5
c15.333 0 29.833 -3.33301 43.5 -10s26.834 -14 39.501 -22c4 -2.66699 7.66699 -5 11 -7l10 -6c10 -5.33301 19.833 -10 29.5 -14s19.5 -6 29.5 -6c11.333 0 20.666 4 27.999 12s13.333 21.333 18 40l30 1v0z" />
    <glyph glyph-name="Adieresis" unicode="&#xc4;" horiz-adv-x="722" 
d="M459 231l-254.002 -0.000976562l-6 -15.5l-6 -14.5c-4.66699 -11.333 -9 -22.833 -13 -34.5s-7.33301 -23.5 -10 -35.5c-0.666992 -4 -1.16699 -8.16699 -1.5 -12.5s-0.5 -8.5 -0.5 -12.5c0 -20.667 7 -36 21 -46s38.667 -16.667 74 -20v-40h-257v41
c19.333 1.33301 34.166 4.33301 44.499 9s19.5 12 27.5 22l1.5 1.5c0.333008 0.333008 0.5 0.833008 0.5 1.5c3.33301 4 6.33301 8 9 12s5.33398 8.33301 8.00098 13c5.33301 9.33301 11 20.833 17 34.5s13.333 32.167 22 55.5l205 545h44l232 -628l8.5 -23.5
c2.33301 -6.33301 4.83301 -11.5 7.5 -15.5c5.33301 -10 11.333 -16.5 18 -19.5s17.667 -5.16699 33 -6.5h0.5h1.5c2.66699 0 5.33398 -0.166992 8.00098 -0.5s5.33398 -0.5 8.00098 -0.5c2 -0.666992 4.33301 -1 7 -1h8v-40h-294v41c36 0 60.833 1.83301 74.5 5.5
s20.5 9.83398 20.5 18.501c0 4.66699 -0.666992 9.16699 -2 13.5s-3 8.5 -5 12.5c0 0.666992 -0.166992 1.5 -0.5 2.5s-0.833008 1.83301 -1.5 2.5l-50 135v0zM442.998 275.999l-110 304l-111 -304h221v0zM260.998 902.999c16 -0.666992 29.667 -6.66699 41 -18
s17 -25 17 -41s-5.66699 -29.667 -17 -41s-25 -17 -41 -17s-29.667 5.66699 -41 17s-17 25 -17 41s5.66699 29.667 17 41s25 17 41 17v1zM462.998 902.999c16 -0.666992 29.667 -6.66699 41 -18s17 -25 17 -41s-5.66699 -29.667 -17 -41s-25 -17 -41 -17
s-29.667 5.66699 -41 17s-17 25 -17 41s5.66699 29.667 17 41s25 17 41 17v1z" />
    <glyph glyph-name="Aring" unicode="&#xc5;" horiz-adv-x="722" 
d="M459 231l-254.002 -0.000976562l-6 -15.5l-6 -14.5c-4.66699 -11.333 -9 -22.833 -13 -34.5s-7.33301 -23.5 -10 -35.5c-0.666992 -4 -1.16699 -8.16699 -1.5 -12.5s-0.5 -8.5 -0.5 -12.5c0 -20.667 7 -36 21 -46s38.667 -16.667 74 -20v-40h-257v41
c19.333 1.33301 34.166 4.33301 44.499 9s19.5 12 27.5 22l1.5 1.5c0.333008 0.333008 0.5 0.833008 0.5 1.5c3.33301 4 6.33301 8 9 12s5.33398 8.33301 8.00098 13c5.33301 9.33301 11 20.833 17 34.5s13.333 32.167 22 55.5l205 545h44l232 -628l8.5 -23.5
c2.33301 -6.33301 4.83301 -11.5 7.5 -15.5c5.33301 -10 11.333 -16.5 18 -19.5s17.667 -5.16699 33 -6.5h0.5h1.5c2.66699 0 5.33398 -0.166992 8.00098 -0.5s5.33398 -0.5 8.00098 -0.5c2 -0.666992 4.33301 -1 7 -1h8v-40h-294v41c36 0 60.833 1.83301 74.5 5.5
s20.5 9.83398 20.5 18.501c0 4.66699 -0.666992 9.16699 -2 13.5s-3 8.5 -5 12.5c0 0.666992 -0.166992 1.5 -0.5 2.5s-0.833008 1.83301 -1.5 2.5l-50 135v0zM442.998 275.999l-110 304l-111 -304h221v0zM361.998 956.999c27.333 -0.666992 50.333 -10.5 69 -29.5
s28 -42.167 28 -69.5c0 -26.667 -9.33301 -49.5 -28 -68.5s-41.667 -28.5 -69 -28.5c-26.667 0 -49.667 9.66699 -69 29s-29 42.333 -29 69s9.66699 49.5 29 68.5s42.333 28.5 69 28.5v1zM360.998 916.999c-15.333 -0.666992 -28.666 -6.66699 -39.999 -18
s-17 -24.666 -17 -39.999c0 -16 5.66699 -29.667 17 -41s24.666 -17 39.999 -17c16 0 29.667 5.66699 41 17s17 25 17 41c0 15.333 -5.66699 28.666 -17 39.999s-25 17 -41 17v1z" />
    <glyph glyph-name="Oslash" unicode="&#xc6;" horiz-adv-x="1000" 
d="M920 722l10.9951 -255h-30c-10.667 60.667 -27.167 111.5 -49.5 152.5s-69.833 61.5 -142.5 61.5l-72 1c-16.667 -0.666992 -27.167 -4 -31.5 -10s-6.5 -19.667 -6.5 -41v-236c56.667 0.666992 94.834 9.66699 114.501 27s31.834 54.333 36.501 111l35 1v-330h-35
c-3.33301 55.333 -13.833 93.333 -31.5 114s-57.5 32.334 -119.5 35.001v-267c0 -22 2 -35.167 6 -39.5s15.667 -6.5 35 -6.5l81 1c46.667 -0.666992 81.667 6 105 20s42.666 40 57.999 78l9 22c2.66699 6.66699 5 13 7 19s3.66699 12 5 18s3 12.333 5 19l4.5 24l5.5 29
l31 1l-8 -271h-548v41h26c18.667 -0.666992 35 0 49 2s22.333 4.66699 25 8c1.33301 2 2.5 4.5 3.5 7.5s1.83301 6.5 2.5 10.5v78v172h-205l-110 -211c-0.666992 -2 -1.66699 -3.83301 -3 -5.5s-2.33301 -3.5 -3 -5.5c-3.33301 -4.66699 -6.16602 -9.5 -8.49902 -14.5
s-3.5 -10.167 -3.5 -15.5c0 -8.66699 4.5 -14.834 13.5 -18.501s18.833 -6.16699 29.5 -7.5c4.66699 0 9 -0.166992 13 -0.5s8 -0.5 12 -0.5h2.5h2.5h4h3v-40h-241v41c26.667 0.666992 47.834 4.16699 63.501 10.5s30.5 18.166 44.5 35.499
c6.66699 8 13.334 17.667 20.001 29l22 39l256 484c0.666992 0.666992 1.5 1.83398 2.5 3.50098s2.16699 3.5 3.5 5.5c0.666992 1.33301 1.33398 2.83301 2.00098 4.5s1.66699 3.5 3 5.5c0.666992 1.33301 1.16699 3 1.5 5s0.5 3.66699 0.5 5c0 4 -2.5 7.16699 -7.5 9.5
s-12.833 3.5 -23.5 3.5l-49 1v40h574v0zM500.995 364v260.002c0 21.333 -0.666992 35.166 -2 41.499s-5.33301 11.166 -12 14.499l-0.5 0.5c-0.333008 0.333008 -0.833008 0.5 -1.5 0.5l-167 -317h183v0z" />
    <glyph glyph-name="Ccedilla" unicode="&#xc7;" horiz-adv-x="722" 
d="M647 722l11.999 -284.001h-41c-20.667 83.333 -51 146 -91 188s-89 63 -147 63c-69.333 0 -122 -29.5 -158 -88.5s-54 -145.5 -54 -259.5c0 -99.333 19.5 -175 58.5 -227s95.833 -78 170.5 -78c70.667 0 124.167 22 160.5 66s62.5 96.667 78.5 158l39 -8
c-16 -75.333 -44.5 -136.5 -85.5 -183.5s-101.833 -73.833 -182.5 -80.5l-17 -48c5.33301 0 10.166 0.166992 14.499 0.5s7.83301 0.833008 10.5 1.5c4 0 8.16699 -0.166992 12.5 -0.5s8.83301 -1.16602 13.5 -2.49902c14 -3.33301 26.833 -9.33301 38.5 -18
s17.5 -20.667 17.5 -36c0 -27.333 -12.833 -48.5 -38.5 -63.5s-61.167 -22.5 -106.5 -22.5h-11.5c-3.66699 0 -7.16699 0.333008 -10.5 1c-7.33301 0 -15.166 0.666992 -23.499 2l-30.5 5l16 34l20.5 -3.5c5.66699 -1 10.834 -1.83301 15.501 -2.5
c3.33301 -0.666992 6.5 -1 9.5 -1h9.5c23.333 0 42.5 4 57.5 12s22.5 18.333 22.5 31c0 8.66699 -5.16699 15 -15.5 19s-27.166 6 -50.499 6h-8.5h-6.5c-2.66699 0 -5.33398 -0.166992 -8.00098 -0.5s-6 -0.5 -10 -0.5l34 87c-47.333 5.33301 -86.333 13.833 -117 25.5
s-59.334 29.5 -86.001 53.5c-2 2 -3.83301 3.66699 -5.5 5s-3.5 3 -5.5 5c-30 29.333 -54.833 65 -74.5 107s-31.5 85.333 -35.5 130c-0.666992 5.33301 -1.16699 10.833 -1.5 16.5s-0.5 11.5 -0.5 17.5c0 104.667 33.833 195.167 101.5 271.5s147.834 114.5 240.501 114.5
c42 0 78.667 -6 110 -18s61.333 -31.667 90 -59l40 65h29v0z" />
    <glyph glyph-name="ring" unicode="&#xc8;" horiz-adv-x="722" 
d="M637 722l12.001 -254.993h-33c-14 71.333 -35.167 124.833 -63.5 160.5s-81.833 53.5 -160.5 53.5l-95 1c-31.333 -0.666992 -50.166 -3.33398 -56.499 -8.00098s-9.5 -18.334 -9.5 -41.001v-238c61.333 -0.666992 110.666 5.33301 147.999 18s61.666 53 72.999 121l38 1
v-331h-38c-4.66699 71.333 -27 113.833 -67 127.5s-91.333 20.834 -154 21.501v-266c0 -22.667 3 -36.334 9 -41.001s23 -7 51 -7l120 1c39.333 -0.666992 68.833 1.5 88.5 6.5s37.167 14.833 52.5 29.5c23.333 22.667 40.5 48.667 51.5 78s20.167 59.666 27.5 90.999
c0.666992 3.33301 1.5 6.66602 2.5 9.99902s1.83301 7 2.5 11c0 0.666992 0.166992 1.5 0.5 2.5s0.5 1.83301 0.5 2.5l33 1l-8 -272h-639v41h25c21.333 -0.666992 38.333 0 51 2s20.334 4.66699 23.001 8c1.33301 1.33301 2.5 3.66602 3.5 6.99902s1.83301 7 2.5 11v78v428
v77c-0.666992 3.33301 -1.5 6.66602 -2.5 9.99902s-2.16699 5.66602 -3.5 6.99902c-2.66699 3.33301 -8.33398 6 -17.001 8s-27.667 3 -57 3l-25 1v41h614v0zM382.001 801.007l-16.998 -22.001l-106 55c-14.667 6.66699 -26.334 12.834 -35.001 18.501s-15 11.167 -19 16.5
c-3.33301 4 -5.5 7.83301 -6.5 11.5s-1.5 7.5 -1.5 11.5c0 10.667 3.66699 19.667 11 27s15.666 11 24.999 11h1.5h0.5c8 -0.666992 16.5 -4.16699 25.5 -10.5s21.5 -17.5 37.5 -33.5l84 -85v0z" />
    <glyph glyph-name="Eacute" unicode="&#xc9;" horiz-adv-x="722" 
d="M637 722l12.001 -254.993h-33c-14 71.333 -35.167 124.833 -63.5 160.5s-81.833 53.5 -160.5 53.5l-95 1c-31.333 -0.666992 -50.166 -3.33398 -56.499 -8.00098s-9.5 -18.334 -9.5 -41.001v-238c61.333 -0.666992 110.666 5.33301 147.999 18s61.666 53 72.999 121l38 1
v-331h-38c-4.66699 71.333 -27 113.833 -67 127.5s-91.333 20.834 -154 21.501v-266c0 -22.667 3 -36.334 9 -41.001s23 -7 51 -7l120 1c39.333 -0.666992 68.833 1.5 88.5 6.5s37.167 14.833 52.5 29.5c23.333 22.667 40.5 48.667 51.5 78s20.167 59.666 27.5 90.999
c0.666992 3.33301 1.5 6.66602 2.5 9.99902s1.83301 7 2.5 11c0 0.666992 0.166992 1.5 0.5 2.5s0.5 1.83301 0.5 2.5l33 1l-8 -272h-639v41h25c21.333 -0.666992 38.333 0 51 2s20.334 4.66699 23.001 8c1.33301 1.33301 2.5 3.66602 3.5 6.99902s1.83301 7 2.5 11v78v428
v77c-0.666992 3.33301 -1.5 6.66602 -2.5 9.99902s-2.16699 5.66602 -3.5 6.99902c-2.66699 3.33301 -8.33398 6 -17.001 8s-27.667 3 -57 3l-25 1v41h614v0zM341.001 801.007l84.999 85.999c16.667 16.667 29.5 28 38.5 34s17.167 9 24.5 9c10 0 18.667 -3.66699 26 -11
s11 -16 11 -26c0 -4.66699 -0.833008 -9.16699 -2.5 -13.5s-4.16699 -8.5 -7.5 -12.5c-4.66699 -5.33301 -11.167 -10.666 -19.5 -15.999s-19.166 -11.333 -32.499 -18l-106 -54l-17 22v0z" />
    <glyph glyph-name="macron" unicode="&#xca;" horiz-adv-x="722" 
d="M637 722l12.001 -254.993h-33c-14 71.333 -35.167 124.833 -63.5 160.5s-81.833 53.5 -160.5 53.5l-95 1c-31.333 -0.666992 -50.166 -3.33398 -56.499 -8.00098s-9.5 -18.334 -9.5 -41.001v-238c61.333 -0.666992 110.666 5.33301 147.999 18s61.666 53 72.999 121l38 1
v-331h-38c-4.66699 71.333 -27 113.833 -67 127.5s-91.333 20.834 -154 21.501v-266c0 -22.667 3 -36.334 9 -41.001s23 -7 51 -7l120 1c39.333 -0.666992 68.833 1.5 88.5 6.5s37.167 14.833 52.5 29.5c23.333 22.667 40.5 48.667 51.5 78s20.167 59.666 27.5 90.999
c0.666992 3.33301 1.5 6.66602 2.5 9.99902s1.83301 7 2.5 11c0 0.666992 0.166992 1.5 0.5 2.5s0.5 1.83301 0.5 2.5l33 1l-8 -272h-639v41h25c21.333 -0.666992 38.333 0 51 2s20.334 4.66699 23.001 8c1.33301 1.33301 2.5 3.66602 3.5 6.99902s1.83301 7 2.5 11v78v428
v77c-0.666992 3.33301 -1.5 6.66602 -2.5 9.99902s-2.16699 5.66602 -3.5 6.99902c-2.66699 3.33301 -8.33398 6 -17.001 8s-27.667 3 -57 3l-25 1v41h614v0zM391.001 936.007l125 -147h-41l-114 90l-117 -90h-40l130 147h57v0z" />
    <glyph glyph-name="dotaccent" unicode="&#xcb;" horiz-adv-x="722" 
d="M637 722l12.001 -254.993h-33c-14 71.333 -35.167 124.833 -63.5 160.5s-81.833 53.5 -160.5 53.5l-95 1c-31.333 -0.666992 -50.166 -3.33398 -56.499 -8.00098s-9.5 -18.334 -9.5 -41.001v-238c61.333 -0.666992 110.666 5.33301 147.999 18s61.666 53 72.999 121l38 1
v-331h-38c-4.66699 71.333 -27 113.833 -67 127.5s-91.333 20.834 -154 21.501v-266c0 -22.667 3 -36.334 9 -41.001s23 -7 51 -7l120 1c39.333 -0.666992 68.833 1.5 88.5 6.5s37.167 14.833 52.5 29.5c23.333 22.667 40.5 48.667 51.5 78s20.167 59.666 27.5 90.999
c0.666992 3.33301 1.5 6.66602 2.5 9.99902s1.83301 7 2.5 11c0 0.666992 0.166992 1.5 0.5 2.5s0.5 1.83301 0.5 2.5l33 1l-8 -272h-639v41h25c21.333 -0.666992 38.333 0 51 2s20.334 4.66699 23.001 8c1.33301 1.33301 2.5 3.66602 3.5 6.99902s1.83301 7 2.5 11v78v428
v77c-0.666992 3.33301 -1.5 6.66602 -2.5 9.99902s-2.16699 5.66602 -3.5 6.99902c-2.66699 3.33301 -8.33398 6 -17.001 8s-27.667 3 -57 3l-25 1v41h614v0zM261.001 903.007c16 -0.666992 29.667 -6.66699 41 -18s17 -25 17 -41s-5.66699 -29.667 -17 -41s-25 -17 -41 -17
s-29.667 5.66699 -41 17s-17 25 -17 41s5.66699 29.667 17 41s25 17 41 17v1zM463.001 903.007c16 -0.666992 29.667 -6.66699 41 -18s17 -25 17 -41s-5.66699 -29.667 -17 -41s-25 -17 -41 -17s-29.667 5.66699 -41 17s-17 25 -17 41s5.66699 29.667 17 41s25 17 41 17v1z
" />
    <glyph glyph-name="caron" unicode="&#xcc;" horiz-adv-x="407" 
d="M47 681v40.998h313v-41h-26c-37.333 -0.666992 -59.833 -3.66699 -67.5 -9s-11.5 -21.666 -11.5 -48.999v-48v-428v-49c0 -27.333 3.83301 -43.833 11.5 -49.5s30.167 -8.5 67.5 -8.5l26 1v-41h-313v41h25c38 -0.666992 60.833 1.83301 68.5 7.5s11.5 23.167 11.5 52.5
v46v428v45c0 24.667 -1 39.834 -3 45.501s-8.33301 9.16699 -19 10.5l-20.5 2c-7 0.666992 -13.833 1 -20.5 1c-7.33301 0.666992 -14.333 1 -21 1h-21v1zM224 800.998l-16.998 -22.001l-106 55c-14.667 6.66699 -26.334 12.834 -35.001 18.501s-15 11.167 -19 16.5
c-3.33301 4 -5.5 7.83301 -6.5 11.5s-1.5 7.5 -1.5 11.5c0 10.667 3.66699 19.667 11 27s15.666 11 24.999 11h1.5h0.5c8 -0.666992 16.5 -4.16699 25.5 -10.5s21.5 -17.5 37.5 -33.5l84 -85v0z" />
    <glyph glyph-name="cedilla" unicode="&#xcd;" horiz-adv-x="407" 
d="M47 681v40.998h313v-41h-26c-37.333 -0.666992 -59.833 -3.66699 -67.5 -9s-11.5 -21.666 -11.5 -48.999v-48v-428v-49c0 -27.333 3.83301 -43.833 11.5 -49.5s30.167 -8.5 67.5 -8.5l26 1v-41h-313v41h25c38 -0.666992 60.833 1.83301 68.5 7.5s11.5 23.167 11.5 52.5
v46v428v45c0 24.667 -1 39.834 -3 45.501s-8.33301 9.16699 -19 10.5l-20.5 2c-7 0.666992 -13.833 1 -20.5 1c-7.33301 0.666992 -14.333 1 -21 1h-21v1zM183 800.998l84.999 85.999c16.667 16.667 29.5 28 38.5 34s17.167 9 24.5 9c10 0 18.667 -3.66699 26 -11
s11 -16 11 -26c0 -4.66699 -0.833008 -9.16699 -2.5 -13.5s-4.16699 -8.5 -7.5 -12.5c-4.66699 -5.33301 -11.167 -10.666 -19.5 -15.999s-19.166 -11.333 -32.499 -18l-106 -54l-17 22v0z" />
    <glyph glyph-name="hungarumlaut" unicode="&#xce;" horiz-adv-x="407" 
d="M47 681v40.998h313v-41h-26c-37.333 -0.666992 -59.833 -3.66699 -67.5 -9s-11.5 -21.666 -11.5 -48.999v-48v-428v-49c0 -27.333 3.83301 -43.833 11.5 -49.5s30.167 -8.5 67.5 -8.5l26 1v-41h-313v41h25c38 -0.666992 60.833 1.83301 68.5 7.5s11.5 23.167 11.5 52.5
v46v428v45c0 24.667 -1 39.834 -3 45.501s-8.33301 9.16699 -19 10.5l-20.5 2c-7 0.666992 -13.833 1 -20.5 1c-7.33301 0.666992 -14.333 1 -21 1h-21v1zM234 935.998l125 -147h-41l-114 90l-117 -90h-40l130 147h57v0z" />
    <glyph glyph-name="ogonek" unicode="&#xcf;" horiz-adv-x="407" 
d="M47 681v40.998h313v-41h-26c-37.333 -0.666992 -59.833 -3.66699 -67.5 -9s-11.5 -21.666 -11.5 -48.999v-48v-428v-49c0 -27.333 3.83301 -43.833 11.5 -49.5s30.167 -8.5 67.5 -8.5l26 1v-41h-313v41h25c38 -0.666992 60.833 1.83301 68.5 7.5s11.5 23.167 11.5 52.5
v46v428v45c0 24.667 -1 39.834 -3 45.501s-8.33301 9.16699 -19 10.5l-20.5 2c-7 0.666992 -13.833 1 -20.5 1c-7.33301 0.666992 -14.333 1 -21 1h-21v1zM103 902.998c16 -0.666992 29.667 -6.66699 41 -18s17 -25 17 -41s-5.66699 -29.667 -17 -41s-25 -17 -41 -17
s-29.667 5.66699 -41 17s-17 25 -17 41s5.66699 29.667 17 41s25 17 41 17v1zM305 902.998c16 -0.666992 29.667 -6.66699 41 -18s17 -25 17 -41s-5.66699 -29.667 -17 -41s-25 -17 -41 -17s-29.667 5.66699 -41 17s-17 25 -17 41s5.66699 29.667 17 41s25 17 41 17v1z" />
    <glyph glyph-name="glyph232" unicode="&#xd0;" horiz-adv-x="778" 
d="M128 419l-105.001 0.000976562v41h105v115v45c0 18.667 -0.166992 30.667 -0.5 36s-1.83301 9.33301 -4.5 12l-0.5 0.5l-0.5 0.5c-4.66699 5.33301 -15.334 8.5 -32.001 9.5s-39 1.5 -67 1.5v42h290c64 -0.666992 113.5 -3.66699 148.5 -9s67.167 -15 96.5 -29
c4 -2 8 -4.16699 12 -6.5s8 -4.5 12 -6.5c51.333 -30.667 90.833 -72.834 118.5 -126.501s41.5 -115.5 41.5 -185.5c0 -55.333 -9.16699 -105.833 -27.5 -151.5s-45.166 -84.5 -80.499 -116.5l-1.5 -1.5l-0.5 -0.5c-38.667 -34 -80.667 -57.333 -126 -70
s-109.666 -19 -192.999 -19h-290v41h25c38 -0.666992 60.833 2 68.5 8s11.5 23.333 11.5 52v46v272v0zM230.999 419.001l0.000976562 -328.001c0 -20 2.33301 -33.5 7 -40.5s13.667 -10.5 27 -10.5l83 1c113.333 -0.666992 187 29.833 221 91.5s51 142.834 51 243.501
c0 110.667 -21.333 189 -64 235s-115.334 69 -218.001 69l-55 1c-24.667 -0.666992 -39.5 -3.16699 -44.5 -7.5s-7.5 -16.833 -7.5 -37.5v-176h217v-41h-217v0z" />
    <glyph glyph-name="Ntilde" unicode="&#xd1;" horiz-adv-x="815" 
d="M698 -9h-39l-478 603v-405c0 -45.333 7.33301 -81.5 22 -108.5s46.667 -40.5 96 -40.5v-40h-284v41c54.667 -0.666992 87.834 11.333 99.501 36s17.5 61.667 17.5 111v438c0 17.333 -7 29.833 -21 37.5s-29.667 12.5 -47 14.5c-8.66699 0.666992 -17 1.16699 -25 1.5
s-15.333 0.5 -22 0.5v42h208l424 -533v344c0 46.667 -4.33301 82.834 -13 108.501s-39.334 38.5 -92.001 38.5v42h259v-41h-19c-34 -0.666992 -56.833 -10.834 -68.5 -30.501s-17.5 -59.167 -17.5 -118.5v-541v0zM577 916c-5.33301 -34.667 -16.667 -62.166 -34 -82.499
s-38.333 -30.5 -63 -30.5c-14.667 0 -29.167 3.16699 -43.5 9.5s-28.5 13.166 -42.5 20.499l-40.5 20.5c-13 6.33301 -26.167 9.5 -39.5 9.5c-10.667 0 -19.5 -3.33301 -26.5 -10s-12.5 -17.667 -16.5 -33l-31 1c7.33301 34.667 19.5 61.167 36.5 79.5s37.5 27.5 61.5 27.5
c15.333 0 29.833 -3.33301 43.5 -10s26.834 -14 39.501 -22c4 -2.66699 7.66699 -5 11 -7l10 -6c10 -5.33301 19.833 -10 29.5 -14s19.5 -6 29.5 -6c11.333 0 20.666 4 27.999 12s13.333 21.333 18 40l30 1v0z" />
    <glyph glyph-name="scaron" unicode="&#xd2;" 
 />
    <glyph glyph-name="Lslash" unicode="&#xd3;" horiz-adv-x="778" 
d="M391 735c97.333 -0.666992 180.167 -37.5 248.5 -110.5s102.5 -161.167 102.5 -264.5c0 -104.667 -34.167 -193 -102.5 -265s-151.5 -108 -249.5 -108s-181.5 36.167 -250.5 108.5s-103.5 159.833 -103.5 262.5c0 105.333 34.333 194.333 103 267s152.667 109 252 109v1z
M388.001 690c-76.667 -0.666992 -134.167 -27.832 -172.5 -81.499s-57.5 -134.167 -57.5 -241.5c0 -113.333 19.5 -198.5 58.5 -255.5s97.167 -85.5 174.5 -85.5c74.667 0 131.5 27.667 170.5 83s58.5 135.666 58.5 240.999c0 114 -19.167 199 -57.5 255s-96.5 84 -174.5 84
v1zM369.001 801.002l84.999 85.999c16.667 16.667 29.5 28 38.5 34s17.167 9 24.5 9c10 0 18.667 -3.66699 26 -11s11 -16 11 -26c0 -4.66699 -0.833008 -9.16699 -2.5 -13.5s-4.16699 -8.5 -7.5 -12.5c-4.66699 -5.33301 -11.167 -10.666 -19.5 -15.999
s-19.166 -11.333 -32.499 -18l-106 -54l-17 22v0z" />
    <glyph glyph-name="lslash" unicode="&#xd4;" horiz-adv-x="778" 
d="M391 735c97.333 -0.666992 180.167 -37.5 248.5 -110.5s102.5 -161.167 102.5 -264.5c0 -104.667 -34.167 -193 -102.5 -265s-151.5 -108 -249.5 -108s-181.5 36.167 -250.5 108.5s-103.5 159.833 -103.5 262.5c0 105.333 34.333 194.333 103 267s152.667 109 252 109v1z
M388.001 690c-76.667 -0.666992 -134.167 -27.832 -172.5 -81.499s-57.5 -134.167 -57.5 -241.5c0 -113.333 19.5 -198.5 58.5 -255.5s97.167 -85.5 174.5 -85.5c74.667 0 131.5 27.667 170.5 83s58.5 135.666 58.5 240.999c0 114 -19.167 199 -57.5 255s-96.5 84 -174.5 84
v1zM420.001 936.002l125 -147h-41l-114 90l-117 -90h-40l130 147h57v0z" />
    <glyph glyph-name="guilsinglright" unicode="&#xd5;" horiz-adv-x="778" 
d="M391 735c97.333 -0.666992 180.167 -37.5 248.5 -110.5s102.5 -161.167 102.5 -264.5c0 -104.667 -34.167 -193 -102.5 -265s-151.5 -108 -249.5 -108s-181.5 36.167 -250.5 108.5s-103.5 159.833 -103.5 262.5c0 105.333 34.333 194.333 103 267s152.667 109 252 109v1z
M388.001 690c-76.667 -0.666992 -134.167 -27.832 -172.5 -81.499s-57.5 -134.167 -57.5 -241.5c0 -113.333 19.5 -198.5 58.5 -255.5s97.167 -85.5 174.5 -85.5c74.667 0 131.5 27.667 170.5 83s58.5 135.666 58.5 240.999c0 114 -19.167 199 -57.5 255s-96.5 84 -174.5 84
v1zM558.001 916.002c-5.33301 -34.667 -16.667 -62.166 -34 -82.499s-38.333 -30.5 -63 -30.5c-14.667 0 -29.167 3.16699 -43.5 9.5s-28.5 13.166 -42.5 20.499l-40.5 20.5c-13 6.33301 -26.167 9.5 -39.5 9.5c-10.667 0 -19.5 -3.33301 -26.5 -10s-12.5 -17.667 -16.5 -33
l-31 1c7.33301 34.667 19.5 61.167 36.5 79.5s37.5 27.5 61.5 27.5c15.333 0 29.833 -3.33301 43.5 -10s26.834 -14 39.501 -22c4 -2.66699 7.66699 -5 11 -7l10 -6c10 -5.33301 19.833 -10 29.5 -14s19.5 -6 29.5 -6c11.333 0 20.666 4 27.999 12s13.333 21.333 18 40l30 1
v0z" />
    <glyph glyph-name="Odieresis" unicode="&#xd6;" horiz-adv-x="778" 
d="M391 735c97.333 -0.666992 180.167 -37.5 248.5 -110.5s102.5 -161.167 102.5 -264.5c0 -104.667 -34.167 -193 -102.5 -265s-151.5 -108 -249.5 -108s-181.5 36.167 -250.5 108.5s-103.5 159.833 -103.5 262.5c0 105.333 34.333 194.333 103 267s152.667 109 252 109v1z
M388.001 690c-76.667 -0.666992 -134.167 -27.832 -172.5 -81.499s-57.5 -134.167 -57.5 -241.5c0 -113.333 19.5 -198.5 58.5 -255.5s97.167 -85.5 174.5 -85.5c74.667 0 131.5 27.667 170.5 83s58.5 135.666 58.5 240.999c0 114 -19.167 199 -57.5 255s-96.5 84 -174.5 84
v1zM289.001 903.002c16 -0.666992 29.667 -6.66699 41 -18s17 -25 17 -41s-5.66699 -29.667 -17 -41s-25 -17 -41 -17s-29.667 5.66699 -41 17s-17 25 -17 41s5.66699 29.667 17 41s25 17 41 17v1zM491.001 903.002c16 -0.666992 29.667 -6.66699 41 -18s17 -25 17 -41
s-5.66699 -29.667 -17 -41s-25 -17 -41 -17s-29.667 5.66699 -41 17s-17 25 -17 41s5.66699 29.667 17 41s25 17 41 17v1z" />
    <glyph glyph-name="multiply" unicode="&#xd7;" 
 />
    <glyph glyph-name="plusminus" unicode="&#xd8;" horiz-adv-x="778" 
d="M645 628c32.667 -38.667 57 -79.999 73 -123.999s24 -90.667 24 -140c0 -104.667 -34.833 -193.667 -104.5 -267s-154.167 -110 -253.5 -110c-42 0 -80.333 6.16699 -115 18.5s-68.667 30.166 -102 53.499c-1.33301 0.666992 -2.83301 1.66699 -4.5 3
s-3.5 2.66602 -5.5 3.99902l-64 -79h-48l85 109c-32 38 -55.667 78.167 -71 120.5s-23 87.833 -23 136.5c0 106.667 35 196.834 105 270.501s155.333 110.5 256 110.5c20 0 38 -1 54 -3s31.667 -5.66699 47 -11c18 -6 36.333 -14.167 55 -24.5s39.667 -23.833 63 -40.5
l61 80h49l-81 -107v0zM209 127.001c23.333 -32 49.834 -56.832 79.501 -74.499s64.167 -26.5 103.5 -26.5c75.333 0 132.166 27.667 170.499 83s57.5 136.666 57.5 243.999c0 40.667 -2.16699 76 -6.5 106s-11.5 59 -21.5 87l-2 6l-2 6l-379 -431v0zM189.001 169.002
l378.001 432.001c-22.667 28.667 -48.834 50.5 -78.501 65.5s-63.167 22.5 -100.5 22.5c-76 0 -132.5 -26.833 -169.5 -80.5s-55.5 -135.834 -55.5 -246.501c0 -20 0.5 -38 1.5 -54s2.5 -31.333 4.5 -46c2 -14 4.66699 -28.5 8 -43.5s7.33301 -31.833 12 -50.5v1z" />
    <glyph glyph-name="Thorn" unicode="&#xd9;" horiz-adv-x="815" 
d="M527 681l0.00195312 41h271v-41c-46.667 -4 -75.834 -14.167 -87.501 -30.5s-17.5 -55.833 -17.5 -118.5v-214c0 -57.333 -2 -100.333 -6 -129s-11.667 -54.334 -23 -77.001c-0.666992 -1.33301 -1.33398 -2.5 -2.00098 -3.5s-1.33398 -2.16699 -2.00098 -3.5
c-25.333 -45.333 -60.5 -76.166 -105.5 -92.499s-92.167 -24.833 -141.5 -25.5h-2.5h-3.5c-68 0 -125 11.833 -171 35.5s-77.333 56.834 -94 99.501c-6.66699 19.333 -11.5 40.833 -14.5 64.5s-4.5 55.834 -4.5 96.501v292v45c0 18.667 -0.166992 30.667 -0.5 36
s-1.83301 9.33301 -4.5 12l-0.5 0.5l-0.5 0.5c-1.33301 1.33301 -3.5 2.66602 -6.5 3.99902s-6.16699 2.33301 -9.5 3c-6.66699 1.33301 -13.5 2.16602 -20.5 2.49902s-13.833 0.833008 -20.5 1.5h-21h-21v42h313v-41h-25c-20 -0.666992 -36.5 -2 -49.5 -4
s-21.167 -4.66699 -24.5 -8c-1.33301 -2 -2.5 -4.5 -3.5 -7.5s-1.83301 -6.5 -2.5 -10.5v-76v-293c0 -51.333 3 -89.333 9 -114s17.333 -46.667 34 -66c18.667 -20 41.167 -35.167 67.5 -45.5s56.833 -15.5 91.5 -15.5c42.667 0 79.667 7.33301 111 22s55 35.667 71 63
l5.5 9.5c1.66699 3 3.16699 6.16699 4.5 9.5c10 19.333 16.5 41.166 19.5 65.499s4.5 59.5 4.5 105.5v217c0 60.667 -6.66699 99.334 -20 116.001s-45.666 27 -96.999 31v1zM428.002 801l-16.998 -22.001l-106 55c-14.667 6.66699 -26.334 12.834 -35.001 18.501
s-15 11.167 -19 16.5c-3.33301 4 -5.5 7.83301 -6.5 11.5s-1.5 7.5 -1.5 11.5c0 10.667 3.66699 19.667 11 27s15.666 11 24.999 11h1.5h0.5c8 -0.666992 16.5 -4.16699 25.5 -10.5s21.5 -17.5 37.5 -33.5l84 -85v0z" />
    <glyph glyph-name="Eth" unicode="&#xda;" horiz-adv-x="815" 
d="M527 681l0.00195312 41h271v-41c-46.667 -4 -75.834 -14.167 -87.501 -30.5s-17.5 -55.833 -17.5 -118.5v-214c0 -57.333 -2 -100.333 -6 -129s-11.667 -54.334 -23 -77.001c-0.666992 -1.33301 -1.33398 -2.5 -2.00098 -3.5s-1.33398 -2.16699 -2.00098 -3.5
c-25.333 -45.333 -60.5 -76.166 -105.5 -92.499s-92.167 -24.833 -141.5 -25.5h-2.5h-3.5c-68 0 -125 11.833 -171 35.5s-77.333 56.834 -94 99.501c-6.66699 19.333 -11.5 40.833 -14.5 64.5s-4.5 55.834 -4.5 96.501v292v45c0 18.667 -0.166992 30.667 -0.5 36
s-1.83301 9.33301 -4.5 12l-0.5 0.5l-0.5 0.5c-1.33301 1.33301 -3.5 2.66602 -6.5 3.99902s-6.16699 2.33301 -9.5 3c-6.66699 1.33301 -13.5 2.16602 -20.5 2.49902s-13.833 0.833008 -20.5 1.5h-21h-21v42h313v-41h-25c-20 -0.666992 -36.5 -2 -49.5 -4
s-21.167 -4.66699 -24.5 -8c-1.33301 -2 -2.5 -4.5 -3.5 -7.5s-1.83301 -6.5 -2.5 -10.5v-76v-293c0 -51.333 3 -89.333 9 -114s17.333 -46.667 34 -66c18.667 -20 41.167 -35.167 67.5 -45.5s56.833 -15.5 91.5 -15.5c42.667 0 79.667 7.33301 111 22s55 35.667 71 63
l5.5 9.5c1.66699 3 3.16699 6.16699 4.5 9.5c10 19.333 16.5 41.166 19.5 65.499s4.5 59.5 4.5 105.5v217c0 60.667 -6.66699 99.334 -20 116.001s-45.666 27 -96.999 31v1zM387.002 801l84.999 85.999c16.667 16.667 29.5 28 38.5 34s17.167 9 24.5 9
c10 0 18.667 -3.66699 26 -11s11 -16 11 -26c0 -4.66699 -0.833008 -9.16699 -2.5 -13.5s-4.16699 -8.5 -7.5 -12.5c-4.66699 -5.33301 -11.167 -10.666 -19.5 -15.999s-19.166 -11.333 -32.499 -18l-106 -54l-17 22v0z" />
    <glyph glyph-name="eth" unicode="&#xdb;" horiz-adv-x="815" 
d="M527 681l0.00195312 41h271v-41c-46.667 -4 -75.834 -14.167 -87.501 -30.5s-17.5 -55.833 -17.5 -118.5v-214c0 -57.333 -2 -100.333 -6 -129s-11.667 -54.334 -23 -77.001c-0.666992 -1.33301 -1.33398 -2.5 -2.00098 -3.5s-1.33398 -2.16699 -2.00098 -3.5
c-25.333 -45.333 -60.5 -76.166 -105.5 -92.499s-92.167 -24.833 -141.5 -25.5h-2.5h-3.5c-68 0 -125 11.833 -171 35.5s-77.333 56.834 -94 99.501c-6.66699 19.333 -11.5 40.833 -14.5 64.5s-4.5 55.834 -4.5 96.501v292v45c0 18.667 -0.166992 30.667 -0.5 36
s-1.83301 9.33301 -4.5 12l-0.5 0.5l-0.5 0.5c-1.33301 1.33301 -3.5 2.66602 -6.5 3.99902s-6.16699 2.33301 -9.5 3c-6.66699 1.33301 -13.5 2.16602 -20.5 2.49902s-13.833 0.833008 -20.5 1.5h-21h-21v42h313v-41h-25c-20 -0.666992 -36.5 -2 -49.5 -4
s-21.167 -4.66699 -24.5 -8c-1.33301 -2 -2.5 -4.5 -3.5 -7.5s-1.83301 -6.5 -2.5 -10.5v-76v-293c0 -51.333 3 -89.333 9 -114s17.333 -46.667 34 -66c18.667 -20 41.167 -35.167 67.5 -45.5s56.833 -15.5 91.5 -15.5c42.667 0 79.667 7.33301 111 22s55 35.667 71 63
l5.5 9.5c1.66699 3 3.16699 6.16699 4.5 9.5c10 19.333 16.5 41.166 19.5 65.499s4.5 59.5 4.5 105.5v217c0 60.667 -6.66699 99.334 -20 116.001s-45.666 27 -96.999 31v1zM438.002 936l125 -147h-41l-114 90l-117 -90h-40l130 147h57v0z" />
    <glyph glyph-name="Udieresis" unicode="&#xdc;" horiz-adv-x="815" 
d="M527 681l0.00195312 41h271v-41c-46.667 -4 -75.834 -14.167 -87.501 -30.5s-17.5 -55.833 -17.5 -118.5v-214c0 -57.333 -2 -100.333 -6 -129s-11.667 -54.334 -23 -77.001c-0.666992 -1.33301 -1.33398 -2.5 -2.00098 -3.5s-1.33398 -2.16699 -2.00098 -3.5
c-25.333 -45.333 -60.5 -76.166 -105.5 -92.499s-92.167 -24.833 -141.5 -25.5h-2.5h-3.5c-68 0 -125 11.833 -171 35.5s-77.333 56.834 -94 99.501c-6.66699 19.333 -11.5 40.833 -14.5 64.5s-4.5 55.834 -4.5 96.501v292v45c0 18.667 -0.166992 30.667 -0.5 36
s-1.83301 9.33301 -4.5 12l-0.5 0.5l-0.5 0.5c-1.33301 1.33301 -3.5 2.66602 -6.5 3.99902s-6.16699 2.33301 -9.5 3c-6.66699 1.33301 -13.5 2.16602 -20.5 2.49902s-13.833 0.833008 -20.5 1.5h-21h-21v42h313v-41h-25c-20 -0.666992 -36.5 -2 -49.5 -4
s-21.167 -4.66699 -24.5 -8c-1.33301 -2 -2.5 -4.5 -3.5 -7.5s-1.83301 -6.5 -2.5 -10.5v-76v-293c0 -51.333 3 -89.333 9 -114s17.333 -46.667 34 -66c18.667 -20 41.167 -35.167 67.5 -45.5s56.833 -15.5 91.5 -15.5c42.667 0 79.667 7.33301 111 22s55 35.667 71 63
l5.5 9.5c1.66699 3 3.16699 6.16699 4.5 9.5c10 19.333 16.5 41.166 19.5 65.499s4.5 59.5 4.5 105.5v217c0 60.667 -6.66699 99.334 -20 116.001s-45.666 27 -96.999 31v1zM307.002 903c16 -0.666992 29.667 -6.66699 41 -18s17 -25 17 -41s-5.66699 -29.667 -17 -41
s-25 -17 -41 -17s-29.667 5.66699 -41 17s-17 25 -17 41s5.66699 29.667 17 41s25 17 41 17v1zM509.002 903c16 -0.666992 29.667 -6.66699 41 -18s17 -25 17 -41s-5.66699 -29.667 -17 -41s-25 -17 -41 -17s-29.667 5.66699 -41 17s-17 25 -17 41s5.66699 29.667 17 41
s25 17 41 17v1z" />
    <glyph glyph-name="Yacute" unicode="&#xdd;" 
 />
    <glyph glyph-name="glyph236" unicode="&#xde;" horiz-adv-x="667" 
d="M230 176l-0.000976562 -104.999c1.33301 -7.33301 3.5 -13.333 6.5 -18s8.16699 -7.66699 15.5 -9c3.33301 -0.666992 7.33301 -1.16699 12 -1.5s9.33398 -0.5 14.001 -0.5c12 -0.666992 24 -1.16699 36 -1.5s24 -0.5 36 -0.5v-40h-328v41h25c37.333 -0.666992 60 2 68 8
s12 23.333 12 52v46v428v76c-0.666992 4 -1.5 7.5 -2.5 10.5s-2.16699 5.5 -3.5 7.5c-1.33301 1.33301 -3.5 2.66602 -6.5 3.99902s-6.16699 2.33301 -9.5 3c-6.66699 1.33301 -13.5 2.16602 -20.5 2.49902s-13.833 0.833008 -20.5 1.5h-21.5h-20.5v42h328v-41h-40
c-36.667 -0.666992 -59.167 -3.66699 -67.5 -9s-12.5 -20.666 -12.5 -45.999v-52h65c62 -0.666992 109.167 -3 141.5 -7s61.833 -12.333 88.5 -25c3.33301 -2 7 -4 11 -6l12 -6c33.333 -18.667 58.333 -40.5 75 -65.5s25 -53.833 25 -86.5s-9 -63.5 -27 -92.5
s-42.667 -51.5 -74 -67.5l-8 -4l-8 -4c-30 -13.333 -62 -22.5 -96 -27.5s-79.333 -7.5 -136 -7.5l-69 1v0zM229.999 221.001h50c98.667 -0.666992 165.167 10 199.5 32s51.5 64.667 51.5 128c0 66 -20 107.833 -60 125.5s-87.667 26.5 -143 26.5l-46 1
c-24 -0.666992 -38.667 -3.66699 -44 -9s-8 -20 -8 -44v-260v0z" />
    <glyph glyph-name="germandbls" unicode="&#xdf;" horiz-adv-x="574" 
d="M397 426c56 -9.33301 96.166 -30.8311 120.499 -64.498s36.5 -78.167 36.5 -133.5c0 -67.333 -18 -124.333 -54 -171s-79.667 -70 -131 -70c-28.667 0 -53 8.66699 -73 26s-30 39 -30 65c0 18 5.5 32.667 16.5 44s24.833 17 41.5 17c13.333 0 24.166 -4 32.499 -12
s12.5 -18.667 12.5 -32c0 -4.66699 -1 -8.83398 -3 -12.501l-6 -10.5c0 -0.666992 -0.166992 -1.16699 -0.5 -1.5l-0.5 -0.5c-2 -3.33301 -3.83301 -6.66602 -5.5 -9.99902s-2.5 -7 -2.5 -11c0 -4.66699 2.33301 -8.83398 7 -12.501s10.667 -5.5 18 -5.5
c26 0 45.5 14.833 58.5 44.5s19.5 73.167 19.5 130.5c0 39.333 -2.66699 70.666 -8 93.999s-14.333 42.666 -27 57.999c-12 14 -25.5 23 -40.5 27s-30.5 7 -46.5 9l-15.5 2l-14.5 2c-2 0 -3.83301 0.166992 -5.5 0.5s-3.16699 0.833008 -4.5 1.5v48
c53.333 0 90.166 7.83301 110.499 23.5s30.5 43.834 30.5 84.501c0 43.333 -10 76.333 -30 99s-48.667 34 -86 34c-25.333 0 -48.5 -5.5 -69.5 -16.5s-36.167 -25.833 -45.5 -44.5c0 -0.666992 -0.166992 -1.16699 -0.5 -1.5s-0.5 -0.833008 -0.5 -1.5
c-8 -16.667 -13.333 -36 -16 -58s-4 -57.667 -4 -107v-313v-19.5c0 -6.33301 0.333008 -12.5 1 -18.5v-19.5v-18.5c0 -12.667 1.83301 -20.834 5.5 -24.501s12.834 -6.16699 27.501 -7.5c2 0 4.16699 -0.166992 6.5 -0.5s4.5 -0.5 6.5 -0.5c2 -0.666992 4.16699 -1 6.5 -1
h6.5v-37h-225v38h9c17.333 -0.666992 31.666 -0.166992 42.999 1.5s18.333 3.83398 21 6.50098c3.33301 2.66699 5.33301 6.83398 6 12.501s1 17.5 1 35.5v53v301c0 61.333 3.33301 106.666 10 135.999s20 55.333 40 78c0.666992 0.666992 1.33398 1.5 2.00098 2.5
s1.33398 1.83301 2.00098 2.5c20.667 22 45.334 38.667 74.001 50s61 17 97 17c60 0 107.833 -15 143.5 -45s53.5 -70.333 53.5 -121c0 -40 -10.5 -72.333 -31.5 -97s-50.833 -40 -89.5 -46v1z" />
    <glyph glyph-name="agrave" unicode="&#xe0;" horiz-adv-x="556" 
d="M374 85c-18.667 -36 -41.3311 -61.334 -67.998 -76.001s-62.667 -22 -108 -22c-46.667 0 -82.834 9.66699 -108.501 29s-38.5 47.333 -38.5 84c0 44.667 19.5 80.5 58.5 107.5s81.833 46.833 128.5 59.5c23.333 6.66699 46.333 11.5 69 14.5s42.667 4.83301 60 5.5
c-0.666992 58 -7.5 96.667 -20.5 116s-38.833 29 -77.5 29c-32 0 -57.333 -3.33301 -76 -10s-28 -16 -28 -28c0 -4 0.833008 -7.5 2.5 -10.5l5.5 -9.5c0.666992 -0.666992 1.33398 -1.5 2.00098 -2.5s1.33398 -1.83301 2.00098 -2.5c2.66699 -4 5.16699 -8.16699 7.5 -12.5
s3.5 -9.5 3.5 -15.5c0 -16.667 -5.16699 -30.167 -15.5 -40.5s-23.5 -15.5 -39.5 -15.5c-16.667 0 -30.334 5.83301 -41.001 17.5s-16 26.5 -16 44.5c0 37.333 19 67.5 57 90.5s87.333 34.5 148 34.5c33.333 0 61.5 -3.16699 84.5 -9.5s41.167 -16.166 54.5 -29.499
l4.5 -4.5c1.66699 -1.66699 3.16699 -3.5 4.5 -5.5c9.33301 -11.333 15.5 -24.5 18.5 -39.5s4.5 -39.5 4.5 -73.5v-171c0 -42 1.83301 -69 5.5 -81s12.5 -18 26.5 -18c1.33301 0 2.83301 0.166992 4.5 0.5s3.16699 0.5 4.5 0.5c4 1.33301 7.83301 3.33301 11.5 6
s8.16699 6.66699 13.5 12l26 -25c-10.667 -17.333 -22.334 -29.5 -35.001 -36.5s-28.334 -10.5 -47.001 -10.5c-26.667 0 -47 7.66699 -61 23s-23 40 -27 74v1zM367.003 247.999c-10.667 -0.666992 -21.832 -1.50098 -33.499 -2.50098s-23.5 -2.83301 -35.5 -5.5
c-36.667 -6 -70.334 -18.667 -101.001 -38s-46 -49.666 -46 -90.999c0 -26 6.5 -44.833 19.5 -56.5s34.167 -17.5 63.5 -17.5c56 0 91.833 18.5 107.5 55.5s24.167 78.5 25.5 124.5v31v0zM299.005 604.998l-16.998 -22.001l-106 55
c-14.667 6.66699 -26.334 12.834 -35.001 18.501s-15 11.167 -19 16.5c-3.33301 4 -5.5 7.83301 -6.5 11.5s-1.5 7.5 -1.5 11.5c0 10.667 3.66699 19.667 11 27s15.666 11 24.999 11h1.5h0.5c8 -0.666992 16.5 -4.16699 25.5 -10.5s21.5 -17.5 37.5 -33.5l84 -85v0z" />
    <glyph glyph-name="aacute" unicode="&#xe1;" horiz-adv-x="556" 
d="M374 85c-18.667 -36 -41.3311 -61.334 -67.998 -76.001s-62.667 -22 -108 -22c-46.667 0 -82.834 9.66699 -108.501 29s-38.5 47.333 -38.5 84c0 44.667 19.5 80.5 58.5 107.5s81.833 46.833 128.5 59.5c23.333 6.66699 46.333 11.5 69 14.5s42.667 4.83301 60 5.5
c-0.666992 58 -7.5 96.667 -20.5 116s-38.833 29 -77.5 29c-32 0 -57.333 -3.33301 -76 -10s-28 -16 -28 -28c0 -4 0.833008 -7.5 2.5 -10.5l5.5 -9.5c0.666992 -0.666992 1.33398 -1.5 2.00098 -2.5s1.33398 -1.83301 2.00098 -2.5c2.66699 -4 5.16699 -8.16699 7.5 -12.5
s3.5 -9.5 3.5 -15.5c0 -16.667 -5.16699 -30.167 -15.5 -40.5s-23.5 -15.5 -39.5 -15.5c-16.667 0 -30.334 5.83301 -41.001 17.5s-16 26.5 -16 44.5c0 37.333 19 67.5 57 90.5s87.333 34.5 148 34.5c33.333 0 61.5 -3.16699 84.5 -9.5s41.167 -16.166 54.5 -29.499
l4.5 -4.5c1.66699 -1.66699 3.16699 -3.5 4.5 -5.5c9.33301 -11.333 15.5 -24.5 18.5 -39.5s4.5 -39.5 4.5 -73.5v-171c0 -42 1.83301 -69 5.5 -81s12.5 -18 26.5 -18c1.33301 0 2.83301 0.166992 4.5 0.5s3.16699 0.5 4.5 0.5c4 1.33301 7.83301 3.33301 11.5 6
s8.16699 6.66699 13.5 12l26 -25c-10.667 -17.333 -22.334 -29.5 -35.001 -36.5s-28.334 -10.5 -47.001 -10.5c-26.667 0 -47 7.66699 -61 23s-23 40 -27 74v1zM367.003 247.999c-10.667 -0.666992 -21.832 -1.50098 -33.499 -2.50098s-23.5 -2.83301 -35.5 -5.5
c-36.667 -6 -70.334 -18.667 -101.001 -38s-46 -49.666 -46 -90.999c0 -26 6.5 -44.833 19.5 -56.5s34.167 -17.5 63.5 -17.5c56 0 91.833 18.5 107.5 55.5s24.167 78.5 25.5 124.5v31v0zM257.005 604.998l84.999 85.999c16.667 16.667 29.5 28 38.5 34s17.167 9 24.5 9
c10 0 18.667 -3.66699 26 -11s11 -16 11 -26c0 -4.66699 -0.833008 -9.16699 -2.5 -13.5s-4.16699 -8.5 -7.5 -12.5c-4.66699 -5.33301 -11.167 -10.666 -19.5 -15.999s-19.166 -11.333 -32.499 -18l-106 -54l-17 22v0z" />
    <glyph glyph-name="acircumflex" unicode="&#xe2;" horiz-adv-x="556" 
d="M374 85c-18.667 -36 -41.3311 -61.334 -67.998 -76.001s-62.667 -22 -108 -22c-46.667 0 -82.834 9.66699 -108.501 29s-38.5 47.333 -38.5 84c0 44.667 19.5 80.5 58.5 107.5s81.833 46.833 128.5 59.5c23.333 6.66699 46.333 11.5 69 14.5s42.667 4.83301 60 5.5
c-0.666992 58 -7.5 96.667 -20.5 116s-38.833 29 -77.5 29c-32 0 -57.333 -3.33301 -76 -10s-28 -16 -28 -28c0 -4 0.833008 -7.5 2.5 -10.5l5.5 -9.5c0.666992 -0.666992 1.33398 -1.5 2.00098 -2.5s1.33398 -1.83301 2.00098 -2.5c2.66699 -4 5.16699 -8.16699 7.5 -12.5
s3.5 -9.5 3.5 -15.5c0 -16.667 -5.16699 -30.167 -15.5 -40.5s-23.5 -15.5 -39.5 -15.5c-16.667 0 -30.334 5.83301 -41.001 17.5s-16 26.5 -16 44.5c0 37.333 19 67.5 57 90.5s87.333 34.5 148 34.5c33.333 0 61.5 -3.16699 84.5 -9.5s41.167 -16.166 54.5 -29.499
l4.5 -4.5c1.66699 -1.66699 3.16699 -3.5 4.5 -5.5c9.33301 -11.333 15.5 -24.5 18.5 -39.5s4.5 -39.5 4.5 -73.5v-171c0 -42 1.83301 -69 5.5 -81s12.5 -18 26.5 -18c1.33301 0 2.83301 0.166992 4.5 0.5s3.16699 0.5 4.5 0.5c4 1.33301 7.83301 3.33301 11.5 6
s8.16699 6.66699 13.5 12l26 -25c-10.667 -17.333 -22.334 -29.5 -35.001 -36.5s-28.334 -10.5 -47.001 -10.5c-26.667 0 -47 7.66699 -61 23s-23 40 -27 74v1zM367.003 247.999c-10.667 -0.666992 -21.832 -1.50098 -33.499 -2.50098s-23.5 -2.83301 -35.5 -5.5
c-36.667 -6 -70.334 -18.667 -101.001 -38s-46 -49.666 -46 -90.999c0 -26 6.5 -44.833 19.5 -56.5s34.167 -17.5 63.5 -17.5c56 0 91.833 18.5 107.5 55.5s24.167 78.5 25.5 124.5v31v0zM309.005 740.998l125 -147h-41l-114 90l-117 -90h-40l130 147h57v0z" />
    <glyph glyph-name="atilde" unicode="&#xe3;" horiz-adv-x="556" 
d="M374 85c-18.667 -36 -41.3311 -61.334 -67.998 -76.001s-62.667 -22 -108 -22c-46.667 0 -82.834 9.66699 -108.501 29s-38.5 47.333 -38.5 84c0 44.667 19.5 80.5 58.5 107.5s81.833 46.833 128.5 59.5c23.333 6.66699 46.333 11.5 69 14.5s42.667 4.83301 60 5.5
c-0.666992 58 -7.5 96.667 -20.5 116s-38.833 29 -77.5 29c-32 0 -57.333 -3.33301 -76 -10s-28 -16 -28 -28c0 -4 0.833008 -7.5 2.5 -10.5l5.5 -9.5c0.666992 -0.666992 1.33398 -1.5 2.00098 -2.5s1.33398 -1.83301 2.00098 -2.5c2.66699 -4 5.16699 -8.16699 7.5 -12.5
s3.5 -9.5 3.5 -15.5c0 -16.667 -5.16699 -30.167 -15.5 -40.5s-23.5 -15.5 -39.5 -15.5c-16.667 0 -30.334 5.83301 -41.001 17.5s-16 26.5 -16 44.5c0 37.333 19 67.5 57 90.5s87.333 34.5 148 34.5c33.333 0 61.5 -3.16699 84.5 -9.5s41.167 -16.166 54.5 -29.499
l4.5 -4.5c1.66699 -1.66699 3.16699 -3.5 4.5 -5.5c9.33301 -11.333 15.5 -24.5 18.5 -39.5s4.5 -39.5 4.5 -73.5v-171c0 -42 1.83301 -69 5.5 -81s12.5 -18 26.5 -18c1.33301 0 2.83301 0.166992 4.5 0.5s3.16699 0.5 4.5 0.5c4 1.33301 7.83301 3.33301 11.5 6
s8.16699 6.66699 13.5 12l26 -25c-10.667 -17.333 -22.334 -29.5 -35.001 -36.5s-28.334 -10.5 -47.001 -10.5c-26.667 0 -47 7.66699 -61 23s-23 40 -27 74v1zM367.003 247.999c-10.667 -0.666992 -21.832 -1.50098 -33.499 -2.50098s-23.5 -2.83301 -35.5 -5.5
c-36.667 -6 -70.334 -18.667 -101.001 -38s-46 -49.666 -46 -90.999c0 -26 6.5 -44.833 19.5 -56.5s34.167 -17.5 63.5 -17.5c56 0 91.833 18.5 107.5 55.5s24.167 78.5 25.5 124.5v31v0zM446.005 721.998c-5.33301 -34.667 -16.667 -62.166 -34 -82.499
s-38.333 -30.5 -63 -30.5c-14.667 0 -29.167 3.16699 -43.5 9.5s-28.5 13.166 -42.5 20.499l-40.5 20.5c-13 6.33301 -26.167 9.5 -39.5 9.5c-10.667 0 -19.5 -3.33301 -26.5 -10s-12.5 -17.667 -16.5 -33l-31 1c7.33301 34.667 19.5 61.167 36.5 79.5s37.5 27.5 61.5 27.5
c15.333 0 29.833 -3.33301 43.5 -10s26.834 -14 39.501 -22c4 -2.66699 7.66699 -5 11 -7l10 -6c10 -5.33301 19.833 -10 29.5 -14s19.5 -6 29.5 -6c11.333 0 20.666 4 27.999 12s13.333 21.333 18 40l30 1v0z" />
    <glyph glyph-name="adieresis" unicode="&#xe4;" horiz-adv-x="556" 
d="M374 85c-18.667 -36 -41.3311 -61.334 -67.998 -76.001s-62.667 -22 -108 -22c-46.667 0 -82.834 9.66699 -108.501 29s-38.5 47.333 -38.5 84c0 44.667 19.5 80.5 58.5 107.5s81.833 46.833 128.5 59.5c23.333 6.66699 46.333 11.5 69 14.5s42.667 4.83301 60 5.5
c-0.666992 58 -7.5 96.667 -20.5 116s-38.833 29 -77.5 29c-32 0 -57.333 -3.33301 -76 -10s-28 -16 -28 -28c0 -4 0.833008 -7.5 2.5 -10.5l5.5 -9.5c0.666992 -0.666992 1.33398 -1.5 2.00098 -2.5s1.33398 -1.83301 2.00098 -2.5c2.66699 -4 5.16699 -8.16699 7.5 -12.5
s3.5 -9.5 3.5 -15.5c0 -16.667 -5.16699 -30.167 -15.5 -40.5s-23.5 -15.5 -39.5 -15.5c-16.667 0 -30.334 5.83301 -41.001 17.5s-16 26.5 -16 44.5c0 37.333 19 67.5 57 90.5s87.333 34.5 148 34.5c33.333 0 61.5 -3.16699 84.5 -9.5s41.167 -16.166 54.5 -29.499
l4.5 -4.5c1.66699 -1.66699 3.16699 -3.5 4.5 -5.5c9.33301 -11.333 15.5 -24.5 18.5 -39.5s4.5 -39.5 4.5 -73.5v-171c0 -42 1.83301 -69 5.5 -81s12.5 -18 26.5 -18c1.33301 0 2.83301 0.166992 4.5 0.5s3.16699 0.5 4.5 0.5c4 1.33301 7.83301 3.33301 11.5 6
s8.16699 6.66699 13.5 12l26 -25c-10.667 -17.333 -22.334 -29.5 -35.001 -36.5s-28.334 -10.5 -47.001 -10.5c-26.667 0 -47 7.66699 -61 23s-23 40 -27 74v1zM367.003 247.999c-10.667 -0.666992 -21.832 -1.50098 -33.499 -2.50098s-23.5 -2.83301 -35.5 -5.5
c-36.667 -6 -70.334 -18.667 -101.001 -38s-46 -49.666 -46 -90.999c0 -26 6.5 -44.833 19.5 -56.5s34.167 -17.5 63.5 -17.5c56 0 91.833 18.5 107.5 55.5s24.167 78.5 25.5 124.5v31v0zM177.005 707.998c16 -0.666992 29.667 -6.66699 41 -18s17 -25 17 -41
s-5.66699 -29.667 -17 -41s-25 -17 -41 -17s-29.667 5.66699 -41 17s-17 25 -17 41s5.66699 29.667 17 41s25 17 41 17v1zM379.005 707.998c16 -0.666992 29.667 -6.66699 41 -18s17 -25 17 -41s-5.66699 -29.667 -17 -41s-25 -17 -41 -17s-29.667 5.66699 -41 17
s-17 25 -17 41s5.66699 29.667 17 41s25 17 41 17v1z" />
    <glyph glyph-name="aring" unicode="&#xe5;" horiz-adv-x="556" 
d="M374 85c-18.667 -36 -41.3311 -61.334 -67.998 -76.001s-62.667 -22 -108 -22c-46.667 0 -82.834 9.66699 -108.501 29s-38.5 47.333 -38.5 84c0 44.667 19.5 80.5 58.5 107.5s81.833 46.833 128.5 59.5c23.333 6.66699 46.333 11.5 69 14.5s42.667 4.83301 60 5.5
c-0.666992 58 -7.5 96.667 -20.5 116s-38.833 29 -77.5 29c-32 0 -57.333 -3.33301 -76 -10s-28 -16 -28 -28c0 -4 0.833008 -7.5 2.5 -10.5l5.5 -9.5c0.666992 -0.666992 1.33398 -1.5 2.00098 -2.5s1.33398 -1.83301 2.00098 -2.5c2.66699 -4 5.16699 -8.16699 7.5 -12.5
s3.5 -9.5 3.5 -15.5c0 -16.667 -5.16699 -30.167 -15.5 -40.5s-23.5 -15.5 -39.5 -15.5c-16.667 0 -30.334 5.83301 -41.001 17.5s-16 26.5 -16 44.5c0 37.333 19 67.5 57 90.5s87.333 34.5 148 34.5c33.333 0 61.5 -3.16699 84.5 -9.5s41.167 -16.166 54.5 -29.499
l4.5 -4.5c1.66699 -1.66699 3.16699 -3.5 4.5 -5.5c9.33301 -11.333 15.5 -24.5 18.5 -39.5s4.5 -39.5 4.5 -73.5v-171c0 -42 1.83301 -69 5.5 -81s12.5 -18 26.5 -18c1.33301 0 2.83301 0.166992 4.5 0.5s3.16699 0.5 4.5 0.5c4 1.33301 7.83301 3.33301 11.5 6
s8.16699 6.66699 13.5 12l26 -25c-10.667 -17.333 -22.334 -29.5 -35.001 -36.5s-28.334 -10.5 -47.001 -10.5c-26.667 0 -47 7.66699 -61 23s-23 40 -27 74v1zM367.003 247.999c-10.667 -0.666992 -21.832 -1.50098 -33.499 -2.50098s-23.5 -2.83301 -35.5 -5.5
c-36.667 -6 -70.334 -18.667 -101.001 -38s-46 -49.666 -46 -90.999c0 -26 6.5 -44.833 19.5 -56.5s34.167 -17.5 63.5 -17.5c56 0 91.833 18.5 107.5 55.5s24.167 78.5 25.5 124.5v31v0zM278.005 782.998c27.333 -0.666992 50.333 -10.5 69 -29.5s28 -42.167 28 -69.5
c0 -26.667 -9.33301 -49.5 -28 -68.5s-41.667 -28.5 -69 -28.5c-26.667 0 -49.667 9.66699 -69 29s-29 42.333 -29 69s9.66699 49.5 29 68.5s42.333 28.5 69 28.5v1zM277.005 742.998c-15.333 -0.666992 -28.666 -6.66699 -39.999 -18s-17 -24.666 -17 -39.999
c0 -16 5.66699 -29.667 17 -41s24.666 -17 39.999 -17c16 0 29.667 5.66699 41 17s17 25 17 41c0 15.333 -5.66699 28.666 -17 39.999s-25 17 -41 17v1z" />
    <glyph glyph-name="Otilde" unicode="&#xe6;" horiz-adv-x="796" 
d="M423 224c1.33301 -49.333 11.833 -93.0059 31.5 -131.006s58.5 -57 116.5 -57c38 0 69.333 10.667 94 32s46.334 47.333 65.001 78l33 -17c-22.667 -45.333 -50.167 -80.333 -82.5 -105s-75.166 -37 -128.499 -37c-40.667 0 -77.167 8.33301 -109.5 25
s-60.166 41.334 -83.499 74.001c-6 -7.33301 -11.833 -14 -17.5 -20l-16.5 -17c-24 -23.333 -49 -39.5 -75 -48.5s-56.667 -13.5 -92 -13.5c-40.667 0 -74 10.5 -100 31.5s-39 47.833 -39 80.5c0 42.667 19.167 76.5 57.5 101.5s80.5 43.833 126.5 56.5
c25.333 7.33301 50 13 74 17s44.667 7 62 9c-0.666992 58 -8.33398 97.333 -23.001 118s-43.334 31 -86.001 31c-4 0 -10.333 -0.5 -19 -1.5s-17.667 -2.5 -27 -4.5c-12.667 -3.33301 -24.334 -7.66602 -35.001 -12.999s-16 -12.666 -16 -21.999c0 -4 1 -7.66699 3 -11
s4.33301 -6.66602 7 -9.99902l2 -2l2 -2c3.33301 -4 6.5 -8.33301 9.5 -13s4.5 -10 4.5 -16c0 -14.667 -5.66699 -27.5 -17 -38.5s-24.666 -16.5 -39.999 -16.5c-16 0 -30.167 6.5 -42.5 19.5s-18.5 27.833 -18.5 44.5c0 34 20.5 63.5 61.5 88.5s89.167 37.5 144.5 37.5
c38 0 69.5 -4.66699 94.5 -14s45.167 -23.666 60.5 -42.999c7.33301 6.66699 14.5 12.667 21.5 18s14.167 10 21.5 14c15.333 8.66699 31.166 15 47.499 19s34.833 6 55.5 6c62.667 0 113 -22.167 151 -66.5s58.667 -105.166 62 -182.499l-340 1v0zM339 246.994
c-0.666992 -0.666992 -1.16797 -1.00098 -1.50098 -1.00098h-1.5l-37.5 -6.5c-13.667 -2.33301 -27.5 -5.16602 -41.5 -8.49902c-34 -7.33301 -65.5 -19.666 -94.5 -36.999s-43.5 -45.333 -43.5 -84c0 -23.333 7 -41.5 21 -54.5s33.667 -19.5 59 -19.5
c26.667 0 51.167 6.83301 73.5 20.5s38.5 31.5 48.5 53.5c6 13.333 10.333 29.666 13 48.999s4.33398 48.333 5.00098 87v1zM422.999 263.993h172.999c30 -0.666992 48.833 1.16602 56.5 5.49902s11.5 15.5 11.5 33.5c0 38.667 -10.167 69.834 -30.5 93.501
s-47.166 35.5 -80.499 35.5c-38 0 -68.333 -14.667 -91 -44s-35.667 -71 -39 -125v1z" />
    <glyph glyph-name="ccedilla" unicode="&#xe7;" horiz-adv-x="444" 
d="M430 133c-12 -44 -30.998 -77.501 -56.998 -100.501s-61.667 -37.5 -107 -43.5l-12 -36h14.5c4.33301 0 7.83301 0.333008 10.5 1h2.5h2.5c16.667 -1.33301 31.667 -7 45 -17s20 -24 20 -42c0 -23.333 -11 -43.166 -33 -59.499s-48.333 -24.5 -79 -24.5
c-10.667 0 -20.667 0.333008 -30 1s-18.333 1.66699 -27 3c-4.66699 0.666992 -9.33398 1.5 -14.001 2.5s-9.66699 2.16699 -15 3.5l14 32c3.33301 -0.666992 6.5 -1.16699 9.5 -1.5s5.83301 -0.833008 8.5 -1.5c5.33301 -1.33301 10.5 -2.33301 15.5 -3s10.167 -1 15.5 -1
c21.333 0 39.166 4.16699 53.499 12.5s21.5 18.166 21.5 29.499c0 8.66699 -4.66699 15.5 -14 20.5s-22.333 7.5 -39 7.5c-4 0 -8.83301 -0.333008 -14.5 -1l-24.5 -3l26 77c-24 4 -43.333 8.5 -58 13.5s-28.334 12.5 -41.001 22.5c-4 2.66699 -8 5.83398 -12 9.50098
l-12 11.5c-22 21.333 -39 47.166 -51 77.499s-18 62.833 -18 97.5c0 72 21.667 131.833 65 179.5s97.666 71.5 162.999 71.5c43.333 0 79.833 -11.5 109.5 -34.5s44.5 -51.167 44.5 -84.5c0 -18.667 -5.66699 -34.334 -17 -47.001s-25.333 -19 -42 -19
c-14.667 0 -27.5 5.33301 -38.5 16s-16.5 23.334 -16.5 38.001c0 6.66699 1 12.834 3 18.501s5.33301 11.167 10 16.5c0.666992 0.666992 1.33398 1.5 2.00098 2.5s1.33398 1.83301 2.00098 2.5c1.33301 1.33301 2.5 2.83301 3.5 4.5s1.83301 3.5 2.5 5.5
c0 0.666992 0.166992 1.5 0.5 2.5s0.5 1.83301 0.5 2.5c0 10 -6.66699 18.5 -20 25.5s-29.333 10.5 -48 10.5c-38.667 0 -69 -16.833 -91 -50.5s-33 -80.167 -33 -139.5c0 -64.667 12 -114.667 36 -150s57.333 -53 100 -53c31.333 0 57 8.5 77 25.5s37.333 44.5 52 82.5
l34 -14v0z" />
    <glyph glyph-name="egrave" unicode="&#xe8;" horiz-adv-x="500" 
d="M130 225c1.33301 -62 14.166 -108.998 38.499 -140.998s59.833 -48 106.5 -48c34 0 63.167 8.66699 87.5 26s47.5 45.666 69.5 84.999l34 -17c-20.667 -44 -47 -78.833 -79 -104.5s-73.667 -38.5 -125 -38.5c-68 0 -123.5 21.667 -166.5 65s-64.5 99.333 -64.5 168
c0 69.333 22.333 128.666 67 177.999s98.334 74 161.001 74c61.333 0 110.333 -22 147 -66s56.667 -104.667 60 -182l-336 1v0zM130 265.002l168.999 0.00292969c30 -0.666992 48.667 1.16602 56 5.49902s11 15.166 11 32.499c0 39.333 -9.66699 70.666 -29 93.999
s-45.333 35 -78 35c-37.333 0 -67.166 -14.5 -89.499 -43.5s-35.5 -70.5 -39.5 -124.5v1zM270.999 605.005l-16.998 -22.001l-106 55c-14.667 6.66699 -26.334 12.834 -35.001 18.501s-15 11.167 -19 16.5c-3.33301 4 -5.5 7.83301 -6.5 11.5s-1.5 7.5 -1.5 11.5
c0 10.667 3.66699 19.667 11 27s15.666 11 24.999 11h1.5h0.5c8 -0.666992 16.5 -4.16699 25.5 -10.5s21.5 -17.5 37.5 -33.5l84 -85v0z" />
    <glyph glyph-name="eacute" unicode="&#xe9;" horiz-adv-x="500" 
d="M130 225c1.33301 -62 14.166 -108.998 38.499 -140.998s59.833 -48 106.5 -48c34 0 63.167 8.66699 87.5 26s47.5 45.666 69.5 84.999l34 -17c-20.667 -44 -47 -78.833 -79 -104.5s-73.667 -38.5 -125 -38.5c-68 0 -123.5 21.667 -166.5 65s-64.5 99.333 -64.5 168
c0 69.333 22.333 128.666 67 177.999s98.334 74 161.001 74c61.333 0 110.333 -22 147 -66s56.667 -104.667 60 -182l-336 1v0zM130 265.002l168.999 0.00292969c30 -0.666992 48.667 1.16602 56 5.49902s11 15.166 11 32.499c0 39.333 -9.66699 70.666 -29 93.999
s-45.333 35 -78 35c-37.333 0 -67.166 -14.5 -89.499 -43.5s-35.5 -70.5 -39.5 -124.5v1zM228.999 605.005l84.999 85.999c16.667 16.667 29.5 28 38.5 34s17.167 9 24.5 9c10 0 18.667 -3.66699 26 -11s11 -16 11 -26c0 -4.66699 -0.833008 -9.16699 -2.5 -13.5
s-4.16699 -8.5 -7.5 -12.5c-4.66699 -5.33301 -11.167 -10.666 -19.5 -15.999s-19.166 -11.333 -32.499 -18l-106 -54l-17 22v0z" />
    <glyph glyph-name="ecircumflex" unicode="&#xea;" horiz-adv-x="500" 
d="M130 225c1.33301 -62 14.166 -108.998 38.499 -140.998s59.833 -48 106.5 -48c34 0 63.167 8.66699 87.5 26s47.5 45.666 69.5 84.999l34 -17c-20.667 -44 -47 -78.833 -79 -104.5s-73.667 -38.5 -125 -38.5c-68 0 -123.5 21.667 -166.5 65s-64.5 99.333 -64.5 168
c0 69.333 22.333 128.666 67 177.999s98.334 74 161.001 74c61.333 0 110.333 -22 147 -66s56.667 -104.667 60 -182l-336 1v0zM130 265.002l168.999 0.00292969c30 -0.666992 48.667 1.16602 56 5.49902s11 15.166 11 32.499c0 39.333 -9.66699 70.666 -29 93.999
s-45.333 35 -78 35c-37.333 0 -67.166 -14.5 -89.499 -43.5s-35.5 -70.5 -39.5 -124.5v1zM280.999 741.005l125 -147h-41l-114 90l-117 -90h-40l130 147h57v0z" />
    <glyph glyph-name="edieresis" unicode="&#xeb;" horiz-adv-x="500" 
d="M130 225c1.33301 -62 14.166 -108.998 38.499 -140.998s59.833 -48 106.5 -48c34 0 63.167 8.66699 87.5 26s47.5 45.666 69.5 84.999l34 -17c-20.667 -44 -47 -78.833 -79 -104.5s-73.667 -38.5 -125 -38.5c-68 0 -123.5 21.667 -166.5 65s-64.5 99.333 -64.5 168
c0 69.333 22.333 128.666 67 177.999s98.334 74 161.001 74c61.333 0 110.333 -22 147 -66s56.667 -104.667 60 -182l-336 1v0zM130 265.002l168.999 0.00292969c30 -0.666992 48.667 1.16602 56 5.49902s11 15.166 11 32.499c0 39.333 -9.66699 70.666 -29 93.999
s-45.333 35 -78 35c-37.333 0 -67.166 -14.5 -89.499 -43.5s-35.5 -70.5 -39.5 -124.5v1zM148.999 708.005c16 -0.666992 29.667 -6.66699 41 -18s17 -25 17 -41s-5.66699 -29.667 -17 -41s-25 -17 -41 -17s-29.667 5.66699 -41 17s-17 25 -17 41s5.66699 29.667 17 41
s25 17 41 17v1zM350.999 708.005c16 -0.666992 29.667 -6.66699 41 -18s17 -25 17 -41s-5.66699 -29.667 -17 -41s-25 -17 -41 -17s-29.667 5.66699 -41 17s-17 25 -17 41s5.66699 29.667 17 41s25 17 41 17v1z" />
    <glyph glyph-name="igrave" unicode="&#xec;" horiz-adv-x="315" 
d="M205 473l-0.00292969 -326.004v-52c0 -24 1.16699 -38.833 3.5 -44.5s8.5 -9.16699 18.5 -10.5c10.667 -1.33301 21.167 -2.16602 31.5 -2.49902s20.833 -0.5 31.5 -0.5v-37h-260v38h19c17.333 -0.666992 31.666 -0.166992 42.999 1.5s18.333 3.83398 21 6.50098
c3.33301 2.66699 5.33301 6.83398 6 12.501s1 17.5 1 35.5v53v166v40c-0.666992 30.667 -4.66699 49.667 -12 57s-26.666 11 -57.999 11l-20 1v38c14.667 -0.666992 29.334 -0.666992 44.001 0s29.334 1.66699 44.001 3c14 0.666992 28.333 1.83398 43 3.50098
s29.334 3.5 44.001 5.5v1zM177.997 604.996l-16.999 -22.001l-106 55c-14.667 6.66699 -26.334 12.834 -35.001 18.501s-15 11.167 -19 16.5c-2.66699 4 -4.5 7.83301 -5.5 11.5s-1.5 7.5 -1.5 11.5c0 10.667 3.5 19.667 10.5 27s15.167 11 24.5 11h1.5h0.5
c8 -0.666992 16.5 -4.16699 25.5 -10.5s21.5 -17.5 37.5 -33.5l84 -85v0z" />
    <glyph glyph-name="iacute" unicode="&#xed;" horiz-adv-x="315" 
d="M205 473l-0.00292969 -326.004v-52c0 -24 1.16699 -38.833 3.5 -44.5s8.5 -9.16699 18.5 -10.5c10.667 -1.33301 21.167 -2.16602 31.5 -2.49902s20.833 -0.5 31.5 -0.5v-37h-260v38h19c17.333 -0.666992 31.666 -0.166992 42.999 1.5s18.333 3.83398 21 6.50098
c3.33301 2.66699 5.33301 6.83398 6 12.501s1 17.5 1 35.5v53v166v40c-0.666992 30.667 -4.66699 49.667 -12 57s-26.666 11 -57.999 11l-20 1v38c14.667 -0.666992 29.334 -0.666992 44.001 0s29.334 1.66699 44.001 3c14 0.666992 28.333 1.83398 43 3.50098
s29.334 3.5 44.001 5.5v1zM136.997 604.996l84.999 85.999c16.667 16.667 29.5 28 38.5 34s17.167 9 24.5 9c10 0 18.667 -3.66699 26 -11s11 -16 11 -26c0 -4.66699 -0.833008 -9.16699 -2.5 -13.5s-4.16699 -8.5 -7.5 -12.5
c-4.66699 -5.33301 -11.167 -10.666 -19.5 -15.999s-19.166 -11.333 -32.499 -18l-106 -54l-17 22v0z" />
    <glyph glyph-name="icircumflex" unicode="&#xee;" horiz-adv-x="315" 
d="M205 473l-0.00292969 -326.004v-52c0 -24 1.16699 -38.833 3.5 -44.5s8.5 -9.16699 18.5 -10.5c10.667 -1.33301 21.167 -2.16602 31.5 -2.49902s20.833 -0.5 31.5 -0.5v-37h-260v38h19c17.333 -0.666992 31.666 -0.166992 42.999 1.5s18.333 3.83398 21 6.50098
c3.33301 2.66699 5.33301 6.83398 6 12.501s1 17.5 1 35.5v53v166v40c-0.666992 30.667 -4.66699 49.667 -12 57s-26.666 11 -57.999 11l-20 1v38c14.667 -0.666992 29.334 -0.666992 44.001 0s29.334 1.66699 44.001 3c14 0.666992 28.333 1.83398 43 3.50098
s29.334 3.5 44.001 5.5v1zM188.997 740.996l125 -147h-41l-114 90l-117 -90h-40l130 147h57v0z" />
    <glyph glyph-name="idieresis" unicode="&#xef;" horiz-adv-x="315" 
d="M205 473l-0.00292969 -326.004v-52c0 -24 1.16699 -38.833 3.5 -44.5s8.5 -9.16699 18.5 -10.5c10.667 -1.33301 21.167 -2.16602 31.5 -2.49902s20.833 -0.5 31.5 -0.5v-37h-260v38h19c17.333 -0.666992 31.666 -0.166992 42.999 1.5s18.333 3.83398 21 6.50098
c3.33301 2.66699 5.33301 6.83398 6 12.501s1 17.5 1 35.5v53v166v40c-0.666992 30.667 -4.66699 49.667 -12 57s-26.666 11 -57.999 11l-20 1v38c14.667 -0.666992 29.334 -0.666992 44.001 0s29.334 1.66699 44.001 3c14 0.666992 28.333 1.83398 43 3.50098
s29.334 3.5 44.001 5.5v1zM56.9971 707.996c16 -0.666992 29.667 -6.66699 41 -18s17 -25 17 -41s-5.66699 -29.667 -17 -41s-25 -17 -41 -17s-29.5 5.66699 -40.5 17s-16.5 25 -16.5 41s5.5 29.667 16.5 41s24.5 17 40.5 17v1zM258.997 707.996
c16 -0.666992 29.667 -6.66699 41 -18s17 -25 17 -41s-5.66699 -29.667 -17 -41s-25 -17 -41 -17s-29.667 5.66699 -41 17s-17 25 -17 41s5.66699 29.667 17 41s25 17 41 17v1z" />
    <glyph glyph-name="glyph233" unicode="&#xf0;" horiz-adv-x="500" 
d="M262 473c-16.667 20.667 -34.1689 40.834 -52.502 60.501s-38.166 38.5 -59.499 56.5l-108 -66l-27 43l94 59l-16 12.5c-5.33301 4.33301 -11 8.5 -17 12.5l-26.5 17c-9.66699 6 -20.167 12 -31.5 18l36 46c3.33301 -2.66699 6.83301 -4.83398 10.5 -6.50098l11.5 -5.5
c10 -5.33301 20 -11 30 -17l29 -17l18 -12c6 -4 11.333 -8 16 -12l123 75l27 -43l-104 -63l37 -36.5l39 -38.5c45.333 -45.333 86.833 -95.5 124.5 -150.5s56.5 -113.833 56.5 -176.5c0 -66 -22 -122.833 -66 -170.5s-95.667 -71.5 -155 -71.5s-111.166 24 -155.499 72
s-66.5 104.333 -66.5 169c0 65.333 22.167 122.333 66.5 171s99.833 73 166.5 73v1zM249.998 433c-39.333 -3.33301 -69.334 -22.332 -90.001 -56.999s-31 -84.334 -31 -149.001c0 -62.667 11 -111.834 33 -147.501s51.667 -53.5 89 -53.5c38 0 67.5 18 88.5 54
s31.5 86.333 31.5 151c0 62.667 -10.667 111.834 -32 147.501s-50.666 53.5 -87.999 53.5l-1 1v0z" />
    <glyph glyph-name="ntilde" unicode="&#xf1;" horiz-adv-x="611" 
d="M279 0l-260.001 -0.000976562v38h9c17.333 -0.666992 31.666 -0.166992 42.999 1.5s18.333 3.83398 21 6.50098c3.33301 2.66699 5.33301 6.83398 6 12.501s1 17.5 1 35.5v53v166v40c-0.666992 30 -4.66699 48.833 -12 56.5s-26.666 11.5 -57.999 11.5l-20 1v38
c28 -0.666992 55.833 -0.166992 83.5 1.5s55.167 4.5 82.5 8.5v-11v-10c-0.666992 -2.66699 -1 -5.33398 -1 -8.00098v-7v-18.5c0 -6.33301 0.333008 -12.5 1 -18.5v-19.5v-18.5c17.333 37.333 40.5 65.5 69.5 84.5s62.167 28.5 99.5 28.5c70 0 115.167 -21.333 135.5 -64
s30.5 -94 30.5 -154v-107v-52c0.666992 -24 2.33398 -38.833 5.00098 -44.5s9.33398 -9.16699 20.001 -10.5c6 -0.666992 11.833 -1.16699 17.5 -1.5s11.5 -0.833008 17.5 -1.5h17.5h17.5v-37h-270v38h7c20 -0.666992 36.667 -0.166992 50 1.5
s21.666 3.83398 24.999 6.50098s5.33301 6.66699 6 12s1.33398 17.333 2.00098 36v136c0 32 -0.833008 57.167 -2.5 75.5s-5.16699 33.833 -10.5 46.5c-6.66699 17.333 -17.667 30.833 -33 40.5s-34.333 14.5 -57 14.5c-54.667 0 -91.334 -18.833 -110.001 -56.5
s-28 -79.834 -28 -126.501v-129c0 -23.333 1.5 -38 4.5 -44s9.83301 -9.66699 20.5 -11c6 -0.666992 11.833 -1.16699 17.5 -1.5s11.5 -0.833008 17.5 -1.5h17.5h17.5v-37v0zM475.999 721.999c-5.33301 -34.667 -16.667 -62.166 -34 -82.499s-38.333 -30.5 -63 -30.5
c-14.667 0 -29.167 3.16699 -43.5 9.5s-28.5 13.166 -42.5 20.499l-40.5 20.5c-13 6.33301 -26.167 9.5 -39.5 9.5c-10.667 0 -19.5 -3.33301 -26.5 -10s-12.5 -17.667 -16.5 -33l-31 1c7.33301 34.667 19.5 61.167 36.5 79.5s37.5 27.5 61.5 27.5
c15.333 0 29.833 -3.33301 43.5 -10s26.834 -14 39.501 -22c4 -2.66699 7.66699 -5 11 -7l10 -6c10 -5.33301 19.833 -10 29.5 -14s19.5 -6 29.5 -6c11.333 0 20.666 4 27.999 12s13.333 21.333 18 40l30 1v0z" />
    <glyph glyph-name="ograve" unicode="&#xf2;" horiz-adv-x="500" 
d="M253 473c58.667 -0.666992 109.333 -25 152 -73s64 -104.667 64 -170c0 -66 -21.667 -123 -65 -171s-94.333 -72 -153 -72s-110 24 -154 72s-66 104.333 -66 169c0 66 22 123.167 66 171.5s96 72.5 156 72.5v1zM248.999 433
c-36 -0.666992 -64.6689 -19.334 -86.002 -56.001s-32 -86.667 -32 -150c0 -62 10.833 -111 32.5 -147s50.834 -54 87.501 -54s65.5 18.333 86.5 55s31.5 86.667 31.5 150c0 62.667 -10.667 111.834 -32 147.501s-50.666 53.5 -87.999 53.5v1zM272.997 605l-16.998 -22.001
l-106 55c-14.667 6.66699 -26.334 12.834 -35.001 18.501s-15 11.167 -19 16.5c-3.33301 4 -5.5 7.83301 -6.5 11.5s-1.5 7.5 -1.5 11.5c0 10.667 3.66699 19.667 11 27s15.666 11 24.999 11h1.5h0.5c8 -0.666992 16.5 -4.16699 25.5 -10.5s21.5 -17.5 37.5 -33.5l84 -85v0z
" />
    <glyph glyph-name="oacute" unicode="&#xf3;" horiz-adv-x="500" 
d="M253 473c58.667 -0.666992 109.333 -25 152 -73s64 -104.667 64 -170c0 -66 -21.667 -123 -65 -171s-94.333 -72 -153 -72s-110 24 -154 72s-66 104.333 -66 169c0 66 22 123.167 66 171.5s96 72.5 156 72.5v1zM248.999 433
c-36 -0.666992 -64.6689 -19.334 -86.002 -56.001s-32 -86.667 -32 -150c0 -62 10.833 -111 32.5 -147s50.834 -54 87.501 -54s65.5 18.333 86.5 55s31.5 86.667 31.5 150c0 62.667 -10.667 111.834 -32 147.501s-50.666 53.5 -87.999 53.5v1zM231.997 605l84.999 85.999
c16.667 16.667 29.5 28 38.5 34s17.167 9 24.5 9c10 0 18.667 -3.66699 26 -11s11 -16 11 -26c0 -4.66699 -0.833008 -9.16699 -2.5 -13.5s-4.16699 -8.5 -7.5 -12.5c-4.66699 -5.33301 -11.167 -10.666 -19.5 -15.999s-19.166 -11.333 -32.499 -18l-106 -54l-17 22v0z" />
    <glyph glyph-name="ocircumflex" unicode="&#xf4;" horiz-adv-x="500" 
d="M253 473c58.667 -0.666992 109.333 -25 152 -73s64 -104.667 64 -170c0 -66 -21.667 -123 -65 -171s-94.333 -72 -153 -72s-110 24 -154 72s-66 104.333 -66 169c0 66 22 123.167 66 171.5s96 72.5 156 72.5v1zM248.999 433
c-36 -0.666992 -64.6689 -19.334 -86.002 -56.001s-32 -86.667 -32 -150c0 -62 10.833 -111 32.5 -147s50.834 -54 87.501 -54s65.5 18.333 86.5 55s31.5 86.667 31.5 150c0 62.667 -10.667 111.834 -32 147.501s-50.666 53.5 -87.999 53.5v1zM283.997 741l125 -147h-41
l-114 90l-117 -90h-40l130 147h57v0z" />
    <glyph glyph-name="otilde" unicode="&#xf5;" horiz-adv-x="500" 
d="M253 473c58.667 -0.666992 109.333 -25 152 -73s64 -104.667 64 -170c0 -66 -21.667 -123 -65 -171s-94.333 -72 -153 -72s-110 24 -154 72s-66 104.333 -66 169c0 66 22 123.167 66 171.5s96 72.5 156 72.5v1zM248.999 433
c-36 -0.666992 -64.6689 -19.334 -86.002 -56.001s-32 -86.667 -32 -150c0 -62 10.833 -111 32.5 -147s50.834 -54 87.501 -54s65.5 18.333 86.5 55s31.5 86.667 31.5 150c0 62.667 -10.667 111.834 -32 147.501s-50.666 53.5 -87.999 53.5v1zM420.997 722
c-5.33301 -34.667 -16.667 -62.166 -34 -82.499s-38.333 -30.5 -63 -30.5c-14.667 0 -29.167 3.16699 -43.5 9.5s-28.5 13.166 -42.5 20.499l-40.5 20.5c-13 6.33301 -26.167 9.5 -39.5 9.5c-10.667 0 -19.5 -3.33301 -26.5 -10s-12.5 -17.667 -16.5 -33l-31 1
c7.33301 34.667 19.5 61.167 36.5 79.5s37.5 27.5 61.5 27.5c15.333 0 29.833 -3.33301 43.5 -10s26.834 -14 39.501 -22c4 -2.66699 7.66699 -5 11 -7l10 -6c10 -5.33301 19.833 -10 29.5 -14s19.5 -6 29.5 -6c11.333 0 20.666 4 27.999 12s13.333 21.333 18 40l30 1v0z
" />
    <glyph glyph-name="odieresis" unicode="&#xf6;" horiz-adv-x="500" 
d="M253 473c58.667 -0.666992 109.333 -25 152 -73s64 -104.667 64 -170c0 -66 -21.667 -123 -65 -171s-94.333 -72 -153 -72s-110 24 -154 72s-66 104.333 -66 169c0 66 22 123.167 66 171.5s96 72.5 156 72.5v1zM248.999 433
c-36 -0.666992 -64.6689 -19.334 -86.002 -56.001s-32 -86.667 -32 -150c0 -62 10.833 -111 32.5 -147s50.834 -54 87.501 -54s65.5 18.333 86.5 55s31.5 86.667 31.5 150c0 62.667 -10.667 111.834 -32 147.501s-50.666 53.5 -87.999 53.5v1zM151.997 708
c16 -0.666992 29.667 -6.66699 41 -18s17 -25 17 -41s-5.66699 -29.667 -17 -41s-25 -17 -41 -17s-29.667 5.66699 -41 17s-17 25 -17 41s5.66699 29.667 17 41s25 17 41 17v1zM353.997 708c16 -0.666992 29.667 -6.66699 41 -18s17 -25 17 -41s-5.66699 -29.667 -17 -41
s-25 -17 -41 -17s-29.667 5.66699 -41 17s-17 25 -17 41s5.66699 29.667 17 41s25 17 41 17v1z" />
    <glyph glyph-name="Aacute" unicode="&#xf7;" 
 />
    <glyph glyph-name="OE" unicode="&#xf8;" horiz-adv-x="500" 
d="M458 473l-53.002 -68.999c22 -23.333 38.667 -49.833 50 -79.5s17 -62.167 17 -97.5c0 -64.667 -22.167 -120.834 -66.5 -168.501s-96.5 -71.5 -156.5 -71.5c-20 0 -38.167 2.16699 -54.5 6.5s-32.166 11.833 -47.499 22.5l-12.5 8.5c-4.33301 3 -8.5 6.5 -12.5 10.5
l-38 -48h-44l57 73c-22.667 24.667 -39.667 51.5 -51 80.5s-17 60.167 -17 93.5c0 63.333 22.833 118.833 68.5 166.5s98.834 71.5 159.501 71.5c10.667 0 20.5 -0.666992 29.5 -2s17.833 -3.33301 26.5 -6c10 -3.33301 20.333 -8 31 -14s22.667 -13.667 36 -23l34 46h44v0z
M159.998 85.001c11.333 -20.667 24.3301 -35.666 38.9971 -44.999s32.334 -14 53.001 -14c38.667 0 68.334 18 89.001 54s31 88 31 156c0 11.333 -0.166992 21 -0.5 29s-1.16602 16 -2.49902 24c-0.666992 7.33301 -2 15.166 -4 23.499s-4.66699 17.833 -8 28.5l-197 -256v0
zM143.995 122.002l198.001 256.999c-8 13.333 -19 24.666 -33 33.999s-28.667 15.333 -44 18c-2.66699 0 -5.16699 0.166992 -7.5 0.5s-4.5 0.5 -6.5 0.5c-38 0 -67.833 -18.167 -89.5 -54.5s-32.5 -86.166 -32.5 -149.499c0 -10 0.166992 -19.167 0.5 -27.5
s1.16602 -16.166 2.49902 -23.499c0.666992 -8 2 -16.333 4 -25s4.66699 -19 8 -31v1z" />
    <glyph glyph-name="ugrave" unicode="&#xf9;" horiz-adv-x="611" 
d="M509 473l-0.00195312 -325.998v-41c0 -30.667 4 -49.834 12 -57.501s27.333 -11.5 58 -11.5l15 1v-38c-28.667 0 -57.167 -1.33301 -85.5 -4s-56.5 -5.66699 -84.5 -9v38.5c0 13 -0.333008 25.833 -1 38.5l1 23c-8.66699 -12.667 -17 -23.834 -25 -33.501
s-16 -18.167 -24 -25.5c-16.667 -15.333 -34 -26 -52 -32s-39 -9 -63 -9c-74.667 0 -120 24.167 -136 72.5s-24 101.833 -24 160.5v134c0 30 -4.66699 48.667 -14 56s-32 11 -68 11l-13 1v38c20.667 -0.666992 40.834 -0.5 60.501 0.5s39.5 2.5 59.5 4.5
c10 1.33301 20 2.5 30 3.5s20 2.16699 30 3.5v-253v-19v-18c1.33301 -32.667 8 -62.667 20 -90s39.333 -41 82 -41c44.667 0 78.667 16.5 102 49.5s35 81.167 35 144.5v109c-0.666992 30 -5.5 48.667 -14.5 56s-31.5 11 -67.5 11l-18 1v38c31.333 -0.666992 62.333 0 93 2
s61.334 5.33301 92.001 10v1zM325.998 605.002l-16.998 -22.001l-106 55c-14.667 6.66699 -26.334 12.834 -35.001 18.501s-15 11.167 -19 16.5c-3.33301 4 -5.5 7.83301 -6.5 11.5s-1.5 7.5 -1.5 11.5c0 10.667 3.66699 19.667 11 27s15.666 11 24.999 11h1.5h0.5
c8 -0.666992 16.5 -4.16699 25.5 -10.5s21.5 -17.5 37.5 -33.5l84 -85v0z" />
    <glyph glyph-name="uacute" unicode="&#xfa;" horiz-adv-x="611" 
d="M509 473l-0.00195312 -325.998v-41c0 -30.667 4 -49.834 12 -57.501s27.333 -11.5 58 -11.5l15 1v-38c-28.667 0 -57.167 -1.33301 -85.5 -4s-56.5 -5.66699 -84.5 -9v38.5c0 13 -0.333008 25.833 -1 38.5l1 23c-8.66699 -12.667 -17 -23.834 -25 -33.501
s-16 -18.167 -24 -25.5c-16.667 -15.333 -34 -26 -52 -32s-39 -9 -63 -9c-74.667 0 -120 24.167 -136 72.5s-24 101.833 -24 160.5v134c0 30 -4.66699 48.667 -14 56s-32 11 -68 11l-13 1v38c20.667 -0.666992 40.834 -0.5 60.501 0.5s39.5 2.5 59.5 4.5
c10 1.33301 20 2.5 30 3.5s20 2.16699 30 3.5v-253v-19v-18c1.33301 -32.667 8 -62.667 20 -90s39.333 -41 82 -41c44.667 0 78.667 16.5 102 49.5s35 81.167 35 144.5v109c-0.666992 30 -5.5 48.667 -14.5 56s-31.5 11 -67.5 11l-18 1v38c31.333 -0.666992 62.333 0 93 2
s61.334 5.33301 92.001 10v1zM284.998 605.002l84.999 85.999c16.667 16.667 29.5 28 38.5 34s17.167 9 24.5 9c10 0 18.667 -3.66699 26 -11s11 -16 11 -26c0 -4.66699 -0.833008 -9.16699 -2.5 -13.5s-4.16699 -8.5 -7.5 -12.5
c-4.66699 -5.33301 -11.167 -10.666 -19.5 -15.999s-19.166 -11.333 -32.499 -18l-106 -54l-17 22v0z" />
    <glyph glyph-name="ucircumflex" unicode="&#xfb;" horiz-adv-x="611" 
d="M509 473l-0.00195312 -325.998v-41c0 -30.667 4 -49.834 12 -57.501s27.333 -11.5 58 -11.5l15 1v-38c-28.667 0 -57.167 -1.33301 -85.5 -4s-56.5 -5.66699 -84.5 -9v38.5c0 13 -0.333008 25.833 -1 38.5l1 23c-8.66699 -12.667 -17 -23.834 -25 -33.501
s-16 -18.167 -24 -25.5c-16.667 -15.333 -34 -26 -52 -32s-39 -9 -63 -9c-74.667 0 -120 24.167 -136 72.5s-24 101.833 -24 160.5v134c0 30 -4.66699 48.667 -14 56s-32 11 -68 11l-13 1v38c20.667 -0.666992 40.834 -0.5 60.501 0.5s39.5 2.5 59.5 4.5
c10 1.33301 20 2.5 30 3.5s20 2.16699 30 3.5v-253v-19v-18c1.33301 -32.667 8 -62.667 20 -90s39.333 -41 82 -41c44.667 0 78.667 16.5 102 49.5s35 81.167 35 144.5v109c-0.666992 30 -5.5 48.667 -14.5 56s-31.5 11 -67.5 11l-18 1v38c31.333 -0.666992 62.333 0 93 2
s61.334 5.33301 92.001 10v1zM336.998 741.002l125 -147h-41l-114 90l-117 -90h-40l130 147h57v0z" />
    <glyph glyph-name="udieresis" unicode="&#xfc;" horiz-adv-x="611" 
d="M509 473l-0.00195312 -325.998v-41c0 -30.667 4 -49.834 12 -57.501s27.333 -11.5 58 -11.5l15 1v-38c-28.667 0 -57.167 -1.33301 -85.5 -4s-56.5 -5.66699 -84.5 -9v38.5c0 13 -0.333008 25.833 -1 38.5l1 23c-8.66699 -12.667 -17 -23.834 -25 -33.501
s-16 -18.167 -24 -25.5c-16.667 -15.333 -34 -26 -52 -32s-39 -9 -63 -9c-74.667 0 -120 24.167 -136 72.5s-24 101.833 -24 160.5v134c0 30 -4.66699 48.667 -14 56s-32 11 -68 11l-13 1v38c20.667 -0.666992 40.834 -0.5 60.501 0.5s39.5 2.5 59.5 4.5
c10 1.33301 20 2.5 30 3.5s20 2.16699 30 3.5v-253v-19v-18c1.33301 -32.667 8 -62.667 20 -90s39.333 -41 82 -41c44.667 0 78.667 16.5 102 49.5s35 81.167 35 144.5v109c-0.666992 30 -5.5 48.667 -14.5 56s-31.5 11 -67.5 11l-18 1v38c31.333 -0.666992 62.333 0 93 2
s61.334 5.33301 92.001 10v1zM204.998 708.002c16 -0.666992 29.667 -6.66699 41 -18s17 -25 17 -41s-5.66699 -29.667 -17 -41s-25 -17 -41 -17s-29.667 5.66699 -41 17s-17 25 -17 41s5.66699 29.667 17 41s25 17 41 17v1zM406.998 708.002
c16 -0.666992 29.667 -6.66699 41 -18s17 -25 17 -41s-5.66699 -29.667 -17 -41s-25 -17 -41 -17s-29.667 5.66699 -41 17s-17 25 -17 41s5.66699 29.667 17 41s25 17 41 17v1z" />
    <glyph glyph-name="yacute" unicode="&#xfd;" 
 />
    <glyph glyph-name="glyph237" unicode="&#xfe;" horiz-adv-x="574" 
d="M188 736l-0.00292969 -344.001c13.333 23.333 33.833 42.5 61.5 57.5s57.834 22.5 90.501 22.5c58 0 106.833 -21.167 146.5 -63.5s59.5 -95.166 59.5 -158.499c0 -44.667 -4.5 -82 -13.5 -112s-24.167 -57 -45.5 -81c-20.667 -22.667 -44 -40 -70 -52
s-54.333 -18 -85 -18c-32.667 0 -61.334 6.83301 -86.001 20.5s-44 33.834 -58 60.501v-109v-52c0 -23.333 1.16699 -37.833 3.5 -43.5s8.16602 -9.16699 17.499 -10.5c3.33301 -0.666992 7.33301 -1.16699 12 -1.5s9.66699 -0.5 15 -0.5c4 -0.666992 8 -1 12 -1h11h14v-38
h-255v38h13c17.333 0 31.833 0.666992 43.5 2s18.834 3.33301 21.501 6s4.33398 7 5.00098 13s1.33398 18 2.00098 36v52v617v41c-0.666992 29.333 -4.66699 47.666 -12 54.999s-26.666 11 -57.999 11l-15 1v38c28.667 -0.666992 57.167 0.333008 85.5 3s56.5 6 84.5 10v1z
M324.997 422.999c-45.333 -0.666992 -80.167 -17.5 -104.5 -50.5s-36.5 -80.167 -36.5 -141.5c0 -62 12 -110 36 -144s58 -51 102 -51c43.333 0 75.666 16.5 96.999 49.5s32 83.5 32 151.5c0 61.333 -10.667 107.5 -32 138.5s-52.666 46.5 -93.999 46.5v1z" />
    <glyph glyph-name="Egrave" unicode="&#xff;" horiz-adv-x="537" 
d="M261 2l-173.993 364l-9 16.5l-7 13.5c-6.66699 9.33301 -14.167 15.5 -22.5 18.5s-22.166 5.16699 -41.499 6.5v39h241v-38c-6.66699 -1.33301 -12.834 -2.16602 -18.501 -2.49902s-10.167 -0.5 -13.5 -0.5c-18.667 -0.666992 -30.5 -2 -35.5 -4s-7.5 -6.33301 -7.5 -13
c0 -1.33301 0.166992 -2.83301 0.5 -4.5s0.5 -3.5 0.5 -5.5c1.33301 -2.66699 2.66602 -5.5 3.99902 -8.5s2.66602 -5.83301 3.99902 -8.5c0.666992 -2 1.5 -3.83301 2.5 -5.5s1.83301 -3.5 2.5 -5.5l120 -252l80 214c6 14.667 10 25.834 12 33.501s3 14.167 3 19.5
c0 13.333 -5.33301 23.166 -16 29.499s-29 10.5 -55 12.5v39h200v-38c-18.667 -4 -33.167 -8.83301 -43.5 -14.5s-19.833 -15.834 -28.5 -30.501c-4 -8 -8.33301 -17.167 -13 -27.5s-9.66699 -22.5 -15 -36.5l-92 -240c-4.66699 -14 -9.83398 -28.333 -15.501 -43
s-11.834 -29 -18.501 -43c-20 -44 -45.833 -84.5 -77.5 -121.5s-72.834 -55.5 -123.501 -55.5c-26.667 0 -48.667 7.16699 -66 21.5s-26 32.166 -26 53.499c0 16 5.5 29.5 16.5 40.5s24.5 16.5 40.5 16.5c18 0 30 -4 36 -12s10 -17 12 -27c0 -1.33301 0.166992 -3 0.5 -5
s0.5 -4 0.5 -6c1.33301 -7.33301 3 -13.666 5 -18.999s6.66699 -8 14 -8c10.667 0 21.667 3.66699 33 11s22.666 18 33.999 32c10 11.333 19.667 24.833 29 40.5s18.666 33.167 27.999 52.5v1zM168.007 708c16 -0.666992 29.667 -6.66699 41 -18s17 -25 17 -41
s-5.66699 -29.667 -17 -41s-25 -17 -41 -17s-29.667 5.66699 -41 17s-17 25 -17 41s5.66699 29.667 17 41s25 17 41 17v1zM370.007 708c16 -0.666992 29.667 -6.66699 41 -18s17 -25 17 -41s-5.66699 -29.667 -17 -41s-25 -17 -41 -17s-29.667 5.66699 -41 17s-17 25 -17 41
s5.66699 29.667 17 41s25 17 41 17v1z" />
    <glyph glyph-name="Abreve" unicode="&#x102;" 
 />
    <glyph glyph-name="abreve" unicode="&#x103;" 
 />
    <glyph glyph-name="Aogonek" unicode="&#x104;" 
 />
    <glyph glyph-name="aogonek" unicode="&#x105;" 
 />
    <glyph glyph-name="Cacute" unicode="&#x106;" 
 />
    <glyph glyph-name="cacute" unicode="&#x107;" 
 />
    <glyph glyph-name="Ccaron" unicode="&#x10c;" 
 />
    <glyph glyph-name="ccaron" unicode="&#x10d;" 
 />
    <glyph glyph-name="Dcaron" unicode="&#x10e;" 
 />
    <glyph glyph-name="dcaron" unicode="&#x10f;" 
 />
    <glyph glyph-name="Dcroat" unicode="&#x110;" 
 />
    <glyph glyph-name="dcroat" unicode="&#x111;" 
 />
    <glyph glyph-name="Eogonek" unicode="&#x118;" 
 />
    <glyph glyph-name="eogonek" unicode="&#x119;" 
 />
    <glyph glyph-name="Ecaron" unicode="&#x11a;" 
 />
    <glyph glyph-name="ecaron" unicode="&#x11b;" 
 />
    <glyph glyph-name="Gbreve" unicode="&#x11e;" 
 />
    <glyph glyph-name="gbreve" unicode="&#x11f;" 
 />
    <glyph glyph-name="Idotaccent" unicode="&#x130;" 
 />
    <glyph glyph-name="thorn" unicode="&#x131;" horiz-adv-x="315" 
d="M205 473l-0.00292969 -326.004v-52c0 -24 1.16699 -38.833 3.5 -44.5s8.5 -9.16699 18.5 -10.5c10.667 -1.33301 21.167 -2.16602 31.5 -2.49902s20.833 -0.5 31.5 -0.5v-37h-260v38h19c17.333 -0.666992 31.666 -0.166992 42.999 1.5s18.333 3.83398 21 6.50098
c3.33301 2.66699 5.33301 6.83398 6 12.501s1 17.5 1 35.5v53v166v40c-0.666992 30.667 -4.66699 49.667 -12 57s-26.666 11 -57.999 11l-20 1v38c14.667 -0.666992 29.334 -0.666992 44.001 0s29.334 1.66699 44.001 3c14 0.666992 28.333 1.83398 43 3.50098
s29.334 3.5 44.001 5.5v1z" />
    <glyph glyph-name="Lacute" unicode="&#x139;" 
 />
    <glyph glyph-name="lacute" unicode="&#x13a;" 
 />
    <glyph glyph-name="Lcaron" unicode="&#x13d;" 
 />
    <glyph glyph-name="lcaron" unicode="&#x13e;" 
 />
    <glyph glyph-name="Ldot" unicode="&#x13f;" 
 />
    <glyph glyph-name="ldot" unicode="&#x140;" 
 />
    <glyph glyph-name="glyph225" unicode="&#x141;" horiz-adv-x="667" 
d="M244 336l0.000976562 -235.998c0 -27.333 2.83301 -44.333 8.5 -51s21.834 -10 48.501 -10l74 1c35.333 -0.666992 61.833 1 79.5 5s33.5 11.333 47.5 22l1.5 1.5l0.5 0.5c25.333 20.667 44.166 45.834 56.499 75.501s22.166 60.5 29.499 92.5
c1.33301 5.33301 2.5 10.666 3.5 15.999s2.16699 10.666 3.5 15.999l34 1l-9 -270h-586v41h26c37.333 -0.666992 59.833 2 67.5 8s11.5 23.333 11.5 52v46v109l-79 -59v82l79 57v239v77c-0.666992 3.33301 -1.5 6.66602 -2.5 9.99902s-2.16699 5.66602 -3.5 6.99902
c-4 5.33301 -14.167 8.5 -30.5 9.5s-39.166 1.5 -68.499 1.5v42h323v-41h-35c-18.667 -0.666992 -34.834 -2 -48.501 -4s-22.167 -4.66699 -25.5 -8l-0.5 -0.5l-0.5 -0.5c-2.66699 -2.66699 -4.16699 -6.66699 -4.5 -12s-0.5 -17.666 -0.5 -36.999v-44v-159l164 116v-81
l-164 -115v0z" />
    <glyph glyph-name="glyph226" unicode="&#x142;" horiz-adv-x="315" 
d="M197 448l69.999 58.999v-75l-70 -58v-227v-52c0.666992 -24 2 -38.833 4 -44.5s8 -9.16699 18 -10.5c3.33301 -0.666992 7.33301 -1.16699 12 -1.5s9.66699 -0.5 15 -0.5c3.33301 -0.666992 7 -1 11 -1h10l15 1v-38h-260v38h21c16.667 -0.666992 30.5 -0.166992 41.5 1.5
s17.833 3.83398 20.5 6.50098c3.33301 2.66699 5.33301 7.16699 6 13.5s1 17.833 1 34.5v53v152l-69 -56v75l69 56v201v40c0 30 -3.83301 48.833 -11.5 56.5s-26.834 11.5 -57.501 11.5l-21 1v38c14.667 -0.666992 29.334 -0.666992 44.001 0l44 2
c14 1.33301 28.333 2.83301 43 4.5s29.334 3.5 44.001 5.5v-286v0z" />
    <glyph glyph-name="Nacute" unicode="&#x143;" 
 />
    <glyph glyph-name="nacute" unicode="&#x144;" 
 />
    <glyph glyph-name="Ncaron" unicode="&#x147;" 
 />
    <glyph glyph-name="ncaron" unicode="&#x148;" 
 />
    <glyph glyph-name="Ohungarumlaut" unicode="&#x150;" 
 />
    <glyph glyph-name="ohungarumlaut" unicode="&#x151;" 
 />
    <glyph glyph-name="fi" unicode="&#x152;" horiz-adv-x="1000" 
d="M916 722l12.001 -254h-33c-10.667 58.667 -27 108.834 -49 150.501s-68.333 62.5 -139 62.5l-77 1c-20 -0.666992 -32.167 -3.33398 -36.5 -8.00098s-6.5 -17.667 -6.5 -39v-240c56 -0.666992 94.333 9.16602 115 29.499s33 56.833 37 109.5l35 1v-330h-35
c-2.66699 56.667 -13.334 94.834 -32.001 114.501s-58.667 30.834 -120 33.501v-260c0 -25.333 2.33301 -40.666 7 -45.999s18 -8 40 -8l71 1c35.333 -0.666992 61.833 1.16602 79.5 5.49902s33.167 12.5 46.5 24.5c20.667 18.667 36.334 40.834 47.001 66.501
s19.334 52.167 26.001 79.5c2 8.66699 3.83301 17.167 5.5 25.5s3.5 16.5 5.5 24.5c0 0.666992 0.166992 1.5 0.5 2.5s0.5 1.83301 0.5 2.5l34 1l-8 -272h-328c-8 0 -16 -0.166992 -24 -0.5s-15.667 -0.5 -23 -0.5h-24h-24c-8.66699 0 -18.667 -0.666992 -30 -2l-35 -4
c-5.33301 -0.666992 -11 -1.33398 -17 -2.00098s-11.667 -1.33398 -17 -2.00098c-6.66699 -0.666992 -13.334 -1.16699 -20.001 -1.5s-13.334 -0.5 -20.001 -0.5c-44.667 0 -81.334 3.33301 -110.001 10s-55.667 19.667 -81 39l-18.5 15
c-6.33301 5.33301 -12.833 11.333 -19.5 18c-37.333 36.667 -65.833 79.5 -85.5 128.5s-29.5 102.167 -29.5 159.5c0 99.333 27.833 187 83.5 263s136.834 114 243.501 114c11.333 0 22.833 -0.5 34.5 -1.5s23.167 -2.16699 34.5 -3.5c13.333 -2 26.333 -3.5 39 -4.5
s25.667 -1.83301 39 -2.5c12.667 -0.666992 25.5 -1 38.5 -1h38.5l329 1v0zM489.001 567c0 48 -8.99805 80.333 -26.998 97s-52.667 25 -104 25c-69.333 0 -120 -25.167 -152 -75.5s-48 -131.166 -48 -242.499c0 -10.667 0.166992 -21.334 0.5 -32.001s0.5 -21.667 0.5 -33
c3.33301 -70 18.666 -134.167 45.999 -192.5s84.666 -87.5 171.999 -87.5c47.333 0 77.833 8.83301 91.5 26.5s20.5 56.5 20.5 116.5v398v0z" />
    <glyph glyph-name="fl" unicode="&#x153;" horiz-adv-x="833" 
d="M479 225l0.00195312 -3.5v-3.5c2.66699 -45.333 12.5 -87 29.5 -125s53.5 -57 109.5 -57c24.667 0 46 4.33301 64 13s35 24 51 46c5.33301 6.66699 10.833 14.334 16.5 23.001s11.167 18 16.5 28l33 -17c-20.667 -43.333 -45.667 -77.833 -75 -103.5
s-69.666 -38.5 -120.999 -38.5c-36.667 0 -69.5 6.66699 -98.5 20s-54.5 34 -76.5 62c-24.667 -28.667 -50.834 -49.5 -78.501 -62.5s-58.167 -19.5 -91.5 -19.5c-60.667 0 -113.667 24.167 -159 72.5s-68 105.166 -68 170.499s22.667 122 68 170s98.666 72 159.999 72
c20.667 0 39.834 -2.66699 57.501 -8s35.167 -13.666 52.5 -24.999c9.33301 -6.66699 19 -14.5 29 -23.5s20 -19.167 30 -30.5c23.333 30 49.166 52 77.499 66s60.166 21 95.499 21c60 0 105.5 -21.833 136.5 -65.5s50.167 -91.834 57.5 -144.501
c1.33301 -6.66699 2.33301 -13.167 3 -19.5s1 -12.5 1 -18.5l-320 1v0zM260.002 433c-40 -0.666992 -71.499 -19.833 -94.499 -57.5s-34.5 -89.5 -34.5 -155.5c0 -60.667 11.167 -108.167 33.5 -142.5s53.166 -51.5 92.499 -51.5c40 0 71.167 18.667 93.5 56
s33.5 89.333 33.5 156c0 59.333 -11.167 106.5 -33.5 141.5s-52.5 52.5 -90.5 52.5v1zM479.003 265.001l157 -0.00195312c28.667 -0.666992 46.334 1.33301 53.001 6s10 16.334 10 35.001c0 38 -9.16699 68.5 -27.5 91.5s-42.833 34.5 -73.5 34.5
c-34.667 0 -62.334 -14.167 -83.001 -42.5s-32.667 -70.166 -36 -125.499v1z" />
    <glyph glyph-name="Racute" unicode="&#x154;" 
 />
    <glyph glyph-name="racute" unicode="&#x155;" 
 />
    <glyph glyph-name="Rcaron" unicode="&#x158;" 
 />
    <glyph glyph-name="rcaron" unicode="&#x159;" 
 />
    <glyph glyph-name="Sacute" unicode="&#x15a;" 
 />
    <glyph glyph-name="sacute" unicode="&#x15b;" 
 />
    <glyph glyph-name="Scedilla" unicode="&#x15e;" 
 />
    <glyph glyph-name="scedilla" unicode="&#x15f;" 
 />
    <glyph glyph-name="glyph227" unicode="&#x160;" horiz-adv-x="630" 
d="M536 722l-0.00195312 -257.997h-31c-1.33301 3.33301 -2.66602 7.16602 -3.99902 11.499l-4 12.5c-16.667 50.667 -41.334 96.834 -74.001 138.501s-79 62.5 -139 62.5c-40.667 0 -74 -11.333 -100 -34s-39 -51.667 -39 -87c0 -42.667 17.5 -72.5 52.5 -89.5
s75.5 -31.5 121.5 -43.5c6.66699 -1.33301 13.334 -2.83301 20.001 -4.5s13.334 -3.5 20.001 -5.5c53.333 -14.667 102.333 -35.834 147 -63.501s67 -77.5 67 -149.5c0 -66.667 -22 -120.834 -66 -162.501s-101 -62.5 -171 -62.5c-36.667 0 -69.5 5.16699 -98.5 15.5
s-57.167 27.166 -84.5 50.499c-2.66699 2.66699 -5.16699 5 -7.5 7s-4.83301 4.33301 -7.5 7l-46 -67h-34v277h34c0 -1.33301 0.166992 -2.5 0.5 -3.5s0.833008 -2.16699 1.5 -3.5c17.333 -60.667 45 -116.5 83 -167.5s93 -76.5 165 -76.5c46 0 83.5 12.333 112.5 37
s43.5 56.334 43.5 95.001c0 47.333 -18.833 80.5 -56.5 99.5s-80.5 35.167 -128.5 48.5l-14.5 4l-14.5 4c-53.333 15.333 -102.333 36.166 -147 62.499s-67 73.5 -67 141.5c0 60.667 20 111.834 60 153.501s89 62.5 147 62.5c22 0 42.167 -1.83301 60.5 -5.5
s36.166 -9.83398 53.499 -18.501c11.333 -5.33301 22.833 -12 34.5 -20s23.834 -17 36.501 -27l43 59h31v0zM282.998 789.003l-125 147h41l114 -89l117 89h40l-130 -147h-57v0z" />
    <glyph glyph-name="glyph228" unicode="&#x161;" horiz-adv-x="463" 
d="M391 460l-0.000976562 -165.004h-33c-20 46.667 -42.833 81.167 -68.5 103.5s-55.167 33.5 -88.5 33.5c-24.667 0 -45.167 -6.16699 -61.5 -18.5s-24.5 -27.833 -24.5 -46.5c0 -27.333 12 -46.166 36 -56.499s52.333 -18.833 85 -25.5
c4.66699 -1.33301 9.66699 -2.66602 15 -3.99902s11 -2.33301 17 -3c38 -9.33301 72.833 -23.166 104.5 -41.499s47.5 -52.166 47.5 -101.499c0 -42.667 -16 -78 -48 -106s-71.667 -42 -119 -42c-9.33301 0 -18.333 0.5 -27 1.5s-17.334 2.83301 -26.001 5.5
c-14 3.33301 -28.5 8.83301 -43.5 16.5s-32.167 18.167 -51.5 31.5l-30 -42h-32v190h32c16.667 -52 40.334 -91.5 71.001 -118.5s67.334 -40.5 110.001 -40.5c28.667 0 52.334 7.16699 71.001 21.5s28 32.5 28 54.5c0 25.333 -11.833 43 -35.5 53s-51.167 18.333 -82.5 25
l-17.5 4l-16.5 4c-38.667 8.66699 -73.834 22.167 -105.501 40.5s-47.5 51.5 -47.5 99.5c0 39.333 14.333 72.333 43 99s64 40 106 40c12.667 0 25 -0.833008 37 -2.5s23.667 -4.5 35 -8.5c10 -3.33301 20.333 -7.83301 31 -13.5s21.667 -12.167 33 -19.5l23 32h33v0z
M200.999 593.996l-125 147h41l114 -89l117 89h40l-130 -147h-57v0z" />
    <glyph glyph-name="Tcommaaccent" unicode="&#x162;" 
 />
    <glyph glyph-name="tcommaaccent" unicode="&#x163;" 
 />
    <glyph glyph-name="Tcaron" unicode="&#x164;" 
 />
    <glyph glyph-name="tcaron" unicode="&#x165;" 
 />
    <glyph glyph-name="Uring" unicode="&#x16e;" 
 />
    <glyph glyph-name="uring" unicode="&#x16f;" 
 />
    <glyph glyph-name="Uhungarumlaut" unicode="&#x170;" 
 />
    <glyph glyph-name="uhungarumlaut" unicode="&#x171;" 
 />
    <glyph glyph-name="Iacute" unicode="&#x178;" horiz-adv-x="704" 
d="M420 302l0.00195312 -155v-20.5c0 -6.33301 0.333008 -12.5 1 -18.5v-19.5v-19.5c0 -7.33301 1.83301 -13 5.5 -17s9.16699 -6.66699 16.5 -8c15.333 -2 30.666 -3.16699 45.999 -3.5s30.666 -0.5 45.999 -0.5v-40h-333v41c5.33301 -0.666992 12.666 -1 21.999 -1
s19 0.333008 29 1c12.667 0.666992 24.667 1.83398 36 3.50098s18.333 3.83398 21 6.50098c1.33301 2 2.5 4.5 3.5 7.5s1.83301 6.5 2.5 10.5v78v140l-203 337c-5.33301 8 -10.333 15 -15 21s-9 11 -13 15c-7.33301 6.66699 -15.333 11.167 -24 13.5
s-19.667 3.83301 -33 4.5c-3.33301 0.666992 -6.66602 1.16699 -9.99902 1.5s-6.66602 0.5 -9.99902 0.5v42h308v-41h-43c-19.333 -0.666992 -33 -2.5 -41 -5.5s-12 -8.16699 -12 -15.5c0 -2.66699 0.833008 -6.33398 2.5 -11.001s3.83398 -9.33398 6.50098 -14.001l2 -4
l2 -4l162 -268l115 221c5.33301 10.667 9.5 20.167 12.5 28.5s4.5 15.833 4.5 22.5c0 16.667 -7 28.5 -21 35.5s-38.667 11.5 -74 13.5v42h264v-41c-20.667 -2 -38 -5.83301 -52 -11.5s-27.333 -16.167 -40 -31.5c-6.66699 -8.66699 -13.834 -19 -21.501 -31
s-15.834 -26.333 -24.501 -43l-138 -262v0zM252.002 903c16 -0.666992 29.667 -6.66699 41 -18s17 -25 17 -41s-5.66699 -29.667 -17 -41s-25 -17 -41 -17s-29.667 5.66699 -41 17s-17 25 -17 41s5.66699 29.667 17 41s25 17 41 17v1zM454.002 903
c16 -0.666992 29.667 -6.66699 41 -18s17 -25 17 -41s-5.66699 -29.667 -17 -41s-25 -17 -41 -17s-29.667 5.66699 -41 17s-17 25 -17 41s5.66699 29.667 17 41s25 17 41 17v1z" />
    <glyph glyph-name="Zacute" unicode="&#x179;" 
 />
    <glyph glyph-name="zacute" unicode="&#x17a;" 
 />
    <glyph glyph-name="Zdotaccent" unicode="&#x17b;" 
 />
    <glyph glyph-name="zdotaccent" unicode="&#x17c;" 
 />
    <glyph glyph-name="Zcaron" unicode="&#x17d;" 
 />
    <glyph glyph-name="zcaron" unicode="&#x17e;" 
 />
    <glyph glyph-name="quotedblright" unicode="&#x192;" horiz-adv-x="556" 
d="M257 393l-81.001 0.00292969v51h92c3.33301 15.333 7.33301 32.166 12 50.499s10.334 36.833 17.001 55.5c15.333 46 37.5 88.167 66.5 126.5s68.167 57.5 117.5 57.5c28.667 0 53.334 -7.33301 74.001 -22s31 -31.667 31 -51c0 -12.667 -4.5 -23.334 -13.5 -32.001
s-20.167 -13 -33.5 -13c-12.667 0 -22.5 3 -29.5 9s-12.833 16 -17.5 30c-0.666992 2 -1.16699 3.66699 -1.5 5s-0.833008 2.66602 -1.5 3.99902c-4 11.333 -8.16699 19.333 -12.5 24s-10.166 7 -17.499 7h-2.5h-2.5c-9.33301 -2 -18.166 -7.33301 -26.499 -16
s-15.166 -19.667 -20.499 -33c-3.33301 -10 -7.33301 -23.167 -12 -39.5s-9.33398 -34.166 -14.001 -53.499c-2 -9.33301 -4.16699 -18.666 -6.5 -27.999s-4.5 -19 -6.5 -29l-6 -26.5c-2 -9 -3.66699 -17.833 -5 -26.5l95 1v-51h-102
c-2.66699 -19.333 -5.33398 -36.5 -8.00098 -51.5s-5 -29.167 -7 -42.5c-1.33301 -4.66699 -2.33301 -9.33398 -3 -14.001s-1.66699 -9 -3 -13c-2.66699 -17.333 -6 -35 -10 -53l-14 -63c-4.66699 -21.333 -10.5 -46.666 -17.5 -75.999s-15.5 -59.333 -25.5 -90
c-18.667 -54.667 -43.5 -105 -74.5 -151s-71.5 -69 -121.5 -69c-28.667 0 -52.167 7.83301 -70.5 23.5s-27.5 35.5 -27.5 59.5c0 13.333 4.33301 24.666 13 33.999s18.667 14 30 14c14 0 24 -4.16699 30 -12.5s11 -17.833 15 -28.5c0 -0.666992 0.166992 -1.5 0.5 -2.5
s0.833008 -2.16699 1.5 -3.5c3.33301 -8.66699 7.16602 -16.5 11.499 -23.5s11.166 -10.5 20.499 -10.5c11.333 0 22.5 5.33301 33.5 16s20.167 25.334 27.5 44.001c4 10.667 8.16699 23.167 12.5 37.5s8.83301 30.166 13.5 47.499
c6.66699 25.333 13.167 53.666 19.5 84.999l19.5 95c8.66699 47.333 16.667 93.333 24 138s13 81 17 109v1z" />
    <glyph glyph-name="uni02BA" unicode="&#x2ba;" horiz-adv-x="333" 
d="M107 587l-26 18.999l58 107c8.66699 16 16.5 28.667 23.5 38s13.5 16 19.5 20c3.33301 2 6.33301 3.33301 9 4s5.66699 1 9 1c11.333 0 20.833 -3.66699 28.5 -11s11.5 -16.666 11.5 -27.999c0 -8.66699 -3.16699 -18 -9.5 -28s-16.5 -21.667 -30.5 -35l-93 -87v0z
M254 586.999l-26.002 18.999l57 107c9.33301 16.667 17.5 29.667 24.5 39s14.167 16 21.5 20c2.66699 1.33301 5.33398 2.33301 8.00098 3s5.33398 1 8.00098 1c11.333 0 20.833 -3.66699 28.5 -11s11.5 -16.666 11.5 -27.999c0 -8.66699 -3.33301 -18 -10 -28
s-17 -21.667 -31 -35l-92 -87v0z" />
    <glyph glyph-name="arrowright" unicode="&#x2c6;" horiz-adv-x="333" 
d="M335 722c-5.33301 -34.667 -16.667 -62.166 -34 -82.499s-38.333 -30.5 -63 -30.5c-14.667 0 -29.167 3.16699 -43.5 9.5s-28.5 13.166 -42.5 20.499l-40.5 20.5c-13 6.33301 -26.167 9.5 -39.5 9.5c-10.667 0 -19.5 -3.33301 -26.5 -10s-12.5 -17.667 -16.5 -33l-31 1
c7.33301 34.667 19.5 61.167 36.5 79.5s37.5 27.5 61.5 27.5c15.333 0 29.833 -3.33301 43.5 -10s26.834 -14 39.501 -22c4 -2.66699 7.66699 -5 11 -7l10 -6c10 -5.33301 19.833 -10 29.5 -14s19.5 -6 29.5 -6c11.333 0 20.666 4 27.999 12s13.333 21.333 18 40l30 1v0z
" />
    <glyph glyph-name="glyph224" unicode="&#x2c7;" horiz-adv-x="333" 
d="M136 594l-125 147h41l114 -89l117 89h40l-130 -147h-57v0z" />
    <glyph glyph-name="house" unicode="&#x2c9;" horiz-adv-x="333" 
d="M304 689v-60h-276v60h276v0z" />
    <glyph glyph-name="endash" unicode="&#x2d8;" horiz-adv-x="333" 
d="M298 739c-3.33301 -47.333 -15.498 -82.001 -36.498 -104.001s-52.167 -33 -93.5 -33c-42 0 -74.5 11.833 -97.5 35.5s-34.833 57.167 -35.5 100.5l27 1c3.33301 -23.333 13.833 -41.166 31.5 -53.499s41.167 -18.5 70.5 -18.5s52.666 5.83301 69.999 17.5
s29.666 29.5 36.999 53.5l27 1v0z" />
    <glyph glyph-name="sfthyphen" unicode="&#x2d9;" horiz-adv-x="333" 
d="M167 708c16 -0.666992 29.667 -6.66699 41 -18s17 -25 17 -41s-5.66699 -29.667 -17 -41s-25 -17 -41 -17s-29.667 5.66699 -41 17s-17 25 -17 41s5.66699 29.667 17 41s25 17 41 17v1z" />
    <glyph glyph-name="filledbox" unicode="&#x2da;" horiz-adv-x="333" 
d="M167 783c27.333 -0.666992 50.333 -10.5 69 -29.5s28 -42.167 28 -69.5c0 -26.667 -9.33301 -49.5 -28 -68.5s-41.667 -28.5 -69 -28.5c-26.667 0 -49.667 9.66699 -69 29s-29 42.333 -29 69s9.66699 49.5 29 68.5s42.333 28.5 69 28.5v1zM166 743
c-15.333 -0.666992 -28.666 -6.66699 -39.999 -18s-17 -24.666 -17 -39.999c0 -16 5.66699 -29.667 17 -41s24.666 -17 39.999 -17c16 0 29.667 5.66699 41 17s17 25 17 41c0 15.333 -5.66699 28.666 -17 39.999s-25 17 -41 17v1z" />
    <glyph glyph-name="glyph223" unicode="&#x2db;" horiz-adv-x="333" 
d="M270 -71c-15.333 -21.333 -34.499 -38.167 -57.499 -50.5s-46.833 -18.5 -71.5 -18.5c-24 0 -42.833 5.83301 -56.5 17.5s-20.5 27.834 -20.5 48.501c0 16 5.5 30.667 16.5 44s25.5 23.333 43.5 30h60c-16.667 -5.33301 -29.167 -12.166 -37.5 -20.499
s-12.5 -17.833 -12.5 -28.5s4.16699 -19.334 12.5 -26.001s19.166 -10 32.499 -10h4h5c10 1.33301 20.167 4.66602 30.5 9.99902s21.833 13 34.5 23l17 -19v0z" />
    <glyph glyph-name="onehalf" unicode="&#x2dc;" horiz-adv-x="333" 
d="M198 741l125 -147h-41l-114 90l-117 -90h-40l130 147h57v0z" />
    <glyph glyph-name="Gamma" unicode="&#x393;" 
 />
    <glyph glyph-name="Theta" unicode="&#x398;" 
 />
    <glyph glyph-name="exclamdown" unicode="&#x3a3;" 
 />
    <glyph glyph-name="Phi" unicode="&#x3a6;" 
 />
    <glyph glyph-name="Atilde" unicode="&#x3a9;" 
 />
    <glyph glyph-name="alpha" unicode="&#x3b1;" 
 />
    <glyph glyph-name="delta" unicode="&#x3b4;" 
 />
    <glyph glyph-name="epsilon" unicode="&#x3b5;" 
 />
    <glyph glyph-name="guillemotleft" unicode="&#x3c0;" 
 />
    <glyph glyph-name="sigma" unicode="&#x3c3;" 
 />
    <glyph glyph-name="tau" unicode="&#x3c4;" 
 />
    <glyph glyph-name="phi" unicode="&#x3c6;" 
 />
    <glyph glyph-name="glyph259" unicode="&#x2013;" horiz-adv-x="556" 
d="M556 279v-65h-556v65h556v0z" />
    <glyph glyph-name="periodcentered" unicode="&#x2014;" horiz-adv-x="1000" 
d="M1000 279v-65h-1000v65h1000v0z" />
    <glyph glyph-name="underscoredbl" unicode="&#x2017;" 
 />
    <glyph glyph-name="Acircumflex" unicode="&#x2018;" horiz-adv-x="204" 
d="M169 735l13.001 -30.999c-16.667 -9.33301 -31.334 -18.833 -44.001 -28.5s-23 -19.5 -31 -29.5c-6 -7.33301 -10.5 -14.666 -13.5 -21.999s-4.5 -14.333 -4.5 -21c0 -3.33301 1.66699 -5.66602 5 -6.99902s7.33301 -2.33301 12 -3
c2.66699 -0.666992 5.5 -1.16699 8.5 -1.5s6.16699 -0.833008 9.5 -1.5c8 -2.66699 15.667 -7.33398 23 -14.001s11 -18.334 11 -35.001s-6 -31 -18 -43s-26.667 -18 -44 -18c-19.333 0 -35.333 7.16699 -48 21.5s-19 32.833 -19 55.5c0 33.333 12.333 65.666 37 96.999
s59 58 103 80v1z" />
    <glyph glyph-name="Ecircumflex" unicode="&#x2019;" horiz-adv-x="204" 
d="M45 481l-14 30.999c18.667 8.66699 34.667 18.334 48 29.001s24 21.667 32 33c4 6 7.16699 12.167 9.5 18.5s3.5 12.5 3.5 18.5c0 3.33301 -0.833008 5.5 -2.5 6.5s-5.16699 1.5 -10.5 1.5c-16.667 0 -30.167 5.16699 -40.5 15.5s-15.5 23.166 -15.5 38.499
c0 17.333 6 31.833 18 43.5s26.667 17.5 44 17.5c19.333 0 35.333 -7.16699 48 -21.5s19 -32.833 19 -55.5c0 -33.333 -12.333 -65.666 -37 -96.999s-58.667 -58 -102 -80v1z" />
    <glyph glyph-name="Ugrave" unicode="&#x201a;" 
 />
    <glyph glyph-name="quotedblbase" unicode="&#x201c;" horiz-adv-x="389" 
d="M179 735l13.001 -31.001c-16 -9.33301 -30 -18.5 -42 -27.5s-22 -18.167 -30 -27.5c-6.66699 -8 -11.834 -15.833 -15.501 -23.5s-5.5 -15.167 -5.5 -22.5c0 -3.33301 0.833008 -5.66602 2.5 -6.99902s5.16699 -2 10.5 -2c16.667 0 30.167 -5 40.5 -15
s15.5 -22.667 15.5 -38c0 -16.667 -6 -31 -18 -43s-26.667 -18 -44 -18c-19.333 0 -35.333 7.16699 -48 21.5s-19 32.833 -19 55.5c0 33.333 12.5 65.833 37.5 97.5s59.167 58.167 102.5 79.5v1zM343.001 734.999l12.999 -31.0029
c-15.333 -8.66699 -28.833 -17.5 -40.5 -26.5s-21.167 -18.167 -28.5 -27.5c-6 -7.33301 -10.667 -14.666 -14 -21.999s-5 -14.666 -5 -21.999c0 -4.66699 1.83301 -7.66699 5.5 -9s7.83398 -2.66602 12.501 -3.99902c2.66699 -0.666992 5.16699 -1.16699 7.5 -1.5
s4.5 -0.833008 6.5 -1.5c8 -2 15.333 -6.33301 22 -13s10 -18.667 10 -36c0 -16.667 -6 -30.834 -18 -42.501s-26.667 -17.5 -44 -17.5c-20 0 -36.167 7.33301 -48.5 22s-18.5 33.334 -18.5 56.001c0 33.333 12.333 65.5 37 96.5s59 57.167 103 78.5v1z" />
    <glyph glyph-name="perthousand" unicode="&#x201d;" horiz-adv-x="389" 
d="M219 481l-13.999 31.001c18.667 9.33301 34.667 19.166 48 29.499s23.666 20.833 30.999 31.5c4.66699 6.66699 8.16699 13.167 10.5 19.5s3.5 12.5 3.5 18.5c0 3.33301 -0.833008 5.5 -2.5 6.5s-5.16699 1.5 -10.5 1.5c-16.667 0 -30.167 5.16699 -40.5 15.5
s-15.5 23.166 -15.5 38.499c0 17.333 6 31.833 18 43.5s26.667 17.5 44 17.5c19.333 0 35.333 -7.16699 48 -21.5s19 -32.833 19 -55.5c0 -34 -12.333 -66.667 -37 -98s-58.667 -57.666 -102 -78.999v1zM55.001 482.001l-14.001 30.999c14 7.33301 26.5 15 37.5 23
s20.167 16.333 27.5 25c7.33301 8 13 16 17 24s6 16 6 24c0 4.66699 -0.666992 7.66699 -2 9s-4 2.33301 -8 3c-17.333 0.666992 -30.666 5.5 -39.999 14.5s-14 21.833 -14 38.5c0 17.333 6 31.666 18 42.999s26.667 17 44 17c20 0 36.167 -7.16699 48.5 -21.5
s18.5 -33.166 18.5 -56.499c0 -32.667 -12.333 -64.667 -37 -96s-58.667 -57.666 -102 -78.999v1z" />
    <glyph glyph-name="dotlessi" unicode="&#x201e;" horiz-adv-x="389" 
d="M55 -135l-14 31.001c15.333 8 28.833 16.5 40.5 25.5s21.167 18.167 28.5 27.5c6 7.33301 10.667 14.666 14 21.999s5 14.666 5 21.999c0 4.66699 -2 7.66699 -6 9s-8.66699 2.33301 -14 3c-2 0.666992 -4 1 -6 1s-4 0.333008 -6 1c-8 1.33301 -15.333 5.33301 -22 12
s-10 19.334 -10 38.001c0 17.333 6 31.666 18 42.999s26.667 17 44 17c20 0 36.167 -7.16699 48.5 -21.5s18.5 -33.166 18.5 -56.499c0 -32.667 -12.333 -64.5 -37 -95.5s-58.667 -57.167 -102 -78.5v0zM219 -134.999l-13.999 31.001c18.667 10 34.667 20.167 48 30.5
s23.666 20.833 30.999 31.5c4.66699 6.66699 8.16699 13.167 10.5 19.5s3.5 12.5 3.5 18.5c0 2.66699 -0.833008 4.5 -2.5 5.5s-5.16699 1.5 -10.5 1.5c-16.667 0 -30.167 5 -40.5 15s-15.5 23 -15.5 39c0 17.333 6 31.666 18 42.999s26.667 17 44 17
c19.333 0 35.333 -7 48 -21s19 -32.333 19 -55c0 -33.333 -12.167 -65.5 -36.5 -96.5s-58.5 -57.5 -102.5 -79.5v0z" />
    <glyph glyph-name="dagger" unicode="&#x2020;" horiz-adv-x="500" 
d="M236 494c0 20 -2 38.4961 -6 55.4961s-8.66699 32.833 -14 47.5c-4 10.667 -7.66699 21.167 -11 31.5s-5.66602 20.166 -6.99902 29.499c-0.666992 4 -1.16699 7.66699 -1.5 11s-0.5 6.66602 -0.5 9.99902c0 16 5.16699 29.167 15.5 39.5s23.166 15.5 38.499 15.5
s28.166 -5.66699 38.499 -17s15.5 -24.666 15.5 -39.999c0 -12 -2 -24.333 -6 -37s-8.66699 -26.667 -14 -42c-4.66699 -14.667 -9.16699 -30.667 -13.5 -48s-6.5 -36.333 -6.5 -57c16 0.666992 30.333 2.83398 43 6.50098s24.334 7.83398 35.001 12.501l30.5 13
c9 4 17.5 6 25.5 6c13.333 0 24.666 -4.83301 33.999 -14.5s14 -22.167 14 -37.5c0 -14.667 -4.33301 -27.167 -13 -37.5s-19.334 -15.5 -32.001 -15.5c-4.66699 0 -10.167 1 -16.5 3s-13.166 4.66699 -20.499 8l-14 6l-14 6c-11.333 4 -23 7.16699 -35 9.5
s-24.333 4.5 -37 6.5c0.666992 -38 2.16699 -67.833 4.5 -89.5s7.5 -41.5 15.5 -59.5c3.33301 -8 7.16602 -16.167 11.499 -24.5s9.5 -17.166 15.5 -26.499c-13.333 -34.667 -23.166 -72.5 -29.499 -113.5s-10.5 -82.5 -12.5 -124.5
c-2 -27.333 -3.16699 -54.666 -3.5 -81.999s-0.833008 -53.666 -1.5 -78.999v-22v-21h-28v5.5v4.5c-1.33301 73.333 -4 146 -8 218s-16.667 143.333 -38 214c6.66699 10.667 12.334 20.667 17.001 30s8.66699 18.333 12 27c6.66699 18 11.167 37.5 13.5 58.5
s3.5 49.167 3.5 84.5c-0.666992 0 -1.5 -0.166992 -2.5 -0.5s-1.83301 -0.5 -2.5 -0.5c-11.333 -1.33301 -22.333 -3.83301 -33 -7.5l-31 -10.5l-36.5 -14.5c-11 -4.33301 -19.833 -6.5 -26.5 -6.5c-14 0 -25.667 5.33301 -35 16s-14 23.334 -14 38.001
c0 13.333 4.5 25.166 13.5 35.499s19.5 15.5 31.5 15.5c9.33301 0 19.333 -2 30 -6l33 -13l35 -12c12 -4 24.667 -6 38 -6v1z" />
    </font>
</defs>
</svg>
