<svg style="position: absolute; width: 0; height: 0; overflow: hidden;" version="1.1" xmlns="http://www.w3.org/2000/svg" xmlns:xlink="http://www.w3.org/1999/xlink">
<defs>
<!--
Font Awesome SVG Icons (Refer readme.txt for more info)
-->
<symbol id="icon-arrow-up" viewBox="0 0 32 32">
<path d="M30.054 23.768l-2.964 2.946c-0.446 0.446-1.161 0.446-1.607 0l-9.482-9.482-9.482 9.482c-0.446 0.446-1.161 0.446-1.607 0l-2.964-2.946c-0.446-0.446-0.446-1.179 0-1.625l13.25-13.232c0.446-0.446 1.161-0.446 1.607 0l13.25 13.232c0.446 0.446 0.446 1.179 0 1.625z"></path>
</symbol>
<symbol id="icon-behance" viewBox="0 0 37 32">
<path class="path1" d="M33 6.054h-9.125v2.214h9.125v-2.214zM28.5 13.661q-1.607 0-2.607 0.938t-1.107 2.545h7.286q-0.321-3.482-3.571-3.482zM28.786 24.107q1.125 0 2.179-0.571t1.357-1.554h3.946q-1.786 5.482-7.625 5.482-3.821 0-6.080-2.357t-2.259-6.196q0-3.714 2.33-6.17t6.009-2.455q2.464 0 4.295 1.214t2.732 3.196 0.902 4.429q0 0.304-0.036 0.839h-11.75q0 1.982 1.027 3.063t2.973 1.080zM4.946 23.214h5.286q3.661 0 3.661-2.982 0-3.214-3.554-3.214h-5.393v6.196zM4.946 13.625h5.018q1.393 0 2.205-0.652t0.813-2.027q0-2.571-3.393-2.571h-4.643v5.25zM0 4.536h10.607q1.554 0 2.768 0.25t2.259 0.848 1.607 1.723 0.563 2.75q0 3.232-3.071 4.696 2.036 0.571 3.071 2.054t1.036 3.643q0 1.339-0.438 2.438t-1.179 1.848-1.759 1.268-2.161 0.75-2.393 0.232h-10.911v-22.5z"></path>
</symbol>
<symbol id="icon-deviantart" viewBox="0 0 18 32">
<path class="path1" d="M18.286 5.411l-5.411 10.393 0.429 0.554h4.982v7.411h-9.054l-0.786 0.536-2.536 4.875-0.536 0.536h-5.375v-5.411l5.411-10.411-0.429-0.536h-4.982v-7.411h9.054l0.786-0.536 2.536-4.875 0.536-0.536h5.375v5.411z"></path>
</symbol>
<symbol id="icon-medium" viewBox="0 0 32 32">
<path fill="#12100e" style="fill: var(--color9, #12100e)" d="M0 0h32v32h-32v-32z"></path>
<path fill="#fff" style="fill: var(--color10, #fff)" d="M7.636 10.702c0.027-0.264-0.074-0.525-0.271-0.702l-2.007-2.418v-0.361h6.232l4.817 10.565 4.235-10.565h5.941v0.361l-1.716 1.645c-0.148 0.113-0.221 0.298-0.191 0.482v12.090c-0.031 0.183 0.043 0.369 0.191 0.482l1.676 1.645v0.361h-8.43v-0.361l1.736-1.686c0.171-0.171 0.171-0.221 0.171-0.482v-9.772l-4.827 12.261h-0.652l-5.62-12.261v8.217c-0.047 0.345 0.068 0.693 0.311 0.943l2.258 2.739v0.361h-6.403v-0.361l2.258-2.739c0.241-0.25 0.35-0.6 0.291-0.943v-9.502z"></path>
</symbol>
<symbol id="icon-slack" viewBox="0 0 32 32">
<path fill="#e01e5a" style="fill: var(--color3, #e01e5a)" d="M6.73 20.165c0 1.854-1.498 3.352-3.352 3.352s-3.352-1.498-3.352-3.352c0-1.854 1.498-3.352 3.352-3.352h3.352v3.352zM8.406 20.165c0-1.854 1.498-3.352 3.352-3.352s3.352 1.498 3.352 3.352v8.381c0 1.854-1.498 3.352-3.352 3.352s-3.352-1.498-3.352-3.352v-8.381z"></path>
<path fill="#36c5f0" style="fill: var(--color4, #36c5f0)" d="M11.759 6.705c-1.854 0-3.352-1.498-3.352-3.352s1.498-3.352 3.352-3.352c1.854 0 3.352 1.498 3.352 3.352v3.352h-3.352zM11.759 8.406c1.854 0 3.352 1.498 3.352 3.352s-1.498 3.352-3.352 3.352h-8.406c-1.854 0-3.352-1.498-3.352-3.352s1.498-3.352 3.352-3.352h8.406z"></path>
<path fill="#2eb67d" style="fill: var(--color5, #2eb67d)" d="M25.194 11.759c0-1.854 1.498-3.352 3.352-3.352s3.352 1.498 3.352 3.352c0 1.854-1.498 3.352-3.352 3.352h-3.352v-3.352zM23.517 11.759c0 1.854-1.498 3.352-3.352 3.352s-3.352-1.498-3.352-3.352v-8.406c0-1.854 1.498-3.352 3.352-3.352s3.352 1.498 3.352 3.352v8.406z"></path>
<path fill="#ecb22e" style="fill: var(--color6, #ecb22e)" d="M20.165 25.194c1.854 0 3.352 1.498 3.352 3.352s-1.498 3.352-3.352 3.352c-1.854 0-3.352-1.498-3.352-3.352v-3.352h3.352zM20.165 23.517c-1.854 0-3.352-1.498-3.352-3.352s1.498-3.352 3.352-3.352h8.406c1.854 0 3.352 1.498 3.352 3.352s-1.498 3.352-3.352 3.352h-8.406z"></path>
</symbol>
<symbol id="icon-slideshare" viewBox="0 0 32 32">
<path class="path1" d="M15.589 13.214q0 1.482-1.134 2.545t-2.723 1.063-2.723-1.063-1.134-2.545q0-1.5 1.134-2.554t2.723-1.054 2.723 1.054 1.134 2.554zM24.554 13.214q0 1.482-1.125 2.545t-2.732 1.063q-1.589 0-2.723-1.063t-1.134-2.545q0-1.5 1.134-2.554t2.723-1.054q1.607 0 2.732 1.054t1.125 2.554zM28.571 16.429v-11.911q0-1.554-0.571-2.205t-1.982-0.652h-19.857q-1.482 0-2.009 0.607t-0.527 2.25v12.018q0.768 0.411 1.58 0.714t1.446 0.5 1.446 0.33 1.268 0.196 1.25 0.071 1.045 0.009 1.009-0.036 0.795-0.036q1.214-0.018 1.696 0.482 0.107 0.107 0.179 0.161 0.464 0.446 1.089 0.911 0.125-1.625 2.107-1.554 0.089 0 0.652 0.027t0.768 0.036 0.813 0.018 0.946-0.018 0.973-0.080 1.089-0.152 1.107-0.241 1.196-0.348 1.205-0.482 1.286-0.616zM31.482 16.339q-2.161 2.661-6.643 4.5 1.5 5.089-0.411 8.304-1.179 2.018-3.268 2.643-1.857 0.571-3.25-0.268-1.536-0.911-1.464-2.929l-0.018-5.821v-0.018q-0.143-0.036-0.438-0.107t-0.42-0.089l-0.018 6.036q0.071 2.036-1.482 2.929-1.411 0.839-3.268 0.268-2.089-0.643-3.25-2.679-1.875-3.214-0.393-8.268-4.482-1.839-6.643-4.5-0.446-0.661-0.071-1.125t1.071 0.018q0.054 0.036 0.196 0.125t0.196 0.143v-12.393q0-1.286 0.839-2.196t2.036-0.911h22.446q1.196 0 2.036 0.911t0.839 2.196v12.393l0.375-0.268q0.696-0.482 1.071-0.018t-0.071 1.125z"></path>
</symbol>
<symbol id="icon-snapchat-ghost" viewBox="0 0 30 32">
<path class="path1" d="M15.143 2.286q2.393-0.018 4.295 1.223t2.92 3.438q0.482 1.036 0.482 3.196 0 0.839-0.161 3.411 0.25 0.125 0.5 0.125 0.321 0 0.911-0.241t0.911-0.241q0.518 0 1 0.321t0.482 0.821q0 0.571-0.563 0.964t-1.232 0.563-1.232 0.518-0.563 0.848q0 0.268 0.214 0.768 0.661 1.464 1.83 2.679t2.58 1.804q0.5 0.214 1.429 0.411 0.5 0.107 0.5 0.625 0 1.25-3.911 1.839-0.125 0.196-0.196 0.696t-0.25 0.83-0.589 0.33q-0.357 0-1.107-0.116t-1.143-0.116q-0.661 0-1.107 0.089-0.571 0.089-1.125 0.402t-1.036 0.679-1.036 0.723-1.357 0.598-1.768 0.241q-0.929 0-1.723-0.241t-1.339-0.598-1.027-0.723-1.036-0.679-1.107-0.402q-0.464-0.089-1.125-0.089-0.429 0-1.17 0.134t-1.045 0.134q-0.446 0-0.625-0.33t-0.25-0.848-0.196-0.714q-3.911-0.589-3.911-1.839 0-0.518 0.5-0.625 0.929-0.196 1.429-0.411 1.393-0.571 2.58-1.804t1.83-2.679q0.214-0.5 0.214-0.768 0-0.5-0.563-0.848t-1.241-0.527-1.241-0.563-0.563-0.938q0-0.482 0.464-0.813t0.982-0.33q0.268 0 0.857 0.232t0.946 0.232q0.321 0 0.571-0.125-0.161-2.536-0.161-3.393 0-2.179 0.482-3.214 1.143-2.446 3.071-3.536t4.714-1.125z"></path>
</symbol>
<symbol id="icon-yelp" viewBox="0 0 27 32">
<path class="path1" d="M13.804 23.554v2.268q-0.018 5.214-0.107 5.446-0.214 0.571-0.911 0.714-0.964 0.161-3.241-0.679t-2.902-1.589q-0.232-0.268-0.304-0.643-0.018-0.214 0.071-0.464 0.071-0.179 0.607-0.839t3.232-3.857q0.018 0 1.071-1.25 0.268-0.339 0.705-0.438t0.884 0.063q0.429 0.179 0.67 0.518t0.223 0.75zM11.143 19.071q-0.054 0.982-0.929 1.25l-2.143 0.696q-4.911 1.571-5.214 1.571-0.625-0.036-0.964-0.643-0.214-0.446-0.304-1.339-0.143-1.357 0.018-2.973t0.536-2.223 1-0.571q0.232 0 3.607 1.375 1.25 0.518 2.054 0.839l1.5 0.607q0.411 0.161 0.634 0.545t0.205 0.866zM25.893 24.375q-0.125 0.964-1.634 2.875t-2.42 2.268q-0.661 0.25-1.125-0.125-0.25-0.179-3.286-5.125l-0.839-1.375q-0.25-0.375-0.205-0.821t0.348-0.821q0.625-0.768 1.482-0.464 0.018 0.018 2.125 0.714 3.625 1.179 4.321 1.42t0.839 0.366q0.5 0.393 0.393 1.089zM13.893 13.089q0.089 1.821-0.964 2.179-1.036 0.304-2.036-1.268l-6.75-10.679q-0.143-0.625 0.339-1.107 0.732-0.768 3.705-1.598t4.009-0.563q0.714 0.179 0.875 0.804 0.054 0.321 0.393 5.455t0.429 6.777zM25.714 15.018q0.054 0.696-0.464 1.054-0.268 0.179-5.875 1.536-1.196 0.268-1.625 0.411l0.018-0.036q-0.411 0.107-0.821-0.071t-0.661-0.571q-0.536-0.839 0-1.554 0.018-0.018 1.339-1.821 2.232-3.054 2.679-3.643t0.607-0.696q0.5-0.339 1.161-0.036 0.857 0.411 2.196 2.384t1.446 2.991v0.054z"></path>
</symbol>
<symbol id="icon-vine" viewBox="0 0 83 32">
<path fill="#00aa7f" style="fill: var(--color11, #00aa7f)" d="M75.999 16.975c1.402 0 2.065 0.747 2.065 1.671 0 1.224-1.14 3.298-6.536 3.36 0.213-2.961 2.158-5.031 4.471-5.031v0zM72.028 25.111c6.155 0.163 10.718-2.175 10.718-6.752 0-3.376-2.606-5.842-6.715-5.842-5.51 0-8.376 4.235-9.523 8.758-0.669 2.643-1.688 6.115-3.726 6.115-1.274 0-1.625-1.274-1.625-2.866v-5.319c0-4.363-2.134-6.688-5.478-6.688-2.962 0-5.253 1.783-6.558 3.949l-0.127-3.662h-4.299c0 0-0.477 14.586-5.287 14.586-1.656 0-2.197-1.881-2.197-4.013v-10.573h-4.204c-2.229 2.516-5.22 3.28-7.45 3.28-4.013 0-7.102-2.803-7.102-7.676 0-2.388 0.924-3.63 2.229-3.63 1.242 0 2.070 1.115 2.070 3.376 0 1.286-0.344 2.695-0.598 3.528 0 0 1.237 2.157 4.618 1.495 0.718-1.594 1.108-3.658 1.108-5.469 0-4.873-2.484-7.707-7.039-7.707-4.682 0-7.421 3.599-7.421 8.344 0 4.701 2.198 8.736 5.821 10.575-1.524 3.048-3.463 5.733-5.485 7.756-3.669-4.435-6.986-10.352-8.347-21.898h-5.413c2.501 19.23 9.953 25.353 11.924 26.529 1.115 0.669 2.075 0.637 3.094 0.063 1.6-0.91 6.404-5.713 9.067-11.339 2.389-0.006 5.807-0.57 7.999-2.229v5.479c0 6.178 2.357 8.567 6.019 8.567 2.938 0 5.206-2.29 6.306-4.86v4.509h5.064v-5.319c0-6.083 2.036-9.044 4.584-9.044 1.433 0 2.038 0.955 2.038 3.376v4.841c0 4.108 2.165 6.497 5.414 6.497 2.669 0 5.065-2.082 6.008-4.715 1.609 3.328 5.315 4.715 8.546 4.715 2.441 0 4.431-0.507 5.982-1.43v-4.618c-1.312 0.893-2.93 1.653-5.281 1.653-2.242 0-3.932-0.71-4.736-2.342v0z"></path>
<path fill="#00aa7f" style="fill: var(--color11, #00aa7f)" d="M34.939 10.159c1.942 0 3.28-1.465 3.28-3.344s-1.338-3.312-3.28-3.312c-1.943 0-3.248 1.306-3.248 3.312s1.306 3.344 3.248 3.344z"></path>
</symbol>
<symbol id="icon-vk" viewBox="0 0 35 32">
<path class="path1" d="M34.232 9.286q0.411 1.143-2.679 5.25-0.429 0.571-1.161 1.518-1.393 1.786-1.607 2.339-0.304 0.732 0.25 1.446 0.304 0.375 1.446 1.464h0.018l0.071 0.071q2.518 2.339 3.411 3.946 0.054 0.089 0.116 0.223t0.125 0.473-0.009 0.607-0.446 0.491-1.054 0.223l-4.571 0.071q-0.429 0.089-1-0.089t-0.929-0.393l-0.357-0.214q-0.536-0.375-1.25-1.143t-1.223-1.384-1.089-1.036-1.009-0.277q-0.054 0.018-0.143 0.063t-0.304 0.259-0.384 0.527-0.304 0.929-0.116 1.384q0 0.268-0.063 0.491t-0.134 0.33l-0.071 0.089q-0.321 0.339-0.946 0.393h-2.054q-1.268 0.071-2.607-0.295t-2.348-0.946-1.839-1.179-1.259-1.027l-0.446-0.429q-0.179-0.179-0.491-0.536t-1.277-1.625-1.893-2.696-2.188-3.768-2.33-4.857q-0.107-0.286-0.107-0.482t0.054-0.286l0.071-0.107q0.268-0.339 1.018-0.339l4.893-0.036q0.214 0.036 0.411 0.116t0.286 0.152l0.089 0.054q0.286 0.196 0.429 0.571 0.357 0.893 0.821 1.848t0.732 1.455l0.286 0.518q0.518 1.071 1 1.857t0.866 1.223 0.741 0.688 0.607 0.25 0.482-0.089q0.036-0.018 0.089-0.089t0.214-0.393 0.241-0.839 0.17-1.446 0-2.232q-0.036-0.714-0.161-1.304t-0.25-0.821l-0.107-0.214q-0.446-0.607-1.518-0.768-0.232-0.036 0.089-0.429 0.304-0.339 0.679-0.536 0.946-0.464 4.268-0.429 1.464 0.018 2.411 0.232 0.357 0.089 0.598 0.241t0.366 0.429 0.188 0.571 0.063 0.813-0.018 0.982-0.045 1.259-0.027 1.473q0 0.196-0.018 0.75t-0.009 0.857 0.063 0.723 0.205 0.696 0.402 0.438q0.143 0.036 0.304 0.071t0.464-0.196 0.679-0.616 0.929-1.196 1.214-1.92q1.071-1.857 1.911-4.018 0.071-0.179 0.179-0.313t0.196-0.188l0.071-0.054 0.089-0.045t0.232-0.054 0.357-0.009l5.143-0.036q0.696-0.089 1.143 0.045t0.554 0.295z"></path>
</symbol>
<symbol id="icon-twitter" viewBox="0 0 39 32">
<path fill="#55acee" style="fill: var(--color1, #55acee)" d="M39.196 3.897c-1.442 0.64-2.992 1.072-4.619 1.266 1.66-0.995 2.935-2.571 3.536-4.449-1.554 0.921-3.275 1.591-5.106 1.951-1.467-1.563-3.557-2.54-5.87-2.54-4.441 0-8.042 3.6-8.042 8.041 0 0.63 0.071 1.244 0.208 1.833-6.683-0.335-12.609-3.537-16.575-8.402-0.692 1.188-1.089 2.569-1.089 4.043 0 2.79 1.42 5.251 3.578 6.693-1.318-0.042-2.558-0.403-3.642-1.006-0.001 0.034-0.001 0.067-0.001 0.101 0 3.896 2.772 7.146 6.451 7.885-0.675 0.184-1.385 0.282-2.119 0.282-0.518 0-1.022-0.050-1.513-0.144 1.023 3.195 3.993 5.52 7.512 5.585-2.752 2.157-6.22 3.442-9.987 3.442-0.649 0-1.289-0.038-1.918-0.112 3.559 2.282 7.786 3.613 12.327 3.613 14.791 0 22.88-12.253 22.88-22.88 0-0.349-0.008-0.695-0.023-1.040 1.571-1.134 2.935-2.55 4.013-4.163z"></path>
</symbol>
<symbol id="icon-facebook" viewBox="0 0 32 32">
<path fill="#395185" style="fill: var(--color1, #395185)" d="M30.234 32c0.975 0 1.766-0.791 1.766-1.766v-28.468c0-0.976-0.791-1.766-1.766-1.766h-28.468c-0.976 0-1.766 0.791-1.766 1.766v28.468c0 0.975 0.79 1.766 1.766 1.766h28.468z"></path>
<path fill="#fff" style="fill: var(--color2, #fff)" d="M22.079 32v-12.392h4.16l0.623-4.829h-4.782v-3.084c0-1.398 0.388-2.351 2.393-2.351l2.557-0.001v-4.319c-0.442-0.059-1.96-0.19-3.727-0.19-3.687 0-6.212 2.251-6.212 6.384v3.562h-4.17v4.829h4.17v12.392h4.987z"></path>
</symbol>
</symbol>
<symbol id="icon-github" viewBox="0 0 33 32">
<path d="M16.384 0c-9.048 0-16.384 7.335-16.384 16.384 0 7.239 4.695 13.38 11.204 15.547 0.819 0.152 1.119-0.355 1.119-0.788 0-0.391-0.015-1.681-0.022-3.050-4.558 0.991-5.52-1.933-5.52-1.933-0.745-1.894-1.819-2.397-1.819-2.397-1.487-1.017 0.112-0.996 0.112-0.996 1.645 0.116 2.512 1.688 2.512 1.688 1.461 2.505 3.833 1.781 4.768 1.362 0.147-1.059 0.572-1.782 1.040-2.191-3.639-0.414-7.465-1.819-7.465-8.097 0-1.789 0.64-3.25 1.688-4.398-0.17-0.413-0.731-2.079 0.159-4.336 0 0 1.376-0.44 4.507 1.679 1.307-0.363 2.709-0.545 4.101-0.551 1.392 0.006 2.795 0.188 4.104 0.551 3.127-2.12 4.501-1.679 4.501-1.679 0.892 2.257 0.331 3.923 0.161 4.336 1.051 1.147 1.686 2.609 1.686 4.398 0 6.293-3.833 7.678-7.481 8.084 0.588 0.508 1.111 1.506 1.111 3.034 0 2.192-0.019 3.957-0.019 4.496 0 0.436 0.295 0.947 1.125 0.786 6.506-2.169 11.195-8.308 11.195-15.545 0-9.049-7.336-16.384-16.384-16.384zM6.136 23.34c-0.036 0.081-0.164 0.106-0.281 0.050-0.119-0.053-0.186-0.164-0.147-0.246 0.035-0.084 0.164-0.107 0.282-0.051 0.119 0.053 0.187 0.166 0.146 0.247zM6.942 24.059c-0.078 0.072-0.231 0.039-0.335-0.076-0.107-0.114-0.127-0.267-0.048-0.34 0.081-0.072 0.229-0.039 0.336 0.076 0.107 0.116 0.128 0.267 0.046 0.34zM7.495 24.979c-0.1 0.070-0.265 0.004-0.366-0.141-0.1-0.146-0.1-0.32 0.002-0.39s0.263-0.007 0.366 0.138c0.1 0.148 0.1 0.323-0.002 0.394zM8.43 26.044c-0.090 0.099-0.281 0.072-0.421-0.063-0.143-0.132-0.183-0.32-0.093-0.419s0.283-0.071 0.424 0.063c0.142 0.132 0.186 0.321 0.090 0.419zM9.639 26.404c-0.040 0.128-0.224 0.187-0.409 0.132-0.185-0.056-0.307-0.206-0.269-0.336 0.039-0.129 0.224-0.19 0.411-0.132 0.185 0.056 0.307 0.205 0.268 0.336zM11.014 26.557c0.005 0.135-0.153 0.247-0.348 0.25-0.196 0.004-0.354-0.105-0.357-0.238 0-0.136 0.154-0.247 0.35-0.251 0.195-0.004 0.354 0.105 0.354 0.239zM12.365 26.505c0.023 0.132-0.112 0.267-0.306 0.303-0.19 0.035-0.366-0.047-0.39-0.177-0.024-0.135 0.114-0.27 0.304-0.305 0.194-0.034 0.367 0.046 0.392 0.18z"></path>
</symbol>
<symbol id="icon-google-plus" viewBox="0 0 41 32">
<path class="path1" d="M25.661 16.304q0 3.714-1.554 6.616t-4.429 4.536-6.589 1.634q-2.661 0-5.089-1.036t-4.179-2.786-2.786-4.179-1.036-5.089 1.036-5.089 2.786-4.179 4.179-2.786 5.089-1.036q5.107 0 8.768 3.429l-3.554 3.411q-2.089-2.018-5.214-2.018-2.196 0-4.063 1.107t-2.955 3.009-1.089 4.152 1.089 4.152 2.955 3.009 4.063 1.107q1.482 0 2.723-0.411t2.045-1.027 1.402-1.402 0.875-1.482 0.384-1.321h-7.429v-4.5h12.357q0.214 1.125 0.214 2.179zM41.143 14.125v3.75h-3.732v3.732h-3.75v-3.732h-3.732v-3.75h3.732v-3.732h3.75v3.732h3.732z"></path>
</symbol>
<symbol id="icon-linkedin" viewBox="0 0 27 32">
<path class="path1" d="M6.232 11.161v17.696h-5.893v-17.696h5.893zM6.607 5.696q0.018 1.304-0.902 2.179t-2.42 0.875h-0.036q-1.464 0-2.357-0.875t-0.893-2.179q0-1.321 0.92-2.188t2.402-0.866 2.375 0.866 0.911 2.188zM27.429 18.714v10.143h-5.875v-9.464q0-1.875-0.723-2.938t-2.259-1.063q-1.125 0-1.884 0.616t-1.134 1.527q-0.196 0.536-0.196 1.446v9.875h-5.875q0.036-7.125 0.036-11.554t-0.018-5.286l-0.018-0.857h5.875v2.571h-0.036q0.357-0.571 0.732-1t1.009-0.929 1.554-0.777 2.045-0.277q3.054 0 4.911 2.027t1.857 5.938z"></path>
</symbol>
<symbol id="icon-youtube" viewBox="0 0 46 32">
<path fill="#fff" style="fill: var(--color10, #fff)" d="M18.062 21.902l12.302-6.364-12.302-6.418v12.782z"></path>
<path fill="#420000" style="fill: var(--color14, #420000)" opacity="0.12" d="M18.062 9.12l10.791 7.2 1.511-0.782-12.302-6.418z"></path>
<path fill="#000" style="fill: var(--color15, #000)" d="M45.031 6.898c0 0-0.444-3.129-1.813-4.516-1.724-1.813-3.661-1.813-4.567-1.92-6.344-0.462-15.887-0.462-15.887-0.462h-0.018c0 0-9.543 0-15.923 0.462-0.889 0.107-2.826 0.107-4.567 1.92-1.351 1.387-1.795 4.516-1.795 4.516s-0.462 3.698-0.462 7.378v3.449c0 3.68 0.462 7.36 0.462 7.36s0.444 3.129 1.813 4.516c1.724 1.813 3.998 1.76 5.011 1.938 3.643 0.356 15.461 0.462 15.461 0.462s9.561-0.018 15.923-0.48c0.889-0.107 2.826-0.107 4.567-1.92 1.368-1.387 1.813-4.516 1.813-4.516s0.462-3.68 0.462-7.36v-3.449c-0.018-3.68-0.48-7.378-0.48-7.378v0zM18.055 21.902v-12.782l12.297 6.418-12.297 6.364z"></path>
</symbol>
<symbol id="icon-dropbox" viewBox="0 0 38 32">
<path fill="#0061ff" style="fill: var(--color16, #0061ff)" d="M9.394 0l-9.394 5.985 9.394 5.985 9.395-5.985z"></path>
<path fill="#0061ff" style="fill: var(--color16, #0061ff)" d="M28.184 0l-9.395 5.985 9.395 5.985 9.395-5.985z"></path>
<path fill="#0061ff" style="fill: var(--color16, #0061ff)" d="M0 17.955l9.394 5.985 9.395-5.985-9.395-5.985z"></path>
<path fill="#0061ff" style="fill: var(--color16, #0061ff)" d="M28.183 11.971l-9.395 5.985 9.395 5.985 9.395-5.985z"></path>
<path fill="#0061ff" style="fill: var(--color16, #0061ff)" d="M9.395 25.948l9.395 5.985 9.394-5.985-9.394-5.985z"></path>
</symbol>
<symbol id="icon-instagram" viewBox="0 0 32 32">
<path d="M16 2.883c4.272 0 4.778 0.016 6.465 0.093 1.56 0.071 2.407 0.332 2.971 0.551 0.747 0.29 1.28 0.637 1.84 1.197s0.907 1.093 1.197 1.84c0.219 0.564 0.48 1.411 0.551 2.971 0.077 1.687 0.093 2.193 0.093 6.465s-0.016 4.778-0.093 6.465c-0.071 1.56-0.332 2.407-0.551 2.971-0.29 0.747-0.637 1.28-1.197 1.84s-1.093 0.907-1.84 1.197c-0.564 0.219-1.411 0.48-2.971 0.551-1.687 0.077-2.193 0.093-6.465 0.093s-4.778-0.016-6.465-0.093c-1.56-0.071-2.407-0.332-2.971-0.551-0.747-0.29-1.28-0.637-1.84-1.197s-0.907-1.093-1.197-1.84c-0.219-0.564-0.48-1.411-0.551-2.971-0.077-1.687-0.093-2.193-0.093-6.465s0.016-4.778 0.093-6.465c0.071-1.56 0.332-2.407 0.551-2.971 0.29-0.747 0.637-1.28 1.197-1.84s1.093-0.907 1.84-1.197c0.564-0.219 1.411-0.48 2.971-0.551 1.687-0.077 2.193-0.093 6.465-0.093zM16 0c-4.345 0-4.89 0.018-6.597 0.096-1.703 0.078-2.866 0.348-3.884 0.744-1.052 0.409-1.944 0.956-2.834 1.845s-1.437 1.782-1.845 2.834c-0.396 1.018-0.666 2.181-0.744 3.884-0.078 1.707-0.096 2.251-0.096 6.597s0.018 4.89 0.096 6.597c0.078 1.703 0.348 2.866 0.744 3.884 0.409 1.052 0.956 1.944 1.845 2.834s1.782 1.437 2.834 1.845c1.018 0.396 2.181 0.666 3.884 0.744 1.707 0.078 2.251 0.096 6.597 0.096s4.89-0.018 6.597-0.096c1.703-0.078 2.866-0.348 3.884-0.744 1.052-0.409 1.944-0.956 2.834-1.845s1.437-1.782 1.845-2.834c0.396-1.018 0.666-2.181 0.744-3.884 0.078-1.706 0.096-2.251 0.096-6.597s-0.018-4.89-0.096-6.597c-0.078-1.703-0.348-2.866-0.744-3.884-0.409-1.052-0.956-1.944-1.845-2.834s-1.782-1.437-2.834-1.845c-1.018-0.396-2.181-0.666-3.884-0.744-1.706-0.078-2.251-0.096-6.597-0.096zM16 7.784c-4.538 0-8.216 3.679-8.216 8.216s3.679 8.216 8.216 8.216c4.538 0 8.216-3.679 8.216-8.216s-3.679-8.216-8.216-8.216zM16 21.333c-2.945 0-5.333-2.388-5.333-5.333s2.388-5.333 5.333-5.333c2.945 0 5.333 2.388 5.333 5.333s-2.388 5.333-5.333 5.333zM26.461 7.459c0 1.060-0.86 1.92-1.92 1.92s-1.92-0.86-1.92-1.92c0-1.060 0.86-1.92 1.92-1.92s1.92 0.86 1.92 1.92z"></path>
</symbol>
<symbol id="icon-flickr" viewBox="0 0 27 32">
<path class="path1" d="M22.286 2.286q2.125 0 3.634 1.509t1.509 3.634v17.143q0 2.125-1.509 3.634t-3.634 1.509h-17.143q-2.125 0-3.634-1.509t-1.509-3.634v-17.143q0-2.125 1.509-3.634t3.634-1.509h17.143zM12.464 16q0-1.571-1.107-2.679t-2.679-1.107-2.679 1.107-1.107 2.679 1.107 2.679 2.679 1.107 2.679-1.107 1.107-2.679zM22.536 16q0-1.571-1.107-2.679t-2.679-1.107-2.679 1.107-1.107 2.679 1.107 2.679 2.679 1.107 2.679-1.107 1.107-2.679z"></path>
</symbol>
<symbol id="icon-tumblr" viewBox="0 0 18 32">
<path d="M16.831 25.528c-0.594 0.283-1.731 0.53-2.58 0.552-2.557 0.069-3.054-1.797-3.076-3.151v-9.948h6.418v-4.837h-6.394v-8.141h-4.682c-0.077 0-0.211 0.067-0.229 0.239-0.274 2.491-1.441 6.864-6.288 8.611v4.128h3.235v10.443c0 3.574 2.637 8.653 9.599 8.535 2.347-0.040 4.956-1.025 5.534-1.872l-1.537-4.559z"></path>
</symbol>
<symbol id="icon-dockerhub" viewBox="0 0 24 28">
<path class="path1" d="M1.597 10.257h2.911v2.83H1.597v-2.83zm3.573 0h2.91v2.83H5.17v-2.83zm0-3.627h2.91v2.829H5.17V6.63zm3.57 3.627h2.912v2.83H8.74v-2.83zm0-3.627h2.912v2.829H8.74V6.63zm3.573 3.627h2.911v2.83h-2.911v-2.83zm0-3.627h2.911v2.829h-2.911V6.63zm3.572 3.627h2.911v2.83h-2.911v-2.83zM12.313 3h2.911v2.83h-2.911V3zm-6.65 14.173c-.449 0-.812.354-.812.788 0 .435.364.788.812.788.447 0 .811-.353.811-.788 0-.434-.363-.788-.811-.788"></path>
<path class="path2" d="M28.172 11.721c-.978-.549-2.278-.624-3.388-.306-.136-1.146-.91-2.149-1.83-2.869l-.366-.286-.307.345c-.618.692-.8 1.845-.718 2.73.063.651.273 1.312.685 1.834-.313.183-.668.328-.985.434-.646.212-1.347.33-2.028.33H.083l-.042.429c-.137 1.432.065 2.866.674 4.173l.262.519.03.048c1.8 2.973 4.963 4.225 8.41 4.225 6.672 0 12.174-2.896 14.702-9.015 1.689.085 3.417-.4 4.243-1.968l.211-.4-.401-.223zM5.664 19.458c-.85 0-1.542-.671-1.542-1.497 0-.825.691-1.498 1.541-1.498.849 0 1.54.672 1.54 1.497s-.69 1.498-1.539 1.498z"></path>
</symbol>
<symbol id="icon-dribbble" viewBox="0 0 32 32">
<path fill="#e74d89" style="fill: var(--color1, #e74d89)" d="M16 1.063c8.25 0 14.925 6.675 14.925 14.912s-6.675 14.925-14.925 14.925c-8.25 0-14.925-6.675-14.925-14.912s6.675-14.925 14.925-14.925v0 0z"></path>
<path fill="#b2215a" style="fill: var(--color2, #b2215a)" d="M16 31.962c-8.825 0-16-7.163-16-15.975 0-8.825 7.175-15.988 16-15.988s16 7.162 16 15.975c0 8.813-7.175 15.988-16 15.988v0 0zM29.488 18.163c-0.462-0.15-4.225-1.262-8.512-0.587 1.788 4.9 2.512 8.9 2.65 9.725 3.075-2.063 5.262-5.337 5.863-9.137v0 0zM21.337 28.563c-0.2-1.2-1-5.375-2.913-10.35-0.025 0.012-0.063 0.025-0.087 0.025-7.713 2.688-10.475 8.025-10.725 8.525 2.313 1.8 5.225 2.875 8.387 2.875 1.888 0.012 3.7-0.375 5.338-1.075v0 0zM5.85 25.125c0.313-0.525 4.063-6.725 11.112-9.012 0.175-0.063 0.363-0.113 0.538-0.162-0.337-0.775-0.712-1.55-1.113-2.313-6.825 2.037-13.45 1.95-14.050 1.938 0 0.137-0.013 0.275-0.013 0.412 0.013 3.512 1.337 6.713 3.525 9.137v0 0zM2.625 13.2c0.612 0.012 6.238 0.037 12.637-1.662-2.262-4.025-4.713-7.4-5.063-7.888-3.838 1.8-6.688 5.325-7.575 9.55v0 0zM12.8 2.725c0.375 0.5 2.863 3.875 5.1 7.988 4.863-1.825 6.913-4.575 7.163-4.925-2.413-2.138-5.587-3.438-9.063-3.438-1.1 0-2.175 0.138-3.2 0.375v0 0zM26.575 7.362c-0.288 0.388-2.575 3.325-7.625 5.388 0.313 0.65 0.625 1.313 0.913 1.975 0.1 0.238 0.2 0.475 0.3 0.7 4.55-0.575 9.063 0.35 9.512 0.438-0.038-3.213-1.188-6.175-3.1-8.5v0 0z"></path>
</symbol>
<symbol id="icon-skype" viewBox="0 0 32 32">
<path fill="#00aff0" style="fill: var(--color17, #00aff0)" d="M30.867 18.626c-0.010 0.056-0.017 0.113-0.028 0.169l-0.055-0.322c0.030 0.050 0.055 0.102 0.083 0.153 0.165-0.899 0.252-1.819 0.252-2.739 0-2.040-0.399-4.019-1.188-5.882-0.761-1.8-1.85-3.416-3.239-4.803-1.387-1.388-3.004-2.477-4.802-3.238-1.862-0.788-3.841-1.187-5.881-1.187-0.961 0-1.924 0.090-2.861 0.27-0.002 0-0.005 0-0.007 0.001 0.053 0.028 0.106 0.053 0.158 0.082l-0.318-0.050c0.053-0.010 0.107-0.021 0.16-0.032-1.286-0.684-2.732-1.048-4.195-1.048-2.389 0-4.636 0.93-6.325 2.62s-2.62 3.936-2.62 6.325c0 1.521 0.391 3.016 1.126 4.337 0.010-0.055 0.016-0.11 0.027-0.165l0.055 0.317c-0.028-0.050-0.053-0.101-0.082-0.152-0.149 0.856-0.228 1.731-0.228 2.604 0 2.040 0.399 4.019 1.188 5.882 0.76 1.8 1.85 3.415 3.237 4.803 1.389 1.388 3.004 2.478 4.804 3.237 1.862 0.79 3.842 1.189 5.882 1.189 0.888 0 1.778-0.081 2.646-0.235-0.051-0.028-0.102-0.054-0.154-0.084l0.323 0.057c-0.056 0.011-0.112 0.017-0.169 0.027 1.338 0.757 2.854 1.16 4.401 1.16 2.389 0 4.634-0.929 6.324-2.619 1.69-1.689 2.62-3.936 2.62-6.325 0-1.526-0.393-3.026-1.133-4.352v0zM16.069 25.141c-5.368 0-7.77-2.639-7.77-4.617 0-1.015 0.749-1.726 1.781-1.726 2.297 0 1.702 3.299 5.989 3.299 2.194 0 3.406-1.191 3.406-2.411 0-0.733-0.362-1.546-1.807-1.902l-4.775-1.192c-3.845-0.964-4.543-3.043-4.543-4.997 0-4.057 3.82-5.581 7.407-5.581 3.305 0 7.2 1.826 7.2 4.26 0 1.043-0.903 1.65-1.935 1.65-1.961 0-1.6-2.714-5.549-2.714-1.96 0-3.045 0.887-3.045 2.157 0 1.267 1.548 1.672 2.892 1.978l3.534 0.784c3.871 0.863 4.853 3.123 4.853 5.252 0 3.297-2.531 5.759-7.639 5.759zM18.501 30.679c0.052 0.030 0.103 0.056 0.154 0.084 0.057-0.010 0.113-0.017 0.169-0.027l-0.323-0.057zM30.84 18.796c0.011-0.056 0.018-0.113 0.028-0.169-0.028-0.051-0.053-0.103-0.083-0.153l0.055 0.322zM1.152 13.118c-0.011 0.055-0.017 0.11-0.027 0.165 0.028 0.051 0.053 0.102 0.082 0.152l-0.055-0.317zM13.298 1.13c-0.052-0.029-0.105-0.054-0.158-0.082-0.053 0.011-0.107 0.022-0.16 0.032l0.318 0.050z"></path>
</symbol>
<symbol id="icon-foursquare" viewBox="0 0 23 32">
<path class="path1" d="M17.857 7.75l0.661-3.464q0.089-0.411-0.161-0.714t-0.625-0.304h-12.714q-0.411 0-0.688 0.304t-0.277 0.661v19.661q0 0.125 0.107 0.018l5.196-6.286q0.411-0.464 0.679-0.598t0.857-0.134h4.268q0.393 0 0.661-0.259t0.321-0.527q0.429-2.321 0.661-3.411 0.071-0.375-0.205-0.714t-0.652-0.339h-5.25q-0.518 0-0.857-0.339t-0.339-0.857v-0.75q0-0.518 0.339-0.848t0.857-0.33h6.179q0.321 0 0.625-0.241t0.357-0.527zM21.911 3.786q-0.268 1.304-0.955 4.759t-1.241 6.25-0.625 3.098q-0.107 0.393-0.161 0.58t-0.25 0.58-0.438 0.589-0.688 0.375-1.036 0.179h-4.839q-0.232 0-0.393 0.179-0.143 0.161-7.607 8.821-0.393 0.446-1.045 0.509t-0.866-0.098q-0.982-0.393-0.982-1.75v-25.179q0-0.982 0.679-1.83t2.143-0.848h15.857q1.696 0 2.268 0.946t0.179 2.839zM21.911 3.786l-2.821 14.107q0.071-0.304 0.625-3.098t1.241-6.25 0.955-4.759z"></path>
</symbol>
<symbol id="icon-wordpress" viewBox="0 0 32 32">
<path d="M2.274 16c0 5.433 3.157 10.128 7.736 12.353l-6.548-17.94c-0.762 1.707-1.188 3.596-1.188 5.586v0zM25.267 15.307c0-1.696-0.609-2.871-1.132-3.786-0.696-1.131-1.348-2.088-1.348-3.219 0-1.262 0.957-2.436 2.305-2.436 0.061 0 0.119 0.008 0.178 0.011-2.442-2.237-5.696-3.603-9.269-3.603-4.795 0-9.014 2.46-11.469 6.187 0.322 0.010 0.626 0.016 0.883 0.016 1.436 0 3.658-0.174 3.658-0.174 0.74-0.044 0.827 1.043 0.088 1.131 0 0-0.744 0.088-1.571 0.131l4.999 14.868 3.004-9.009-2.139-5.859c-0.739-0.043-1.439-0.131-1.439-0.131-0.74-0.043-0.653-1.174 0.087-1.131 0 0 2.267 0.174 3.616 0.174 1.435 0 3.658-0.174 3.658-0.174 0.74-0.044 0.827 1.043 0.088 1.131 0 0-0.745 0.088-1.571 0.131l4.96 14.755 1.369-4.575c0.593-1.899 1.045-3.262 1.045-4.437v0zM16.241 17.201l-4.118 11.967c1.23 0.361 2.53 0.559 3.878 0.559 1.598 0 3.131-0.276 4.558-0.778-0.037-0.059-0.070-0.121-0.098-0.189l-4.22-11.559zM28.045 9.415c0.059 0.437 0.092 0.907 0.092 1.411 0 1.393-0.26 2.959-1.044 4.916l-4.193 12.122c4.081-2.38 6.826-6.801 6.826-11.864 0-2.386-0.609-4.63-1.681-6.586v0zM16.001 0c-8.822 0-16.001 7.178-16.001 16 0 8.824 7.178 16.001 16.001 16.001s16.001-7.177 16.001-16.001c-0-8.822-7.179-16-16.001-16v0zM16.001 31.267c-8.418 0-15.267-6.849-15.267-15.267s6.849-15.266 15.267-15.266c8.418 0 15.266 6.848 15.266 15.266s-6.848 15.267-15.266 15.267v0z"></path>
</symbol>
<symbol id="icon-stumbleupon" viewBox="0 0 34 32">
<path class="path1" d="M18.964 12.714v-2.107q0-0.75-0.536-1.286t-1.286-0.536-1.286 0.536-0.536 1.286v10.929q0 3.125-2.25 5.339t-5.411 2.214q-3.179 0-5.42-2.241t-2.241-5.42v-4.75h5.857v4.679q0 0.768 0.536 1.295t1.286 0.527 1.286-0.527 0.536-1.295v-11.071q0-3.054 2.259-5.214t5.384-2.161q3.143 0 5.393 2.179t2.25 5.25v2.429l-3.482 1.036zM28.429 16.679h5.857v4.75q0 3.179-2.241 5.42t-5.42 2.241q-3.161 0-5.411-2.223t-2.25-5.366v-4.786l2.339 1.089 3.482-1.036v4.821q0 0.75 0.536 1.277t1.286 0.527 1.286-0.527 0.536-1.277v-4.911z"></path>
</symbol>
<symbol id="icon-digg" viewBox="0 0 37 32">
<path class="path1" d="M5.857 5.036h3.643v17.554h-9.5v-12.446h5.857v-5.107zM5.857 19.661v-6.589h-2.196v6.589h2.196zM10.964 10.143v12.446h3.661v-12.446h-3.661zM10.964 5.036v3.643h3.661v-3.643h-3.661zM16.089 10.143h9.518v16.821h-9.518v-2.911h5.857v-1.464h-5.857v-12.446zM21.946 19.661v-6.589h-2.196v6.589h2.196zM27.071 10.143h9.5v16.821h-9.5v-2.911h5.839v-1.464h-5.839v-12.446zM32.911 19.661v-6.589h-2.196v6.589h2.196z"></path>
</symbol>
<symbol id="icon-spotify" viewBox="0 0 27 32">
<path class="path1" d="M20.125 21.607q0-0.571-0.536-0.911-3.446-2.054-7.982-2.054-2.375 0-5.125 0.607-0.75 0.161-0.75 0.929 0 0.357 0.241 0.616t0.634 0.259q0.089 0 0.661-0.143 2.357-0.482 4.339-0.482 4.036 0 7.089 1.839 0.339 0.196 0.589 0.196 0.339 0 0.589-0.241t0.25-0.616zM21.839 17.768q0-0.714-0.625-1.089-4.232-2.518-9.786-2.518-2.732 0-5.411 0.75-0.857 0.232-0.857 1.143 0 0.446 0.313 0.759t0.759 0.313q0.125 0 0.661-0.143 2.179-0.589 4.482-0.589 4.982 0 8.714 2.214 0.429 0.232 0.679 0.232 0.446 0 0.759-0.313t0.313-0.759zM23.768 13.339q0-0.839-0.714-1.25-2.25-1.304-5.232-1.973t-6.125-0.67q-3.643 0-6.5 0.839-0.411 0.125-0.688 0.455t-0.277 0.866q0 0.554 0.366 0.929t0.92 0.375q0.196 0 0.714-0.143 2.375-0.661 5.482-0.661 2.839 0 5.527 0.607t4.527 1.696q0.375 0.214 0.714 0.214 0.518 0 0.902-0.366t0.384-0.92zM27.429 16q0 3.732-1.839 6.884t-4.991 4.991-6.884 1.839-6.884-1.839-4.991-4.991-1.839-6.884 1.839-6.884 4.991-4.991 6.884-1.839 6.884 1.839 4.991 4.991 1.839 6.884z"></path>
</symbol>
<symbol id="icon-soundcloud" viewBox="0 0 57 32">
<path fill="#000" style="fill: var(--color1, #000)" d="M24.269 17.982l-0.33-12.025c0-0.374-0.308-0.659-0.66-0.659-0.374 0-0.66 0.286-0.66 0.659l-0.308 12.025 0.308 5.782c0 0.374 0.308 0.66 0.66 0.66 0.374 0 0.66-0.286 0.66-0.66l0.33-5.782z"></path>
<path fill="#000" style="fill: var(--color1, #000)" d="M21.895 17.982l-0.374-12.486c0-0.352-0.286-0.616-0.616-0.616s-0.616 0.264-0.616 0.616l-0.33 12.464 0.33 5.826c0 0.352 0.286 0.616 0.616 0.616s0.616-0.264 0.616-0.616l0.374-5.804z"></path>
<path fill="#000" style="fill: var(--color1, #000)" d="M16.773 5.584c-0.022-0.286-0.242-0.528-0.528-0.528s-0.506 0.22-0.528 0.528l-0.374 12.376 0.374 5.913c0 0.286 0.242 0.506 0.528 0.506s0.506-0.22 0.528-0.528l0.44-5.913-0.44-12.354z"></path>
<path fill="#000" style="fill: var(--color1, #000)" d="M19.147 5.166c0-0.308-0.264-0.572-0.572-0.572s-0.572 0.242-0.572 0.572l-0.352 12.794 0.352 5.869c0 0.308 0.264 0.572 0.572 0.572s0.55-0.242 0.572-0.572l0.396-5.87-0.396-12.794z"></path>
<path fill="#000" style="fill: var(--color1, #000)" d="M7.167 24.247c0.176 0 0.308-0.132 0.33-0.33l0.572-5.957-0.572-6.155c-0.022-0.176-0.154-0.33-0.33-0.33s-0.308 0.132-0.33 0.33l-0.506 6.155 0.506 5.957c0 0.198 0.154 0.33 0.33 0.33z"></path>
<path fill="#000" style="fill: var(--color1, #000)" d="M26.666 17.982l-0.308-14.289c0-0.242-0.132-0.462-0.33-0.594-0.11-0.066-0.242-0.132-0.396-0.132-0.132 0-0.264 0.044-0.396 0.11-0.198 0.132-0.33 0.352-0.33 0.594v0.132l-0.264 14.157 0.264 5.738v0.022c0 0.154 0.066 0.308 0.176 0.418 0.132 0.154 0.33 0.264 0.55 0.264 0.198 0 0.374-0.088 0.506-0.198 0.132-0.132 0.22-0.308 0.22-0.506l0.022-0.572 0.286-5.144z"></path>
<path fill="#000" style="fill: var(--color1, #000)" d="M9.782 12.245c-0.022-0.22-0.176-0.374-0.374-0.374s-0.374 0.154-0.374 0.374l-0.462 5.716 0.462 6.001c0.022 0.22 0.176 0.374 0.374 0.374s0.374-0.154 0.374-0.374l0.528-6.001-0.528-5.716z"></path>
<path fill="#000" style="fill: var(--color1, #000)" d="M11.673 8.244c-0.22 0-0.418 0.176-0.418 0.418l-0.44 9.299 0.44 6.001c0.022 0.242 0.198 0.418 0.418 0.418s0.418-0.176 0.418-0.418l0.506-6.001-0.506-9.299c0-0.22-0.198-0.418-0.418-0.418z"></path>
<path fill="#000" style="fill: var(--color1, #000)" d="M14.399 23.962l0.462-5.979-0.462-11.431c-0.022-0.264-0.22-0.462-0.484-0.462s-0.462 0.198-0.484 0.462l-0.418 11.431 0.418 5.979c0 0.264 0.22 0.462 0.484 0.462 0.264 0.022 0.462-0.198 0.484-0.462z"></path>
<path fill="#000" style="fill: var(--color1, #000)" d="M28.402 1.737c-0.11-0.066-0.242-0.11-0.396-0.11-0.176 0-0.352 0.066-0.484 0.176-0.176 0.132-0.286 0.352-0.286 0.594v0.088l-0.308 15.52 0.154 2.858 0.154 2.792c0 0.418 0.352 0.747 0.769 0.747s0.747-0.352 0.769-0.769l0.33-5.65-0.33-15.586c-0.022-0.286-0.154-0.528-0.374-0.659z"></path>
<path fill="#000" style="fill: var(--color1, #000)" d="M0.637 21.258c0.11 0 0.198-0.088 0.22-0.22l0.484-3.078-0.484-3.122c-0.022-0.132-0.11-0.22-0.22-0.22s-0.22 0.088-0.22 0.22l-0.418 3.122 0.418 3.078c0 0.132 0.11 0.22 0.22 0.22z"></path>
<path fill="#000" style="fill: var(--color1, #000)" d="M2.726 23.126c0.11 0 0.22-0.088 0.242-0.22l0.637-4.946-0.638-5.056c-0.022-0.132-0.11-0.22-0.242-0.22-0.11 0-0.22 0.088-0.242 0.22l-0.55 5.056 0.55 4.946c0.022 0.132 0.11 0.22 0.242 0.22z"></path>
<path fill="#000" style="fill: var(--color1, #000)" d="M4.924 24.028c0.154 0 0.264-0.11 0.286-0.286l0.594-5.782-0.594-6.001c-0.022-0.154-0.132-0.286-0.286-0.286s-0.264 0.11-0.286 0.286l-0.528 6.001 0.528 5.782c0.022 0.154 0.132 0.286 0.286 0.286z"></path>
<path fill="#000" style="fill: var(--color1, #000)" d="M49.352 10.596c-0.945 0-1.847 0.198-2.682 0.528-0.55-6.221-5.782-11.123-12.157-11.123-1.561 0-3.078 0.308-4.419 0.835-0.528 0.198-0.66 0.418-0.66 0.813v21.961c0 0.418 0.33 0.747 0.747 0.791h19.191c3.825 0 6.925-3.056 6.925-6.881-0.022-3.825-3.122-6.925-6.947-6.925z"></path>
<path fill="#f04923" style="fill: var(--color2, #f04923)" d="M5.518 28.578c-0.813-0.198-1.033-0.286-1.033-0.616 0-0.22 0.176-0.462 0.725-0.462 0.462 0 0.835 0.198 1.165 0.528l0.747-0.725c-0.484-0.506-1.077-0.813-1.869-0.813-1.011 0-1.825 0.572-1.825 1.495 0 1.011 0.659 1.319 1.605 1.517 0.967 0.22 1.143 0.374 1.143 0.703 0 0.396-0.286 0.55-0.901 0.55-0.484 0-0.945-0.176-1.319-0.594l-0.747 0.66c0.396 0.572 1.143 0.923 1.978 0.923 1.407 0 2-0.66 2-1.627 0.044-1.077-0.857-1.363-1.671-1.539zM10.244 26.512c-1.407 0-2.22 1.077-2.22 2.638s0.835 2.638 2.22 2.638c1.385 0 2.22-1.077 2.22-2.638s-0.835-2.638-2.22-2.638zM10.244 30.754c-0.835 0-1.165-0.703-1.165-1.627s0.352-1.627 1.165-1.627c0.835 0 1.165 0.703 1.165 1.627s-0.352 1.627-1.165 1.627zM16.597 29.457c0 0.813-0.396 1.319-1.055 1.319s-1.055-0.528-1.055-1.341v-2.858h-1.033v2.88c0 1.495 0.835 2.33 2.066 2.33 1.297 0 2.066-0.857 2.066-2.33v-2.858h-1.033v2.858h0.044zM22.027 28.754c0 0.286 0.022 0.923 0.022 1.121-0.066-0.132-0.242-0.396-0.352-0.572l-1.825-2.704h-0.989v5.122h1.011v-2.264c0-0.286-0.022-0.923-0.022-1.121 0.066 0.132 0.242 0.396 0.352 0.572l1.869 2.792h0.923v-5.122h-1.011v2.176h0.022zM25.962 26.578h-1.605v5.122h1.517c1.319 0 2.616-0.769 2.616-2.55 0-1.891-1.077-2.572-2.528-2.572zM25.874 30.71h-0.506v-3.122h0.55c1.077 0 1.539 0.528 1.539 1.561 0 0.923-0.506 1.561-1.583 1.561zM31.656 27.523c0.462 0 0.747 0.198 0.945 0.55l0.945-0.44c-0.33-0.66-0.901-1.143-1.869-1.143-1.341 0-2.264 1.077-2.264 2.638 0 1.605 0.901 2.638 2.242 2.638 0.923 0 1.539-0.44 1.891-1.165l-0.857-0.506c-0.264 0.462-0.55 0.66-1.011 0.66-0.769 0-1.209-0.703-1.209-1.627 0-0.945 0.44-1.605 1.187-1.605zM35.459 26.578h-1.033v5.122h3.078v-1.011h-2.044v-4.111zM40.207 26.512c-1.407 0-2.22 1.077-2.22 2.638s0.835 2.638 2.22 2.638c1.407 0 2.22-1.077 2.22-2.638s-0.813-2.638-2.22-2.638zM40.207 30.754c-0.835 0-1.165-0.703-1.165-1.627s0.352-1.627 1.165-1.627c0.835 0 1.165 0.703 1.165 1.627s-0.33 1.627-1.165 1.627zM46.56 29.457c0 0.813-0.396 1.319-1.055 1.319s-1.055-0.528-1.055-1.341v-2.858h-1.033v2.88c0 1.495 0.835 2.33 2.066 2.33 1.297 0 2.066-0.857 2.066-2.33v-2.858h-1.033v2.858h0.044zM50.473 26.578h-1.605v5.122h1.517c1.319 0 2.616-0.769 2.616-2.55 0-1.891-1.077-2.572-2.528-2.572zM50.385 30.71h-0.484v-3.122h0.55c1.077 0 1.517 0.528 1.517 1.561 0 0.923-0.506 1.561-1.583 1.561z"></path>
</symbol>
<symbol id="icon-codepen" viewBox="0 0 32 32">
<path fill="#ccc" style="fill: var(--color18, #ccc)" d="M31.976 10.886c-0.007-0.039-0.014-0.078-0.024-0.116-0.006-0.023-0.014-0.044-0.022-0.067-0.011-0.034-0.022-0.067-0.035-0.1-0.009-0.023-0.020-0.045-0.031-0.067-0.015-0.031-0.030-0.062-0.047-0.091-0.012-0.022-0.026-0.043-0.039-0.064-0.019-0.028-0.038-0.056-0.058-0.084-0.015-0.020-0.031-0.040-0.047-0.059-0.022-0.026-0.045-0.050-0.068-0.075-0.018-0.018-0.036-0.036-0.055-0.054-0.025-0.023-0.051-0.044-0.078-0.065-0.021-0.016-0.041-0.032-0.063-0.047-0.008-0.006-0.015-0.012-0.023-0.017l-14.624-9.75c-0.462-0.308-1.064-0.308-1.525 0l-14.625 9.75c-0.008 0.005-0.015 0.012-0.023 0.017-0.022 0.015-0.042 0.031-0.063 0.047-0.027 0.021-0.053 0.043-0.078 0.065-0.019 0.017-0.037 0.035-0.055 0.054-0.024 0.024-0.047 0.049-0.069 0.075-0.016 0.019-0.032 0.039-0.047 0.060-0.021 0.027-0.040 0.055-0.058 0.084-0.013 0.021-0.027 0.042-0.039 0.064-0.017 0.030-0.032 0.060-0.047 0.091-0.010 0.022-0.022 0.044-0.031 0.067-0.013 0.033-0.025 0.066-0.036 0.1-0.007 0.022-0.015 0.044-0.021 0.065-0.010 0.038-0.017 0.076-0.024 0.116-0.004 0.020-0.009 0.039-0.011 0.059-0.008 0.059-0.012 0.119-0.012 0.18v9.752c0 0.060 0.004 0.121 0.013 0.18 0.003 0.022 0.009 0.039 0.013 0.059 0.007 0.039 0.013 0.078 0.026 0.116 0.006 0.022 0.013 0.043 0.022 0.067 0.011 0.034 0.022 0.069 0.034 0.1 0.009 0.022 0.022 0.043 0.030 0.065 0.014 0.030 0.030 0.060 0.047 0.092 0.012 0.022 0.026 0.043 0.039 0.063 0.019 0.030 0.039 0.056 0.060 0.082 0.015 0.022 0.030 0.039 0.047 0.059 0.022 0.026 0.043 0.052 0.069 0.075 0.018 0.017 0.034 0.039 0.056 0.052 0.025 0.022 0.052 0.043 0.078 0.066 0.021 0.017 0.043 0.030 0.060 0.047 0.008 0.004 0.013 0.013 0.022 0.017l14.621 9.755c0.231 0.155 0.496 0.233 0.763 0.231s0.532-0.078 0.763-0.231l14.625-9.75c0.008-0.005 0.015-0.011 0.023-0.017 0.022-0.015 0.042-0.031 0.063-0.047 0.027-0.021 0.053-0.043 0.078-0.066 0.019-0.017 0.037-0.035 0.055-0.053 0.024-0.024 0.047-0.049 0.068-0.075 0.016-0.019 0.032-0.039 0.047-0.059 0.021-0.027 0.040-0.055 0.058-0.084 0.013-0.021 0.027-0.042 0.039-0.063 0.017-0.030 0.032-0.061 0.047-0.092 0.010-0.022 0.021-0.044 0.031-0.066 0.013-0.033 0.025-0.067 0.035-0.1 0.007-0.022 0.015-0.044 0.022-0.067 0.010-0.038 0.017-0.077 0.024-0.116 0.003-0.020 0.009-0.039 0.011-0.059 0.008-0.059 0.012-0.119 0.012-0.18v-9.75c0-0.061-0.005-0.12-0.012-0.18-0.003-0.021-0.010-0.038-0.014-0.059h0.002zM16 19.253l-4.863-3.253 4.863-3.253 4.863 3.253-4.863 3.253zM14.625 10.358l-5.961 3.987-4.812-3.219 10.774-7.182v6.414zM6.19 16l-3.44 2.301v-4.601l3.44 2.301zM8.663 17.655l5.961 3.987v6.414l-10.774-7.183 4.812-3.218zM17.375 21.641l5.962-3.987 4.813 3.219-10.774 7.182v-6.414zM25.809 16.001l3.44-2.301v4.602l-3.44-2.301zM23.336 14.346l-5.962-3.987v-6.414l10.774 7.182-4.813 3.219z"></path>
</symbol>
<symbol id="icon-twitch" viewBox="0 0 31 32">
<path fill="#5a3e85" style="fill: var(--color19, #5a3e85)" d="M2.085 0l-2.085 5.559v22.233h7.64v4.171h4.171l4.167-4.171h6.252l8.338-8.335v-19.457h-28.483zM4.862 2.778h22.927v15.287l-4.864 4.865h-7.641l-4.166 4.165v-4.165h-6.256v-20.152zM12.504 16.677h2.779v-8.337h-2.779v8.337zM20.146 16.677h2.779v-8.337h-2.779v8.337z"></path>
</symbol>
<symbol id="icon-pinterest-p" viewBox="0 0 32 32">
<path fill="#cb1f27" style="fill: var(--color20, #cb1f27)" d="M0 16c0 6.552 3.94 12.18 9.577 14.655-0.045-1.117-0.008-2.459 0.278-3.674 0.308-1.299 2.059-8.718 2.059-8.718s-0.511-1.022-0.511-2.531c0-2.371 1.374-4.142 3.086-4.142 1.455 0 2.159 1.093 2.159 2.402 0 1.463-0.933 3.651-1.413 5.678-0.401 1.697 0.851 3.082 2.525 3.082 3.032 0 5.073-3.894 5.073-8.507 0-3.507-2.362-6.131-6.658-6.131-4.854 0-7.877 3.62-7.877 7.662 0 1.394 0.411 2.377 1.055 3.138 0.296 0.35 0.337 0.49 0.23 0.892-0.077 0.294-0.253 1.003-0.326 1.284-0.107 0.405-0.435 0.55-0.801 0.401-2.236-0.913-3.277-3.361-3.277-6.113 0-4.545 3.833-9.995 11.435-9.995 6.109 0 10.129 4.421 10.129 9.166 0 6.277-3.489 10.966-8.633 10.966-1.727 0-3.352-0.934-3.909-1.994 0 0-0.929 3.686-1.126 4.398-0.339 1.234-1.003 2.467-1.61 3.428 1.439 0.425 2.959 0.656 4.535 0.656 8.835 0 15.999-7.164 15.999-16.001s-7.164-16-15.999-16c-8.836 0-16.001 7.164-16.001 16z"></path>
</symbol>
<symbol id="icon-periscope" viewBox="0 0 24 28">
<path class="path1" d="M12.285,1C6.696,1,2.277,5.643,2.277,11.243c0,5.851,7.77,14.578,10.007,14.578c1.959,0,9.729-8.728,9.729-14.578 C22.015,5.643,17.596,1,12.285,1z M12.317,16.551c-3.473,0-6.152-2.611-6.152-5.664c0-1.292,0.39-2.472,1.065-3.438 c0.206,1.084,1.18,1.906,2.352,1.906c1.322,0,2.393-1.043,2.393-2.333c0-0.832-0.447-1.561-1.119-1.975 c0.467-0.105,0.955-0.161,1.46-0.161c3.133,0,5.81,2.611,5.81,5.998C18.126,13.94,15.449,16.551,12.317,16.551z"></path>
</symbol>
<symbol id="icon-get-pocket" viewBox="0 0 31 32">
<path class="path1" d="M27.946 2.286q1.161 0 1.964 0.813t0.804 1.973v9.268q0 3.143-1.214 6t-3.259 4.911-4.893 3.259-5.973 1.205q-3.143 0-5.991-1.205t-4.902-3.259-3.268-4.911-1.214-6v-9.268q0-1.143 0.821-1.964t1.964-0.821h25.161zM15.375 21.286q0.839 0 1.464-0.589l7.214-6.929q0.661-0.625 0.661-1.518 0-0.875-0.616-1.491t-1.491-0.616q-0.839 0-1.464 0.589l-5.768 5.536-5.768-5.536q-0.625-0.589-1.446-0.589-0.875 0-1.491 0.616t-0.616 1.491q0 0.911 0.643 1.518l7.232 6.929q0.589 0.589 1.446 0.589z"></path>
</symbol>
<symbol id="icon-vimeo" viewBox="0 0 37 32">
<path fill="#32b8e8" style="fill: var(--color24, #32b8e8)" d="M36.718 7.413c-0.163 3.583-2.661 8.489-7.492 14.716-4.995 6.504-9.22 9.756-12.677 9.756-2.141 0-3.954-1.98-5.433-5.942-0.989-3.631-1.977-7.262-2.965-10.894-1.099-3.959-2.278-5.942-3.539-5.942-0.275 0-1.237 0.579-2.883 1.734l-1.728-2.231c1.813-1.596 3.602-3.192 5.361-4.79 2.418-2.094 4.233-3.195 5.443-3.306 2.859-0.275 4.619 1.683 5.279 5.874 0.714 4.522 1.207 7.335 1.485 8.436 0.824 3.752 1.731 5.625 2.721 5.625 0.769 0 1.924-1.217 3.464-3.65 1.538-2.434 2.362-4.286 2.474-5.558 0.219-2.101-0.605-3.153-2.474-3.153-0.879 0-1.786 0.203-2.719 0.604 1.805-5.925 5.255-8.803 10.346-8.638 3.775 0.111 5.554 2.564 5.337 7.359z"></path>
</symbol>
</symbol>
<symbol id="icon-reddit-alien" viewBox="0 0 32 32">
<path fill="#ff4500" style="fill: var(--color25, #ff4500)" d="M32 16c0 8.837-7.163 16-16 16s-16-7.163-16-16c0-8.837 7.163-16 16-16s16 7.163 16 16z"></path>
<path fill="#fff" style="fill: var(--color10, #fff)" d="M26.644 16.153c0-1.297-1.049-2.327-2.327-2.327-0.629 0-1.202 0.248-1.621 0.649-1.602-1.145-3.796-1.888-6.238-1.984l1.068-4.998 3.472 0.744c0.038 0.877 0.763 1.583 1.66 1.583 0.916 0 1.659-0.744 1.659-1.66s-0.744-1.659-1.659-1.659c-0.649 0-1.221 0.381-1.488 0.935l-3.872-0.82c-0.114-0.019-0.229 0-0.305 0.057-0.095 0.057-0.153 0.153-0.171 0.267l-1.183 5.57c-2.48 0.076-4.711 0.82-6.333 1.984-0.42-0.401-0.992-0.649-1.621-0.649-1.297 0-2.327 1.049-2.327 2.327 0 0.954 0.572 1.755 1.373 2.117-0.038 0.229-0.057 0.458-0.057 0.706 0 3.586 4.177 6.505 9.328 6.505s9.328-2.9 9.328-6.505c0-0.229-0.019-0.477-0.057-0.706 0.801-0.363 1.373-1.183 1.373-2.137zM10.659 17.812c0-0.916 0.744-1.659 1.66-1.659s1.659 0.744 1.659 1.659-0.744 1.66-1.659 1.66c-0.916 0.019-1.66-0.744-1.66-1.66zM19.949 22.218c-1.145 1.145-3.319 1.221-3.948 1.221-0.649 0-2.823-0.096-3.949-1.221-0.171-0.172-0.171-0.439 0-0.61s0.439-0.171 0.611 0c0.725 0.725 2.251 0.973 3.338 0.973s2.632-0.248 3.338-0.973c0.172-0.171 0.439-0.171 0.611 0 0.153 0.172 0.153 0.439 0 0.611zM19.643 19.491c-0.916 0-1.659-0.744-1.659-1.659s0.744-1.659 1.659-1.659c0.916 0 1.66 0.744 1.66 1.659 0 0.896-0.744 1.659-1.66 1.659z"></path>
</symbol>
<symbol id="icon-chain" viewBox="0 0 30 32">
<path class="path1" d="M26 21.714q0-0.714-0.5-1.214l-3.714-3.714q-0.5-0.5-1.214-0.5-0.75 0-1.286 0.571 0.054 0.054 0.339 0.33t0.384 0.384 0.268 0.339 0.232 0.455 0.063 0.491q0 0.714-0.5 1.214t-1.214 0.5q-0.268 0-0.491-0.063t-0.455-0.232-0.339-0.268-0.384-0.384-0.33-0.339q-0.589 0.554-0.589 1.304 0 0.714 0.5 1.214l3.679 3.696q0.482 0.482 1.214 0.482 0.714 0 1.214-0.464l2.625-2.607q0.5-0.5 0.5-1.196zM13.446 9.125q0-0.714-0.5-1.214l-3.679-3.696q-0.5-0.5-1.214-0.5-0.696 0-1.214 0.482l-2.625 2.607q-0.5 0.5-0.5 1.196 0 0.714 0.5 1.214l3.714 3.714q0.482 0.482 1.214 0.482 0.75 0 1.286-0.554-0.054-0.054-0.339-0.33t-0.384-0.384-0.268-0.339-0.232-0.455-0.063-0.491q0-0.714 0.5-1.214t1.214-0.5q0.268 0 0.491 0.063t0.455 0.232 0.339 0.268 0.384 0.384 0.33 0.339q0.589-0.554 0.589-1.304zM29.429 21.714q0 2.143-1.518 3.625l-2.625 2.607q-1.482 1.482-3.625 1.482-2.161 0-3.643-1.518l-3.679-3.696q-1.482-1.482-1.482-3.625 0-2.196 1.571-3.732l-1.571-1.571q-1.536 1.571-3.714 1.571-2.143 0-3.643-1.5l-3.714-3.714q-1.5-1.5-1.5-3.643t1.518-3.625l2.625-2.607q1.482-1.482 3.625-1.482 2.161 0 3.643 1.518l3.679 3.696q1.482 1.482 1.482 3.625 0 2.196-1.571 3.732l1.571 1.571q1.536-1.571 3.714-1.571 2.143 0 3.643 1.5l3.714 3.714q1.5 1.5 1.5 3.643z"></path>
</symbol>
<symbol id="icon-angle-up" viewBox="0 0 16 28">
<path d="M16 19c0 0.547-0.453 1-1 1h-14c-0.547 0-1-0.453-1-1 0-0.266 0.109-0.516 0.297-0.703l7-7c0.187-0.187 0.438-0.297 0.703-0.297s0.516 0.109 0.703 0.297l7 7c0.187 0.187 0.297 0.438 0.297 0.703z"></path>
</symbol>
<symbol id="icon-angle-down" viewBox="0 0 18 32">
<path class="path1" d="M18.286 12.571c0 0.304-0.125 0.589-0.339 0.804l-8 8c-0.214 0.214-0.5 0.339-0.804 0.339s-0.589-0.125-0.804-0.339l-8-8c-0.214-0.214-0.339-0.5-0.339-0.804 0-0.625 0.518-1.143 1.143-1.143h16c0.625 0 1.143 0.518 1.143 1.143z"></path>
</symbol>
<symbol id="icon-angle-left" viewBox="0 0 24 32">
<path class="path1" d="M20.911 5.375l-9.482 9.482 9.482 9.482c0.446 0.446 0.446 1.161 0 1.607l-2.964 2.964c-0.446 0.446-1.161 0.446-1.607 0l-13.25-13.25c-0.446-0.446-0.446-1.161 0-1.607l13.25-13.25c0.446-0.446 1.161-0.446 1.607 0l2.964 2.964c0.446 0.446 0.446 1.161 0 1.607z"></path>
</symbol>
<symbol id="icon-angle-right" viewBox="0 0 22 32">
<path class="path1" d="M19.768 15.661l-13.25 13.25c-0.446 0.446-1.161 0.446-1.607 0l-2.964-2.964c-0.446-0.446-0.446-1.161 0-1.607l9.482-9.482-9.482-9.482c-0.446-0.446-0.446-1.161 0-1.607l2.964-2.964c0.446-0.446 1.161-0.446 1.607 0l13.25 13.25c0.446 0.446 0.446 1.161 0 1.607z"></path>
</symbol>
<symbol id="icon-user" viewBox="0 0 23 32">
<path class="path1" d="M22.857 24.982c0 2.607-1.714 4.732-3.804 4.732h-15.25c-2.089 0-3.804-2.125-3.804-4.732 0-4.696 1.161-10.125 5.839-10.125 1.446 1.411 3.411 2.286 5.589 2.286s4.143-0.875 5.589-2.286c4.679 0 5.839 5.429 5.839 10.125zM18.286 9.143c0 3.786-3.071 6.857-6.857 6.857s-6.857-3.071-6.857-6.857 3.071-6.857 6.857-6.857 6.857 3.071 6.857 6.857z"></path>
</symbol>
<symbol id="icon-mail-reply" viewBox="0 0 32 32">
<path class="path1" d="M32 20c0 2.5-1.25 5.768-2.268 8.054-0.196 0.411-0.393 0.982-0.661 1.357-0.125 0.179-0.25 0.304-0.5 0.304-0.357 0-0.571-0.286-0.571-0.625 0-0.286 0.071-0.607 0.089-0.893 0.054-0.732 0.089-1.464 0.089-2.196 0-8.518-5.054-10-12.75-10h-4v4.571c0 0.625-0.518 1.143-1.143 1.143-0.304 0-0.589-0.125-0.804-0.339l-9.143-9.143c-0.214-0.214-0.339-0.5-0.339-0.804s0.125-0.589 0.339-0.804l9.143-9.143c0.214-0.214 0.5-0.339 0.804-0.339 0.625 0 1.143 0.518 1.143 1.143v4.571h4c5.857 0 13.143 1.036 15.625 7.196 0.75 1.893 0.946 3.946 0.946 5.946z"></path>
</symbol>
<symbol id="icon-headphones" viewBox="0 0 32 32">
<path d="M9 18h-2v14h2c0.55 0 1-0.45 1-1v-12c0-0.55-0.45-1-1-1z"></path>
<path d="M23 18c-0.55 0-1 0.45-1 1v12c0 0.55 0.45 1 1 1h2v-14h-2z"></path>
<path d="M32 16c0-8.837-7.163-16-16-16s-16 7.163-16 16c0 1.919 0.338 3.759 0.958 5.464-0.609 1.038-0.958 2.246-0.958 3.536 0 3.526 2.608 6.443 6 6.929v-13.857c-0.997 0.143-1.927 0.495-2.742 1.012-0.168-0.835-0.258-1.699-0.258-2.584 0-7.18 5.82-13 13-13s13 5.82 13 13c0 0.885-0.088 1.749-0.257 2.584-0.816-0.517-1.745-0.87-2.743-1.013v13.858c3.392-0.485 6-3.402 6-6.929 0-1.29-0.349-2.498-0.958-3.536 0.62-1.705 0.958-3.545 0.958-5.465z"></path>
</symbol>
<symbol id="icon-folder" viewBox="0 0 30 32">
<path class="path1" d="M29.714 10.857v12.571c0 2.196-1.804 4-4 4h-21.714c-2.196 0-4-1.804-4-4v-17.143c0-2.196 1.804-4 4-4h5.714c2.196 0 4 1.804 4 4v0.571h12c2.196 0 4 1.804 4 4z"></path>
</symbol>
<symbol id="icon-tags" viewBox="0 0 34 32">
<path class="path1" d="M8 8c0-1.268-1.018-2.286-2.286-2.286s-2.286 1.018-2.286 2.286 1.018 2.286 2.286 2.286 2.286-1.018 2.286-2.286zM27.054 18.286c0 0.607-0.25 1.196-0.661 1.607l-8.768 8.786c-0.429 0.411-1.018 0.661-1.625 0.661s-1.196-0.25-1.607-0.661l-12.768-12.786c-0.911-0.893-1.625-2.625-1.625-3.893v-7.429c0-1.25 1.036-2.286 2.286-2.286h7.429c1.268 0 3 0.714 3.911 1.625l12.768 12.75c0.411 0.429 0.661 1.018 0.661 1.625zM33.911 18.286c0 0.607-0.25 1.196-0.661 1.607l-8.768 8.786c-0.429 0.411-1.018 0.661-1.625 0.661-0.929 0-1.393-0.429-2-1.054l8.393-8.393c0.411-0.411 0.661-1 0.661-1.607s-0.25-1.196-0.661-1.625l-12.768-12.75c-0.911-0.911-2.643-1.625-3.911-1.625h4c1.268 0 3 0.714 3.911 1.625l12.768 12.75c0.411 0.429 0.661 1.018 0.661 1.625z"></path>
</symbol>
<symbol id="icon-long-arrow-right" viewBox="0 0 31 32">
<path class="path1" d="M30.857 15.946c0 0.161-0.071 0.321-0.179 0.429l-6.857 6.321c-0.179 0.161-0.411 0.196-0.625 0.107-0.196-0.089-0.339-0.286-0.339-0.518v-4h-22.286c-0.321 0-0.571-0.25-0.571-0.571v-3.429c0-0.321 0.25-0.571 0.571-0.571h22.286v-4c0-0.232 0.125-0.429 0.339-0.518s0.446-0.054 0.625 0.089l6.857 6.25c0.107 0.107 0.179 0.25 0.179 0.411v0z"></path>
</symbol>
<symbol id="icon-trash" viewBox="0 0 25 32">
<path class="path1" d="M9.143 13.143v10.286c0 0.321-0.25 0.571-0.571 0.571h-1.143c-0.321 0-0.571-0.25-0.571-0.571v-10.286c0-0.321 0.25-0.571 0.571-0.571h1.143c0.321 0 0.571 0.25 0.571 0.571zM13.714 13.143v10.286c0 0.321-0.25 0.571-0.571 0.571h-1.143c-0.321 0-0.571-0.25-0.571-0.571v-10.286c0-0.321 0.25-0.571 0.571-0.571h1.143c0.321 0 0.571 0.25 0.571 0.571zM18.286 13.143v10.286c0 0.321-0.25 0.571-0.571 0.571h-1.143c-0.321 0-0.571-0.25-0.571-0.571v-10.286c0-0.321 0.25-0.571 0.571-0.571h1.143c0.321 0 0.571 0.25 0.571 0.571zM20.571 26.071v-16.929h-16v16.929c0 0.857 0.482 1.357 0.571 1.357h14.857c0.089 0 0.571-0.5 0.571-1.357zM8.571 6.857h8l-0.857-2.089c-0.054-0.071-0.214-0.179-0.304-0.196h-5.661c-0.107 0.018-0.25 0.125-0.304 0.196zM25.143 7.429v1.143c0 0.321-0.25 0.571-0.571 0.571h-1.714v16.929c0 1.964-1.286 3.643-2.857 3.643h-14.857c-1.571 0-2.857-1.607-2.857-3.571v-17h-1.714c-0.321 0-0.571-0.25-0.571-0.571v-1.143c0-0.321 0.25-0.571 0.571-0.571h5.518l1.25-2.982c0.357-0.875 1.429-1.589 2.375-1.589h5.714c0.946 0 2.018 0.714 2.375 1.589l1.25 2.982h5.518c0.321 0 0.571 0.25 0.571 0.571z"></path>
</symbol>
<symbol id="icon-email" viewBox="0 0 32 32">
<path class="path1" d="M29.714 26.857v-13.714c-0.375 0.429-0.786 0.821-1.232 1.179-2.554 1.964-5.125 3.964-7.607 6.036-1.339 1.125-3 2.5-4.857 2.5h-0.036c-1.857 0-3.518-1.375-4.857-2.5-2.482-2.071-5.054-4.071-7.607-6.036-0.446-0.357-0.857-0.75-1.232-1.179v13.714c0 0.304 0.268 0.571 0.571 0.571h26.286c0.304 0 0.571-0.268 0.571-0.571zM29.714 8.089c0-0.446 0.107-1.232-0.571-1.232h-26.286c-0.304 0-0.571 0.268-0.571 0.571 0 2.036 1.018 3.804 2.625 5.071 2.393 1.875 4.786 3.768 7.161 5.661 0.946 0.768 2.661 2.411 3.911 2.411h0.036c1.25 0 2.964-1.643 3.911-2.411 2.375-1.893 4.768-3.786 7.161-5.661 1.161-0.911 2.625-2.893 2.625-4.411zM32 7.429v19.429c0 1.571-1.286 2.857-2.857 2.857h-26.286c-1.571 0-2.857-1.286-2.857-2.857v-19.429c0-1.571 1.286-2.857 2.857-2.857h26.286c1.571 0 2.857 1.286 2.857 2.857z"></path>
</symbol>
<symbol id="icon-phone" viewBox="0 0 25 32">
<path class="path1" d="M25.143 22.143c0 0.643-0.286 1.893-0.554 2.482-0.375 0.875-1.375 1.446-2.179 1.893-1.054 0.571-2.125 0.911-3.321 0.911-1.661 0-3.161-0.679-4.679-1.232-1.089-0.393-2.143-0.875-3.125-1.482-3.036-1.875-6.696-5.536-8.571-8.571-0.607-0.982-1.089-2.036-1.482-3.125-0.554-1.518-1.232-3.018-1.232-4.679 0-1.196 0.339-2.268 0.911-3.321 0.446-0.804 1.018-1.804 1.893-2.179 0.589-0.268 1.839-0.554 2.482-0.554 0.125 0 0.25 0 0.375 0.054 0.375 0.125 0.768 1 0.946 1.357 0.571 1.018 1.125 2.054 1.714 3.054 0.286 0.464 0.821 1.036 0.821 1.589 0 1.089-3.232 2.679-3.232 3.643 0 0.482 0.446 1.107 0.696 1.536 1.804 3.25 4.054 5.5 7.304 7.304 0.429 0.25 1.054 0.696 1.536 0.696 0.964 0 2.554-3.232 3.643-3.232 0.554 0 1.125 0.536 1.589 0.821 1 0.589 2.036 1.143 3.054 1.714 0.357 0.179 1.232 0.571 1.357 0.946 0.054 0.125 0.054 0.25 0.054 0.375z"></path>
</symbol>
<symbol id="icon-pencil" viewBox="0 0 27 32">
<path class="path1" d="M6.482 27.429l1.625-1.625-4.196-4.196-1.625 1.625v1.911h2.286v2.286h1.911zM15.821 10.857c0-0.232-0.161-0.393-0.393-0.393-0.107 0-0.214 0.036-0.304 0.125l-9.679 9.679c-0.089 0.089-0.125 0.196-0.125 0.304 0 0.232 0.161 0.393 0.393 0.393 0.107 0 0.214-0.036 0.304-0.125l9.679-9.679c0.089-0.089 0.125-0.196 0.125-0.304zM14.857 7.429l7.429 7.429-14.857 14.857h-7.429v-7.429zM27.054 9.143c0 0.607-0.25 1.196-0.661 1.607l-2.964 2.964-7.429-7.429 2.964-2.946c0.411-0.429 1-0.679 1.607-0.679s1.196 0.25 1.625 0.679l4.196 4.179c0.411 0.429 0.661 1.018 0.661 1.625z"></path>
</symbol>
<symbol id="icon-comment" viewBox="0 0 32 32">
<path class="path1" d="M32 16c0 6.321-7.161 11.429-16 11.429-0.875 0-1.75-0.054-2.589-0.143-2.339 2.071-5.125 3.536-8.214 4.321-0.643 0.179-1.339 0.304-2.036 0.393-0.393 0.036-0.768-0.25-0.857-0.679v-0.018c-0.089-0.446 0.214-0.714 0.482-1.036 1.125-1.268 2.411-2.339 3.25-5.321-3.679-2.089-6.036-5.321-6.036-8.946 0-6.304 7.161-11.429 16-11.429s16 5.107 16 11.429z"></path>
</symbol>
<symbol id="icon-play" viewBox="0 0 25 32">
<path d="M24.714 16.554l-23.714 13.179c-0.554 0.304-1 0.036-1-0.589v-26.286c0-0.625 0.446-0.893 1-0.589l23.714 13.179c0.554 0.304 0.554 0.804 0 1.107z"></path>
</symbol>
<!--
Icomoon Free SVG Icons (Refer readme.txt for more info)
-->
<symbol id="icon-video" viewBox="0 0 32 32">
<path class="path1" d="M16 0c-8.837 0-16 7.163-16 16s7.163 16 16 16 16-7.163 16-16-7.163-16-16-16zM16 29c-7.18 0-13-5.82-13-13s5.82-13 13-13 13 5.82 13 13-5.82 13-13 13zM12 9l12 7-12 7z"></path>
</symbol>
<symbol id="icon-images" viewBox="0 0 36 32">
<path d="M34 4h-2v-2c0-1.1-0.9-2-2-2h-28c-1.1 0-2 0.9-2 2v24c0 1.1 0.9 2 2 2h2v2c0 1.1 0.9 2 2 2h28c1.1 0 2-0.9 2-2v-24c0-1.1-0.9-2-2-2zM4 6v20h-1.996c-0.001-0.001-0.003-0.002-0.004-0.004v-23.993c0.001-0.001 0.002-0.003 0.004-0.004h27.993c0.001 0.001 0.003 0.002 0.004 0.004v1.996h-24c-1.1 0-2 0.9-2 2v0zM34 29.996c-0.001 0.001-0.002 0.003-0.004 0.004h-27.993c-0.001-0.001-0.003-0.002-0.004-0.004v-23.993c0.001-0.001 0.002-0.003 0.004-0.004h27.993c0.001 0.001 0.003 0.002 0.004 0.004v23.993z"></path>
<path d="M30 11c0 1.657-1.343 3-3 3s-3-1.343-3-3 1.343-3 3-3 3 1.343 3 3z"></path>
<path d="M32 28h-24v-4l7-12 8 10h2l7-6z"></path>
</symbol>
<symbol id="icon-print" viewBox="0 0 32 32">
<path d="M8 2h16v4h-16v-4z"></path>
<path d="M30 8h-28c-1.1 0-2 0.9-2 2v10c0 1.1 0.9 2 2 2h6v8h16v-8h6c1.1 0 2-0.9 2-2v-10c0-1.1-0.9-2-2-2zM4 14c-1.105 0-2-0.895-2-2s0.895-2 2-2 2 0.895 2 2-0.895 2-2 2zM22 28h-12v-10h12v10z"></path>
</symbol>
<symbol id="icon-volume" viewBox="0 0 32 32">
<path d="M22.485 25.985c-0.384 0-0.768-0.146-1.061-0.439-0.586-0.586-0.586-1.535 0-2.121 4.094-4.094 4.094-10.755 0-14.849-0.586-0.586-0.586-1.536 0-2.121s1.536-0.586 2.121 0c2.55 2.55 3.954 5.94 3.954 9.546s-1.404 6.996-3.954 9.546c-0.293 0.293-0.677 0.439-1.061 0.439v0zM17.157 23.157c-0.384 0-0.768-0.146-1.061-0.439-0.586-0.586-0.586-1.535 0-2.121 2.534-2.534 2.534-6.658 0-9.192-0.586-0.586-0.586-1.536 0-2.121s1.535-0.586 2.121 0c3.704 3.704 3.704 9.731 0 13.435-0.293 0.293-0.677 0.439-1.061 0.439z"></path>
<path d="M13 30c-0.26 0-0.516-0.102-0.707-0.293l-7.707-7.707h-3.586c-0.552 0-1-0.448-1-1v-10c0-0.552 0.448-1 1-1h3.586l7.707-7.707c0.286-0.286 0.716-0.372 1.090-0.217s0.617 0.519 0.617 0.924v26c0 0.404-0.244 0.769-0.617 0.924-0.124 0.051-0.254 0.076-0.383 0.076z"></path>
</symbol>
<symbol id="icon-mute" viewBox="0 0 32 32">
<path d="M30 19.348v2.652h-2.652l-3.348-3.348-3.348 3.348h-2.652v-2.652l3.348-3.348-3.348-3.348v-2.652h2.652l3.348 3.348 3.348-3.348h2.652v2.652l-3.348 3.348 3.348 3.348z"></path>
<path d="M13 30c-0.26 0-0.516-0.102-0.707-0.293l-7.707-7.707h-3.586c-0.552 0-1-0.448-1-1v-10c0-0.552 0.448-1 1-1h3.586l7.707-7.707c0.286-0.286 0.716-0.372 1.090-0.217s0.617 0.519 0.617 0.924v26c0 0.404-0.244 0.769-0.617 0.924-0.124 0.051-0.254 0.076-0.383 0.076z"></path>
</symbol>
<symbol id="icon-user-plus" viewBox="0 0 32 32">
<path d="M12 23c0-4.726 2.996-8.765 7.189-10.319 0.509-1.142 0.811-2.411 0.811-3.681 0-4.971 0-9-6-9s-6 4.029-6 9c0 3.096 1.797 6.191 4 7.432v1.649c-6.784 0.555-12 3.888-12 7.918h12.416c-0.271-0.954-0.416-1.96-0.416-3z"></path>
<path d="M23 14c-4.971 0-9 4.029-9 9s4.029 9 9 9c4.971 0 9-4.029 9-9s-4.029-9-9-9zM28 24h-4v4h-2v-4h-4v-2h4v-4h2v4h4v2z"></path>
</symbol>
<symbol id="icon-pause" viewBox="0 0 32 32">
<path d="M4 4h10v24h-10zM18 4h10v24h-10z"></path>
</symbol>
<!--
Feather SVG Icons (Refer readme.txt for more info)
-->
<symbol id="icon-close" viewBox="0 0 32 32">
<path class="path1" d="M17.867 16l7.067-7.067c0.533-0.533 0.533-1.333 0-1.867s-1.333-0.533-1.867 0l-7.067 7.067-7.067-7.067c-0.533-0.533-1.333-0.533-1.867 0s-0.533 1.333 0 1.867l7.067 7.067-7.067 7.067c-0.533 0.533-0.533 1.333 0 1.867 0.267 0.267 0.533 0.4 0.933 0.4s0.667-0.133 0.933-0.4l7.067-7.067 7.067 7.067c0.267 0.267 0.667 0.4 0.933 0.4s0.667-0.133 0.933-0.4c0.533-0.533 0.533-1.333 0-1.867l-7.067-7.067z"></path>
</symbol>
<symbol id="icon-more" viewBox="0 0 32 32">
<path d="M18.667 16c0 1.473-1.194 2.667-2.667 2.667s-2.667-1.194-2.667-2.667c0-1.473 1.194-2.667 2.667-2.667s2.667 1.194 2.667 2.667z"></path>
<path d="M18.667 6.667c0 1.473-1.194 2.667-2.667 2.667s-2.667-1.194-2.667-2.667c0-1.473 1.194-2.667 2.667-2.667s2.667 1.194 2.667 2.667z"></path>
<path d="M18.667 25.333c0 1.473-1.194 2.667-2.667 2.667s-2.667-1.194-2.667-2.667c0-1.473 1.194-2.667 2.667-2.667s2.667 1.194 2.667 2.667z"></path>
</symbol>
<symbol id="icon-menu" viewBox="0 0 32 32">
<path d="M4 17.333h24c0.736 0 1.333-0.597 1.333-1.333s-0.597-1.333-1.333-1.333h-24c-0.736 0-1.333 0.597-1.333 1.333s0.597 1.333 1.333 1.333zM4 9.333h24c0.736 0 1.333-0.597 1.333-1.333s-0.597-1.333-1.333-1.333h-24c-0.736 0-1.333 0.597-1.333 1.333s0.597 1.333 1.333 1.333zM4 25.333h24c0.736 0 1.333-0.597 1.333-1.333s-0.597-1.333-1.333-1.333h-24c-0.736 0-1.333 0.597-1.333 1.333s0.597 1.333 1.333 1.333z"></path>
</symbol>
<symbol id="icon-search" viewBox="0 0 32 32">
<path d="M21.388 21.141c-0.045 0.035-0.089 0.073-0.132 0.116s-0.080 0.085-0.116 0.132c-1.677 1.617-3.959 2.611-6.473 2.611-2.577 0-4.909-1.043-6.6-2.733s-2.733-4.023-2.733-6.6 1.043-4.909 2.733-6.6 4.023-2.733 6.6-2.733 4.909 1.043 6.6 2.733 2.733 4.023 2.733 6.6c0 2.515-0.993 4.796-2.612 6.475zM28.943 27.057l-4.9-4.9c1.641-2.053 2.624-4.657 2.624-7.491 0-3.313-1.344-6.315-3.515-8.485s-5.172-3.515-8.485-3.515-6.315 1.344-8.485 3.515-3.515 5.172-3.515 8.485 1.344 6.315 3.515 8.485 5.172 3.515 8.485 3.515c2.833 0 5.437-0.983 7.491-2.624l4.9 4.9c0.521 0.521 1.365 0.521 1.885 0s0.521-1.365 0-1.885z"></path>
</symbol>
<!--
Genericons Neue Icons ( Refer readme.txt for more info )
-->
<symbol id="icon-sticky" viewBox="0 0 32 32">
<path d="M24 16c0-1-1-2-2-2h-1.2l-0.6-6c1-0.2 1.8-1 1.8-2s-1-2-2-2h-8c-1 0-2 1-2 2s0.8 1.8 1.8 2l-0.6 6h-1.2c-1 0-2 1-2 2v2h6v12l4-2v-10h6v-2z"></path>
</symbol>
<symbol id="icon-cart" viewBox="0 0 32 32">
<path d="M22 24c-1.2 0-2 0.8-2 2s0.8 2 2 2 2-0.8 2-2-0.8-2-2-2zM10 24c-1.2 0-2 0.8-2 2s0.8 2 2 2 2-0.8 2-2-0.8-2-2-2zM22 20h-12v-2h11.2c1.6 0 3-1 3.8-2.6l3-7.4h-18v-2c0-1.2-0.8-2-2-2h-4v2h4v14c0 1.2 0.8 2 2 2h14c0-1.2-0.8-2-2-2z"></path>
</symbol>
<symbol id="icon-flickity-button" viewBox="0 0 100 100">
<path d="M 10,50 L 60,100 L 70,90 L 30,50  L 70,10 L 60,0 Z" class="arrow"></path>
</symbol>
</defs>
</svg>
