<svg style="position: absolute; width: 0; height: 0; overflow: hidden;" version="1.1" xmlns="http://www.w3.org/2000/svg" xmlns:xlink="http://www.w3.org/1999/xlink">
<defs>
<symbol id="icon-search" viewBox="0 0 30 32">
<path class="path1" d="M20.571 14.857c0-4.411-3.589-8-8-8s-8 3.589-8 8 3.589 8 8 8 8-3.589 8-8zM29.714 29.714c0 1.25-1.036 2.286-2.286 2.286-0.607 0-1.196-0.25-1.607-0.679l-6.125-6.107c-2.089 1.446-4.589 2.214-7.125 2.214-6.946 0-12.571-5.625-12.571-12.571s5.625-12.571 12.571-12.571 12.571 5.625 12.571 12.571c0 2.536-0.768 5.036-2.214 7.125l6.125 6.125c0.411 0.411 0.661 1 0.661 1.607z"></path>
</symbol>
<symbol id="icon-angle-down" viewBox="0 0 18 32">
<path class="path1" d="M18.286 12.571c0 0.304-0.125 0.589-0.339 0.804l-8 8c-0.214 0.214-0.5 0.339-0.804 0.339s-0.589-0.125-0.804-0.339l-8-8c-0.214-0.214-0.339-0.5-0.339-0.804 0-0.625 0.518-1.143 1.143-1.143h16c0.625 0 1.143 0.518 1.143 1.143z"></path>
</symbol>
<symbol id="icon-angle-left" viewBox="0 0 12 32">
<path class="path1" d="M11.196 9.714c0 0.143-0.071 0.304-0.179 0.411l-7.018 7.018 7.018 7.018c0.107 0.107 0.179 0.268 0.179 0.411s-0.071 0.304-0.179 0.411l-0.893 0.893c-0.107 0.107-0.268 0.179-0.411 0.179s-0.304-0.071-0.411-0.179l-8.321-8.321c-0.107-0.107-0.179-0.268-0.179-0.411s0.071-0.304 0.179-0.411l8.321-8.321c0.107-0.107 0.268-0.179 0.411-0.179s0.304 0.071 0.411 0.179l0.893 0.893c0.107 0.107 0.179 0.25 0.179 0.411z"></path>
</symbol>
<symbol id="icon-angle-right" viewBox="0 0 11 32">
<path class="path1" d="M10.625 17.143c0 0.143-0.071 0.304-0.179 0.411l-8.321 8.321c-0.107 0.107-0.268 0.179-0.411 0.179s-0.304-0.071-0.411-0.179l-0.893-0.893c-0.107-0.107-0.179-0.25-0.179-0.411 0-0.143 0.071-0.304 0.179-0.411l7.018-7.018-7.018-7.018c-0.107-0.107-0.179-0.268-0.179-0.411s0.071-0.304 0.179-0.411l0.893-0.893c0.107-0.107 0.268-0.179 0.411-0.179s0.304 0.071 0.411 0.179l8.321 8.321c0.107 0.107 0.179 0.268 0.179 0.411z"></path>
</symbol>
<symbol id="icon-cart" viewBox="0 0 32 32">
<path class="path1" d="M22.688 24c1.438 0 2.625 1.25 2.625 2.688s-1.188 2.625-2.625 2.625-2.688-1.188-2.688-2.625 1.25-2.688 2.688-2.688zM1.313 2.688h4.375l1.25 2.625h19.75c0.75 0 1.313 0.625 1.313 1.375 0 0.25-0.063 0.438-0.188 0.625l-4.75 8.625c-0.438 0.813-1.313 1.375-2.313 1.375h-9.938l-1.188 2.188-0.063 0.188c0 0.188 0.125 0.313 0.313 0.313h15.438v2.688h-16c-1.438 0-2.625-1.25-2.625-2.688 0-0.438 0.125-0.875 0.313-1.25l1.813-3.313-4.813-10.125h-2.688v-2.625zM9.313 24c1.438 0 2.688 1.25 2.688 2.688s-1.25 2.625-2.688 2.625-2.625-1.188-2.625-2.625 1.188-2.688 2.625-2.688z"></path>
</symbol>
<symbol id="icon-bars" viewBox="0 0 24 32">
<path class="path1" d="M0 6v4h24v-4h-24zM0 18h24v-4h-24v4zM0 26h24v-4h-24v4z"></path>
</symbol>
<symbol id="icon-close" viewBox="0 0 20 32">
<path class="path1" d="M20 10l-4-4-6 6-6-6-4 4 6 6-6 6 4 4 6-6 6 6 4-4-6-6 6-6z"></path>
</symbol>
<symbol id="icon-user" viewBox="0 0 23 32">
<path class="path1" d="M22.857 24.982c0 2.607-1.714 4.732-3.804 4.732h-15.25c-2.089 0-3.804-2.125-3.804-4.732 0-4.696 1.161-10.125 5.839-10.125 1.446 1.411 3.411 2.286 5.589 2.286s4.143-0.875 5.589-2.286c4.679 0 5.839 5.429 5.839 10.125zM18.286 9.143c0 3.786-3.071 6.857-6.857 6.857s-6.857-3.071-6.857-6.857 3.071-6.857 6.857-6.857 6.857 3.071 6.857 6.857z"></path>
</symbol>
<symbol id="icon-mail-reply" viewBox="0 0 32 32">
<path class="path1" d="M32 20c0 2.5-1.25 5.768-2.268 8.054-0.196 0.411-0.393 0.982-0.661 1.357-0.125 0.179-0.25 0.304-0.5 0.304-0.357 0-0.571-0.286-0.571-0.625 0-0.286 0.071-0.607 0.089-0.893 0.054-0.732 0.089-1.464 0.089-2.196 0-8.518-5.054-10-12.75-10h-4v4.571c0 0.625-0.518 1.143-1.143 1.143-0.304 0-0.589-0.125-0.804-0.339l-9.143-9.143c-0.214-0.214-0.339-0.5-0.339-0.804s0.125-0.589 0.339-0.804l9.143-9.143c0.214-0.214 0.5-0.339 0.804-0.339 0.625 0 1.143 0.518 1.143 1.143v4.571h4c5.857 0 13.143 1.036 15.625 7.196 0.75 1.893 0.946 3.946 0.946 5.946z"></path>
</symbol>
</defs>
</svg>
