<svg style="position: absolute; width: 0; height: 0; overflow: hidden;" version="1.1" xmlns="http://www.w3.org/2000/svg" xmlns:xlink="http://www.w3.org/1999/xlink">
<defs>
<!--
Font Awesome SVG Icons (Refer readme.txt for more info)
-->
<symbol id="icon-search" viewBox="0 0 30 32">
<path class="path1" d="M20.571 14.857c0-4.411-3.589-8-8-8s-8 3.589-8 8 3.589 8 8 8 8-3.589 8-8zM29.714 29.714c0 1.25-1.036 2.286-2.286 2.286-0.607 0-1.196-0.25-1.607-0.679l-6.125-6.107c-2.089 1.446-4.589 2.214-7.125 2.214-6.946 0-12.571-5.625-12.571-12.571s5.625-12.571 12.571-12.571 12.571 5.625 12.571 12.571c0 2.536-0.768 5.036-2.214 7.125l6.125 6.125c0.411 0.411 0.661 1 0.661 1.607z"></path>
</symbol>
<symbol id="icon-angle-down" viewBox="0 0 18 32">
<path class="path1" d="M18.286 12.571c0 0.304-0.125 0.589-0.339 0.804l-8 8c-0.214 0.214-0.5 0.339-0.804 0.339s-0.589-0.125-0.804-0.339l-8-8c-0.214-0.214-0.339-0.5-0.339-0.804 0-0.625 0.518-1.143 1.143-1.143h16c0.625 0 1.143 0.518 1.143 1.143z"></path>
</symbol>
<symbol id="icon-angle-left" viewBox="0 0 12 32">
<path class="path1" d="M11.196 9.714c0 0.143-0.071 0.304-0.179 0.411l-7.018 7.018 7.018 7.018c0.107 0.107 0.179 0.268 0.179 0.411s-0.071 0.304-0.179 0.411l-0.893 0.893c-0.107 0.107-0.268 0.179-0.411 0.179s-0.304-0.071-0.411-0.179l-8.321-8.321c-0.107-0.107-0.179-0.268-0.179-0.411s0.071-0.304 0.179-0.411l8.321-8.321c0.107-0.107 0.268-0.179 0.411-0.179s0.304 0.071 0.411 0.179l0.893 0.893c0.107 0.107 0.179 0.25 0.179 0.411z"></path>
</symbol>
<symbol id="icon-angle-right" viewBox="0 0 11 32">
<path class="path1" d="M10.625 17.143c0 0.143-0.071 0.304-0.179 0.411l-8.321 8.321c-0.107 0.107-0.268 0.179-0.411 0.179s-0.304-0.071-0.411-0.179l-0.893-0.893c-0.107-0.107-0.179-0.25-0.179-0.411 0-0.143 0.071-0.304 0.179-0.411l7.018-7.018-7.018-7.018c-0.107-0.107-0.179-0.268-0.179-0.411s0.071-0.304 0.179-0.411l0.893-0.893c0.107-0.107 0.268-0.179 0.411-0.179s0.304 0.071 0.411 0.179l8.321 8.321c0.107 0.107 0.179 0.268 0.179 0.411z"></path>
</symbol>
<symbol id="icon-user" viewBox="0 0 23 32">
<path class="path1" d="M22.857 24.982c0 2.607-1.714 4.732-3.804 4.732h-15.25c-2.089 0-3.804-2.125-3.804-4.732 0-4.696 1.161-10.125 5.839-10.125 1.446 1.411 3.411 2.286 5.589 2.286s4.143-0.875 5.589-2.286c4.679 0 5.839 5.429 5.839 10.125zM18.286 9.143c0 3.786-3.071 6.857-6.857 6.857s-6.857-3.071-6.857-6.857 3.071-6.857 6.857-6.857 6.857 3.071 6.857 6.857z"></path>
</symbol>
<symbol id="icon-mail-reply" viewBox="0 0 32 32">
<path class="path1" d="M32 20c0 2.5-1.25 5.768-2.268 8.054-0.196 0.411-0.393 0.982-0.661 1.357-0.125 0.179-0.25 0.304-0.5 0.304-0.357 0-0.571-0.286-0.571-0.625 0-0.286 0.071-0.607 0.089-0.893 0.054-0.732 0.089-1.464 0.089-2.196 0-8.518-5.054-10-12.75-10h-4v4.571c0 0.625-0.518 1.143-1.143 1.143-0.304 0-0.589-0.125-0.804-0.339l-9.143-9.143c-0.214-0.214-0.339-0.5-0.339-0.804s0.125-0.589 0.339-0.804l9.143-9.143c0.214-0.214 0.5-0.339 0.804-0.339 0.625 0 1.143 0.518 1.143 1.143v4.571h4c5.857 0 13.143 1.036 15.625 7.196 0.75 1.893 0.946 3.946 0.946 5.946z"></path>
</symbol>
<symbol id="icon-music" viewBox="0 0 27 32">
<path class="path1" d="M27.429 4v20c0 2.518-3.768 3.429-5.714 3.429s-5.714-0.911-5.714-3.429 3.768-3.429 5.714-3.429c1.179 0 2.357 0.214 3.429 0.696v-9.589l-13.714 4.232v12.661c0 2.518-3.768 3.429-5.714 3.429s-5.714-0.911-5.714-3.429 3.768-3.429 5.714-3.429c1.179 0 2.357 0.214 3.429 0.696v-17.268c0-0.75 0.5-1.411 1.214-1.643l14.857-4.571c0.161-0.054 0.321-0.071 0.5-0.071 0.946 0 1.714 0.768 1.714 1.714z"></path>
</symbol>
<symbol id="icon-folder" viewBox="0 0 30 32">
<path class="path1" d="M29.714 10.857v12.571c0 2.196-1.804 4-4 4h-21.714c-2.196 0-4-1.804-4-4v-17.143c0-2.196 1.804-4 4-4h5.714c2.196 0 4 1.804 4 4v0.571h12c2.196 0 4 1.804 4 4z"></path>
</symbol>
<symbol id="icon-tags" viewBox="0 0 34 32">
<path class="path1" d="M8 8c0-1.268-1.018-2.286-2.286-2.286s-2.286 1.018-2.286 2.286 1.018 2.286 2.286 2.286 2.286-1.018 2.286-2.286zM27.054 18.286c0 0.607-0.25 1.196-0.661 1.607l-8.768 8.786c-0.429 0.411-1.018 0.661-1.625 0.661s-1.196-0.25-1.607-0.661l-12.768-12.786c-0.911-0.893-1.625-2.625-1.625-3.893v-7.429c0-1.25 1.036-2.286 2.286-2.286h7.429c1.268 0 3 0.714 3.911 1.625l12.768 12.75c0.411 0.429 0.661 1.018 0.661 1.625zM33.911 18.286c0 0.607-0.25 1.196-0.661 1.607l-8.768 8.786c-0.429 0.411-1.018 0.661-1.625 0.661-0.929 0-1.393-0.429-2-1.054l8.393-8.393c0.411-0.411 0.661-1 0.661-1.607s-0.25-1.196-0.661-1.625l-12.768-12.75c-0.911-0.911-2.643-1.625-3.911-1.625h4c1.268 0 3 0.714 3.911 1.625l12.768 12.75c0.411 0.429 0.661 1.018 0.661 1.625z"></path>
</symbol>
<symbol id="icon-long-arrow-right" viewBox="0 0 31 32">
<path class="path1" d="M30.857 15.946c0 0.161-0.071 0.321-0.179 0.429l-6.857 6.321c-0.179 0.161-0.411 0.196-0.625 0.107-0.196-0.089-0.339-0.286-0.339-0.518v-4h-22.286c-0.321 0-0.571-0.25-0.571-0.571v-3.429c0-0.321 0.25-0.571 0.571-0.571h22.286v-4c0-0.232 0.125-0.429 0.339-0.518s0.446-0.054 0.625 0.089l6.857 6.25c0.107 0.107 0.179 0.25 0.179 0.411v0z"></path>
</symbol>
<symbol id="icon-trash" viewBox="0 0 25 32">
<path class="path1" d="M9.143 13.143v10.286c0 0.321-0.25 0.571-0.571 0.571h-1.143c-0.321 0-0.571-0.25-0.571-0.571v-10.286c0-0.321 0.25-0.571 0.571-0.571h1.143c0.321 0 0.571 0.25 0.571 0.571zM13.714 13.143v10.286c0 0.321-0.25 0.571-0.571 0.571h-1.143c-0.321 0-0.571-0.25-0.571-0.571v-10.286c0-0.321 0.25-0.571 0.571-0.571h1.143c0.321 0 0.571 0.25 0.571 0.571zM18.286 13.143v10.286c0 0.321-0.25 0.571-0.571 0.571h-1.143c-0.321 0-0.571-0.25-0.571-0.571v-10.286c0-0.321 0.25-0.571 0.571-0.571h1.143c0.321 0 0.571 0.25 0.571 0.571zM20.571 26.071v-16.929h-16v16.929c0 0.857 0.482 1.357 0.571 1.357h14.857c0.089 0 0.571-0.5 0.571-1.357zM8.571 6.857h8l-0.857-2.089c-0.054-0.071-0.214-0.179-0.304-0.196h-5.661c-0.107 0.018-0.25 0.125-0.304 0.196zM25.143 7.429v1.143c0 0.321-0.25 0.571-0.571 0.571h-1.714v16.929c0 1.964-1.286 3.643-2.857 3.643h-14.857c-1.571 0-2.857-1.607-2.857-3.571v-17h-1.714c-0.321 0-0.571-0.25-0.571-0.571v-1.143c0-0.321 0.25-0.571 0.571-0.571h5.518l1.25-2.982c0.357-0.875 1.429-1.589 2.375-1.589h5.714c0.946 0 2.018 0.714 2.375 1.589l1.25 2.982h5.518c0.321 0 0.571 0.25 0.571 0.571z"></path>
</symbol>
<symbol id="icon-email" viewBox="0 0 32 32">
<path class="path1" d="M29.714 26.857v-13.714c-0.375 0.429-0.786 0.821-1.232 1.179-2.554 1.964-5.125 3.964-7.607 6.036-1.339 1.125-3 2.5-4.857 2.5h-0.036c-1.857 0-3.518-1.375-4.857-2.5-2.482-2.071-5.054-4.071-7.607-6.036-0.446-0.357-0.857-0.75-1.232-1.179v13.714c0 0.304 0.268 0.571 0.571 0.571h26.286c0.304 0 0.571-0.268 0.571-0.571zM29.714 8.089c0-0.446 0.107-1.232-0.571-1.232h-26.286c-0.304 0-0.571 0.268-0.571 0.571 0 2.036 1.018 3.804 2.625 5.071 2.393 1.875 4.786 3.768 7.161 5.661 0.946 0.768 2.661 2.411 3.911 2.411h0.036c1.25 0 2.964-1.643 3.911-2.411 2.375-1.893 4.768-3.786 7.161-5.661 1.161-0.911 2.625-2.893 2.625-4.411zM32 7.429v19.429c0 1.571-1.286 2.857-2.857 2.857h-26.286c-1.571 0-2.857-1.286-2.857-2.857v-19.429c0-1.571 1.286-2.857 2.857-2.857h26.286c1.571 0 2.857 1.286 2.857 2.857z"></path>
</symbol>
<symbol id="icon-phone" viewBox="0 0 25 32">
<path class="path1" d="M25.143 22.143c0 0.643-0.286 1.893-0.554 2.482-0.375 0.875-1.375 1.446-2.179 1.893-1.054 0.571-2.125 0.911-3.321 0.911-1.661 0-3.161-0.679-4.679-1.232-1.089-0.393-2.143-0.875-3.125-1.482-3.036-1.875-6.696-5.536-8.571-8.571-0.607-0.982-1.089-2.036-1.482-3.125-0.554-1.518-1.232-3.018-1.232-4.679 0-1.196 0.339-2.268 0.911-3.321 0.446-0.804 1.018-1.804 1.893-2.179 0.589-0.268 1.839-0.554 2.482-0.554 0.125 0 0.25 0 0.375 0.054 0.375 0.125 0.768 1 0.946 1.357 0.571 1.018 1.125 2.054 1.714 3.054 0.286 0.464 0.821 1.036 0.821 1.589 0 1.089-3.232 2.679-3.232 3.643 0 0.482 0.446 1.107 0.696 1.536 1.804 3.25 4.054 5.5 7.304 7.304 0.429 0.25 1.054 0.696 1.536 0.696 0.964 0 2.554-3.232 3.643-3.232 0.554 0 1.125 0.536 1.589 0.821 1 0.589 2.036 1.143 3.054 1.714 0.357 0.179 1.232 0.571 1.357 0.946 0.054 0.125 0.054 0.25 0.054 0.375z"></path>
</symbol>
<symbol id="icon-pencil" viewBox="0 0 27 32">
<path class="path1" d="M6.482 27.429l1.625-1.625-4.196-4.196-1.625 1.625v1.911h2.286v2.286h1.911zM15.821 10.857c0-0.232-0.161-0.393-0.393-0.393-0.107 0-0.214 0.036-0.304 0.125l-9.679 9.679c-0.089 0.089-0.125 0.196-0.125 0.304 0 0.232 0.161 0.393 0.393 0.393 0.107 0 0.214-0.036 0.304-0.125l9.679-9.679c0.089-0.089 0.125-0.196 0.125-0.304zM14.857 7.429l7.429 7.429-14.857 14.857h-7.429v-7.429zM27.054 9.143c0 0.607-0.25 1.196-0.661 1.607l-2.964 2.964-7.429-7.429 2.964-2.946c0.411-0.429 1-0.679 1.607-0.679s1.196 0.25 1.625 0.679l4.196 4.179c0.411 0.429 0.661 1.018 0.661 1.625z"></path>
</symbol>
<symbol id="icon-comment" viewBox="0 0 32 32">
<path class="path1" d="M32 16c0 6.321-7.161 11.429-16 11.429-0.875 0-1.75-0.054-2.589-0.143-2.339 2.071-5.125 3.536-8.214 4.321-0.643 0.179-1.339 0.304-2.036 0.393-0.393 0.036-0.768-0.25-0.857-0.679v-0.018c-0.089-0.446 0.214-0.714 0.482-1.036 1.125-1.268 2.411-2.339 3.25-5.321-3.679-2.089-6.036-5.321-6.036-8.946 0-6.304 7.161-11.429 16-11.429s16 5.107 16 11.429z"></path>
</symbol>
<symbol id="icon-cart" viewBox="0 0 30 32">
<path class="path1" d="M11.429 27.429c0 1.25-1.036 2.286-2.286 2.286s-2.286-1.036-2.286-2.286 1.036-2.286 2.286-2.286 2.286 1.036 2.286 2.286zM27.429 27.429c0 1.25-1.036 2.286-2.286 2.286s-2.286-1.036-2.286-2.286 1.036-2.286 2.286-2.286 2.286 1.036 2.286 2.286zM29.714 8v9.143c0 0.571-0.446 1.071-1.018 1.143l-18.643 2.179c0.089 0.411 0.232 0.821 0.232 1.25 0 0.411-0.25 0.786-0.429 1.143h16.429c0.625 0 1.143 0.518 1.143 1.143s-0.518 1.143-1.143 1.143h-18.286c-0.625 0-1.143-0.518-1.143-1.143 0-0.554 0.804-1.893 1.089-2.446l-3.161-14.696h-3.643c-0.625 0-1.143-0.518-1.143-1.143s0.518-1.143 1.143-1.143h4.571c1.196 0 1.232 1.429 1.411 2.286h21.446c0.625 0 1.143 0.518 1.143 1.143z"></path>
</symbol>
<!--
Icomoon Free SVG Icons (Refer readme.txt for more info)
-->
<symbol id="icon-video" viewBox="0 0 32 32">
<path class="path1" d="M16 0c-8.837 0-16 7.163-16 16s7.163 16 16 16 16-7.163 16-16-7.163-16-16-16zM16 29c-7.18 0-13-5.82-13-13s5.82-13 13-13 13 5.82 13 13-5.82 13-13 13zM12 9l12 7-12 7z"></path>
</symbol>
<symbol id="icon-images" viewBox="0 0 36 32">
<path d="M34 4h-2v-2c0-1.1-0.9-2-2-2h-28c-1.1 0-2 0.9-2 2v24c0 1.1 0.9 2 2 2h2v2c0 1.1 0.9 2 2 2h28c1.1 0 2-0.9 2-2v-24c0-1.1-0.9-2-2-2zM4 6v20h-1.996c-0.001-0.001-0.003-0.002-0.004-0.004v-23.993c0.001-0.001 0.002-0.003 0.004-0.004h27.993c0.001 0.001 0.003 0.002 0.004 0.004v1.996h-24c-1.1 0-2 0.9-2 2v0zM34 29.996c-0.001 0.001-0.002 0.003-0.004 0.004h-27.993c-0.001-0.001-0.003-0.002-0.004-0.004v-23.993c0.001-0.001 0.002-0.003 0.004-0.004h27.993c0.001 0.001 0.003 0.002 0.004 0.004v23.993z"></path>
<path d="M30 11c0 1.657-1.343 3-3 3s-3-1.343-3-3 1.343-3 3-3 3 1.343 3 3z"></path>
<path d="M32 28h-24v-4l7-12 8 10h2l7-6z"></path>
</symbol>
<symbol id="icon-print" viewBox="0 0 32 32">
<path d="M8 2h16v4h-16v-4z"></path>
<path d="M30 8h-28c-1.1 0-2 0.9-2 2v10c0 1.1 0.9 2 2 2h6v8h16v-8h6c1.1 0 2-0.9 2-2v-10c0-1.1-0.9-2-2-2zM4 14c-1.105 0-2-0.895-2-2s0.895-2 2-2 2 0.895 2 2-0.895 2-2 2zM22 28h-12v-10h12v10z"></path>
</symbol>
<symbol id="icon-sticky" viewBox="0 0 32 32">
<path d="M17 0l-3 3 3 3-7 8h-7l5.5 5.5-8.5 11.269v1.231h1.231l11.269-8.5 5.5 5.5v-7l8-7 3 3 3-3-15-15zM14 17l-2-2 7-7 2 2-7 7z"></path>
</symbol>
<!--
Feather SVG Icons (Refer readme.txt for more info)
-->
<symbol id="icon-close" viewBox="0 0 32 32">
<path class="path1" d="M17.867 16l7.067-7.067c0.533-0.533 0.533-1.333 0-1.867s-1.333-0.533-1.867 0l-7.067 7.067-7.067-7.067c-0.533-0.533-1.333-0.533-1.867 0s-0.533 1.333 0 1.867l7.067 7.067-7.067 7.067c-0.533 0.533-0.533 1.333 0 1.867 0.267 0.267 0.533 0.4 0.933 0.4s0.667-0.133 0.933-0.4l7.067-7.067 7.067 7.067c0.267 0.267 0.667 0.4 0.933 0.4s0.667-0.133 0.933-0.4c0.533-0.533 0.533-1.333 0-1.867l-7.067-7.067z"></path>
</symbol>
<symbol id="icon-more" viewBox="0 0 32 32">
<path d="M18.667 16c0 1.473-1.194 2.667-2.667 2.667s-2.667-1.194-2.667-2.667c0-1.473 1.194-2.667 2.667-2.667s2.667 1.194 2.667 2.667z"></path>
<path d="M18.667 6.667c0 1.473-1.194 2.667-2.667 2.667s-2.667-1.194-2.667-2.667c0-1.473 1.194-2.667 2.667-2.667s2.667 1.194 2.667 2.667z"></path>
<path d="M18.667 25.333c0 1.473-1.194 2.667-2.667 2.667s-2.667-1.194-2.667-2.667c0-1.473 1.194-2.667 2.667-2.667s2.667 1.194 2.667 2.667z"></path>
</symbol>
</defs>
</svg>
