<?xml version="1.0" encoding="utf-8"?>
<!-- Generator: Adobe Illustrator 19.2.1, SVG Export Plug-In . SVG Version: 6.00 Build 0)  -->
<svg version="1.1" id="Capa_1" xmlns="http://www.w3.org/2000/svg" xmlns:xlink="http://www.w3.org/1999/xlink" x="0px" y="0px"
	 viewBox="0 0 16 16" style="enable-background:new 0 0 16 16;" xml:space="preserve">
<style type="text/css">
	.st0{fill:#CDDC39;}
</style>
<path id="Fill-17" class="st0" d="M15.4,3.4L10.8,8l4.6,4.6c0.6,0.9,0.4,2.2-0.5,2.8c-0.7,0.5-1.6,0.5-2.3,0L8,10.8l-4.6,4.6
	c-0.6,0.9-1.9,1.1-2.8,0.5c-0.9-0.6-1.1-1.9-0.5-2.8c0.1-0.2,0.3-0.4,0.5-0.5L5.2,8L0.6,3.4c-0.6-0.9-0.4-2.2,0.5-2.8
	c0.7-0.5,1.6-0.5,2.3,0L8,5.2l4.6-4.6c0.6-0.9,1.9-1.1,2.8-0.5s1.1,1.9,0.5,2.8C15.8,3,15.6,3.2,15.4,3.4"/>
</svg>
