<?xml version="1.0" encoding="UTF-8" standalone="no"?>
<svg width="1440px" height="635px" viewBox="0 0 1440 635" version="1.1" xmlns="http://www.w3.org/2000/svg" xmlns:xlink="http://www.w3.org/1999/xlink">
    <!-- Generator: Sketch 48.2 (47327) - http://www.bohemiancoding.com/sketch -->
    <title>bck_waves2</title>
    <desc>Created with Sketch.</desc>
    <defs></defs>
    <g id="Page-1" stroke="none" stroke-width="1" fill="none" fill-rule="evenodd">
        <g id="bck_waves2" fill="#000000" fill-rule="nonzero">
            <path d="M4.79616347e-13,570.576853 C410.863256,607.501848 672.535131,554.974717 785.015625,412.995458 C964.348958,186.630753 1182.67708,55.2989341 1440,19 L1440,635 L0,635 L4.79616347e-13,570.576853 Z" id="Rectangle-3" fill-opacity="0.0399999991"></path>
            <path d="M0,558.369331 C458.184002,605.609036 731.169679,556.6633 818.957031,411.532122 C959.623698,178.980184 1166.63802,48.1361434 1440,19 L1440,635 L0,635 L0,558.369331 Z" id="Rectangle-3-Copy" fill-opacity="0.0199999996"></path>
            <path d="M0,558.407248 C386.181206,592.748466 645.500217,540.490627 777.957031,401.633731 C983.290365,186.379052 1203.97135,52.5011414 1440,0 L1440,635 L0,635 L0,558.407248 Z" id="Rectangle-3-Copy-2" fill-opacity="0.0399999991"></path>
        </g>
    </g>
</svg>