<?xml version="1.0" encoding="utf-8"?>
<!DOCTYPE svg PUBLIC "-//W3C//DTD SVG 1.1//EN" "http://www.w3.org/Graphics/SVG/1.1/DTD/svg11.dtd">
<svg version="1.1" id="Layer_1" xmlns="http://www.w3.org/2000/svg" xmlns:xlink="http://www.w3.org/1999/xlink" x="0px" y="0px"
	 viewBox="0 0 50 50" style="enable-background:new 0 0 50 50;" xml:space="preserve">
<style type="text/css">
	.st0{fill:#CFCFCF;}
</style>
<g>
	<path class="st0" d="M35.2,17.8h-10c-0.5,1.3-1.6,2.2-2.9,2.2h-8.8c-0.1,0-0.2,0-0.3,0v12.5c0,0.9,0.8,1.7,1.7,1.7h20.4
		c0.9,0,1.7-0.8,1.7-1.7v-13C36.9,18.6,36.1,17.8,35.2,17.8z"/>
	<path class="st0" d="M25,1.1C11.8,1.1,1.1,11.8,1.1,25S11.8,48.9,25,48.9S48.9,38.2,48.9,25S38.2,1.1,25,1.1z M39.7,32.5
		c0,2.5-2,4.5-4.5,4.5H14.8c-2.5,0-4.5-2-4.5-4.5v-16l0,0c0,0,0,0,0,0c0-3.1,0.7-4.8,3.3-4.8h8.7c1.7,0,2.7,1.2,2.9,3.3h10
		c2.5,0,4.5,2,4.5,4.5V32.5z"/>
</g>
</svg>
