<?xml version="1.0" encoding="utf-8"?>
<!DOCTYPE svg PUBLIC "-//W3C//DTD SVG 1.1//EN" "http://www.w3.org/Graphics/SVG/1.1/DTD/svg11.dtd">
<svg version="1.1" id="Layer_1" xmlns="http://www.w3.org/2000/svg" xmlns:xlink="http://www.w3.org/1999/xlink" x="0px" y="0px"
	 viewBox="0 0 50 50" style="enable-background:new 0 0 50 50;" xml:space="preserve">
<style type="text/css">
	.st0{fill:#CFCFCF;}
</style>
<g>
	<path class="st0" d="M25,1.1C11.8,1.1,1.1,11.8,1.1,25S11.8,48.9,25,48.9S48.9,38.2,48.9,25S38.2,1.1,25,1.1z M40.2,26.8
		c0,3.5-2.8,6.3-6.3,6.3H25l-2.5,7.5c-0.2,0.5-0.7,0.9-1.3,0.9c0,0,0,0,0,0c-0.6,0-1.1-0.3-1.3-0.9l-3-7.5h-0.8
		c-3.5,0-6.3-2.8-6.3-6.3V18c0-3.5,2.8-6.3,6.3-6.3h17.8c3.5,0,6.3,2.8,6.3,6.3V26.8z"/>
	<path class="st0" d="M33.9,14.4H16.1c-2,0-3.6,1.6-3.6,3.6v8.8c0,2,1.6,3.6,3.6,3.6h1.7c0.6,0,1.1,0.3,1.3,0.9l2,4.9l1.6-4.9
		c0.2-0.6,0.7-0.9,1.3-0.9h9.8c2,0,3.6-1.6,3.6-3.6V18C37.4,16,35.8,14.4,33.9,14.4z"/>
</g>
</svg>
