<svg style="position: absolute; width: 0; height: 0; overflow: hidden;" version="1.1" xmlns="http://www.w3.org/2000/svg" xmlns:xlink="http://www.w3.org/1999/xlink">
<defs>
<symbol id="icon-folder-open" viewBox="0 0 34 32">
<path class="path1" d="M33.554 17q0 0.554-0.554 1.179l-6 7.071q-0.768 0.911-2.152 1.545t-2.563 0.634h-19.429q-0.607 0-1.080-0.232t-0.473-0.768q0-0.554 0.554-1.179l6-7.071q0.768-0.911 2.152-1.545t2.563-0.634h19.429q0.607 0 1.080 0.232t0.473 0.768zM27.429 10.857v2.857h-14.857q-1.679 0-3.518 0.848t-2.929 2.134l-6.107 7.179q0-0.071-0.009-0.223t-0.009-0.223v-17.143q0-1.643 1.179-2.821t2.821-1.179h5.714q1.643 0 2.821 1.179t1.179 2.821v0.571h9.714q1.643 0 2.821 1.179t1.179 2.821z"></path>
</symbol>
<symbol id="icon-github" viewBox="0 0 27 32">
<path class="path1" d="M13.714 2.286q3.732 0 6.884 1.839t4.991 4.991 1.839 6.884q0 4.482-2.616 8.063t-6.759 4.955q-0.482 0.089-0.714-0.125t-0.232-0.536q0-0.054 0.009-1.366t0.009-2.402q0-1.732-0.929-2.536 1.018-0.107 1.83-0.321t1.679-0.696 1.446-1.188 0.946-1.875 0.366-2.688q0-2.125-1.411-3.679 0.661-1.625-0.143-3.643-0.5-0.161-1.446 0.196t-1.643 0.786l-0.679 0.429q-1.661-0.464-3.429-0.464t-3.429 0.464q-0.286-0.196-0.759-0.482t-1.491-0.688-1.518-0.241q-0.804 2.018-0.143 3.643-1.411 1.554-1.411 3.679 0 1.518 0.366 2.679t0.938 1.875 1.438 1.196 1.679 0.696 1.83 0.321q-0.696 0.643-0.875 1.839-0.375 0.179-0.804 0.268t-1.018 0.089-1.17-0.384-0.991-1.116q-0.339-0.571-0.866-0.929t-0.884-0.429l-0.357-0.054q-0.375 0-0.518 0.080t-0.089 0.205 0.161 0.25 0.232 0.214l0.125 0.089q0.393 0.179 0.777 0.679t0.563 0.911l0.179 0.411q0.232 0.679 0.786 1.098t1.196 0.536 1.241 0.125 0.991-0.063l0.411-0.071q0 0.679 0.009 1.58t0.009 0.973q0 0.321-0.232 0.536t-0.714 0.125q-4.143-1.375-6.759-4.955t-2.616-8.063q0-3.732 1.839-6.884t4.991-4.991 6.884-1.839zM5.196 21.982q0.054-0.125-0.125-0.214-0.179-0.054-0.232 0.036-0.054 0.125 0.125 0.214 0.161 0.107 0.232-0.036zM5.75 22.589q0.125-0.089-0.036-0.286-0.179-0.161-0.286-0.054-0.125 0.089 0.036 0.286 0.179 0.179 0.286 0.054zM6.286 23.393q0.161-0.125 0-0.339-0.143-0.232-0.304-0.107-0.161 0.089 0 0.321t0.304 0.125zM7.036 24.143q0.143-0.143-0.071-0.339-0.214-0.214-0.357-0.054-0.161 0.143 0.071 0.339 0.214 0.214 0.357 0.054zM8.054 24.589q0.054-0.196-0.232-0.286-0.268-0.071-0.339 0.125t0.232 0.268q0.268 0.107 0.339-0.107zM9.179 24.679q0-0.232-0.304-0.196-0.286 0-0.286 0.196 0 0.232 0.304 0.196 0.286 0 0.286-0.196zM10.214 24.5q-0.036-0.196-0.321-0.161-0.286 0.054-0.25 0.268t0.321 0.143 0.25-0.25z"></path>
</symbol>
<symbol id="icon-twitter" viewBox="0 0 30 32">
<path class="path1" d="M28.929 7.286q-1.196 1.75-2.893 2.982 0.018 0.25 0.018 0.75 0 2.321-0.679 4.634t-2.063 4.437-3.295 3.759-4.607 2.607-5.768 0.973q-4.839 0-8.857-2.589 0.625 0.071 1.393 0.071 4.018 0 7.161-2.464-1.875-0.036-3.357-1.152t-2.036-2.848q0.589 0.089 1.089 0.089 0.768 0 1.518-0.196-2-0.411-3.313-1.991t-1.313-3.67v-0.071q1.214 0.679 2.607 0.732-1.179-0.786-1.875-2.054t-0.696-2.75q0-1.571 0.786-2.911 2.161 2.661 5.259 4.259t6.634 1.777q-0.143-0.679-0.143-1.321 0-2.393 1.688-4.080t4.080-1.688q2.5 0 4.214 1.821 1.946-0.375 3.661-1.393-0.661 2.054-2.536 3.179 1.661-0.179 3.321-0.893z"></path>
</symbol>
<symbol id="icon-bars" viewBox="0 0 24 24">
<path d="M5,21 L5,1 L7,1 L7,2 L21.1247446,2 L18.1259893,7.99991055 L21.126034,14 L7,14 L7,21 L8,21 L8,23 L4,23 L4,21 L5,21 Z M7,12 L17.889966,12 L15.8900107,8.00008945 L17.8892554,4 L7,4 L7,12 Z"/>
</symbol>
<symbol id="icon-chain" viewBox="0 0 30 32">
<path class="path1" d="M26 21.714q0-0.714-0.5-1.214l-3.714-3.714q-0.5-0.5-1.214-0.5-0.75 0-1.286 0.571 0.054 0.054 0.339 0.33t0.384 0.384 0.268 0.339 0.232 0.455 0.063 0.491q0 0.714-0.5 1.214t-1.214 0.5q-0.268 0-0.491-0.063t-0.455-0.232-0.339-0.268-0.384-0.384-0.33-0.339q-0.589 0.554-0.589 1.304 0 0.714 0.5 1.214l3.679 3.696q0.482 0.482 1.214 0.482 0.714 0 1.214-0.464l2.625-2.607q0.5-0.5 0.5-1.196zM13.446 9.125q0-0.714-0.5-1.214l-3.679-3.696q-0.5-0.5-1.214-0.5-0.696 0-1.214 0.482l-2.625 2.607q-0.5 0.5-0.5 1.196 0 0.714 0.5 1.214l3.714 3.714q0.482 0.482 1.214 0.482 0.75 0 1.286-0.554-0.054-0.054-0.339-0.33t-0.384-0.384-0.268-0.339-0.232-0.455-0.063-0.491q0-0.714 0.5-1.214t1.214-0.5q0.268 0 0.491 0.063t0.455 0.232 0.339 0.268 0.384 0.384 0.33 0.339q0.589-0.554 0.589-1.304zM29.429 21.714q0 2.143-1.518 3.625l-2.625 2.607q-1.482 1.482-3.625 1.482-2.161 0-3.643-1.518l-3.679-3.696q-1.482-1.482-1.482-3.625 0-2.196 1.571-3.732l-1.571-1.571q-1.536 1.571-3.714 1.571-2.143 0-3.643-1.5l-3.714-3.714q-1.5-1.5-1.5-3.643t1.518-3.625l2.625-2.607q1.482-1.482 3.625-1.482 2.161 0 3.643 1.518l3.679 3.696q1.482 1.482 1.482 3.625 0 2.196-1.571 3.732l1.571 1.571q1.536-1.571 3.714-1.571 2.143 0 3.643 1.5l3.714 3.714q1.5 1.5 1.5 3.643z"></path>
</symbol>
<symbol id="icon-thumb-tack" viewBox="0 0 21 32">
<path class="path1" d="M8.571 15.429v-8q0-0.25-0.161-0.411t-0.411-0.161-0.411 0.161-0.161 0.411v8q0 0.25 0.161 0.411t0.411 0.161 0.411-0.161 0.161-0.411zM20.571 21.714q0 0.464-0.339 0.804t-0.804 0.339h-7.661l-0.911 8.625q-0.036 0.214-0.188 0.366t-0.366 0.152h-0.018q-0.482 0-0.571-0.482l-1.357-8.661h-7.214q-0.464 0-0.804-0.339t-0.339-0.804q0-2.196 1.402-3.955t3.17-1.759v-9.143q-0.929 0-1.607-0.679t-0.679-1.607 0.679-1.607 1.607-0.679h11.429q0.929 0 1.607 0.679t0.679 1.607-0.679 1.607-1.607 0.679v9.143q1.768 0 3.17 1.759t1.402 3.955z"></path>
</symbol>
<symbol id="icon-time" viewBox="0 0 24 24">
  <path class="path1" d="M12,23 C5.92486775,23 1,18.0751322 1,12 C1,5.92486775 5.92486775,1 12,1 C18.0751322,1 23,5.92486775 23,12 C23,18.0751322 18.0751322,23 12,23 Z M12,21 C16.9705627,21 21,16.9705627 21,12 C21,7.02943725 16.9705627,3 12,3 C7.02943725,3 3,7.02943725 3,12 C3,16.9705627 7.02943725,21 12,21 Z M13,11 L17,11 L17,13 L11,13 L11,6 L13,6 L13,11 Z"/>
</symbol>
<symbol id="icon-user" viewBox="0 0 511 512"><path d="m262.5 472h-201.308594c-8.539062 0-13.6875-4.765625-16-7.605469-3.988281-4.90625-5.53125-11.289062-4.234375-17.519531 20.769531-99.765625 108.8125-172.617188 210.453125-174.980469 1.6875.0625 3.382813.105469 5.089844.105469 74.988281 0 136-61.007812 136-136s-61.011719-136-136-136c-74.992188 0-136 61.007812-136 136 0 44.507812 21.492188 84.09375 54.644531 108.917969-30.371093 9.996093-58.875 25.546875-83.816406 46.0625-45.730469 37.617187-77.527344 90.085937-89.53125 147.742187-3.761719 18.066406.746094 36.621094 12.363281 50.910156 11.558594 14.214844 28.703125 22.367188 47.03125 22.367188h201.308594c11.042969 0 20-8.953125 20-20s-8.957031-20-20-20zm-102-336c0-52.933594 43.0625-96 96-96 52.933594 0 96 43.066406 96 96 0 52.175781-41.839844 94.761719-93.730469 95.972656-.746093-.085937-1.5-.140625-2.269531-.140625-1.5625 0-3.121094.023438-4.679688.050781-50.769531-2.445312-91.320312-44.515624-91.320312-95.882812zm352 275.980469c0 11.046875-8.957031 20-20 20h-150c-11.046875 0-20-8.953125-20-20 0-11.042969 8.953125-20 20-20h150c11.042969 0 20 8.957031 20 20zm-170-99.980469h150c11.042969 0 20 8.953125 20 20s-8.957031 20-20 20h-150c-11.046875 0-20-8.953125-20-20s8.953125-20 20-20zm170 180c0 11.046875-8.957031 20-20 20h-150c-11.046875 0-20-8.953125-20-20s8.953125-20 20-20h150c11.042969 0 20 8.953125 20 20zm0 0"/>
</symbol>
<symbol id="icon-comment" viewBox="0 0 29.338 26.127">
<path d="m27.184,0h-25.028c-1.189,0-2.156,.967-2.156,2.155v17.572c0,1.188 .967,2.155 2.156,2.155h13.543l5.057,3.777c.414,.31 .842,.468 1.268,.468 .789,0 1.639-.602 1.637-1.923v-2.322h3.523c1.188,0 2.154-.967 2.154-2.155v-17.572c0-1.188-.967-2.155-2.154-2.155zm.156,19.727c0,.085-.068,.155-.154,.155h-5.523v3.955l-5.297-3.956h-14.21c-.086,0-.154-.07-.154-.155v-17.572c0-.085 .068-.155 .154-.155v.001h25.029c.086,0 .154,.07 .154,.155v17.572zm-21.835-10.54h4.334v4.333h-4.334v-4.333zm7,0h4.334v4.333h-4.334v-4.333zm7,0h4.334v4.333h-4.334v-4.333z"/>
</symbol>
<symbol id="icon-tags" viewBox="0 0 482.4 482.4">
<path d="M458.6,23.786c-14.5-14.5-34.5-22.9-56.3-23.7c-20.7-0.8-41.9,5-61.1,16.8c-8.5,5.2-11.2,16.3-6,24.7
	c5.2,8.5,16.3,11.2,24.7,6c26.1-16,56.2-15.3,73.2,1.7c10,10,14.6,24.5,12.9,40.8c-1.8,17.7-10.5,35.1-24.5,49.1
	s-31.5,22.7-49.1,24.5c-16.3,1.6-30.8-3-40.8-12.9c-6.5-6.5-15.1-10-24.2-10c-9.2,0-17.8,3.6-24.3,10c-6.5,6.5-10,15.1-10,24.3
	s3.6,17.8,10.1,24.3s15.1,10,24.2,10c9.2,0,17.8-3.6,24.3-10c1.4-1.4,2.7-2.9,3.8-4.5c9.5,3.4,19.7,5.2,30.5,5.2
	c3.3,0,6.7-0.2,10.1-0.5c0.3,0,0.6-0.1,0.9-0.1l3.1,44.9c0.7,10.2-3.1,20.2-10.3,27.5l-167.7,167.5c-9.4,9.4-24.8,9.4-34.2,0
	L43,314.486c-4.6-4.6-7.1-10.7-7.1-17.1c0-6.5,2.5-12.5,7.1-17.1l167.6-167.6c7.2-7.2,17.2-11,27.4-10.3l148.9,9.9
	c9.9,0.7,18.5-6.8,19.2-16.8c0.7-9.9-6.8-18.5-16.8-19.2l-148.9-9.9c-20.5-1.4-40.7,6.2-55.2,20.8l-167.6,167.6
	c-11.4,11.4-17.6,26.5-17.6,42.6c0,16.1,6.3,31.2,17.6,42.6l124.8,124.8c11.7,11.7,27.2,17.6,42.6,17.6c15.4,0,30.8-5.9,42.6-17.6
	l167.6-167.6c14.6-14.6,22.2-34.8,20.8-55.4l-3.6-52.6c12.6-6,24.3-14.3,34.7-24.6c19.8-19.8,32.2-45,34.8-70.9
	C484.6,66.386,476.3,41.586,458.6,23.786z"/>
</symbol>
<symbol id="icon-edit" viewBox="0 0 24 24">
  <path d="M14.8024118,6.44526791 L8.69610276,12.549589 C8.29095108,12.9079238 8.04030835,13.4092335 8,13.8678295 L8,16.0029438 L10.0639829,16.004826 C10.5982069,15.9670062 11.0954869,15.7183782 11.4947932,15.2616227 L17.556693,9.19972295 L14.8024118,6.44526791 Z M16.2168556,5.0312846 L18.9709065,7.78550938 L19.8647941,6.89162181 C19.9513987,6.80501747 20.0000526,6.68755666 20.0000526,6.56507948 C20.0000526,6.4426023 19.9513987,6.32514149 19.8647932,6.23853626 L17.7611243,4.13485646 C17.6754884,4.04854589 17.5589355,4 17.43735,4 C17.3157645,4 17.1992116,4.04854589 17.1135757,4.13485646 L16.2168556,5.0312846 Z M22,13 L22,20 C22,21.1045695 21.1045695,22 20,22 L4,22 C2.8954305,22 2,21.1045695 2,20 L2,4 C2,2.8954305 2.8954305,2 4,2 L11,2 L11,4 L4,4 L4,20 L20,20 L20,13 L22,13 Z M17.43735,2 C18.0920882,2 18.7197259,2.26141978 19.1781068,2.7234227 L21.2790059,4.82432181 C21.7406843,5.28599904 22.0000526,5.91216845 22.0000526,6.56507948 C22.0000526,7.21799052 21.7406843,7.84415992 21.2790068,8.30583626 L12.9575072,16.6237545 C12.2590245,17.4294925 11.2689,17.9245308 10.1346,18.0023295 L6,18.0023295 L6,17.0023295 L6.00324765,13.7873015 C6.08843822,12.7328366 6.57866679,11.7523321 7.32649633,11.0934196 L15.6953877,2.72462818 C16.1563921,2.2608295 16.7833514,2 17.43735,2 Z"/>
</symbol>
<symbol id="icon-home" viewBox="-51 0 512 512"><path d="m205.117188 0c-113.101563 0-205.117188 92.015625-205.117188 205.117188v5.667968c0 57.199219 32.792969 123.855469 97.472656 198.113282 46.886719 53.832031 93.121094 91.367187 95.066406 92.941406l12.578126 10.160156 12.574218-10.160156c1.945313-1.574219 48.175782-39.109375 95.066406-92.941406 64.679688-74.257813 97.472657-140.914063 97.472657-198.113282v-5.667968c0-113.101563-92.015625-205.117188-205.113281-205.117188zm165.089843 210.785156c0 96.664063-124.550781 213.679688-165.089843 249.203125-40.554688-35.535156-165.09375-152.542969-165.09375-249.203125v-5.667968c0-91.035157 74.058593-165.09375 165.09375-165.09375 91.03125 0 165.089843 74.058593 165.089843 165.09375zm-185.101562-14.675781h40.019531v40.023437h-40.019531zm20.519531-114.136719-121.5 110.839844 26.9375 29.527344v36.804687c0 27.585938 22.441406 50.03125 50.027344 50.03125h90.050781c27.585937 0 50.027344-22.445312 50.027344-50.03125v-37.886719l25.953125-28.445312zm45.515625 187.179688h-90.050781c-5.515625 0-10.003906-4.488282-10.003906-10.007813v-73.242187l54.539062-49.753906 55.523438 50.652343v72.34375c0 5.519531-4.488282 10.007813-10.007813 10.007813zm0 0"/>
</symbol>
<symbol id="icon-qzone" viewBox="0, 0, 300, 300"><path d="M148.075 17.702c-1.367.559-5.218 4.658-5.218 5.59 0 .31-6.025 13.106-13.416 28.385-7.391 15.28-13.727 28.634-14.099 29.689-.311.994-.87 2.174-1.118 2.547-.311.373-2.05 3.727-3.913 7.453-1.988 4.1-4.1 7.516-5.28 8.448-2.857 2.422-.932 2.174-58.137 8.571-25.838 2.919-28.695 3.354-30.248 4.783-1.118.993-1.553 4.596-.745 6.708.248.559 11.366 11.118 24.72 23.478 42.236 39.006 39.503 36.273 39.503 39.193 0 1.428-.869 6.583-1.863 11.552-1.056 4.969-3.416 17.392-5.342 27.64-1.925 10.249-4.161 21.988-4.969 26.087-4.285 21.863-4.348 22.485-2.111 24.845 2.111 2.236 4.534 1.987 10.931-1.242 5.963-3.044 6.522-3.354 18.261-10.249 4.286-2.484 9.876-5.714 12.422-7.143 2.547-1.428 7.267-4.223 10.435-6.149 3.168-1.925 5.901-3.478 6.087-3.478.124 0 2.05-1.118 4.224-2.485 2.174-1.366 4.161-2.484 4.41-2.484.248 0 2.484-1.242 4.969-2.795 5.9-3.665 10.993-5.528 13.913-4.969 1.242.248 4.223 1.429 6.584 2.733 6.211 3.292 45.341 25.838 57.515 33.106 10.373 6.211 13.416 7.391 16.957 6.459 2.36-.559 3.043-3.975 2.236-10.745-.373-3.044-.932-6.46-1.243-7.64-.497-1.988-2.546-12.981-7.515-40.559-2.298-13.106-2.298-13.354 2.857-15.279 7.143-2.671 10.497-5.031 9.193-6.336-.435-.435-4.41.062-12.671 1.553-15.342 2.795-18.51 3.23-34.721 4.72-18.447 1.74-35.466 2.112-58.199 1.305-17.764-.621-38.882-2.174-40.062-2.919-.931-.622-.497-2.547.932-3.789.745-.684 10.186-7.454 20.932-15.093 33.664-23.851 55.528-39.628 57.329-41.305 3.106-2.919 2.857-3.043-10.062-4.72-20.435-2.609-25.777-3.044-59.069-4.597-11.118-.496-21.18-1.118-22.36-1.304-12.174-2.05 49.876-7.64 76.087-6.832 17.205.497 37.454 1.925 49.379 3.478 11.118 1.491 11.801 1.615 11.801 2.857 0 .994-1.18 1.864-27.329 19.876-10.745 7.453-22.174 15.342-25.404 17.578-3.167 2.236-6.459 4.534-7.205 5.031-3.478 2.36-15.155 10.497-18.385 12.857-2.049 1.49-3.664 3.105-3.664 3.602 0 1.18 3.043 1.926 12.422 3.044 24.907 2.919 71.242 4.534 73.292 2.484.435-.435.373-1.801-.311-4.658-.496-2.174-.931-4.224-.931-4.534 0-.87 10.559-11.429 25.155-25.093 38.571-36.15 39.441-37.019 39.441-39.876 0-2.485-2.05-4.721-5.093-5.466-1.491-.373-10.373-1.367-19.752-2.298-9.379-.87-19.751-1.864-22.981-2.174-3.23-.373-10.062-1.056-15.217-1.615-19.69-1.988-25.715-2.733-27.143-3.416-2.733-1.242-5.28-6.336-24.1-48.696-13.416-30.31-14.596-32.733-16.459-34.41-1.553-1.428-3.975-1.987-5.652-1.304z"/>
</symbol>
<symbol id="icon-weibo" viewBox="0, 0, 300, 300"><path d="M196.802 39.964c-8.656 3.787-10.64 12.803-4.328 19.115 3.066 3.066 5.951 3.607 18.574 3.607 17.673 0 29.575 4.688 38.592 15.148 11 12.443 12.263 16.23 12.263 38.952 0 20.197 0 20.558 4.688 23.263 10.82 6.131 18.034-1.443 20.558-21.64 3.246-26.329-12.443-56.986-36.066-71.052-15.509-9.016-42.018-12.623-54.281-7.393zm-88.724 33.542c-20.198 7.213-39.674 21.099-60.592 43.46-49.592 52.658-46.346 102.791 8.295 129.48 56.805 27.771 133.267 18.574 174.924-21.099 31.198-29.575 27.411-66.724-8.115-79.347-6.312-2.164-8.296-3.787-7.394-5.771 3.246-7.934 4.328-17.131 2.525-22.541-5.591-17.132-25.968-21.099-56.264-10.82l-12.083 4.147 1.082-12.082c1.263-14.246-1.803-22.001-10.279-26.329-7.033-3.607-20.558-3.246-32.099.902zm50.133 69.789c26.869 7.394 43.28 23.624 43.28 42.919 0 21.46-19.116 40.756-50.133 51.035-16.591 5.41-47.428 6.492-62.576 2.344-28.673-8.115-44.903-23.984-44.903-44.362 0-11.181 4.869-20.919 15.509-30.837 9.918-9.377 17.492-13.886 32.099-18.755 22.001-7.393 45.625-8.295 66.724-2.344zm-56.806 17.492c-18.213 8.476-27.951 21.46-27.951 37.69 0 14.788 6.492 24.886 20.738 32.46 11 5.951 31.198 5.41 43.461-.901 15.689-8.296 25.968-23.624 25.968-38.592-.181-12.263-11.001-26.87-23.804-32.099-10.279-4.328-27.592-3.607-38.412 1.442zm13.165 33.903c1.262 1.262 2.164 4.328 2.164 7.033 0 9.017-15.148 16.411-21.28 10.279-3.426-3.426-2.524-11.902 1.443-15.869 3.967-3.968 14.246-4.869 17.673-1.443zm85.298-117.758c-8.296 8.296-2.705 18.214 10.459 18.214 11.361 0 16.41 5.771 16.41 18.755 0 8.115.722 10.459 3.968 12.623 9.738 6.853 17.673-.721 17.673-16.771 0-19.656-14.067-34.444-34.084-35.887-9.016-.721-11.18-.18-14.426 3.066z"/>
</symbol>
<symbol id="icon-qrcode" viewBox="0 0 24 24">
  <path fill-rule="evenodd" d="M2,13 L2,11 L22,11 L22,13 L2,13 Z M16,22 L16,20 L20,20 L20,16 L22,16 L22,20 C22,21.1045695 21.1859723,22 20.1818182,22 L16,22 Z M8,22 L3.81818182,22 C2.81402773,22 2,21.1045695 2,20 L2,16 L4,16 L4,20 L8,20 L8,22 Z M16,2 L20.1818182,2 C21.1859723,2 22,2.8954305 22,4 L22,8 L20,8 L20,4 L16,4 L16,2 Z M8,2 L8,4 L4,4 L4,8 L2,8 L2,4 C2,2.8954305 2.81402773,2 3.81818182,2 L8,2 Z"/>
</symbol>
<symbol id="icon-email" viewBox="0 0 488.901 488.901">
<path d="M462.4,60.05H26.6C11.9,60.05,0,71.95,0,86.65v315.6c0,14.7,11.9,26.6,26.6,26.6h435.7c14.7,0,26.6-11.9,26.6-26.6V86.65
	C489,72.05,477,60.05,462.4,60.05z M452.9,392.85H36V96.05h394.6l-183.6,157l-133.5-114.2c-7.6-6.5-18.9-5.6-25.4,2
	c-6.5,7.6-5.6,18.9,2,25.4l145.2,124.2c0.2,0.2,0.4,0.3,0.5,0.4c0.2,0.2,0.4,0.3,0.6,0.5c0.3,0.2,0.7,0.5,1.1,0.7
	c0.1,0.1,0.3,0.2,0.4,0.3c0.5,0.3,1,0.6,1.6,0.8c0.1,0.1,0.3,0.1,0.4,0.2c0.4,0.2,0.8,0.3,1.3,0.5c0.2,0.1,0.3,0.1,0.5,0.2
	c0.4,0.1,0.8,0.2,1.2,0.3c0.2,0,0.4,0.1,0.5,0.1c0.4,0.1,0.9,0.2,1.3,0.2c0.2,0,0.3,0,0.5,0.1c0.6,0.1,1.2,0.1,1.8,0.1
	c0.6,0,1.2,0,1.8-0.1c0.2,0,0.3,0,0.5-0.1c0.4-0.1,0.9-0.1,1.3-0.2c0.2,0,0.4-0.1,0.5-0.1c0.4-0.1,0.8-0.2,1.2-0.3
	c0.2-0.1,0.3-0.1,0.5-0.2c0.4-0.1,0.9-0.3,1.3-0.5c0.1-0.1,0.3-0.1,0.4-0.2c0.5-0.2,1.1-0.5,1.6-0.8c0.1-0.1,0.3-0.2,0.4-0.3
	c0.4-0.2,0.7-0.5,1.1-0.7c0.2-0.1,0.4-0.3,0.6-0.5c0.2-0.1,0.4-0.3,0.5-0.4l194.2-166.1V392.85z"/>
</symbol>
<symbol id="icon-arrow-right" viewBox="0 0 492.004 492.004">
<path d="M382.678,226.804L163.73,7.86C158.666,2.792,151.906,0,144.698,0s-13.968,2.792-19.032,7.86l-16.124,16.12    c-10.492,10.504-10.492,27.576,0,38.064L293.398,245.9l-184.06,184.06c-5.064,5.068-7.86,11.824-7.86,19.028    c0,7.212,2.796,13.968,7.86,19.04l16.124,16.116c5.068,5.068,11.824,7.86,19.032,7.86s13.968-2.792,19.032-7.86L382.678,265    c5.076-5.084,7.864-11.872,7.848-19.088C390.542,238.668,387.754,231.884,382.678,226.804z"/>
</symbol>
<symbol id="icon-arrow-left" viewBox="0 0 492 492">
<path d="M198.608,246.104L382.664,62.04c5.068-5.056,7.856-11.816,7.856-19.024c0-7.212-2.788-13.968-7.856-19.032l-16.128-16.12    C361.476,2.792,354.712,0,347.504,0s-13.964,2.792-19.028,7.864L109.328,227.008c-5.084,5.08-7.868,11.868-7.848,19.084    c-0.02,7.248,2.76,14.028,7.848,19.112l218.944,218.932c5.064,5.072,11.82,7.864,19.032,7.864c7.208,0,13.964-2.792,19.032-7.864    l16.124-16.12c10.492-10.492,10.492-27.572,0-38.06L198.608,246.104z"/>
</symbol>
<symbol id="icon-arrow-up" viewBox="0 0 492.002 492.002">
<path d="M484.136,328.473L264.988,109.329c-5.064-5.064-11.816-7.844-19.172-7.844c-7.208,0-13.964,2.78-19.02,7.844    L7.852,328.265C2.788,333.333,0,340.089,0,347.297c0,7.208,2.784,13.968,7.852,19.032l16.124,16.124    c5.064,5.064,11.824,7.86,19.032,7.86s13.964-2.796,19.032-7.86l183.852-183.852l184.056,184.064    c5.064,5.06,11.82,7.852,19.032,7.852c7.208,0,13.96-2.792,19.028-7.852l16.128-16.132    C494.624,356.041,494.624,338.965,484.136,328.473z"/>
</symbol>
<symbol id="icon-list" viewBox="0 0 24 24">
  <path fill-rule="evenodd" d="M22,17 L22,19 L8,19 L8,17 L22,17 Z M22,11 L22,13 L8,13 L8,11 L22,11 Z M22,5 L22,7 L8,7 L8,5 L22,5 Z M4,20 C2.8954305,20 2,19.1045695 2,18 C2,16.8954305 2.8954305,16 4,16 C5.1045695,16 6,16.8954305 6,18 C6,19.1045695 5.1045695,20 4,20 Z M4,14 C2.8954305,14 2,13.1045695 2,12 C2,10.8954305 2.8954305,10 4,10 C5.1045695,10 6,10.8954305 6,12 C6,13.1045695 5.1045695,14 4,14 Z M4,8 C2.8954305,8 2,7.1045695 2,6 C2,4.8954305 2.8954305,4 4,4 C5.1045695,4 6,4.8954305 6,6 C6,7.1045695 5.1045695,8 4,8 Z"/>
</symbol>
<symbol id="icon-arrow-dleft" viewBox="0 0 40 64">
    <path d="M31.562,63.967 C31.050,63.967 30.538,63.771 30.147,63.381 C30.147,63.381 0.862,34.096 0.862,34.096 C-0.312,32.922 -0.312,31.013 0.862,29.839 C0.862,29.839 30.147,0.553 30.147,0.553 C30.928,-0.229 32.194,-0.229 32.976,0.553 C33.757,1.334 33.757,2.600 32.976,3.381 C32.976,3.381 4.390,31.967 4.390,31.967 C4.390,31.967 32.976,60.553 32.976,60.553 C33.757,61.334 33.757,62.600 32.976,63.381 C32.585,63.771 32.073,63.967 31.562,63.967 Z" id="path-1" />
    <path d="M38.417,56.679 C38.034,56.679 37.650,56.532 37.357,56.239 C37.357,56.239 14.145,33.027 14.145,33.027 C13.864,32.746 13.706,32.364 13.706,31.967 C13.706,31.569 13.864,31.187 14.145,30.906 C14.145,30.906 37.357,7.695 37.357,7.695 C37.943,7.109 38.892,7.109 39.478,7.695 C40.064,8.281 40.064,9.230 39.478,9.816 C39.478,9.816 17.327,31.967 17.327,31.967 C17.327,31.967 39.478,54.118 39.478,54.118 C40.064,54.704 40.064,55.653 39.478,56.239 C39.185,56.532 38.801,56.679 38.417,56.679 Z" id="path-2" />
</symbol>
<symbol id="icon-arrow-dright" viewBox="0 0 41 64">
    <path d="M8.352,63.967 C7.840,63.967 7.329,63.771 6.938,63.381 C6.157,62.600 6.157,61.334 6.938,60.553 C6.938,60.553 35.523,31.967 35.523,31.967 C35.523,31.967 6.938,3.381 6.938,3.381 C6.157,2.600 6.157,1.334 6.938,0.553 C7.718,-0.229 8.985,-0.229 9.766,0.553 C9.766,0.553 39.052,29.839 39.052,29.839 C40.226,31.013 40.226,32.922 39.052,34.096 C39.052,34.096 9.766,63.381 9.766,63.381 C9.376,63.771 8.864,63.967 8.352,63.967 Z" id="path-1" />
    <path d="M1.496,56.679 C1.112,56.679 0.728,56.532 0.436,56.239 C-0.150,55.653 -0.150,54.704 0.436,54.118 C0.436,54.118 22.586,31.967 22.586,31.967 C22.586,31.967 0.436,9.816 0.436,9.816 C-0.150,9.230 -0.150,8.281 0.436,7.695 C1.021,7.109 1.971,7.109 2.557,7.695 C2.557,7.695 25.768,30.906 25.768,30.906 C26.049,31.187 26.207,31.569 26.207,31.967 C26.207,32.364 26.049,32.746 25.768,33.027 C25.768,33.027 2.557,56.239 2.557,56.239 C2.264,56.532 1.880,56.679 1.496,56.679 Z" id="path-2" />
</symbol>
<symbol id="icon-pic" viewBox="0 0 512 512.00099"><path d="m373.410156 0h-234.816406c-76.421875 0-138.59375 62.171875-138.59375 138.59375v234.8125c0 76.421875 62.171875 138.59375 138.59375 138.59375h234.816406c76.417969 0 138.589844-62.171875 138.589844-138.59375v-234.8125c0-76.421875-62.171875-138.59375-138.589844-138.59375zm108.574219 373.40625c0 59.871094-48.707031 108.578125-108.578125 108.578125h-234.8125c-59.871094 0-108.578125-48.707031-108.578125-108.578125v-1.316406l86.089844-79.25c2.4375-2.242188 6.257812-2.242188 8.695312-.003906l65.875 60.476562c7.640625 7.015625 17.941407 10.441406 28.269531 9.414062 10.324219-1.03125 19.742188-6.4375 25.847657-14.828124l116.25-159.847657c1.542969-2.117187 3.65625-2.558593 4.777343-2.632812 1.121094-.066407 3.273438.085937 5.078126 1.988281l111.082031 117.050781v68.949219zm0-112.550781-89.3125-94.109375c-7.472656-7.875-17.960937-11.984375-28.808594-11.277344-10.832031.707031-20.707031 6.148438-27.09375 14.929688l-116.253906 159.847656c-1.472656 2.023437-3.488281 2.507812-4.558594 2.613281-1.066406.105469-3.136719.035156-4.980469-1.660156l-65.875-60.472657c-13.839843-12.710937-35.503906-12.691406-49.324218.03125l-65.761719 60.535157v-192.699219c0-59.871094 48.707031-108.578125 108.578125-108.578125h234.816406c59.867188 0 108.574219 48.707031 108.574219 108.578125zm0 0"/><path d="m142.910156 86.734375c-29.082031 0-52.746094 23.664063-52.746094 52.75 0 29.082031 23.664063 52.746094 52.746094 52.746094 29.085938 0 52.746094-23.664063 52.746094-52.746094.003906-29.085937-23.660156-52.75-52.746094-52.75zm0 75.476563c-12.53125 0-22.730468-10.195313-22.730468-22.730469 0-12.53125 10.199218-22.730469 22.730468-22.730469 12.535156 0 22.730469 10.195312 22.730469 22.730469 0 12.535156-10.195313 22.730469-22.730469 22.730469zm0 0"/></symbol>
<symbol id="icon-attachment" viewBox="0 0 64 64">
<path d="M55.161,23.847L23.775,55.231c-1.697,1.698-3.958,2.633-6.366,2.633c-2.407,0-4.666-0.935-6.363-2.632
	c-1.697-1.698-2.631-3.959-2.631-6.366c0-2.408,0.935-4.669,2.631-6.366L45.72,7.826c2.179-2.18,5.994-2.179,8.176,0
	c2.253,2.254,2.254,5.922,0,8.176L22.767,47.133c-0.92,0.92-2.533,0.922-3.454-0.002c-0.46-0.459-0.713-1.071-0.715-1.724
	c0-0.651,0.255-1.267,0.715-1.727l22.439-22.439c0.396-0.395,0.614-0.92,0.616-1.479c0-0.561-0.22-1.086-0.615-1.483
	c-0.794-0.791-2.164-0.791-2.958,0.002l-22.44,22.441c-1.251,1.25-1.939,2.912-1.939,4.685s0.688,3.435,1.939,4.686
	c2.496,2.498,6.867,2.501,9.371,0l31.129-31.131c1.88-1.88,2.914-4.383,2.916-7.048c0-2.665-1.035-5.168-2.916-7.048
	c-1.88-1.879-4.382-2.914-7.047-2.914c-2.664,0-5.168,1.035-7.05,2.914L8.087,39.54c-2.488,2.487-3.858,5.799-3.858,9.326
	c0,3.526,1.37,6.838,3.858,9.325c2.486,2.487,5.795,3.857,9.323,3.857c3.526,0,6.839-1.37,9.327-3.857l31.38-31.384
	c0.397-0.394,0.615-0.919,0.617-1.479c0-0.559-0.22-1.084-0.615-1.479C57.329,23.057,55.955,23.057,55.161,23.847z"/>
</symbol>
<symbol id="icon-quote" viewBox="0 0 32 24">
<path d="m0 0v12h8c0 4.4-3.6 8-8 8v4c6.6 0 12-5.4 12-12v-12h-12z"/>
<path d="m20 0v12h8c0 4.4-3.6 8-8 8v4c6.6 0 12-5.4 12-12v-12h-12z"/>
</symbol>
<symbol id="icon-feed" viewBox="0 0 512 512">
<path d="M307,439c-17,0-31-14-30-31c3-73-14-129-52-164c-60-56-151-46-152-46c-16,2-31-10-33-26s10-31,26-33c5-1,120-12,200,62
	c51,48,75,117,71,209C336,426,323,439,307,439z M43,368c0-39,31-71,70-71s71,32,71,71c0,38-32,70-71,70C75,438,43,407,43,368z
	 M439,439c-17,0-31-14-30-31c5-119-24-208-86-266C225,51,74,68,73,68c-16,2-31-10-33-26S50,10,66,8c7-1,180-20,298,90
	c76,70,111,175,105,312C468,426,455,439,439,439z"/>
</symbol>
</defs>
</svg>
