<?xml version="1.0" encoding="utf-8"?>
<!-- Generator: Adobe Illustrator 19.1.0, SVG Export Plug-In . SVG Version: 6.00 Build 0)  -->
<!DOCTYPE svg PUBLIC "-//W3C//DTD SVG 1.1//EN" "http://www.w3.org/Graphics/SVG/1.1/DTD/svg11.dtd">
<svg version="1.1" id="レイヤー_1" xmlns="http://www.w3.org/2000/svg" xmlns:xlink="http://www.w3.org/1999/xlink" x="0px"
	 y="0px" viewBox="-386.8 262.6 61.5 61.5" style="enable-background:new -386.8 262.6 61.5 61.5;" xml:space="preserve">
<g>
	<path d="M-371.4,266.7c4.7-2.7,9.9-4.1,15.4-4.1c5.6,0,10.7,1.4,15.4,4.1c4.7,2.7,8.4,6.5,11.2,11.2c2.7,4.7,4.1,9.9,4.1,15.4
		c0,5.6-1.4,10.7-4.1,15.4c-2.8,4.7-6.5,8.4-11.2,11.2c-4.7,2.8-9.9,4.1-15.4,4.1c-5.6,0-10.7-1.4-15.4-4.1
		c-4.7-2.7-8.4-6.5-11.2-11.2c-2.8-4.7-4.1-9.9-4.1-15.4c0-5.6,1.4-10.7,4.1-15.4C-379.9,273.2-376.1,269.5-371.4,266.7z M-356,319
		c5.2,0,10-1.4,14.3-4.3c4.3-2.9,7.4-6.7,9.4-11.4l-0.2-0.4l0.6-2l-1.4-1l-1-0.3l-1-0.8l-2.2,0.8l-2.1,0.1l-1.6-1.2l-1.6-2.2l0-1.3
		l0-2.2l0.2-0.3l0.2-0.7l0.9-1.4l0.5-0.6l0.8-0.8l0.5-1l1.5-1.4l1.5,0l1.1-0.4l2.7-0.3l1,1.5l1,0.4c-0.3-1.6-0.8-3.1-1.4-4.6
		l-0.2-0.2l-0.6,0.3l-1.2,0.1l-0.9,0.9l-1,1.4l-2,0.4l-1-0.4l0.1-1.6l0.5-1l1.9,0.1l0.3-0.9l-1-1l0.8-0.4l1.6-0.9l0.6-0.4
		c-2-3.2-4.6-5.8-7.6-7.8l-0.2,0.1l0.8,0.7l-1.3-0.2l-0.2,0.4l0.8,0.1l-0.3,0.4l-2.4,0.4l-3.1,1.4l-2.4,1.2l-0.2-2.4l0.6-1.3
		l-0.5-0.8l-1.8-0.8l-0.9-0.7l1.3-0.3l2.8-0.7l1.2,0c-2.9-1-5.6-1.5-8.2-1.5c-5.7,0-10.9,1.8-15.5,5.4l1.5,0l1.9,0.5l1.3,0.3
		l1.4-0.3l1.9,0.2l1.2-0.3l0.2-0.7l1.1,0.1l0.4,0.9l1.9-0.2l-3,1l-1.4,0.8l-2.2,1.7l0.5,0.6l1.6,0.7l1.1,1.1l1.4-1.4l0.8-1.5
		l1.3-0.9l1.3,0.7l0.4,0.7l1.2-0.4l0.4,2.2l0.8,0.8l-3,0.8l-2.2,0.9l1.7-0.5l-0.2,0.7l0.6,0.6l0.4,0.3l-1.8,0.8l0.6-0.8l-1,0.2
		l-1.2,0.6l-0.6,0.7l-1.4,0.8l-1,0.8l-0.4,1l-1.3,1l-1,2.4l-0.3,1l-1-1.9h-1.8h-1.6l-2,1.6l-0.2,1.7l1.2,1.3l2.3-1.2l-0.6,1.7
		l-1.6,1l-1.6-0.4l-1.8-0.7l-2-3.2l-0.9-1.9l-0.2-0.6l0.3,2.6l0,0.7l-0.3-0.4l-0.2-0.7l-0.4-0.5l-0.2-0.9l0-1.4l-1-1.8
		c-0.8,2.6-1.2,5.1-1.2,7.3c0,3.9,0.8,7.5,2.5,11c1.7,3.4,3.9,6.3,6.8,8.7c2.9,2.4,6.1,4,9.8,5l-0.2-0.5l-0.4-5.5l-0.4-2.5l-2.7-2.6
		l-1.3-2.2l-0.4-1.1l0.3-0.6l0.6-2.1l0.3-2.5l-0.3-0.2l-0.6,0.4l-0.8-0.4l0.5-0.3l2.4-0.5l1.6-0.7l-0.1,1.1l0.6-1l0.8,0.3l2.7,0.9
		l2,1.4l1.4,0.8l0.4,0.2l-0.3,2l1.3-0.4l-0.3,0.6l1.9,0.4l1.9,0.2l1.2,0.8l0.1,2.3l-0.9,2.6l-1.1,2.7l-2,1.2l-1.6,3.6l-1.4-0.2
		l0.7,0.9l-0.1,0.7l-1.3,1c0.1,0,0.4,0,1,0.1S-356.3,319-356,319z M-377.9,280.7l-0.1-0.2c-0.1,0.2-0.3,0.5-0.5,1l0.2,0l0.7-0.2
		l1.2-0.1L-377.9,280.7z"/>
</g>
</svg>
