<?xml version="1.0" encoding="utf-8"?>
<!-- Generator: Adobe Illustrator 19.1.0, SVG Export Plug-In . SVG Version: 6.00 Build 0)  -->
<!DOCTYPE svg PUBLIC "-//W3C//DTD SVG 1.1//EN" "http://www.w3.org/Graphics/SVG/1.1/DTD/svg11.dtd">
<svg version="1.1" id="レイヤー_1" xmlns="http://www.w3.org/2000/svg" xmlns:xlink="http://www.w3.org/1999/xlink" x="0px"
	 y="0px" viewBox="-392 270.3 56 56" style="enable-background:new -392 270.3 56 56;" xml:space="preserve">
<style type="text/css">
	.st0{fill:#FFFFFF;stroke:#AAAAAA;stroke-width:0.9982;stroke-miterlimit:10;}
</style>
<g>
	<path class="st0" d="M-361.9,270.4v14.2h13.3v8.8h-13.3v14.4c0,3.2,0.2,5.3,0.5,6.2c0.3,0.9,1,1.6,1.9,2.2c1.2,0.8,2.7,1.1,4.2,1.1
		c2.8,0,5.7-0.9,8.5-2.8v8.8c-2.4,1.1-4.6,1.9-6.5,2.4s-4,0.7-6.3,0.7c-2.6,0-4.8-0.3-6.8-1c-2-0.6-3.6-1.6-5-2.8
		c-1.4-1.2-2.3-2.5-2.9-3.8c-0.5-1.3-0.8-3.3-0.8-5.9v-19.7h-6.2v-7.9c2.2-0.7,4.1-1.8,5.7-3.1c1.6-1.3,2.8-2.9,3.8-4.8
		c0.9-1.9,1.6-4.2,1.9-7.1L-361.9,270.4L-361.9,270.4z"/>
</g>
</svg>
