<?xml version="1.0" encoding="utf-8"?>
<!-- Generator: Adobe Illustrator 19.1.0, SVG Export Plug-In . SVG Version: 6.00 Build 0)  -->
<!DOCTYPE svg PUBLIC "-//W3C//DTD SVG 1.1//EN" "http://www.w3.org/Graphics/SVG/1.1/DTD/svg11.dtd">
<svg version="1.1" id="レイヤー_1" xmlns="http://www.w3.org/2000/svg" xmlns:xlink="http://www.w3.org/1999/xlink" x="0px"
	 y="0px" viewBox="-392 270.3 56 56" style="enable-background:new -392 270.3 56 56;" xml:space="preserve">
<style type="text/css">
	.st0{fill:#FFFFFF;stroke:#AAAAAA;stroke-width:0.9947;stroke-miterlimit:10;}
</style>
<g>
	<path class="st0" d="M-336.3,282.4h-8v-8h-4v8h-8v4h8v8h4v-8h8v31.8c0,2.2-0.8,4.1-2.3,5.7c-1.5,1.6-3.4,2.3-5.7,2.3H-360
		c0.1-0.6,0.2-1.1,0.2-1.6c0-1.5-0.1-2.8-0.3-3.9c-0.2-1.1-0.6-2.1-1.1-3.2c-0.5-1.1-1.3-2.1-2.2-3c-0.9-1-2.2-2-3.7-3.2
		c0,0-0.2-0.2-0.6-0.5c-0.4-0.3-0.7-0.5-0.8-0.6c-0.1-0.1-0.4-0.3-0.8-0.6s-0.7-0.5-0.8-0.7c-0.2-0.2-0.4-0.4-0.8-0.7
		c-0.3-0.3-0.6-0.5-0.7-0.8c-0.2-0.2-0.3-0.4-0.5-0.7c-0.2-0.3-0.3-0.5-0.4-0.7c-0.1-0.2-0.1-0.4-0.1-0.6c0-1.1,0.2-2,0.7-2.7
		c0.5-0.7,1.5-1.7,3.1-3c3.7-2.9,5.6-6.3,5.6-10c0-2.3-0.5-4.5-1.4-6.4c-0.9-1.9-2.3-3.4-4-4.4h5l4.2-4.4h-18.9
		c-2.6,0-5.2,0.5-7.5,1.5c-2.4,1-4.4,2.4-6.1,4.1v-2c0-2.2,0.8-4.1,2.3-5.7c1.5-1.6,3.4-2.3,5.7-2.3h39.8c2.2,0,4.1,0.8,5.7,2.3
		c1.6,1.5,2.3,3.4,2.3,5.7v4.2L-336.3,282.4L-336.3,282.4z M-378.1,312.5c-0.4,0-0.9,0-1.7,0c-0.8,0-1.3,0-1.7,0
		c-3.8,0-7.3,0.9-10.3,2.6v-15.1c2.6,2.6,6.1,4,10.2,4c0.5,0,1.2,0,1.8-0.1c-0.7,1.3-1,2.5-1,3.7c0,0.7,0.1,1.3,0.4,2
		c0.3,0.6,0.6,1.1,0.9,1.5C-379.3,311.4-378.8,311.9-378.1,312.5z M-366,323.4c0.1,0.7,0.2,1.4,0.2,2.1c0,0,0,0.3,0,0.8h-18.3
		c-1.8,0-3.4-0.5-4.8-1.6c-1.4-1.1-2.4-2.4-2.9-4.1c1.2-1.8,2.9-3.2,5.2-4.3c2.2-1.1,4.7-1.6,7.4-1.6c1.7,0,3.4,0.3,4.9,0.8
		c0.4,0.3,1,0.7,1.7,1.2c0.7,0.5,1.3,0.9,1.6,1.1c0.4,0.2,0.8,0.6,1.4,1s1,0.8,1.3,1.1c0.3,0.3,0.6,0.7,1,1.1s0.6,0.8,0.8,1.2
		C-366.2,322.5-366.1,322.9-366,323.4z M-378.1,301c-2.6-0.1-5-1.2-7-3.4c-2.1-2.2-3.4-4.9-3.8-8.2c-0.3-2.2-0.1-4.2,0.4-6
		c0.6-1.8,1.5-3.2,2.8-4.2c1.3-1,2.8-1.5,4.4-1.4c1.2,0,2.5,0.4,3.6,1.1c1.2,0.7,2.2,1.6,3.1,2.7c0.9,1.1,1.7,2.4,2.3,3.9
		c0.6,1.5,1.1,3.1,1.3,4.8c0.4,3.3,0,6-1.3,8C-373.6,300.1-375.6,301.1-378.1,301z"/>
</g>
</svg>
