<?xml version="1.0" encoding="utf-8"?>
<!-- Generator: Adobe Illustrator 19.1.0, SVG Export Plug-In . SVG Version: 6.00 Build 0)  -->
<!DOCTYPE svg PUBLIC "-//W3C//DTD SVG 1.1//EN" "http://www.w3.org/Graphics/SVG/1.1/DTD/svg11.dtd">
<svg version="1.1" id="レイヤー_1" xmlns="http://www.w3.org/2000/svg" xmlns:xlink="http://www.w3.org/1999/xlink" x="0px"
	 y="0px" viewBox="-392 270.3 56 56" style="enable-background:new -392 270.3 56 56;" xml:space="preserve">
<style type="text/css">
	.st0{fill:#FFFFFF;stroke:#AAAAAA;stroke-width:0.9982;stroke-miterlimit:10;}
</style>
<g>
	<path class="st0" d="M-344,270.4c2.2,0,4.1,0.8,5.7,2.3c1.6,1.5,2.3,3.4,2.3,5.7v39.9c0,2.2-0.8,4.1-2.3,5.7
		c-1.5,1.6-3.4,2.3-5.7,2.3h-8.8v-22.2h8.4l0.4-8.1h-8.8v-6v-0.4c0-1.2,0.2-2.2,0.7-2.7c0.4-0.6,1.4-0.9,2.7-0.9h5.2l0.2-7.6
		c-1.6-0.2-3.5-0.3-5.7-0.3c-2,0-3.7,0.3-5.2,0.8c-1.5,0.6-2.7,1.3-3.7,2.3c-0.9,1-1.6,2.1-2.1,3.3c-0.5,1.2-0.7,2.5-0.7,4v7.4h-7.9
		v8.1h7.9v22.2H-384c-2.2,0-4.1-0.8-5.7-2.3c-1.6-1.5-2.3-3.4-2.3-5.7v-39.9c0-2.2,0.8-4.1,2.3-5.7c1.5-1.6,3.4-2.3,5.7-2.3
		L-344,270.4L-344,270.4z"/>
</g>
</svg>
