<?xml version="1.0" encoding="utf-8"?>
<!-- Generator: Adobe Illustrator 19.1.0, SVG Export Plug-In . SVG Version: 6.00 Build 0)  -->
<!DOCTYPE svg PUBLIC "-//W3C//DTD SVG 1.1//EN" "http://www.w3.org/Graphics/SVG/1.1/DTD/svg11.dtd">
<svg version="1.1" id="レイヤー_1" xmlns="http://www.w3.org/2000/svg" xmlns:xlink="http://www.w3.org/1999/xlink" x="0px"
	 y="0px" viewBox="8 -8 48 48" style="enable-background:new 8 -8 48 48;" xml:space="preserve">
<g>
	<path d="M48.6,23.7L35.4,36.8v-9.2h-21V13.2l7.9-7.9v14.4h13.1v-9.2L48.6,23.7z"/>
</g>
<path d="M27.8,8.1v-8.6h-3.1v-1.2c0.4,0,0.8,0,1.2-0.1c0.4-0.1,0.7-0.2,1-0.3s0.6-0.4,0.8-0.7c0.2-0.3,0.4-0.7,0.4-1.1h1.1v12H27.8z
	"/>
<path d="M33.4,0.8c0-0.5,0.1-0.9,0.2-1.4s0.2-0.9,0.4-1.3c0.2-0.4,0.4-0.8,0.7-1.1c0.3-0.3,0.7-0.5,1.1-0.7s1-0.3,1.6-0.3
	s1.2,0.1,1.6,0.3s0.8,0.4,1.1,0.7c0.3,0.3,0.5,0.7,0.7,1.1c0.2,0.4,0.3,0.8,0.4,1.3c0.1,0.5,0.1,0.9,0.2,1.4c0.1,0.5,0,0.9,0,1.4
	s0,0.9,0,1.4S41.3,4.5,41.2,5S41,5.9,40.8,6.3c-0.2,0.4-0.4,0.8-0.7,1.1c-0.3,0.3-0.7,0.5-1.1,0.7c-0.4,0.2-1,0.3-1.6,0.3
	s-1.2-0.1-1.6-0.3c-0.4-0.2-0.8-0.4-1.1-0.7c-0.3-0.3-0.5-0.7-0.7-1.1c-0.2-0.4-0.3-0.8-0.4-1.3c-0.1-0.5-0.1-0.9-0.2-1.4
	s0-0.9,0-1.4S33.4,1.3,33.4,0.8z M34.9,3.7c0,0.6,0.1,1.1,0.3,1.6c0.2,0.5,0.4,0.9,0.7,1.2C36.2,6.8,36.7,7,37.3,7
	c0.6,0,1.1-0.2,1.4-0.5c0.3-0.3,0.6-0.8,0.7-1.2c0.1-0.4,0.2-1,0.3-1.6s0-1.1,0-1.5c0-0.3,0-0.6,0-1s0-0.7-0.1-1.1s-0.1-0.7-0.2-1
	c-0.1-0.3-0.2-0.6-0.4-0.9c-0.2-0.3-0.4-0.5-0.7-0.6c-0.3-0.1-0.6-0.2-1-0.2s-0.8,0.1-1,0.2C36-2.2,35.8-2,35.6-1.8
	s-0.3,0.5-0.4,0.9c-0.1,0.3-0.2,0.7-0.2,1c-0.1,0.4-0.1,0.7-0.1,1.1s0,0.7,0,1C34.9,2.6,34.9,3.1,34.9,3.7z"/>
<path d="M44.1,6.4c0.1,0.2,0.3,0.3,0.4,0.4C44.7,6.9,44.9,7,45.1,7s0.5,0.1,0.7,0.1s0.4,0,0.6,0S46.8,7,47,6.9s0.3-0.2,0.4-0.3
	c0.1-0.1,0.2-0.3,0.2-0.6s-0.1-0.5-0.4-0.7C47,5.1,46.7,5,46.3,4.9c-0.3-0.1-0.7-0.2-1.1-0.3c-0.4-0.1-0.8-0.2-1.1-0.3
	c-0.4-0.1-0.6-0.3-0.9-0.6c-0.2-0.3-0.4-0.6-0.4-1.1c0-0.4,0.1-0.7,0.2-0.9c0.2-0.3,0.4-0.5,0.6-0.6c0.3-0.2,0.5-0.3,0.9-0.4
	c0.3-0.1,0.6-0.1,1-0.1s0.8,0,1.1,0.1c0.3,0.1,0.7,0.2,0.9,0.4c0.3,0.2,0.5,0.4,0.6,0.7c0.2,0.3,0.3,0.7,0.3,1.1h-1.2
	c0-0.2-0.1-0.4-0.2-0.6c-0.1-0.2-0.2-0.3-0.4-0.4c-0.2-0.1-0.3-0.2-0.5-0.2c-0.2,0-0.4-0.1-0.6-0.1s-0.4,0-0.5,0
	c-0.2,0-0.3,0.1-0.5,0.1c-0.2,0-0.3,0.2-0.4,0.3c0.1,0.3,0.1,0.4,0.1,0.6s0.1,0.4,0.2,0.5c0.1,0.1,0.3,0.2,0.6,0.3
	c0.2,0.1,0.5,0.2,0.8,0.2c0.3,0,0.6,0.1,0.8,0.2c0.3,0.1,0.6,0.1,0.9,0.2c0.3,0.1,0.5,0.2,0.8,0.4c0.2,0.2,0.4,0.3,0.5,0.6
	C48.9,5.2,49,5.5,49,5.9S48.9,6.7,48.7,7c-0.2,0.3-0.4,0.5-0.7,0.7c-0.3,0.2-0.6,0.3-1,0.4s-0.7,0.1-1.1,0.1c-0.4,0-0.8,0-1.1-0.1
	c-0.4-0.1-0.7-0.2-1-0.4c-0.3-0.2-0.5-0.4-0.7-0.8c-0.2-0.3-0.3-0.7-0.3-1.1H44C44,6,44,6.2,44.1,6.4z"/>
</svg>
