<?xml version="1.0" encoding="utf-8"?>
<!-- Generator: Adobe Illustrator 19.1.0, SVG Export Plug-In . SVG Version: 6.00 Build 0)  -->
<!DOCTYPE svg PUBLIC "-//W3C//DTD SVG 1.1//EN" "http://www.w3.org/Graphics/SVG/1.1/DTD/svg11.dtd">
<svg version="1.1" id="レイヤー_1" xmlns="http://www.w3.org/2000/svg" xmlns:xlink="http://www.w3.org/1999/xlink" x="0px"
	 y="0px" viewBox="-392 270.3 56 56" style="enable-background:new -392 270.3 56 56;" xml:space="preserve">
<style type="text/css">
	.st0{fill:#FFFFFF;stroke:#AAAAAA;stroke-width:0.9982;stroke-miterlimit:10;}
</style>
<g>
	<path class="st0" d="M-336,281.2c-1.6,2.3-3.5,4.3-5.8,5.9c0,0.6,0.1,1.1,0.1,1.5c0,2.2-0.2,4.4-0.7,6.6c-0.5,2.2-1.2,4.4-2.1,6.5
		c-0.9,2.1-2.1,4.2-3.4,6.1s-2.9,3.7-4.8,5.4c-1.8,1.6-3.8,3.1-6,4.2c-2.2,1.2-4.6,2.1-7.3,2.8s-5.5,1-8.5,1
		c-6.4,0-12.2-1.7-17.6-5.2c0.9,0.1,1.8,0.2,2.8,0.2c1.8,0,3.5-0.2,5.2-0.6c1.7-0.4,3.3-1,4.8-1.7c1.5-0.7,2.9-1.6,4.2-2.6
		c-2.5-0.1-4.7-0.8-6.7-2.3c-2-1.5-3.3-3.4-4-5.7c0.8,0.1,1.5,0.2,2.2,0.2c1,0,2-0.1,3-0.4c-2.6-0.5-4.8-1.8-6.6-4
		c-1.8-2.1-2.6-4.5-2.6-7.3v-0.2c1.6,0.9,3.4,1.4,5.2,1.4c-1.6-1-2.8-2.4-3.7-4.1c-0.9-1.7-1.4-3.5-1.4-5.5c0-2.1,0.5-4,1.6-5.8
		c2.9,3.5,6.4,6.4,10.5,8.5c4.1,2.1,8.5,3.3,13.2,3.5c-0.2-0.9-0.3-1.7-0.3-2.6c0-1.5,0.3-3,0.9-4.4c0.6-1.4,1.4-2.6,2.5-3.7
		c1.1-1.1,2.3-1.8,3.7-2.5c1.4-0.6,2.9-0.9,4.5-0.9c1.6,0,3.2,0.3,4.6,1c1.4,0.6,2.7,1.5,3.8,2.7c2.6-0.5,5-1.4,7.3-2.8
		c-0.4,1.3-1.1,2.5-1.9,3.6c-0.8,1.1-1.9,2-3.1,2.7C-340.2,282.7-338,282.1-336,281.2z"/>
</g>
</svg>
