<?xml version="1.0" encoding="utf-8"?>
<!-- Generator: Adobe Illustrator 19.0.1, SVG Export Plug-In . SVG Version: 6.00 Build 0)  -->
<!DOCTYPE svg PUBLIC "-//W3C//DTD SVG 1.1//EN" "http://www.w3.org/Graphics/SVG/1.1/DTD/svg11.dtd">
<svg version="1.1" id="レイヤー_1" xmlns="http://www.w3.org/2000/svg" xmlns:xlink="http://www.w3.org/1999/xlink" x="0px"
	 y="0px" viewBox="-92 106.2 64 38.2" enable-background="new -92 106.2 64 38.2" xml:space="preserve">
<g>
	<path fill="#FFFFFF" d="M-73.5,109.7h0.6v23.1h4v3.2h-4v7.7h-3.3v-7.7H-92L-73.5,109.7z M-76.1,132.8V119l-9.8,13.8H-76.1z"/>
	<path fill="#FFFFFF" d="M-58,118.2h-3.4c0.6-2.7,1.8-4.8,3.5-6.3c1.7-1.5,3.9-2.2,6.4-2.2s4.7,0.8,6.6,2.5c1.9,1.7,2.8,3.7,2.8,6
		c0,2.9-1.4,5.1-4.2,6.8c1.9,0.8,3.4,2,4.5,3.6c1.1,1.6,1.6,3.3,1.6,5.2c0,2.9-1.1,5.4-3.2,7.5c-2.1,2.1-4.8,3.2-8.1,3.2
		c-2.9,0-5.3-0.8-7.2-2.5c-1.9-1.6-3.1-4.1-3.7-7.2h3.2c0.6,2.2,1.5,3.8,2.7,4.9c1.2,1.1,2.9,1.6,5.1,1.6c2.2,0,4.1-0.7,5.6-2.1
		c1.5-1.4,2.3-3.2,2.3-5.3c0-2.1-0.8-3.8-2.5-5.1c-1.7-1.3-4.1-1.9-7.2-2v-3c2.3,0,4.1-0.5,5.6-1.6c1.5-1.1,2.1-2.3,2.1-3.9
		c0-1.6-0.6-2.8-1.7-3.9c-1.2-1-2.5-1.5-4.2-1.5c-1.6,0-2.9,0.4-3.9,1.3C-56.4,115.1-57.3,116.4-58,118.2z"/>
	<path fill="#FFFFFF" d="M-30.2,115.4c0,0.3,0,0.5-0.2,0.8c-0.4,0.5-1.2,0.7-1.9,0.7c-1.8,0-2.7-1.6-2.7-3.2s1-3,2.8-3.2
		c0.5,0,1.2,0.1,1.6,0.5c0.4,0.4,0.4,1,0.4,1.5C-30.2,112.5-30.2,115.4-30.2,115.4z M-29.1,106.6c0-0.1,0-0.3-0.1-0.3
		s-0.3,0.1-0.3,0.2c-0.4,0.3-1,0.4-1.4,0.5c-0.1,0-0.2,0.1-0.2,0.2c-0.1,0.1,0.2,0.1,0.3,0.1c0.8,0,0.6,0.7,0.6,1.3v1.5
		c0,0.1,0.1,0.6-0.1,0.6c-0.1,0-0.2-0.1-0.3-0.1c-0.5-0.2-1.1-0.3-1.7-0.3c-1,0-2,0.5-2.7,1.1c-0.7,0.7-1.1,1.5-1.1,2.5
		c0,1.9,1.4,3.7,3.4,3.7c1.3,0,2.2-1.1,2.4-1.1s0.2,0.4,0.2,0.5s0,0.4,0.2,0.4c0.1,0,0.3-0.1,0.3-0.1l1.3-0.5
		c0.2-0.1,0.3-0.1,0.3-0.3v-0.2c0-0.1,0-0.2-0.1-0.2s-0.4,0.6-0.7,0.6s-0.2-0.6-0.2-0.8v-9.3H-29.1z"/>
</g>
</svg>
